<svg xmlns="http://www.w3.org/2000/svg" xmlns:xlink="http://www.w3.org/1999/xlink" viewBox="0 0 1094.4 656.59"><defs><style>.cls-1{fill:none;}.cls-2{isolation:isolate;}.cls-3{clip-path:url(#clip-path);}.cls-4{clip-path:url(#clip-path-2);}.cls-5{opacity:0.12;}.cls-6{clip-path:url(#clip-path-3);}.cls-7{fill:#1e0f00;}.cls-8{clip-path:url(#clip-path-4);}.cls-9{clip-path:url(#clip-path-5);}.cls-10{clip-path:url(#clip-path-6);}.cls-11{clip-path:url(#clip-path-7);}.cls-12{clip-path:url(#clip-path-8);}.cls-13{clip-path:url(#clip-path-9);}.cls-14{clip-path:url(#clip-path-10);}.cls-15{clip-path:url(#clip-path-11);}.cls-16{clip-path:url(#clip-path-12);}.cls-17{clip-path:url(#clip-path-13);}.cls-18{clip-path:url(#clip-path-14);}.cls-19{clip-path:url(#clip-path-15);}.cls-20{clip-path:url(#clip-path-16);}.cls-21{clip-path:url(#clip-path-17);}.cls-22{clip-path:url(#clip-path-18);}.cls-23{clip-path:url(#clip-path-19);}.cls-24{clip-path:url(#clip-path-20);}.cls-25{fill:#a1c8ad;}.cls-26{fill:#6bb3ab;}.cls-27{fill:#55949e;}.cls-28{fill:#fff7eb;}.cls-29{fill:#f0e1c9;}.cls-30{fill:#e0ccaa;}.cls-31{fill:#a3694b;}.cls-32{fill:#7a4f38;}.cls-33{fill:#c27d59;}.cls-34{fill:#e6946a;}.cls-35{fill:#413931;}.cls-36{fill:#376f92;}.cls-37{fill:#4b99c9;}.cls-38{fill:#4082ab;}.cls-39{mix-blend-mode:multiply;}.cls-40{clip-path:url(#clip-path-21);}.cls-41{fill:#f5c4b7;}.cls-42{clip-path:url(#clip-path-22);}.cls-43{clip-path:url(#clip-path-23);}.cls-44{clip-path:url(#clip-path-24);}.cls-45{fill:#d12a4b;}.cls-46{fill:#ff8762;}.cls-47{fill:#2b1710;}.cls-48{fill:#92e8e5;}.cls-49{fill:#ea2f54;}.cls-50{clip-path:url(#clip-path-25);}.cls-51{fill:#e0b3a8;}.cls-52{clip-path:url(#clip-path-26);}.cls-53{clip-path:url(#clip-path-27);}.cls-54{clip-path:url(#clip-path-28);}.cls-55{fill:#bfbfbf;}.cls-56{clip-path:url(#clip-path-29);}.cls-57{clip-path:url(#clip-path-30);}.cls-58{clip-path:url(#clip-path-31);}.cls-59{clip-path:url(#clip-path-32);}.cls-60{clip-path:url(#clip-path-33);}.cls-61{fill:#fff;}.cls-62{fill:#ea4263;}.cls-63{clip-path:url(#clip-path-34);}.cls-64{clip-path:url(#clip-path-35);}.cls-65{clip-path:url(#clip-path-36);}.cls-66{clip-path:url(#clip-path-37);}.cls-67{clip-path:url(#clip-path-38);}.cls-68{clip-path:url(#clip-path-39);}.cls-69{clip-path:url(#clip-path-40);}.cls-70{clip-path:url(#clip-path-41);}.cls-71{clip-path:url(#clip-path-42);}.cls-72{clip-path:url(#clip-path-43);}.cls-73{clip-path:url(#clip-path-44);}.cls-74{clip-path:url(#clip-path-45);}.cls-75{fill:#5d1710;}.cls-76{fill:#6e4436;}.cls-77{clip-path:url(#clip-path-46);}.cls-78{clip-path:url(#clip-path-47);}.cls-79{clip-path:url(#clip-path-48);}.cls-80{clip-path:url(#clip-path-49);}.cls-81{clip-path:url(#clip-path-50);}.cls-82{clip-path:url(#clip-path-51);}.cls-83{clip-path:url(#clip-path-52);}.cls-84{clip-path:url(#clip-path-53);}.cls-85{clip-path:url(#clip-path-54);}.cls-86{clip-path:url(#clip-path-55);}.cls-87{clip-path:url(#clip-path-56);}.cls-88{clip-path:url(#clip-path-57);}.cls-89{clip-path:url(#clip-path-58);}.cls-90{clip-path:url(#clip-path-59);}</style><clipPath id="clip-path"><rect class="cls-1" width="1094.4" height="656.59"/></clipPath><clipPath id="clip-path-2"><rect class="cls-1" width="1094.4" height="656.59"/></clipPath><clipPath id="clip-path-3"><rect class="cls-1" x="195.97" y="25.17" width="45.33" height="43.61"/></clipPath><clipPath id="clip-path-4"><rect class="cls-1" x="213.51" y="18.02" width="128.05" height="128.05"/></clipPath><clipPath id="clip-path-5"><rect class="cls-1" x="693.91" y="7.7" width="178.95" height="178.92"/></clipPath><clipPath id="clip-path-6"><rect class="cls-1" x="837.97" y="10.9" width="40.43" height="32.54"/></clipPath><clipPath id="clip-path-7"><rect class="cls-1" x="753.03" y="46.68" width="35.52" height="33.78"/></clipPath><clipPath id="clip-path-8"><rect class="cls-1" x="157.29" y="117.63" width="35.52" height="33.78"/></clipPath><clipPath id="clip-path-9"><rect class="cls-1" x="27.46" y="332.68" width="43.99" height="41.7"/></clipPath><clipPath id="clip-path-10"><rect class="cls-1" x="990.45" y="234.24" width="39.41" height="39.41"/></clipPath><clipPath id="clip-path-11"><rect class="cls-1" x="538.64" y="119.2" width="32.9" height="32.91"/></clipPath><clipPath id="clip-path-12"><rect class="cls-1" x="592.56" y="64.75" width="19.08" height="19.32"/></clipPath><clipPath id="clip-path-13"><rect class="cls-1" x="1051.01" y="559.36" width="28.59" height="19.83"/></clipPath><clipPath id="clip-path-14"><rect class="cls-1" x="479.66" y="83.23" width="28.58" height="19.83"/></clipPath><clipPath id="clip-path-15"><rect class="cls-1" x="98.13" y="571.92" width="28.58" height="19.83"/></clipPath><clipPath id="clip-path-16"><rect class="cls-1" y="226.86" width="35.52" height="33.78"/></clipPath><clipPath id="clip-path-17"><rect class="cls-1" x="411.22" width="35.52" height="33.78"/></clipPath><clipPath id="clip-path-18"><rect class="cls-1" x="319.98" y="255.63" width="18.34" height="19.83"/></clipPath><clipPath id="clip-path-19"><rect class="cls-1" x="291.98" y="73.89" width="18.34" height="19.83"/></clipPath><clipPath id="clip-path-20"><rect class="cls-1" x="577.35" y="245.24" width="18.34" height="19.83"/></clipPath><clipPath id="clip-path-21"><rect class="cls-1" x="604.16" y="413.58" width="132.16" height="78.28"/></clipPath><clipPath id="clip-path-22"><rect class="cls-1" x="386.12" y="362.66" width="240.48" height="223.27"/></clipPath><clipPath id="clip-path-23"><rect class="cls-1" x="326.69" y="301.09" width="97.83" height="122.12"/></clipPath><clipPath id="clip-path-24"><rect class="cls-1" x="450.4" y="241.11" width="121.66" height="151.88"/></clipPath><clipPath id="clip-path-25"><rect class="cls-1" x="413.64" y="301.19" width="5.46" height="4.06"/></clipPath><clipPath id="clip-path-26"><rect class="cls-1" x="435.81" y="303.16" width="4.09" height="1.92"/></clipPath><clipPath id="clip-path-27"><rect class="cls-1" x="420.22" y="305.31" width="14.57" height="4.63"/></clipPath><clipPath id="clip-path-28"><rect class="cls-1" x="417.66" y="315.58" width="22.76" height="9.75"/></clipPath><clipPath id="clip-path-29"><rect class="cls-1" x="408.31" y="319.31" width="7.72" height="12.94"/></clipPath><clipPath id="clip-path-30"><rect class="cls-1" x="411.08" y="343.28" width="2.7" height="38.34"/></clipPath><clipPath id="clip-path-31"><rect class="cls-1" x="449.99" y="325.02" width="3.05" height="13.67"/></clipPath><clipPath id="clip-path-32"><rect class="cls-1" x="449.86" y="370.88" width="42.42" height="38.75"/></clipPath><clipPath id="clip-path-33"><rect class="cls-1" x="465.54" y="399.29" width="3.64" height="6.04"/></clipPath><clipPath id="clip-path-34"><rect class="cls-1" x="212.99" y="471" width="9.59" height="7.01"/></clipPath><clipPath id="clip-path-35"><rect class="cls-1" x="209.77" y="468.03" width="4.68" height="116.81"/></clipPath><clipPath id="clip-path-36"><rect class="cls-1" x="207.31" y="585.7" width="22.1" height="1.21"/></clipPath><clipPath id="clip-path-37"><rect class="cls-1" x="248.85" y="581.91" width="21.85" height="3.64"/></clipPath><clipPath id="clip-path-38"><rect class="cls-1" x="236.73" y="467.25" width="6.75" height="61.59"/></clipPath><clipPath id="clip-path-39"><rect class="cls-1" x="215.55" y="401.37" width="9.46" height="15.51"/></clipPath><clipPath id="clip-path-40"><rect class="cls-1" x="217.21" y="431.24" width="4.57" height="38.39"/></clipPath><clipPath id="clip-path-41"><rect class="cls-1" x="254.44" y="409.31" width="2.59" height="18.47"/></clipPath><clipPath id="clip-path-42"><rect class="cls-1" x="311.05" y="415.03" width="3.64" height="8.28"/></clipPath><clipPath id="clip-path-43"><rect class="cls-1" x="225.53" y="386.24" width="12.2" height="8"/></clipPath><clipPath id="clip-path-44"><rect class="cls-1" x="220.41" y="377.91" width="3.49" height="5.05"/></clipPath><clipPath id="clip-path-45"><rect class="cls-1" x="238.8" y="388.72" width="5.48" height="1.19"/></clipPath><clipPath id="clip-path-46"><rect class="cls-1" x="962.77" y="302.86" width="6.79" height="6.32"/></clipPath><clipPath id="clip-path-47"><rect class="cls-1" x="950.24" y="311.74" width="11.9" height="8.77"/></clipPath><clipPath id="clip-path-48"><rect class="cls-1" x="943.21" y="314.75" width="3.46" height="1.1"/></clipPath><clipPath id="clip-path-49"><rect class="cls-1" x="948.35" y="336.59" width="21.02" height="4.68"/></clipPath><clipPath id="clip-path-50"><rect class="cls-1" x="951.16" y="328.66" width="16.59" height="3.06"/></clipPath><clipPath id="clip-path-51"><rect class="cls-1" x="929.59" y="350.08" width="15.82" height="31.08"/></clipPath><clipPath id="clip-path-52"><rect class="cls-1" x="924.53" y="384.6" width="5.97" height="23.41"/></clipPath><clipPath id="clip-path-53"><rect class="cls-1" x="932.58" y="381.36" width="30.91" height="25.71"/></clipPath><clipPath id="clip-path-54"><rect class="cls-1" x="849.81" y="416.82" width="82.48" height="88.36"/></clipPath><clipPath id="clip-path-55"><rect class="cls-1" x="860.67" y="420.6" width="103.64" height="128.19"/></clipPath><clipPath id="clip-path-56"><rect class="cls-1" x="851.09" y="550.13" width="14.71" height="2.95"/></clipPath><clipPath id="clip-path-57"><rect class="cls-1" x="872.74" y="463.87" width="5.16" height="5.39"/></clipPath><clipPath id="clip-path-58"><rect class="cls-1" x="949.24" y="422.06" width="12.84" height="13.35"/></clipPath><clipPath id="clip-path-59"><rect class="cls-1" x="942.22" y="308.35" width="9.63" height="5.66"/></clipPath></defs><title>img-2</title><g class="cls-2"><g id="Слой_1" data-name="Слой 1"><g class="cls-3"><g class="cls-4"><g class="cls-5"><g class="cls-6"><path class="cls-7" d="M233.48,68.78H196v-23h37.5Zm-36.26-1.24h35V47h-35Z"/><path class="cls-7" d="M241.3,63.69,232.23,62V52.57l9.07-1.7ZM233.47,61l6.58,1.23V52.37l-6.58,1.23Z"/><path class="cls-7" d="M223.69,46.26a10.54,10.54,0,1,1,10.54-10.54,10.56,10.56,0,0,1-10.54,10.54m0-19.85a9.3,9.3,0,1,0,9.3,9.3,9.31,9.31,0,0,0-9.3-9.3"/><path class="cls-7" d="M204.61,46.07a6.54,6.54,0,1,1,6.54-6.54,6.55,6.55,0,0,1-6.54,6.54m0-11.83a5.3,5.3,0,1,0,5.3,5.3,5.3,5.3,0,0,0-5.3-5.3"/></g></g><g class="cls-5"><g class="cls-8"><path class="cls-7" d="M313.26,28.92l1.31.9a.69.69,0,0,1,.16,1,.71.71,0,0,1-1,.16,64.12,64.12,0,0,0-7-4.3.69.69,0,0,1,.65-1.22,65.18,65.18,0,0,1,5.83,3.49M321,35l.08.07a64,64,0,0,1,5.76,6.09.69.69,0,1,1-1.06.88,62.42,62.42,0,0,0-5.64-6A.69.69,0,0,1,321,35m-21.07-13a.69.69,0,0,1-.63,1.22A62.15,62.15,0,0,0,291.44,21a.69.69,0,1,1,.31-1.35,63.4,63.4,0,0,1,8,2.39l.15.07m31.63,25.7a.7.7,0,0,1,.2.21,64.15,64.15,0,0,1,4,7.38.69.69,0,1,1-1.26.58,62.71,62.71,0,0,0-3.89-7.22.69.69,0,0,1,1-.94M283.79,18.4a.69.69,0,0,1-.45,1.26,63,63,0,0,0-8.2-.22.69.69,0,1,1-.05-1.38,64.37,64.37,0,0,1,8.38.22.69.69,0,0,1,.32.11m54.65,44.42a.69.69,0,0,1,.27.37,64.79,64.79,0,0,1,1.94,8.16.69.69,0,0,1-1.36.23,62.91,62.91,0,0,0-1.89-8,.69.69,0,0,1,1-.78M267.26,19A.69.69,0,0,1,267,20.3a63.11,63.11,0,0,0-8,1.91.69.69,0,0,1-.41-1.32,64.71,64.71,0,0,1,8.15-1.95.69.69,0,0,1,.5.11M341.2,79.14a.69.69,0,0,1,.31.55,64.47,64.47,0,0,1-.23,8.38.69.69,0,1,1-1.38-.13,63.1,63.1,0,0,0,.23-8.19.69.69,0,0,1,1.08-.6M251.44,23.93a.68.68,0,0,1,.24.28.69.69,0,0,1-.34.92,62.86,62.86,0,0,0-7.21,3.9.69.69,0,0,1-.74-1.17,63.81,63.81,0,0,1,7.37-4,.69.69,0,0,1,.67.05M339.66,95.6a.69.69,0,0,1,.29.73,63.71,63.71,0,0,1-2.4,8,.69.69,0,1,1-1.3-.48A62.63,62.63,0,0,0,338.6,96a.69.69,0,0,1,.83-.52.66.66,0,0,1,.23.1m-5.78,15.5a.69.69,0,0,1,.22.9,65.15,65.15,0,0,1-3.46,5.76q-.46.69-.95,1.37a.68.68,0,0,1-1,.16.69.69,0,0,1-.16-1c.31-.44.62-.89.92-1.34a63.89,63.89,0,0,0,3.38-5.64.69.69,0,0,1,.93-.29l.06,0m-9.59,13.49.09.07a.69.69,0,0,1,0,1,63.71,63.71,0,0,1-6.09,5.76.69.69,0,0,1-.88-1.07,62.53,62.53,0,0,0,6-5.63.69.69,0,0,1,.89-.1m-12.75,10.55a.69.69,0,0,1,0,1.16,64,64,0,0,1-7.38,4,.69.69,0,0,1-.57-1.26,62.63,62.63,0,0,0,7.23-3.89.7.7,0,0,1,.75,0M214.87,75.35a.69.69,0,0,1,.3.64,62.82,62.82,0,0,0-.25,8.2.69.69,0,1,1-1.38,0,64,64,0,0,1,.25-8.38.69.69,0,0,1,1.07-.51M296.49,142a.69.69,0,0,1-.18,1.23,64.73,64.73,0,0,1-8.16,1.93.69.69,0,1,1-.23-1.36,63.31,63.31,0,0,0,8-1.89.69.69,0,0,1,.59.09m-81-50.12a.68.68,0,0,1,.3.46,63.35,63.35,0,0,0,1.88,8,.69.69,0,1,1-1.32.4,64.66,64.66,0,0,1-1.92-8.16.69.69,0,0,1,1.07-.69m64.72,52.86a.69.69,0,0,1-.36,1.27,64.3,64.3,0,0,1-8.37-.24.69.69,0,1,1,.13-1.38,62.75,62.75,0,0,0,8.19.24.68.68,0,0,1,.41.12m-59.89-37a.68.68,0,0,1,.24.29,62.64,62.64,0,0,0,3.88,7.23.69.69,0,0,1-1.17.73,63.85,63.85,0,0,1-4-7.39.69.69,0,0,1,1-.86m43.43,35.47a.69.69,0,0,1-.54,1.25,63.77,63.77,0,0,1-8-2.41.69.69,0,0,1,.48-1.3,62.33,62.33,0,0,0,7.85,2.36.69.69,0,0,1,.23.1M229,121.76a.66.66,0,0,1,.15.13,62.46,62.46,0,0,0,5.63,6,.69.69,0,1,1-.94,1,63.75,63.75,0,0,1-5.75-6.1.69.69,0,0,1,.92-1m19.17,15.64a.69.69,0,0,1-.71,1.18,64.82,64.82,0,0,1-7.12-4.41.69.69,0,1,1,.8-1.13,64.09,64.09,0,0,0,7,4.32l.06,0"/></g></g><g class="cls-5"><g class="cls-9"><path class="cls-7" d="M860.15,53.36a.69.69,0,0,1,1.22,0c.68,1.21,1.34,2.45,2,3.69a.69.69,0,0,1-1.24.62c-.61-1.22-1.26-2.45-1.93-3.64a.69.69,0,0,1,0-.65"/><path class="cls-7" d="M865.16,63.84a.69.69,0,0,1,1.26.05c.93,2.32,1.77,4.71,2.5,7.1a.69.69,0,1,1-1.32.4c-.72-2.35-1.55-4.7-2.47-7a.69.69,0,0,1,0-.57m4.37,14.27a.69.69,0,0,1,1.29.17c.53,2.44,1,4.94,1.28,7.41a.69.69,0,1,1-1.37.18c-.32-2.44-.74-4.89-1.27-7.3a.69.69,0,0,1,.06-.46m1.93,14.8a.69.69,0,0,1,1.31.28c.11,2.5.12,5,0,7.53a.69.69,0,1,1-1.38-.05c.1-2.46.09-4.95,0-7.41a.68.68,0,0,1,.07-.34m-.58,14.91a.69.69,0,0,1,1.3.4c-.31,2.48-.73,5-1.24,7.42a.69.69,0,1,1-1.35-.29c.51-2.4.92-4.86,1.22-7.31a.71.71,0,0,1,.07-.23"/><path class="cls-7" d="M867.79,122.43a.69.69,0,0,1,1.28.51c-.4,1.33-.84,2.66-1.3,4a.69.69,0,0,1-1.3-.46c.46-1.29.89-2.61,1.28-3.91l0-.11"/><path class="cls-7" d="M848.15,156.94a.65.65,0,0,1,.11-.16c.93-1,1.84-2.05,2.71-3.1a.69.69,0,1,1,1.06.89c-.89,1.06-1.81,2.12-2.76,3.15a.69.69,0,0,1-1.13-.78"/><path class="cls-7" d="M703,58a.69.69,0,0,1,1.24.61c-1.22,2.5-2.33,5.09-3.31,7.69a.69.69,0,0,1-1.29-.49c1-2.64,2.12-5.26,3.36-7.81h0m4-7.4,0,0c1.47-2.42,3.07-4.79,4.76-7a.69.69,0,1,1,1.11.83c-1.66,2.22-3.24,4.55-4.68,6.93a.69.69,0,0,1-1.21-.67M697,73.8a.69.69,0,0,1,1.29.49c-.73,2.68-1.33,5.43-1.79,8.17a.69.69,0,1,1-1.36-.23c.47-2.78,1.09-5.57,1.82-8.3a.64.64,0,0,1,.05-.13m20-36.67a.67.67,0,0,1,.11-.15c1.9-2.09,3.92-4.11,6-6a.69.69,0,0,1,.93,1c-2.06,1.87-4,3.86-5.92,5.92a.69.69,0,0,1-1.13-.78M694.22,90.41a.69.69,0,0,1,1.31.36c-.2,2.77-.27,5.58-.21,8.37a.69.69,0,1,1-1.38,0c-.06-2.83,0-5.68.21-8.5a.69.69,0,0,1,.07-.26M729.55,25.8a.67.67,0,0,1,.2-.24c2.26-1.69,4.63-3.29,7-4.76a.69.69,0,1,1,.72,1.18c-2.38,1.45-4.71,3-6.93,4.69a.69.69,0,0,1-1-.87m-34.95,81.46a.69.69,0,0,1,1.3.23c.33,2.76.79,5.54,1.38,8.26a.69.69,0,0,1-1.35.29c-.6-2.76-1.07-5.58-1.4-8.39a.68.68,0,0,1,.07-.39M743.94,17a.69.69,0,0,1,.32-.31c2.54-1.23,5.17-2.36,7.81-3.35a.69.69,0,0,1,.48,1.3c-2.61,1-5.2,2.08-7.69,3.3a.69.69,0,0,1-.92-.93M698.17,123.73a.69.69,0,0,1,1.28.1c.84,2.65,1.82,5.29,2.91,7.85a.69.69,0,1,1-1.27.54c-1.1-2.6-2.1-5.28-3-8a.69.69,0,0,1,0-.52M759.73,11.14a.69.69,0,0,1,.44-.36c2.73-.73,5.52-1.35,8.3-1.82a.69.69,0,0,1,.23,1.36c-2.74.46-5.49,1.07-8.18,1.79a.69.69,0,0,1-.8-1m-55,128.09a.7.7,0,0,1,.29-.3.69.69,0,0,1,.94.28c1.32,2.44,2.78,4.85,4.33,7.16a.69.69,0,1,1-1.15.77c-1.58-2.34-3.06-4.79-4.4-7.27a.7.7,0,0,1,0-.64M776.34,8.32a.69.69,0,0,1,.57-.38c2.82-.21,5.67-.28,8.5-.22a.69.69,0,0,1,0,1.38c-2.78-.06-5.59,0-8.37.22a.69.69,0,0,1-.67-1m-62.18,144.9a.67.67,0,0,1,.18-.22.69.69,0,0,1,1,.1c1.76,2.15,3.65,4.24,5.61,6.21a.69.69,0,0,1-1,1c-2-2-3.91-4.12-5.7-6.31a.69.69,0,0,1-.08-.75m79-144.53a.69.69,0,0,1,.7-.37c2.8.33,5.62.8,8.38,1.4a.69.69,0,1,1-.29,1.35c-2.72-.59-5.49-1.05-8.25-1.38a.69.69,0,0,1-.61-.77.68.68,0,0,1,.07-.23M726,165.17a.64.64,0,0,1,.09-.13.69.69,0,0,1,1-.09c2.14,1.77,4.39,3.46,6.69,5a.69.69,0,1,1-.78,1.14c-2.34-1.59-4.62-3.31-6.8-5.11a.69.69,0,0,1-.18-.84M809.66,12.25a.69.69,0,0,1,.83-.35c2.68.86,5.36,1.85,8,3a.69.69,0,0,1-.54,1.27c-2.56-1.09-5.2-2.08-7.84-2.92a.69.69,0,0,1-.45-.87l0-.1M740,174.64v0a.69.69,0,0,1,.94-.27c.93.51,1.88,1,2.83,1.49,1.54.77,3.11,1.51,4.68,2.19a.69.69,0,0,1-.55,1.27c-1.6-.69-3.2-1.44-4.76-2.23-1-.49-1.93-1-2.87-1.51a.69.69,0,0,1-.28-.92m15.46,6.69a.69.69,0,0,1,.83-.35c2.65.86,5.36,1.6,8.07,2.2a.69.69,0,1,1-.3,1.35c-2.76-.61-5.52-1.36-8.2-2.24a.69.69,0,0,1-.44-.87l0-.1M771.89,185a.69.69,0,0,1,.7-.38c2.76.34,5.56.55,8.34.63a.69.69,0,0,1,0,1.38c-2.82-.08-5.67-.29-8.47-.64a.69.69,0,0,1-.6-.77.71.71,0,0,1,.07-.23m16.84.46a.7.7,0,0,1,.57-.38c2.77-.19,5.57-.51,8.31-1a.69.69,0,1,1,.22,1.36c-2.79.46-5.63.79-8.44,1a.69.69,0,0,1-.66-1m16.63-2.74a.69.69,0,0,1,.44-.36c2.69-.71,5.37-1.55,8-2.51a.69.69,0,0,1,.48,1.3c-2.65,1-5.38,1.83-8.11,2.55a.69.69,0,0,1-.79-1m15.82-5.81a.69.69,0,0,1,.32-.31c2.51-1.2,5-2.54,7.37-4a.69.69,0,0,1,.71,1.18c-2.42,1.45-4.94,2.81-7.49,4a.69.69,0,0,1-.92-.94m14.44-8.69a.69.69,0,0,1,.21-.24c2.24-1.65,4.42-3.43,6.49-5.29a.69.69,0,0,1,.92,1c-2.1,1.89-4.32,3.7-6.59,5.38a.69.69,0,0,1-1-.87"/><path class="cls-7" d="M825.26,18.93v0a.69.69,0,0,1,.94-.28c1.22.66,2.44,1.37,3.63,2.08a.69.69,0,1,1-.72,1.18c-1.17-.71-2.37-1.4-3.57-2.05a.69.69,0,0,1-.29-.92"/><path class="cls-7" d="M860.15,53.36a.69.69,0,0,1,1.22,0c.68,1.21,1.34,2.45,2,3.69a.69.69,0,0,1-1.24.62c-.61-1.22-1.26-2.45-1.93-3.64a.69.69,0,0,1,0-.65"/><path class="cls-7" d="M865.16,63.84a.69.69,0,0,1,1.26.05c.93,2.32,1.77,4.71,2.5,7.1a.69.69,0,1,1-1.32.4c-.72-2.35-1.55-4.7-2.47-7a.69.69,0,0,1,0-.57m4.37,14.27a.69.69,0,0,1,1.29.17c.53,2.44,1,4.94,1.28,7.41a.69.69,0,1,1-1.37.18c-.32-2.44-.74-4.89-1.27-7.3a.69.69,0,0,1,.06-.46m1.93,14.8a.69.69,0,0,1,1.31.28c.11,2.5.12,5,0,7.53a.69.69,0,1,1-1.38-.05c.1-2.46.09-4.95,0-7.41a.68.68,0,0,1,.07-.34m-.58,14.91a.69.69,0,0,1,1.3.4c-.31,2.48-.73,5-1.24,7.42a.69.69,0,1,1-1.35-.29c.51-2.4.92-4.86,1.22-7.31a.71.71,0,0,1,.07-.23"/><path class="cls-7" d="M867.79,122.43a.69.69,0,0,1,1.28.51c-.4,1.33-.84,2.66-1.3,4a.69.69,0,0,1-1.3-.46c.46-1.29.89-2.61,1.28-3.91l0-.11"/></g></g><g class="cls-5"><g class="cls-10"><path class="cls-7" d="M852.9,38.48V22.23l15,7.52Zm1.24-14.25V36.33l11.18-6.5Z"/><path class="cls-7" d="M878.4,43.44H838V10.9h15.16L856.06,18H878.4ZM839.21,42.2h37.95V19.27H855.23l-2.93-7.13H839.21Z"/></g></g><g class="cls-5"><g class="cls-11"><path class="cls-7" d="M781.76,80.46l-11-8-11,8L764,67.56l-11-8H766.6l4.19-12.9L775,59.58h13.57l-11,8Zm-11-9.68,8.34,6.06L775.94,67,784.29,61H774l-3.19-9.81L767.6,61H757.29L765.63,67l-3.19,9.81Z"/></g></g><g class="cls-5"><g class="cls-12"><path class="cls-7" d="M186,151.41l-11-8-11,8,4.19-12.9-11-8h13.57l4.19-12.9,4.19,12.9H192.8l-11,8Zm-11-9.68,8.34,6.06L180.2,138l8.35-6.06H178.23L175,122.11l-3.19,9.81H161.54l8.35,6.06-3.19,9.81Z"/></g></g><g class="cls-5"><g class="cls-13"><path class="cls-7" d="M71.45,374.39h-44v-41.7h44ZM28.7,373.14H70.21V333.92H28.7Z"/><path class="cls-7" d="M71.45,365.61h-44V341.46h44ZM28.7,364.36H70.21V342.7H28.7Z"/><path class="cls-7" d="M37.15,340.79h-7.1v-6.11h7.1Zm-5.85-1.24h4.61v-3.62H31.3Z"/><path class="cls-7" d="M47.69,340.79H40.6v-6.11h7.1Zm-5.85-1.24h4.61v-3.62H41.84Z"/><path class="cls-7" d="M58.24,340.79h-7.1v-6.11h7.1Zm-5.85-1.24H57v-3.62H52.38Z"/><path class="cls-7" d="M68.78,340.79h-7.1v-6.11h7.1Zm-5.85-1.24h4.61v-3.62H62.92Z"/><path class="cls-7" d="M37.15,372.5h-7.1v-6.11h7.1Zm-5.85-1.24h4.61v-3.62H31.3Z"/><path class="cls-7" d="M47.69,372.5H40.6v-6.11h7.1Zm-5.85-1.24h4.61v-3.62H41.84Z"/><path class="cls-7" d="M58.24,372.5h-7.1v-6.11h7.1Zm-5.85-1.24H57v-3.62H52.38Z"/><path class="cls-7" d="M68.78,372.5h-7.1v-6.11h7.1Zm-5.85-1.24h4.61v-3.62H62.92Z"/></g></g><g class="cls-5"><g class="cls-14"><path class="cls-7" d="M1010.15,273.65a19.71,19.71,0,1,1,19.71-19.71,19.73,19.73,0,0,1-19.71,19.71m0-38.17a18.46,18.46,0,1,0,18.46,18.46,18.49,18.49,0,0,0-18.46-18.46"/><path class="cls-7" d="M1004.25,263.9V244.07l18.34,9.17Zm1.24-17.82v15.67l14.49-8.42Z"/></g></g><g class="cls-5"><g class="cls-15"><path class="cls-7" d="M555.09,152.1a16.45,16.45,0,1,1,16.45-16.45,16.47,16.47,0,0,1-16.45,16.45m0-31.16a14.71,14.71,0,1,0,14.71,14.71,14.72,14.72,0,0,0-14.71-14.71"/><path class="cls-7" d="M555.09,138.54a2.89,2.89,0,1,1,2.89-2.89,2.89,2.89,0,0,1-2.89,2.89m0-4a1.14,1.14,0,1,0,1.14,1.14,1.14,1.14,0,0,0-1.14-1.14"/><path class="cls-7" d="M555.09,131.33a4.6,4.6,0,1,1,4.6-4.6,4.61,4.61,0,0,1-4.6,4.6m0-7.46a2.86,2.86,0,1,0,2.86,2.86,2.86,2.86,0,0,0-2.86-2.86"/><path class="cls-7" d="M564,140.25a4.6,4.6,0,1,1,4.6-4.6,4.61,4.61,0,0,1-4.6,4.6m0-7.46a2.86,2.86,0,1,0,2.86,2.86,2.86,2.86,0,0,0-2.86-2.86"/><path class="cls-7" d="M546.17,140.25a4.6,4.6,0,1,1,4.6-4.6,4.61,4.61,0,0,1-4.6,4.6m0-7.46a2.86,2.86,0,1,0,2.86,2.86,2.86,2.86,0,0,0-2.86-2.86"/><path class="cls-7" d="M555.09,149.18a4.6,4.6,0,1,1,4.6-4.6,4.61,4.61,0,0,1-4.6,4.6m0-7.46a2.86,2.86,0,1,0,2.86,2.86,2.86,2.86,0,0,0-2.86-2.86"/></g></g><g class="cls-5"><g class="cls-16"><path class="cls-7" d="M597.57,78.75h-5V70.07h5Zm-3.77-1.24h2.53v-6.2H593.8Z"/><path class="cls-7" d="M606.26,84.07l-9.92-5.58V70.33l9.92-5.57Zm-8.68-6.3L605,81.95V66.87l-7.44,4.18Z"/><path class="cls-7" d="M608.53,77.51V76.27a1.86,1.86,0,0,0,0-3.72V71.31a3.1,3.1,0,1,1,0,6.2"/></g></g><g class="cls-5"><g class="cls-17"><path class="cls-7" d="M1051,579.19V559.36l18.34,9.17Zm1.24-17.82V577l14.49-8.42Z"/><polygon class="cls-7" points="1061.26 579.19 1061.26 573.07 1062.5 573.07 1062.5 577.03 1076.98 568.61 1062.5 561.37 1062.5 564.45 1061.26 564.45 1061.26 559.36 1079.6 568.53 1061.26 579.19"/></g></g><g class="cls-5"><g class="cls-18"><path class="cls-7" d="M479.66,103.06V83.23L498,92.4Zm1.24-17.82V100.9l14.49-8.42Z"/><polygon class="cls-7" points="489.9 103.06 489.9 96.94 491.14 96.94 491.14 100.9 505.63 92.48 491.14 85.24 491.14 88.32 489.9 88.32 489.9 83.23 508.24 92.4 489.9 103.06"/></g></g><g class="cls-5"><g class="cls-19"><path class="cls-7" d="M98.13,591.76V571.92l18.34,9.17Zm1.24-17.82V589.6l14.49-8.42Z"/><polygon class="cls-7" points="108.37 591.76 108.37 585.64 109.61 585.64 109.61 589.6 124.1 581.18 109.61 573.93 109.61 577.02 108.37 577.02 108.37 571.92 126.71 581.09 108.37 591.76"/></g></g><g class="cls-5"><g class="cls-20"><path class="cls-7" d="M28.73,260.64l-11-8-11,8L11,247.74l-11-8H13.57l4.19-12.9L22,239.76H35.52l-11,8Zm-11-9.68L26.1,257l-3.19-9.81,8.34-6.06H20.95l-3.19-9.81-3.19,9.81H4.26l8.34,6.06L9.41,257Z"/></g></g><g class="cls-5"><g class="cls-21"><path class="cls-7" d="M440,33.78l-11-8-11,8,4.19-12.9-11-8h13.57L429,0l4.19,12.9h13.57l-11,8ZM429,24.1l8.34,6.06-3.19-9.81,8.35-6.06H432.17L429,4.48l-3.19,9.81H415.48l8.35,6.06-3.19,9.81Z"/></g></g><g class="cls-5"><g class="cls-22"><path class="cls-7" d="M320,275.47V255.63l18.34,9.17Zm1.24-17.82v15.67l14.49-8.42Z"/></g></g><g class="cls-5"><g class="cls-23"><path class="cls-7" d="M292,93.73V73.89l18.34,9.17Zm1.24-17.82V91.57l14.49-8.42Z"/></g></g><g class="cls-5"><g class="cls-24"><path class="cls-7" d="M577.35,265.07V245.24l18.34,9.17Zm1.24-17.82v15.67l14.49-8.42Z"/></g></g><path class="cls-25" d="M972.4,28.81c29.87,54.77-18.26,129.46-14.11,131.12,30.7,42.32,6.64,91.28-39.83,119.5,66.39,53.94-66.39,127.8-66.39,127.8,55.6,58.09-88,136.1-126.14,153.52-68.88-88.79-53.11-223.23-10.79-200-17.43-152.69,58.09-144.39,74.69-120.33-1.66-136.09,73.86-132.78,88-120.33,26.56-74.69,76.35-88.79,94.6-91.28"/><path class="cls-26" d="M958.29,159.92c30.7,42.32,6.64,91.28-39.83,119.5,66.39,53.94-66.39,127.8-66.39,127.8,55.6,58.09-88,136.1-126.14,153.52,0,0,71.37-273.85,246.47-531.94,29.87,54.77-18.26,129.46-14.11,131.12"/><path class="cls-27" d="M856.64,237a1.57,1.57,0,0,0,.78-.2l90-50.62a1.59,1.59,0,0,0-.78-3,1.57,1.57,0,0,0-.78.2l-90,50.62a1.59,1.59,0,0,0,.78,3"/><path class="cls-26" d="M872.4,190.56h.15a1.59,1.59,0,0,0,1.43-1.73l-5-52.28a1.59,1.59,0,0,0-1.58-1.44h-.15a1.59,1.59,0,0,0-1.43,1.73l5,52.28a1.59,1.59,0,0,0,1.58,1.44"/><path class="cls-27" d="M806,356.53a1.55,1.55,0,0,0,.32,0L891,339.07a1.59,1.59,0,0,0-.32-3.15,1.56,1.56,0,0,0-.32,0l-84.64,17.43a1.59,1.59,0,0,0,.32,3.15"/><path class="cls-26" d="M801,343.32a1.64,1.64,0,0,0,1.59-1.65c0-2.09-17.17-57.32-24.55-81a1.59,1.59,0,0,0-3,.95c9.61,30.79,24,77.55,24.41,80.15a1.53,1.53,0,0,0,1.59,1.53"/><path class="cls-26" d="M766.59,429.56a1.62,1.62,0,0,0,.41-.05,1.59,1.59,0,0,0,1.13-1.95l-18.26-68.46a1.59,1.59,0,0,0-1.54-1.18,1.61,1.61,0,0,0-.41.05,1.59,1.59,0,0,0-1.13,1.95l18.26,68.46a1.59,1.59,0,0,0,1.54,1.18"/><path class="cls-27" d="M919.7,119.19a1.59,1.59,0,0,0,.5-.08l43.57-14.32a1.59,1.59,0,1,0-1-3l-43.57,14.31a1.59,1.59,0,0,0,.5,3.1"/><path class="cls-27" d="M725.93,562.33a1.59,1.59,0,0,0,1.52-1.13c1-3.33,102-334.79,246.23-531.45a1.59,1.59,0,1,0-2.57-1.88C826.57,225,725.41,557,724.41,560.28a1.59,1.59,0,0,0,1.52,2.05"/><path class="cls-25" d="M57.55,96C27.67,150.8,75.8,225.48,71.65,227.14c-30.7,42.32-6.64,91.28,39.83,119.5-66.39,53.94,66.39,127.8,66.39,127.8-55.6,58.09,88,136.1,126.14,153.52,68.88-88.79,53.11-223.23,10.79-200,17.43-152.69-58.09-144.39-74.69-120.33,1.66-136.1-73.86-132.78-88-120.33C125.59,112.62,75.8,98.51,57.55,96"/><path class="cls-26" d="M71.65,227.14c-30.71,42.32-6.64,91.28,39.83,119.5-66.39,53.94,66.39,127.8,66.39,127.8-55.6,58.09,88,136.1,126.14,153.52C304,628,232.64,354.11,57.55,96,27.67,150.8,75.8,225.48,71.65,227.14"/><path class="cls-27" d="M173.31,304.25a1.57,1.57,0,0,1-.78-.2l-90-50.62a1.59,1.59,0,1,1,1.56-2.77l90,50.62a1.59,1.59,0,0,1-.78,3"/><path class="cls-26" d="M157.54,257.78h-.15A1.59,1.59,0,0,1,156,256l5-52.28a1.59,1.59,0,0,1,1.58-1.44h.15a1.59,1.59,0,0,1,1.43,1.73l-5,52.28a1.59,1.59,0,0,1-1.58,1.44"/><path class="cls-27" d="M223.93,423.75a1.54,1.54,0,0,1-.32,0L139,406.29a1.59,1.59,0,0,1,.32-3.15,1.61,1.61,0,0,1,.32,0l84.64,17.43a1.59,1.59,0,0,1-.32,3.15"/><path class="cls-26" d="M228.91,410.54a1.64,1.64,0,0,1-1.59-1.65c0-2.09,17.17-57.32,24.55-81a1.59,1.59,0,0,1,3,.95c-9.61,30.79-24,77.55-24.41,80.15a1.53,1.53,0,0,1-1.59,1.53"/><path class="cls-26" d="M263.35,496.78a1.62,1.62,0,0,1-.41-.05,1.59,1.59,0,0,1-1.13-1.95l18.26-68.46a1.59,1.59,0,0,1,1.54-1.18,1.62,1.62,0,0,1,.41.05,1.59,1.59,0,0,1,1.13,1.95L264.89,495.6a1.59,1.59,0,0,1-1.54,1.18"/><path class="cls-27" d="M110.24,186.41a1.59,1.59,0,0,1-.5-.08L66.18,172a1.59,1.59,0,0,1,.5-3.1,1.63,1.63,0,0,1,.5.08l43.57,14.32a1.59,1.59,0,0,1-.5,3.1"/><path class="cls-27" d="M304,629.55a1.59,1.59,0,0,1-1.52-1.13c-1-3.33-102-334.79-246.23-531.45a1.59,1.59,0,1,1,2.56-1.88c144.54,197.1,245.7,529.09,246.71,532.42a1.59,1.59,0,0,1-1.52,2.05"/><path class="cls-25" d="M1019.86,289.77c19.06,34.94-11.65,82.6-9,83.65,19.59,27,4.23,58.24-25.41,76.24,42.36,34.42-42.36,81.54-42.36,81.54,35.47,37.06-56.12,86.83-80.48,98-43.95-56.65-33.89-142.43-6.88-127.6-11.12-97.42,37.06-92.13,47.65-76.77C902.32,338,950.5,340.07,959.5,348c16.94-47.65,48.71-56.65,60.36-58.24"/><path class="cls-26" d="M1010.86,373.43c19.59,27,4.23,58.24-25.41,76.24,42.36,34.42-42.36,81.54-42.36,81.54,35.47,37.06-56.12,86.83-80.48,98,0,0,45.53-174.72,157.25-339.39,19.06,34.95-11.65,82.6-9,83.65"/><path class="cls-27" d="M946,422.62a1,1,0,0,0,.5-.13l57.45-32.3a1,1,0,0,0-1-1.77l-57.45,32.3a1,1,0,0,0,.5,1.9"/><path class="cls-26" d="M956.06,393h.1a1,1,0,0,0,.91-1.11l-3.18-33.36a1,1,0,0,0-1-.92h-.1a1,1,0,0,0-.91,1.11L955,392.06a1,1,0,0,0,1,.92"/><path class="cls-27" d="M913.7,498.87l.2,0,54-11.12a1,1,0,0,0-.2-2l-.21,0-54,11.12a1,1,0,0,0,.2,2"/><path class="cls-26" d="M910.53,490.44a1,1,0,0,0,1-1.06c0-1.33-11-36.57-15.66-51.66a1,1,0,0,0-1-.71,1,1,0,0,0-.3,0,1,1,0,0,0-.67,1.27c6.13,19.65,15.34,49.48,15.58,51.14a1,1,0,0,0,1,1"/><path class="cls-26" d="M888.55,545.46a1,1,0,0,0,.26,0,1,1,0,0,0,.72-1.24L877.88,500.5a1,1,0,0,0-1-.75,1,1,0,0,0-.26,0,1,1,0,0,0-.72,1.24l11.65,43.68a1,1,0,0,0,1,.75"/><path class="cls-27" d="M986.24,347.44a1,1,0,0,0,.32-.05l27.8-9.13a1,1,0,0,0-.32-2,1,1,0,0,0-.32.05l-27.8,9.13a1,1,0,0,0,.32,2"/><path class="cls-27" d="M862.61,630.17a1,1,0,0,0,1-.72c.64-2.12,65.08-213.61,157.1-339.08a1,1,0,1,0-1.64-1.2C926.82,414.93,862.28,626.74,861.64,628.87a1,1,0,0,0,.68,1.27,1,1,0,0,0,.29,0"/><path class="cls-25" d="M1073.87,418.23c10.24,26.35-15.74,57.11-14,58.1,11.33,20.8-2.33,41.4-24.85,51.38,26.69,28.1-37.27,53.56-37.27,53.56,21.6,29.34-47.44,56-65.61,61.65C906.39,599,921.3,539.52,939,552.42c1.05-69.63,34.5-61.5,40.56-49.72,7.17-61.25,40.91-55.36,46.53-49,16.28-32,39.47-35.46,47.82-35.51"/><path class="cls-26" d="M1059.9,476.32c11.33,20.8-2.33,41.4-24.85,51.38,26.69,28.1-37.26,53.56-37.26,53.56,21.6,29.34-47.44,56-65.61,61.64,0,0,48-118.9,141.69-224.68,10.24,26.35-15.74,57.11-14,58.1"/><path class="cls-27" d="M1009.73,505.06a.72.72,0,0,0,.36,0l43.4-17.51a.72.72,0,0,0-.18-1.38.71.71,0,0,0-.36,0l-43.4,17.51a.72.72,0,0,0,.18,1.38"/><path class="cls-26" d="M1019.52,485.09h.07a.72.72,0,0,0,.74-.7l.8-23.78a.72.72,0,0,0-.63-.74h-.07a.72.72,0,0,0-.75.69l-.8,23.78a.72.72,0,0,0,.63.74"/><path class="cls-27" d="M980,555.81h.15l39-2.91a.72.72,0,0,0,0-1.43h-.15l-39,2.91a.72.72,0,0,0,0,1.43"/><path class="cls-26" d="M978.57,549.58a.75.75,0,0,0,.81-.65c.12-.94-4.38-26.76-6.32-37.81a.72.72,0,0,0-.62-.59.72.72,0,0,0-.8.84c2.53,14.4,6.29,36.24,6.31,37.43a.69.69,0,0,0,.62.78"/><path class="cls-26" d="M958.08,586.33h.19a.72.72,0,0,0,.62-.81l-4.22-31.82a.72.72,0,0,0-.62-.62h-.19a.72.72,0,0,0-.62.81l4.22,31.83a.72.72,0,0,0,.62.62"/><path class="cls-27" d="M1044.93,455.78a.76.76,0,0,0,.23,0l20.41-3.9a.72.72,0,0,0,0-1.42.77.77,0,0,0-.23,0l-20.41,3.9a.72.72,0,0,0,0,1.42"/><path class="cls-27" d="M932.08,643.63a.72.72,0,0,0,.75-.42c.64-1.44,65.31-144.5,141.56-224.48a.72.72,0,0,0-1-1c-76.42,80.16-141.18,223.45-141.83,224.88a.72.72,0,0,0,.36,1,.7.7,0,0,0,.2.06"/><path class="cls-25" d="M22.36,398.34C16.74,430,52.46,458.53,50.71,460c-8.05,25.68,11.71,45.63,39,51.79C66.15,549,143,563.3,143,563.3c-17.62,37.45,65.21,52,86.69,54.27C248.8,563,219.09,499.94,202.25,518.2c-16.5-77.37-52-61-56.15-46.49C124.62,405,88.31,419,83.47,427.4c-25.19-32.1-51.8-30.83-61.11-29.06"/><path class="cls-26" d="M50.71,460c-8.05,25.68,11.71,45.63,39,51.79C66.15,549,143,563.3,143,563.3c-17.62,37.45,65.21,52,86.69,54.26,0,0-79.67-122-207.37-219.23C16.74,430,52.46,458.53,50.71,460"/><path class="cls-27" d="M112.94,481a.81.81,0,0,1-.41,0l-52.23-10a.82.82,0,0,1-.11-1.58.81.81,0,0,1,.41,0l52.23,10a.82.82,0,0,1,.11,1.58"/><path class="cls-26" d="M97.64,460.9l-.08,0a.82.82,0,0,1-1-.61L90.45,434a.82.82,0,0,1,.54-1l.07,0a.82.82,0,0,1,1,.61l6.13,26.33a.82.82,0,0,1-.53,1"/><path class="cls-27" d="M157.21,531l-.16,0-44.16,5.36a.82.82,0,0,1-.36-1.59l.16,0,44.16-5.36a.82.82,0,0,1,.36,1.59"/><path class="cls-26" d="M157.48,523.76a.85.85,0,0,1-1-.55c-.34-1-1-30.78-1.28-43.53a.82.82,0,1,1,1.64,0c.35,16.6,1,41.78,1.21,43.11a.79.79,0,0,1-.52,1"/><path class="cls-26" d="M188.4,560.21l-.21,0a.82.82,0,0,1-.87-.77l-2.3-36.4a.82.82,0,0,1,.56-.83.79.79,0,0,1,.21,0,.82.82,0,0,1,.87.76l2.3,36.4a.82.82,0,0,1-.56.83"/><path class="cls-27" d="M62.87,433.82a.8.8,0,0,1-.26,0L39,434a.82.82,0,0,1-.27-1.6.83.83,0,0,1,.26,0l23.6-.15a.82.82,0,0,1,.27,1.6"/><path class="cls-27" d="M230,618.34a.82.82,0,0,1-.93-.3c-1-1.46-104.6-146.68-207.18-219a.82.82,0,1,1,.94-1.34c102.81,72.52,206.53,218,207.57,219.42a.82.82,0,0,1-.19,1.14.84.84,0,0,1-.21.11"/><rect class="cls-28" x="135.34" y="202.17" width="505.66" height="21.41"/><rect class="cls-29" x="195.99" y="519.77" width="384.38" height="45.92"/><rect class="cls-30" x="170.69" y="565.69" width="434.98" height="43.19"/><rect class="cls-29" x="221.67" y="223.58" width="68.44" height="16.54"/><rect class="cls-28" x="233.08" y="240.12" width="45.63" height="279.65"/><rect class="cls-29" x="485.7" y="223.58" width="68.44" height="16.54"/><rect class="cls-28" x="497.11" y="240.12" width="45.63" height="279.65"/><rect class="cls-29" x="353.83" y="223.58" width="68.44" height="16.54"/><rect class="cls-28" x="365.24" y="240.12" width="45.63" height="279.65"/><polygon class="cls-29" points="611.01 202.17 165.34 202.17 386.75 81.5 611.01 202.17"/><polygon class="cls-28" points="201.76 193.46 386.8 92.62 574.22 193.46 201.76 193.46"/><path class="cls-31" d="M822.12,537.09V107.64H613.76V537.09a71,71,0,0,0,71,71H893.07a71,71,0,0,1-71-71"/><path class="cls-32" d="M716.52,608h0A70.83,70.83,0,0,1,660.75,581H776.2Z"/><rect class="cls-32" x="644.04" y="143.12" width="144.6" height="105.18"/><rect class="cls-32" x="642.8" y="299.34" width="144.6" height="105.18"/><rect class="cls-32" x="644.04" y="440.62" width="144.6" height="105.18"/><path class="cls-33" d="M634.6,133.78a6.85,6.85,0,1,1-6.85-6.85,6.85,6.85,0,0,1,6.85,6.85"/><path class="cls-33" d="M634.6,183.09a6.85,6.85,0,1,1-6.85-6.85,6.85,6.85,0,0,1,6.85,6.85"/><path class="cls-33" d="M634.6,232.4a6.85,6.85,0,1,1-6.85-6.85,6.85,6.85,0,0,1,6.85,6.85"/><path class="cls-33" d="M634.6,281.7a6.85,6.85,0,1,1-6.85-6.85,6.85,6.85,0,0,1,6.85,6.85"/><path class="cls-33" d="M634.6,331a6.85,6.85,0,1,1-6.85-6.85A6.85,6.85,0,0,1,634.6,331"/><path class="cls-33" d="M634.6,380.32a6.85,6.85,0,1,1-6.85-6.85,6.85,6.85,0,0,1,6.85,6.85"/><path class="cls-33" d="M634.6,429.63a6.85,6.85,0,1,1-6.85-6.85,6.85,6.85,0,0,1,6.85,6.85"/><path class="cls-33" d="M634.6,478.93a6.85,6.85,0,1,1-6.85-6.85,6.85,6.85,0,0,1,6.85,6.85"/><path class="cls-33" d="M634.6,528.24a6.85,6.85,0,1,1-6.85-6.85,6.85,6.85,0,0,1,6.85,6.85"/><path class="cls-33" d="M651.1,575.37a6.85,6.85,0,1,1-6.85-6.85,6.85,6.85,0,0,1,6.85,6.85"/><path class="cls-33" d="M811.16,133.78a6.85,6.85,0,1,1-6.85-6.85,6.85,6.85,0,0,1,6.85,6.85"/><path class="cls-33" d="M811.16,183.09a6.85,6.85,0,1,1-6.85-6.85,6.85,6.85,0,0,1,6.85,6.85"/><path class="cls-33" d="M811.16,232.4a6.85,6.85,0,1,1-6.85-6.85,6.85,6.85,0,0,1,6.85,6.85"/><path class="cls-33" d="M811.16,281.7a6.85,6.85,0,1,1-6.85-6.85,6.85,6.85,0,0,1,6.85,6.85"/><path class="cls-33" d="M811.16,331a6.85,6.85,0,1,1-6.85-6.85,6.85,6.85,0,0,1,6.85,6.85"/><path class="cls-33" d="M811.16,380.32a6.85,6.85,0,1,1-6.85-6.85,6.85,6.85,0,0,1,6.85,6.85"/><path class="cls-33" d="M811.16,429.63a6.85,6.85,0,1,1-6.85-6.85,6.85,6.85,0,0,1,6.85,6.85"/><path class="cls-33" d="M811.16,478.93a6.85,6.85,0,1,1-6.85-6.85,6.85,6.85,0,0,1,6.85,6.85"/><path class="cls-33" d="M811.16,528.24a6.85,6.85,0,1,1-6.85-6.85,6.85,6.85,0,0,1,6.85,6.85"/><path class="cls-33" d="M822,576a6.85,6.85,0,1,1-6.85-6.85A6.85,6.85,0,0,1,822,576"/><path class="cls-33" d="M760.22,467.8v64.73A75.52,75.52,0,0,1,684.71,608H893.07a75.52,75.52,0,0,0,75.52-75.52V467.8Z"/><path class="cls-31" d="M792,496.95v35.58A75.52,75.52,0,0,1,716.52,608H861.26a75.52,75.52,0,0,0,75.52-75.52V496.79Z"/><path class="cls-34" d="M781.49,488.86a6.85,6.85,0,1,1-6.85-6.85,6.85,6.85,0,0,1,6.85,6.85"/><path class="cls-34" d="M959.18,485.12a6.85,6.85,0,1,1-6.85-6.85,6.85,6.85,0,0,1,6.85,6.85"/><path class="cls-34" d="M781.49,543.32a6.85,6.85,0,1,1-6.85-6.85,6.85,6.85,0,0,1,6.85,6.85"/><path class="cls-34" d="M956.38,548.61a6.85,6.85,0,1,1-6.85-6.85,6.85,6.85,0,0,1,6.85,6.85"/><path class="cls-34" d="M756.8,591.16c-1.89,3.27-5.54,4.71-8.14,3.21s-3.18-5.38-1.29-8.65,5.54-4.71,8.14-3.21,3.18,5.38,1.29,8.65"/><path class="cls-34" d="M923.14,597.21c-2.67,2.67-6.12,3.56-7.7,2s-.69-5,2-7.7,6.12-3.56,7.7-2,.69,5-2,7.7"/><path class="cls-35" d="M1094.4,656.59H123.47V638.28a31,31,0,0,1,31-31H1063.4a31,31,0,0,1,31,31Z"/><rect class="cls-36" x="458.35" y="547.99" width="52.74" height="55.78"/><path class="cls-37" d="M583.6,603.77H447V588.36a11,11,0,0,1,11-11H572.65a11,11,0,0,1,11,11Z"/><rect class="cls-36" x="605.42" y="388.43" width="59.25" height="97.73" transform="translate(-86.67 165.94) rotate(-13.95)"/><polygon class="cls-38" points="736.32 482.76 675.57 477.58 652.02 382.74 703.29 349.74 736.32 482.76"/><g class="cls-39"><g class="cls-40"><polygon class="cls-41" points="736.32 482.76 719.14 413.58 660.92 421.75 604.16 435.85 618.07 491.86 675.57 477.58 736.32 482.76"/></g></g><rect class="cls-36" x="362.16" y="390.04" width="247.78" height="168.52" transform="translate(-99.98 131.12) rotate(-13.95)"/><g class="cls-39"><g class="cls-42"><polygon class="cls-41" points="386.12 585.93 626.6 526.22 585.98 362.66 386.12 585.93"/></g></g><rect class="cls-38" x="343.6" y="475.08" width="145.44" height="33.86" transform="translate(-106.31 114.84) rotate(-13.95)"/><rect class="cls-37" x="486.51" y="442.09" width="26.16" height="58.48" transform="translate(-98.87 134.3) rotate(-13.95)"/><rect class="cls-37" x="370.6" y="434.1" width="42.32" height="13.85" transform="translate(-94.74 107.42) rotate(-13.95)"/><rect class="cls-37" x="429.77" y="419.4" width="42.32" height="13.85" transform="translate(-89.46 121.24) rotate(-13.95)"/><path class="cls-38" d="M422.7,347.44a61,61,0,1,1-74-44.53,61,61,0,0,1,74,44.53"/><path class="cls-37" d="M398.93,353.35a36.55,36.55,0,1,1-44.28-26.66,36.55,36.55,0,0,1,44.28,26.66"/><g class="cls-39"><g class="cls-43"><path class="cls-41" d="M348.74,302.91c-.6.15-1.18.32-1.76.48a61,61,0,0,1-20.29,107.49,61,61,0,1,0,22.05-108"/></g></g><path class="cls-38" d="M569.8,298.76a75.92,75.92,0,1,1-92-55.39,75.92,75.92,0,0,1,92,55.39"/><path class="cls-37" d="M540.24,306.1a45.46,45.46,0,1,1-55.07-33.16,45.46,45.46,0,0,1,55.07,33.16"/><g class="cls-39"><g class="cls-44"><path class="cls-41" d="M477.82,243.37c-.74.18-1.46.4-2.19.6A75.89,75.89,0,0,1,450.4,377.65a75.92,75.92,0,1,0,27.43-134.29"/></g></g><polygon class="cls-45" points="444.61 285.49 450.13 298.94 448.88 299.02 444.37 288.05 444.61 285.49"/><path class="cls-46" d="M481,436.81c1.69,2.15,4.09,6.49,3.58,7.21-1.79,2.35-.87,8.64-.87,8.64l28.72-.82c-3.58-5.06-13.29-8.79-15.89-10.83a14.87,14.87,0,0,1-4-5.52c-.05-.15-11.5,1.33-11.5,1.33"/><path class="cls-47" d="M484.07,444.91c-1.1,2.75-.38,7.74-.38,7.74l28.72-.82c-3.44-4.86-12.54-8.5-15.56-10.59a9.65,9.65,0,0,0-3.86,4.3,11.69,11.69,0,0,1-8.92-.63"/><path class="cls-48" d="M418.33,382.48c.82,13.08,3.48,18.81,14.1,20.44s31.89,1,32.1,2c1.64,8,14.72,38.43,14.72,38.43,8.79-1,17.38-6.13,17.38-6.13l-3.68-26s6.34-21.26,5.72-30.05-45.59-16.56-45.59-16.56Z"/><path class="cls-46" d="M411.17,389.43c3.68.92,9.15,1.74,10.94,3a6.71,6.71,0,0,1,2.35,3.58c-1.69.31-3.22-1.69-4.09-1.84s-3.32-.46-3.32-.46,3,3.22,3.48,4.7,2,7.51.61,6.75-2.86-4-3.42-4.91a28.65,28.65,0,0,0-2.71-3.07s3.83,8,2.55,8.89-4.29-7.21-4.91-7.61,2.81,7.82,1.18,7.1-3.12-6.29-4.75-7.26-7.41-1.94-6.54-8,8.64-.82,8.64-.82"/><path class="cls-49" d="M453.7,339.48s-1.77,15.4,2,25.76c0,0-22.76,15.94-38.57,19.35l-3.27-1.09s-1,4.91-1,5.59a15.63,15.63,0,0,1-12.13,1.77c-4.36-2.86-11.86-30.12-7.9-48.24s14.31-27.39,27.8-30.66l13.63-.61s12.18,1.77,13.58,2.2c5.27,8.72,25.62,36.38,21.78,38-10.58,4.36-16-12-16-12"/><path class="cls-47" d="M413.76,300.78c-9.27-9.27-1.64-18.4-.82-18.13-1.91-5.18,20.44-10.9,23.58-10.09s1.09,4.09,1.09,4.09c4.36,4.63,4.09,10.49,3,12.54s-18.54,13.08-18.54,13.08Z"/><path class="cls-46" d="M419.08,282c4.09,6.88-2,11.38-2,11.38,2.11,4.63,1.09,7,.89,7-3.88-2.32-7.43.68-5.79,3.68s6.75,3.07,7.84,1.84a9,9,0,0,1,.68,6.07c7.9,8.65,17,6.34,13.63-.61.48-1.09.82-1.84.82-1.84,2.11-.54,7.22-1.64,8.38-9.06s-2.45-18.81-9-23.85c-1,2.32-4.16,1.23-3.88,1.57-.48,4.36-11.58,3.88-11.58,3.88"/><g class="cls-39"><g class="cls-50"><path class="cls-51" d="M417.28,305.26a1.52,1.52,0,0,1-1-.3.91.91,0,0,1-.3-.92,2.56,2.56,0,0,1,1.88-1.62,4.44,4.44,0,0,0-2.58-.91,1.78,1.78,0,0,0-1.36.79.16.16,0,1,1-.26-.18c.8-1.13,2.2-1.23,3.85-.29.91.52.85.64.82.72a.16.16,0,0,1-.11.09c-1.27.35-1.84,1-1.93,1.47a.59.59,0,0,0,.2.61c.43.35,1.32.29,2.39-.16a.16.16,0,1,1,.12.29,4.57,4.57,0,0,1-1.72.41"/></g></g><path class="cls-47" d="M436.57,297.7a.16.16,0,0,1-.06-.3,7.19,7.19,0,0,0,2.56-2.25,6,6,0,0,1-3.83-2.17,3.93,3.93,0,0,1-.45-3.71.16.16,0,0,1,.2-.1.16.16,0,0,1,.1.2,3.64,3.64,0,0,0,.41,3.43,5.74,5.74,0,0,0,3.58,2,.28.28,0,0,1,.31.22c.11.55-1.9,2.3-2.75,2.64h-.06"/><g class="cls-39"><g class="cls-52"><path class="cls-51" d="M436,305.08a.16.16,0,0,1,0-.31,6.06,6.06,0,0,0,3.66-1.53.16.16,0,1,1,.27.16,6.14,6.14,0,0,1-3.9,1.68Z"/></g></g><g class="cls-39"><g class="cls-53"><path class="cls-51" d="M432.33,309.93c-3.61,0-9-1.44-12.06-4.36a.16.16,0,0,1,0-.22.16.16,0,0,1,.22,0c3.85,3.7,11.45,4.81,14.1,4a.16.16,0,0,1,.09.3,8.36,8.36,0,0,1-2.35.28"/></g></g><g class="cls-39"><g class="cls-54"><path class="cls-55" d="M429.68,325.33h-.23c-1.91-.22-9.32-3.41-11.78-8.85a.16.16,0,1,1,.28-.13c2.08,4.6,8.17,7.84,11,8.55.66.17.9.13.94.1s.47-.84.86-1.63c1.33-2.64,2.59-5,3.35-5.24a.4.4,0,0,1,.33,0c1.4.86,5.17,2.86,5.6,2.72.23-.24.08-3-.77-5.08a.16.16,0,0,1,.29-.12c.76,1.86,1.15,5,.68,5.43s-5.91-2.65-6-2.69a.09.09,0,0,0-.08,0c-.7.2-2.3,3.38-3.16,5.08a17.28,17.28,0,0,1-.9,1.68.5.5,0,0,1-.42.14"/></g></g><g class="cls-39"><g class="cls-56"><path class="cls-55" d="M415.88,332.25a.16.16,0,0,1-.16-.16c0-.1-.09-10.34-7.3-12.47a.16.16,0,1,1,.09-.3c7.44,2.21,7.52,12.67,7.52,12.77a.16.16,0,0,1-.16.16"/></g></g><g class="cls-39"><g class="cls-57"><path class="cls-55" d="M413.63,381.62a.16.16,0,0,1-.15-.1c-2.27-6.41-3.59-28.08-.89-38.12a.16.16,0,0,1,.19-.11.16.16,0,0,1,.11.19c-2.69,10-1.38,31.55.88,37.93a.16.16,0,0,1-.1.2h-.05"/></g></g><g class="cls-39"><g class="cls-58"><path class="cls-55" d="M452.88,338.69h0a.16.16,0,0,1-.15-.16c0-.07.3-7.25-2.71-13.28a.16.16,0,0,1,.28-.14c3.05,6.1,2.75,13.36,2.74,13.43a.16.16,0,0,1-.16.15"/></g></g><g class="cls-39"><g class="cls-59"><path class="cls-55" d="M492.13,409.62a.16.16,0,0,1-.16-.15c0-.15-.23-15.39-2.65-22.44-1-2.88-8.33-7.9-37.68-15.41l-1.67-.44a.16.16,0,1,1,.09-.3l1.65.43c23.68,6.06,36.43,11.31,37.9,15.61,2.43,7.1,2.66,22.38,2.67,22.54a.16.16,0,0,1-.15.16h0"/></g></g><g class="cls-39"><g class="cls-60"><path class="cls-55" d="M466.71,405.33a.16.16,0,0,1-.15-.1.16.16,0,0,1,.09-.2s2.28-.93,2.22-2.23c0-.16,0-.26-.1-.29-.21-.1-.85.4-1.33.76a4,4,0,0,1-1.39.84.45.45,0,0,1-.42-.1c-.18-.2-.08-.57.09-1.24a14.87,14.87,0,0,0,.55-3.32.16.16,0,0,1,.16-.15.16.16,0,0,1,.15.16,15.26,15.26,0,0,1-.56,3.39,2.5,2.5,0,0,0-.16.95s0,0,.13,0a4.15,4.15,0,0,0,1.25-.78c.68-.52,1.27-1,1.65-.79a.59.59,0,0,1,.28.56c.07,1.53-2.31,2.5-2.42,2.54h-.06"/></g></g><path class="cls-47" d="M432,302.28c1-1.2,7.8-4.5,8.18-3.92s0,3.2-1.64,4.16c-3,1.77-7.63,1.09-6.54-.24"/><path class="cls-61" d="M439.41,298.38a29.13,29.13,0,0,0-7,3.5c3.59.61,7.27-1.42,7-3.5"/><path class="cls-47" d="M428.89,294.6a1.57,1.57,0,0,1-.47,2.12c-.65.28-1.48-.21-1.87-1.1a1.57,1.57,0,0,1,.47-2.12c.65-.28,1.48.21,1.87,1.1"/><path class="cls-47" d="M439.93,290.2a1.57,1.57,0,0,1-.47,2.12c-.65.28-1.48-.21-1.87-1.1a1.57,1.57,0,0,1,.47-2.12c.65-.28,1.48.21,1.87,1.1"/><path class="cls-47" d="M422.35,294.85c2-3.34,6.2-4.91,6.2-4.91a5.34,5.34,0,0,0-6.2,4.91"/><path class="cls-47" d="M435.64,288.31a6.25,6.25,0,0,1,4.84-1.09c-2.18-1.36-4.5-.61-4.84,1.09"/><path class="cls-62" d="M446.67,309.46c2.9,15.51,10.95,44.32,23,42.86s-11-41.75-13.65-45c-5.54,2.75-9.31,2.12-9.31,2.12"/><path class="cls-46" d="M456,307.34s-2.81-11-3.59-11.27-8.09-.93-8.09.93a2.7,2.7,0,0,0,1.24,2.49,2.8,2.8,0,0,0,.93,3c-.47,1.56,1.87,1.87,1.87,3.27s-.16,3.73-.16,3.73c6.23.62,7.79-2.11,7.79-2.11"/><path class="cls-49" d="M445,284.65c-5.6.21-8.66,2.59-9.34,7.11a1.88,1.88,0,0,0-1.66.78c-4.36-1.45-11.82-3.68-15.66,4.51,8.77,8.35,15,2.7,16.65-2.8,0,0,.21-.67,1.51-.88,4.93,2.8,10.06-1.14,8.51-8.71m-23,12.07c2.3-4.63,7.12-4.2,10.66-2.84-2.26,5.72-6.88,5.06-10.66,2.84m14.94-4.67c.08-3.81,2.64-4.86,5.21-5,.16,6.22-2.61,6.69-5.21,5"/><path class="cls-47" d="M227.73,347.47c-3.17-2.67-1.72.34-4.31-.44s-3.62,3.09-4.1,4.09-5.61.67-5.3,2.9-5.39,1.47-4,4.49-6.86,5.09-4.37,7.44-2.46,1.69-.85,5.09,3.46,2.53,2.26,4.35-3.26,4.9-1.37,5.89,3.32.79,3.12,2.37-2.17,3.1-.28,4,3.94-.75,4.22,1.29-.31,3,2.06,2.93,3-2.28,5.07-.8,2.75,3.45,5.29,1.55,3.18-3.24,4.54-2.39,2.65,1.92,4.83.48,9.18-4.06,11-4,4.41-4.13,6.16-4.16,4,1.84,4-.55.25-4.18,1.43-4.65a2.41,2.41,0,0,0,1.57-2.91c-.3-1.41,0-1.35.64-2.16s-.29-2.86.11-4.47-2.28-2.28-1.79-4.73-1.73-4.32-3.85-5.38-2.63-2.54-3.23-4.63.85-3.64-1.41-4.26-2.93-2.5-4.34-3.65-4-.28-5.39,0-2.61-.89-3.71-1.36-8,0-7.89,3.68"/><path class="cls-46" d="M252.27,586.07s2.13,6.19.29,8.42-3.1,8.32-2.42,12.29H284.2c-3.19-6.58-16.35-10.64-17.42-12.29s-1.84-7.16-1.84-7.16Z"/><path class="cls-47" d="M266.78,594.49l-.05-.09c-4.11,1.22-6.51,5.54-8.66,5.7s-5.22-2.65-6.52-3.91a21.11,21.11,0,0,0-1.42,10.58H284.2c-3.19-6.58-16.35-10.65-17.42-12.29"/><path class="cls-46" d="M210,586.07s2.13,6.19.29,8.42-3.1,8.32-2.42,12.29h34.06c-3.19-6.58-16.36-10.64-17.42-12.29s-1.84-7.16-1.84-7.16Z"/><path class="cls-49" d="M214.65,460.45c-10.45,11.87-8.34,129-8.34,129,16.84,2.9,24.1-.29,24.1-.29l5.23-57.77c8.13,46.16,13.64,57.19,13.64,57.19,19.16.58,22.06-3.19,22.06-3.19S263.07,480.27,252.11,463s-37.46-2.57-37.46-2.57"/><g class="cls-39"><g class="cls-63"><path class="cls-55" d="M213.14,478a.15.15,0,0,1,0-.29c.07,0,6.92-1.47,9.18-6.62a.15.15,0,1,1,.27.12c-2.33,5.3-9.32,6.78-9.4,6.79h0"/></g></g><g class="cls-39"><g class="cls-64"><path class="cls-55" d="M209.91,584.84h0a.15.15,0,0,1-.15-.15c0-4.43.69-108.51,4.4-116.57a.15.15,0,1,1,.27.12c-3.68,8-4.37,115.37-4.37,116.45a.15.15,0,0,1-.15.15"/></g></g><g class="cls-39"><g class="cls-65"><path class="cls-55" d="M218.58,586.91a68,68,0,0,1-11.15-.91.15.15,0,0,1,0-.29,63.79,63.79,0,0,0,21.75,0,.15.15,0,0,1,.18.11.15.15,0,0,1-.11.18,56,56,0,0,1-10.72.91"/></g></g><g class="cls-39"><g class="cls-66"><path class="cls-55" d="M260.16,584.74a68,68,0,0,1-11.15.8.15.15,0,1,1,0-.3,63.84,63.84,0,0,0,21.49-3.33.15.15,0,0,1,.19.09.15.15,0,0,1-.08.19,56.06,56.06,0,0,1-10.45,2.54"/></g></g><g class="cls-39"><g class="cls-67"><path class="cls-55" d="M236.88,528.84h0a.15.15,0,0,1-.13-.16L241,480.42a.14.14,0,0,1,.05-.1l2.14-1.89v-11a.15.15,0,0,1,.3,0v11.1a.15.15,0,0,1-.05.11l-2.15,1.9L237,528.7a.15.15,0,0,1-.15.13"/></g></g><path class="cls-47" d="M224.49,594.49l-.05-.09c-4.1,1.22-6.51,5.54-8.66,5.7s-5.22-2.65-6.52-3.91a21.1,21.1,0,0,0-1.42,10.58h34.06c-3.19-6.58-16.35-10.65-17.42-12.29"/><path class="cls-47" d="M252.33,456.11a25.24,25.24,0,0,0-.28,6.18c-25.38,4.17-37.6-1.82-37.6-1.82l.57-3s-.14-2.79,1.86-2.86,35.45,1.5,35.45,1.5"/><path class="cls-46" d="M306.26,416.19c1.75-2.69,3.3-3.36,5-4.78s2.62-4,3-4c1.28.54.94,2.35-.07,4s-2,2.56,3.63.4,9.08-2.49,7.4-1.35-9.69,5.18-6.53,4.64,6.86-2.29,7.47-1.55-6.8,4.57-4.44,3.77,5-1.82,3.43-.07-7.67,4-5.38,4.1,5.72-1.28,4.58.27-9.55,3.84-12.31,4a20.33,20.33,0,0,0-5.72,1.35Z"/><path class="cls-46" d="M214.83,477.25c.1,2.52-.61,4,1.92,5.65s5.75,8.78,4.54,9.08-2.52-2.22-5.25-3.63-4.54,15.44-5.85,14.33.4-11.91-1.51-9.89-1.29,8.52-3.33,8.38a1.87,1.87,0,0,1-1.66-1.51c-3.33,1.72-1.67-4.44-1.06-10.49-3.63,8.48-4.44,4-2.42-1.11a97.62,97.62,0,0,0,3.23-9.79Z"/><path class="cls-48" d="M225.83,394.75c-17,4.49-25.6,28-26.94,50.78s2,34.31,2.56,35.25c11.44,4,15.61-1.21,15.61-1.21l-.13-9.15c15.34,3.77,21.12.27,28.66-4.17s9-5.79,9-5.79a198.07,198.07,0,0,1,1.48-30.68c28,10.63,52.34-2.69,52.34-2.69l-2.15-10.9s-21.93,1.48-35.79-5.92-25-13.76-27.63-14.62-17-.91-17-.91"/><g class="cls-39"><g class="cls-68"><path class="cls-55" d="M224.86,416.89a.15.15,0,0,1-.16-.15c-.14-6.13-3.29-13.27-9-15.06a.15.15,0,0,1,.09-.3c6.17,1.92,9.12,9.3,9.26,15.35a.15.15,0,0,1-.15.16Z"/></g></g><g class="cls-39"><g class="cls-69"><path class="cls-55" d="M217.73,469.63a.15.15,0,0,1-.15-.14c0-.21-2.09-21.62,3.91-38.15a.15.15,0,0,1,.29.11c-6,16.46-3.91,37.8-3.89,38a.15.15,0,0,1-.14.17h0"/></g></g><g class="cls-39"><g class="cls-70"><path class="cls-55" d="M256.61,427.78h0a.15.15,0,0,1-.13-.18,41.73,41.73,0,0,0-2-18.09.15.15,0,0,1,.29-.1,42,42,0,0,1,2,18.24.15.15,0,0,1-.15.13"/></g></g><g class="cls-39"><g class="cls-71"><path class="cls-51" d="M314.54,423.31a.16.16,0,0,1-.15-.1c0-.1-.9-2.41-3.17-2.22a.16.16,0,0,1-.15-.08.15.15,0,0,1,0-.17s2.36-2.75,1.68-5.51a.15.15,0,0,1,.3-.07c.6,2.43-.94,4.75-1.53,5.52,2.26,0,3.14,2.41,3.14,2.43a.15.15,0,0,1-.09.2h-.05"/></g></g><path class="cls-46" d="M243.38,364.11a2.29,2.29,0,0,0,3,1.09,1.76,1.76,0,0,0,1.85.94c.09,1.4.28,3.9.52,7.53s2.16,11.05-1.64,16.26c-2.81,3.84-8.83,4-8.84,4.21-.11,2,.19,3.62,2.21,3.67.75,3.72-3,6.81-7.64,5.35s-7.84-7.39-7.84-7.39c2.9-3.26-1.16-11.34-1.16-11.34-3.71.62-6-3.36-5.06-6s4.63-2.47,6,.2c4.29,1.43,1.55-8.79,1.55-8.79,1.65,0,2.34-2.22,2.34-2.22,4.46-.39,5.61-5.27,5.89-4.62,7.41,4.71,8.83,1.15,8.83,1.15"/><path class="cls-47" d="M242.92,380h0c1.26-.13,3-1.33,3-2.08,0-.12,0-.41-.51-.48-.68-.11-2.78-1.82-3.39-4a4,4,0,0,1,1.49-4.33.16.16,0,1,0-.21-.25,4.28,4.28,0,0,0-1.6,4.66c.62,2.22,2.77,4.11,3.65,4.25.24,0,.24.12.24.16,0,.49-1.54,1.64-2.76,1.76a.16.16,0,0,0,0,.32"/><g class="cls-39"><g class="cls-72"><path class="cls-51" d="M237.56,394.23a.16.16,0,0,0,0-.32c-8.48-1.12-11.42-6.24-11.74-7.55a.16.16,0,0,0-.31.08c.41,1.66,3.5,6.67,12,7.79h0"/></g></g><g class="cls-39"><g class="cls-73"><path class="cls-51" d="M222.93,383a.16.16,0,0,0,.17-.15.16.16,0,0,0-.15-.18c-.77-.07-1.28-.38-1.44-.87a1.25,1.25,0,0,1,.42-1.28,1.54,1.54,0,0,1,1.74-.16.16.16,0,0,0,.17,0,.16.16,0,0,0,.05-.16,3.31,3.31,0,0,0-1.53-2.1,2,2,0,0,0-1.88.28.16.16,0,1,0,.17.28,1.74,1.74,0,0,1,1.59-.26,2.67,2.67,0,0,1,1.24,1.57,1.81,1.81,0,0,0-1.77.34,1.58,1.58,0,0,0-.51,1.62c.11.36.49,1,1.71,1.09h0"/></g></g><g class="cls-39"><g class="cls-74"><path class="cls-51" d="M241,389.9a4.73,4.73,0,0,0,3.26-.89.16.16,0,0,0,0-.23.16.16,0,0,0-.23,0c-1.89,1.53-5,.47-5,.46a.16.16,0,0,0-.11.3,8,8,0,0,0,2,.38"/></g></g><path class="cls-47" d="M246.14,383.07c-.24-1.86-1.26-.63-3.74,0-2.73.65-5.28-1.39-6.66-1s-.46,5.52,3.91,6.17,6.75-3.06,6.49-5.16"/><path class="cls-75" d="M235.74,382.06a5.25,5.25,0,0,1,2.7.52l.67,1a5.54,5.54,0,0,1,2.82,4.59,6.25,6.25,0,0,1-2.28.06c-4.37-.65-5.3-5.73-3.91-6.17"/><path class="cls-61" d="M236.74,382.07c1.45.29,3.5,1.47,5.66,1,1.42-.33,2.36-.88,3-.94-1.65,3.65-6.58,4.67-8.61,0"/><path class="cls-47" d="M232.85,374.69c-.07,1.33.6,2.44,1.49,2.49s1.68-1,1.75-2.31-.6-2.44-1.49-2.49-1.68,1-1.75,2.31"/><path class="cls-47" d="M243.41,373.87c-.07,1.33.6,2.44,1.49,2.49s1.68-1,1.75-2.31-.6-2.44-1.49-2.49-1.68,1-1.75,2.31"/><path class="cls-47" d="M237.35,370.33a15.07,15.07,0,0,0-7.42,1.25c.87-2.11,5.84-4.92,7.42-1.25"/><path class="cls-47" d="M247.61,369.62c-2-1.08-3.72,0-3.79-.25.81-2.49,3.83-2.07,3.79.25"/><path class="cls-46" d="M865.26,554.42c-1.19,10.23.34,17.47,2,21.31s-1.36,7.33-1.87,9.72-2,10.31-2,10.31l-8.1-.68s.6-8.86.26-9c-5.63.77-10.91,5.46-13.13,7.33s-20.8.51-21.74-.09c-1.45-2.56,9.38-4.86,9.89-5.88,5.28-8.35,16.28-17.73,17.9-20.54S851.88,552,851.88,552Z"/><path class="cls-47" d="M830.5,587.59c3.35.61,7,1.59,8.34,1.1,1.8-.65,14.23-14.21,27.11-16.92a25.61,25.61,0,0,0,1.27,4c1.62,3.83-1.36,7.33-1.87,9.72s-2,10.31-2,10.31l-8.1-.68s.6-8.86.26-8.95c-5.63.77-10.91,5.45-13.13,7.33s-20.8.51-21.74-.09c-1.41-2.48,8.76-4.72,9.82-5.79"/><path class="cls-76" d="M820.9,592.1c2.73.73,14.18.92,16.49.77,2.56-.17,4.52-.6,7.5-3.58s12.13-7,22-7.76a32.2,32.2,0,0,0-1.58,3.92c-.51,2.39-2,10.31-2,10.31l-8.1-.68s.6-8.86.26-8.95c-5.63.77-10.91,5.46-13.13,7.33s-20.8.51-21.74-.09a1.05,1.05,0,0,1,.22-1.28"/><path class="cls-49" d="M974.8,419.83c9.46,22.59,6,39.72-10.1,46.88s-86.18.64-85.92,2.94a85.46,85.46,0,0,1,.13,32.22c-3.32,16.62-12.4,55.36-12.4,55.36-8.69,1-17.52-2.56-17.52-2.56l.38-47.69s-13.81-46-13.3-57.28,5.63-18.67,13.55-20.46,87.2-16.49,87.2-16.49,25.83.77,26.21.9,11.76,6.18,11.76,6.18"/><path class="cls-47" d="M974.88,416.16l-.09,3.67c-23.19,1.36-38.19,1-39.38-2.22s39.47-1.45,39.47-1.45"/><path class="cls-61" d="M874,357.47l2.64-1.78a2.69,2.69,0,0,0,.73-3.74l-16.07-23.84a2.69,2.69,0,0,0-3.74-.73l-2.64,1.78a2.69,2.69,0,0,0-.73,3.74l16.07,23.84a2.69,2.69,0,0,0,3.74.73"/><path class="cls-46" d="M919,385.48c-13.64-11.76-34.78-22.84-36.14-24.55s-2.22-12.79-4.09-14.32-6.35-6.61-7.25-7.44c-1.47-.26-1,3.13,1.41,5.69s2.17,5.82-1.6,4.28-13-8.31-13.1-6.59,6.2,6.9,4.73,6-3.39-2.24-3.2-.83,1.6,3,1.41,3c0,2,8,11.12,10.23,12.79s6.46,4.6,6.84,5.24,33.5,36.57,35.48,38.55,10.93,2,10.93,2Z"/><path class="cls-47" d="M973.35,278.42c8.86,3.24,3.07,12.79,7,15.68s7.84,13.13,4.09,15-4.26,3.41-3.07,5.8,0,9.21-5.8,7.16-7.16-1-9.55-.34-12.1-8.52-15.68-8.69-4.09,3.75-10.91,0-7.67-10.23-4.6-13,2.21-5.63.17-9.72.68-5.63,1.19-7c-1.87-6,9.72-10.23,16.88-7.5s15.34-1.36,20.29,2.56"/><path class="cls-48" d="M919,385.48a40.1,40.1,0,0,1,5.63-2c.51,0,3.92-4.94,3.92-4.94,0-3.75-4.94-12.27-2.22-14.83s13.81-14.49,17-19.95,8.31-13.62,8.31-13.62,3.28-5.48,4.65-5.82,9.21-.68,9.21-.68l.85.49,2.73,4.11c8.18,14.15,10.4,30.17,5.63,44.84s-3.75,25.4.85,32.39,4.6,13.3-1.19,13.13-14-1.87-23.7,0-16.37.34-18.24-2.73a11.71,11.71,0,0,1-1.71-6.14c-2.56,2-5.8,5.11-9-2s-4.26-21.48-2.73-22.16"/><path class="cls-46" d="M941.17,317.24c1.21,3.2,5.63,4,8.63,3.26,0,0,3.26,3.07,1.85,9.59-.06.32,7.86-3.71,14.7-6,0,0-.7-.7.13-3.52.19,0-2-2.49-1.53-5.43s2.43-2.11.7-4.09c2.17-.06,4.16-1.73,5.05-5.56s-4-5.88-6.65-3c-.13.26-.64-1.28.51-2.68,0-.13-3-1-2.88-3.77s2.24-8.5-1.34-10.29-9.21-3.71-9.91-7.35c-5.95,1.54-9.53,8.44-10.1,16s-.41,19.55.83,22.82"/><g class="cls-39"><g class="cls-77"><path class="cls-51" d="M964.87,309.17a3.25,3.25,0,0,0,2.2-.74,1.75,1.75,0,0,0,.57-1.78c-.26-1-1.29-1.72-2.86-2.12a3.17,3.17,0,0,1,2-1.27,3.06,3.06,0,0,1,2.47,1.14.2.2,0,0,0,.28-.27,3.42,3.42,0,0,0-2.79-1.26,3.73,3.73,0,0,0-2.44,1.68.2.2,0,0,0,.13.29c1.58.35,2.62,1,2.86,1.91a1.37,1.37,0,0,1-.45,1.39c-.63.57-1.95,1-3.76.29a.2.2,0,1,0-.14.37,5.73,5.73,0,0,0,2,.38"/></g></g><g class="cls-39"><g class="cls-78"><path class="cls-51" d="M950.44,320.51h.06c.08,0,8-2.46,11.62-8.46a.2.2,0,0,0-.34-.2c-3.56,5.87-11.32,8.26-11.4,8.29a.2.2,0,0,0,.06.38"/></g></g><path class="cls-47" d="M950.21,311.31a18.26,18.26,0,0,0,2.18-.13.2.2,0,1,0,0-.39,15.8,15.8,0,0,1-10.22-2,.2.2,0,1,0-.22.32,15.67,15.67,0,0,0,8.32,2.21"/><g class="cls-39"><g class="cls-79"><path class="cls-51" d="M945.8,315.84a3.64,3.64,0,0,0,.72-.07.2.2,0,0,0-.08-.39,4.46,4.46,0,0,1-2.92-.61.2.2,0,1,0-.21.33,5,5,0,0,0,2.5.74"/></g></g><path class="cls-47" d="M946.92,305.61a.2.2,0,0,0,.05-.38c-1.28-.35-3.27-.91-3.88-1.12l.41-.48c1.64-1.84,6-6.73,2.68-11.3a.2.2,0,1,0-.32.23c3.12,4.32-1.07,9-2.65,10.81-.52.58-.61.7-.59.85a.24.24,0,0,0,.1.15c.33.2,3.51,1.06,4.14,1.23h.05"/><g class="cls-39"><g class="cls-80"><path class="cls-55" d="M948.54,341.26a.2.2,0,0,0,.16-.08c2.18-2.88,11.13-7.27,20.36-1.06a.2.2,0,1,0,.22-.32c-9.45-6.36-18.65-1.81-20.89,1.15a.2.2,0,0,0,.16.31"/></g></g><g class="cls-39"><g class="cls-81"><path class="cls-55" d="M951.36,331.72l.08,0a34.35,34.35,0,0,1,16.1-2.54.2.2,0,0,0,0-.39,34.77,34.77,0,0,0-16.3,2.58.2.2,0,0,0,.09.37"/></g></g><g class="cls-39"><g class="cls-82"><path class="cls-55" d="M929.79,381.16l.09,0c.07,0,1.71-.93,6.2-6.44,3.08-3.78,5.13-10.77,6.94-16.94.83-2.83,1.61-5.51,2.38-7.41a.2.2,0,0,0-.36-.15c-.78,1.91-1.56,4.6-2.4,7.44-1.8,6.13-3.83,13.08-6.86,16.8-4.41,5.41-6.06,6.34-6.08,6.34a.2.2,0,0,0,.09.37"/></g></g><g class="cls-39"><g class="cls-83"><path class="cls-55" d="M930.3,408a.2.2,0,0,0,.15-.33c-.07-.07-6.5-7.46-5.41-22.87a.2.2,0,0,0-.39,0c-1.1,15.59,5.44,23.09,5.5,23.16a.2.2,0,0,0,.15.06"/></g></g><g class="cls-39"><g class="cls-84"><path class="cls-55" d="M932.77,407.07l.08,0c.19-.08,18.77-8.4,30.6-25.38a.2.2,0,0,0-.32-.23c-11.76,16.89-30.25,25.17-30.43,25.25a.2.2,0,0,0,.08.38"/></g></g><g class="cls-39"><g class="cls-85"><path class="cls-55" d="M850.09,505.18h0a.19.19,0,0,0,.19-.2c0-.48-.49-48.12,1-54.51,1.46-6.17,55.1-25.08,80.85-33.27a.2.2,0,1,0-.12-.37c-16.71,5.32-79.46,26.6-81.11,33.56-1.52,6.43-1,52.64-1,54.6a.2.2,0,0,0,.2.19"/></g></g><g class="cls-39"><g class="cls-86"><path class="cls-55" d="M962.46,422.81h0a.16.16,0,0,0,.11-.2c-.17-.56-.36-1.22-.54-1.88a.16.16,0,1,0-.32.08c.18.67.37,1.33.54,1.89a.16.16,0,0,0,.16.12"/><path class="cls-55" d="M861.32,543.12a.16.16,0,0,1-.15-.18l.34-3.9a.16.16,0,1,1,.33,0l-.34,3.9a.16.16,0,0,1-.16.15h0m.68-7.81a.16.16,0,0,1-.15-.18l.34-3.9a.16.16,0,1,1,.33,0l-.34,3.9a.16.16,0,0,1-.16.15h0m.68-7.81a.16.16,0,0,1-.15-.18l.34-3.9a.16.16,0,0,1,.33,0l-.34,3.9a.16.16,0,0,1-.16.15h0m.67-7.81a.16.16,0,0,1-.15-.18l.33-3.9a.16.16,0,1,1,.33,0l-.33,3.9a.16.16,0,0,1-.16.15h0m.66-7.81a.16.16,0,0,1-.15-.18l.33-3.9a.16.16,0,0,1,.33,0l-.33,3.9a.16.16,0,0,1-.16.15h0m.65-7.81a.16.16,0,0,1-.15-.18l.32-3.9a.16.16,0,1,1,.33,0l-.32,3.9a.17.17,0,0,1-.16.15h0m.64-7.81a.16.16,0,0,1-.15-.18c.11-1.34.21-2.64.31-3.91a.16.16,0,1,1,.33,0c-.1,1.26-.2,2.57-.31,3.9a.16.16,0,0,1-.16.15h0m.61-7.81a.16.16,0,0,1-.15-.18c.11-1.37.2-2.68.29-3.91a.16.16,0,1,1,.33,0c-.09,1.23-.19,2.54-.29,3.91a.16.16,0,0,1-.16.15h0m.57-7.82a.16.16,0,0,1-.15-.17c.1-1.56.19-2.88.24-3.91a.16.16,0,1,1,.33,0c-.05,1-.13,2.35-.24,3.92a.16.16,0,0,1-.16.15h0m0-8a14.25,14.25,0,0,0-.45-1.84,4.63,4.63,0,0,1-.28-1.32,2,2,0,0,1,.14-.73.16.16,0,0,1,.3.12,1.67,1.67,0,0,0-.12.61,4.45,4.45,0,0,0,.26,1.23,14.39,14.39,0,0,1,.46,1.88.16.16,0,0,1-.13.19h0a.16.16,0,0,1-.16-.14m1.88-6.74a.16.16,0,0,1,0-.23,2,2,0,0,0,.65-1.31,3.7,3.7,0,0,0-.91-2,.16.16,0,0,1,.26-.19,3.91,3.91,0,0,1,1,2.15,2.31,2.31,0,0,1-.74,1.52.16.16,0,0,1-.12.06.16.16,0,0,1-.11,0m1.84-6a.16.16,0,0,1,.07-.22c.94-.49,2.15-1,3.59-1.61a.16.16,0,1,1,.12.3c-1.43.58-2.63,1.11-3.56,1.59l-.07,0a.16.16,0,0,1-.15-.09m7.23-3a.16.16,0,0,1,.1-.21c1.15-.41,2.4-.84,3.71-1.28a.16.16,0,0,1,.21.1.17.17,0,0,1-.1.21c-1.3.43-2.55.86-3.7,1.27h-.05a.16.16,0,0,1-.15-.11m7.43-2.48a.16.16,0,0,1,.11-.21c1.21-.37,2.47-.76,3.75-1.13a.16.16,0,0,1,.09.31c-1.28.38-2.54.76-3.74,1.13h0a.16.16,0,0,1-.16-.11m7.51-2.22a.16.16,0,0,1,.11-.2l3.78-1a.16.16,0,0,1,.2.12.16.16,0,0,1-.11.2l-3.77,1h0a.16.16,0,0,1-.16-.12m7.56-2a.16.16,0,0,1,.12-.2l3.8-.95a.16.16,0,0,1,.08.32l-3.8.94h0a.16.16,0,0,1-.16-.12m7.61-1.85a.17.17,0,0,1,.12-.2l3.82-.86a.16.16,0,1,1,.07.32l-3.82.86h0a.16.16,0,0,1-.16-.13m7.66-1.68a.16.16,0,0,1,.13-.19l3.84-.77a.16.16,0,1,1,.06.32l-3.84.76h0a.16.16,0,0,1-.16-.13m7.68-1.48A.16.16,0,0,1,923,445c1.3-.23,2.6-.46,3.86-.66a.16.16,0,0,1,.05.32c-1.26.21-2.56.43-3.86.66h0a.16.16,0,0,1-.16-.13m7.73-1.26a.16.16,0,0,1,.14-.18c1.32-.19,2.62-.37,3.88-.53a.16.16,0,1,1,0,.32c-1.26.16-2.56.34-3.88.53h0a.16.16,0,0,1-.16-.14m7.77-1a.16.16,0,0,1,.14-.18l1.39-.14,2.5-.26a.16.16,0,0,1,.18.14.16.16,0,0,1-.14.18l-2.5.26-1.39.14h0a.16.16,0,0,1-.16-.15m7.76-.91a.16.16,0,0,1,.14-.19c1.35-.21,2.65-.44,3.84-.69a.16.16,0,0,1,.19.13.16.16,0,0,1-.13.19c-1.2.25-2.49.48-3.85.69h0a.16.16,0,0,1-.16-.14m7.64-1.61a.16.16,0,0,1,.11-.2,29.42,29.42,0,0,0,3.65-1.32.16.16,0,0,1,.13.3A29.72,29.72,0,0,1,954,440.5h0a.16.16,0,0,1-.16-.12m7.06-3.24a.16.16,0,0,1,0-.23,8.17,8.17,0,0,0,2.41-2.93.16.16,0,1,1,.3.14,8.47,8.47,0,0,1-2.5,3,.16.16,0,0,1-.1,0,.17.17,0,0,1-.13-.06m3.14-6.88a17.69,17.69,0,0,0-.6-3.82.16.16,0,0,1,.32-.08,18,18,0,0,1,.61,3.89.16.16,0,0,1-.16.17h0a.16.16,0,0,1-.16-.16"/><path class="cls-55" d="M860.83,548.79a.16.16,0,0,0,.16-.15l.17-2a.16.16,0,1,0-.33,0l-.17,2a.16.16,0,0,0,.15.18h0"/></g></g><g class="cls-39"><g class="cls-87"><path class="cls-55" d="M865.61,553.08a.2.2,0,0,0,0-.39c-10.59-1.34-14.25-2.54-14.28-2.55a.2.2,0,0,0-.12.37s3.72,1.21,14.36,2.57h0"/></g></g><g class="cls-39"><g class="cls-88"><path class="cls-55" d="M876.34,469.26a4.39,4.39,0,0,0,.72-.06.92.92,0,0,0,.78-.48c.23-.53-.27-1.28-.9-2.22a7.31,7.31,0,0,1-1.26-2.46.2.2,0,1,0-.39.06,7.59,7.59,0,0,0,1.32,2.62c.5.74,1,1.51.87,1.85-.05.12-.22.21-.48.25a6.39,6.39,0,0,1-4-1,.2.2,0,0,0-.22.33,7.13,7.13,0,0,0,3.52,1.11"/></g></g><g class="cls-39"><g class="cls-89"><path class="cls-55" d="M961.88,435.41a.2.2,0,0,0,0-.39h-.14c-7.51-.72-11.81-5.25-12.13-12.76a.2.2,0,0,0-.39,0c.33,7.73,4.76,12.39,12.49,13.13h.16"/></g></g><path class="cls-47" d="M953.62,299.11c-.16,1.31.41,2.45,1.27,2.55s1.68-.87,1.84-2.18-.41-2.45-1.27-2.55-1.68.87-1.84,2.18"/><path class="cls-47" d="M942.68,297.13c-.16,1.31.41,2.45,1.27,2.55s1.68-.87,1.84-2.18-.41-2.45-1.27-2.55-1.68.87-1.84,2.18"/><path class="cls-47" d="M961.69,296a25,25,0,0,0-10.17-3.26c3.32-2.3,7.93-.89,10.17,3.26"/><path class="cls-47" d="M945.52,291.67a4.18,4.18,0,0,0-4.48.77c1.09-3.45,4-2.62,4.48-.77"/><g class="cls-39"><g class="cls-90"><path class="cls-51" d="M951.85,310.91c-4.73-2.56-9.21-3.22-9.61-1.9-.32,4.3,3.71,7.74,9.61,1.9"/></g></g><path class="cls-61" d="M963.27,311.43a1.28,1.28,0,1,0,1.28-1.28,1.28,1.28,0,0,0-1.28,1.28"/><path class="cls-48" d="M845.59,290.94,837.89,230l-.1.06c0-.26,0-.51,0-.76a40.14,40.14,0,0,0-40.14-40.14H719.25a40.14,40.14,0,0,0,0,80.29h78.42A39.94,39.94,0,0,0,820.93,262Z"/><path class="cls-61" d="M742.93,219.36H702.41a4,4,0,0,1-4-4v-4.74a4,4,0,0,1,4-4h40.52a4,4,0,0,1,4,4v4.74a4,4,0,0,1-4,4"/><path class="cls-61" d="M805.8,248.62H703a4,4,0,0,1-4-4v-4.74a4,4,0,0,1,4-4H805.8a4,4,0,0,1,4,4v4.74a4,4,0,0,1-4,4"/></g></g></g></g></svg>