<svg id="Capa_1" data-name="Capa 1" xmlns="http://www.w3.org/2000/svg" viewBox="0 0 791.8 791.8"><defs><style>.cls-1{fill:#fdc543;}</style></defs><title>icon-30</title><path class="cls-1" d="M395.9,475l-236.2-72.7V523.74c0,56.13,105.79,101.64,236.27,101.64s236.29-45.51,236.29-101.64c0-.44-.15-.89-.15-1.32V402.32Z"/><path class="cls-1" d="M0,318.73l84.38,30.18,7.19-15.4,31-2.64,4.42,4.6-26.6,6.31-3.88,11.48s-60.09,125.6-51.26,187c0,0,37.5,22.37,75,0l10-168v-14L186,345.74l-3.94,9.7L140.46,369l19.24,6.87,236.2,72.7,236.2-72.7,159.7-57.12L395.9,166.42Z"/></svg>