<svg xmlns="http://www.w3.org/2000/svg" xmlns:xlink="http://www.w3.org/1999/xlink" viewBox="0 0 1109.28 788.33"><defs><style>.cls-1{fill:none;}.cls-2{isolation:isolate;}.cls-3{clip-path:url(#clip-path);}.cls-4{clip-path:url(#clip-path-2);}.cls-5{opacity:0.12;}.cls-6{clip-path:url(#clip-path-3);}.cls-7{fill:#1e0f00;}.cls-8{clip-path:url(#clip-path-4);}.cls-9{clip-path:url(#clip-path-5);}.cls-10{clip-path:url(#clip-path-6);}.cls-11{clip-path:url(#clip-path-7);}.cls-12{clip-path:url(#clip-path-8);}.cls-13{clip-path:url(#clip-path-9);}.cls-14{clip-path:url(#clip-path-10);}.cls-15{clip-path:url(#clip-path-11);}.cls-16{clip-path:url(#clip-path-12);}.cls-17{clip-path:url(#clip-path-13);}.cls-18{clip-path:url(#clip-path-14);}.cls-19{clip-path:url(#clip-path-15);}.cls-20{clip-path:url(#clip-path-16);}.cls-21{clip-path:url(#clip-path-17);}.cls-22{clip-path:url(#clip-path-18);}.cls-23{clip-path:url(#clip-path-19);}.cls-24{clip-path:url(#clip-path-20);}.cls-25{fill:#6fa0bf;}.cls-26{fill:#8fbcd9;}.cls-27{fill:#274f69;}.cls-28{fill:#376f92;}.cls-29{fill:#a1c8ad;}.cls-30{fill:#6bb3ab;}.cls-31{fill:#55949e;}.cls-32{fill:#413931;}.cls-33{fill:#fff7eb;}.cls-34{fill:#f0ddc0;}.cls-35{mix-blend-mode:multiply;}.cls-36{clip-path:url(#clip-path-22);}.cls-37{fill:#f0d3cc;}.cls-38{clip-path:url(#clip-path-23);}.cls-39{clip-path:url(#clip-path-24);}.cls-40{clip-path:url(#clip-path-25);}.cls-41{clip-path:url(#clip-path-26);}.cls-42{clip-path:url(#clip-path-27);}.cls-43{clip-path:url(#clip-path-28);}.cls-44{clip-path:url(#clip-path-29);}.cls-45{clip-path:url(#clip-path-30);}.cls-46{clip-path:url(#clip-path-31);}.cls-47{clip-path:url(#clip-path-32);}.cls-48{clip-path:url(#clip-path-33);}.cls-49{fill:#854e32;}.cls-50{fill:#a3603e;}.cls-51{fill:#b86c46;}.cls-52{mix-blend-mode:screen;}.cls-53{clip-path:url(#clip-path-34);}.cls-54{fill:#332d22;}.cls-55{clip-path:url(#clip-path-35);}.cls-56{fill:#cfa691;}.cls-57{clip-path:url(#clip-path-36);}.cls-58{fill:#dbdbdb;}.cls-59{fill:#6aa8cf;}.cls-60{fill:#3c79a6;}.cls-61{fill:#78b8e8;}.cls-62{fill:#ff8762;}.cls-63{fill:#2b1710;}.cls-64{fill:#4f3025;}.cls-65{fill:#ea2f54;}.cls-66{fill:#d67152;}.cls-67{fill:#eb7c5a;}.cls-68{fill:#92e8e5;}.cls-69{fill:#f0e2c9;}.cls-70{clip-path:url(#clip-path-37);}.cls-71{fill:#ccc;}.cls-72{clip-path:url(#clip-path-38);}.cls-73{clip-path:url(#clip-path-39);}.cls-74{clip-path:url(#clip-path-40);}.cls-75{clip-path:url(#clip-path-41);}.cls-76{clip-path:url(#clip-path-42);}.cls-77{fill:#b3b3b3;}.cls-78{clip-path:url(#clip-path-43);}.cls-79{clip-path:url(#clip-path-44);}.cls-80{clip-path:url(#clip-path-45);}.cls-81{fill:#474259;}.cls-82{fill:#585073;}.cls-83{fill:#8e88a6;}.cls-84{clip-path:url(#clip-path-46);}.cls-85{fill:#e0b3a8;}.cls-86{clip-path:url(#clip-path-47);}.cls-87{fill:#fef5e4;}.cls-88{clip-path:url(#clip-path-48);}.cls-89{clip-path:url(#clip-path-49);}.cls-90{fill:#6b484b;}.cls-91{fill:#4d3436;}.cls-92{clip-path:url(#clip-path-50);}.cls-93{clip-path:url(#clip-path-51);}.cls-94{clip-path:url(#clip-path-52);}.cls-95{fill:#581710;}.cls-96{fill:#fff;}.cls-97{clip-path:url(#clip-path-53);}.cls-98{fill:#bfbfbf;}.cls-99{clip-path:url(#clip-path-54);}.cls-100{clip-path:url(#clip-path-55);}.cls-101{clip-path:url(#clip-path-56);}.cls-102{clip-path:url(#clip-path-57);}.cls-103{clip-path:url(#clip-path-58);}.cls-104{clip-path:url(#clip-path-59);}.cls-105{clip-path:url(#clip-path-60);}.cls-106{clip-path:url(#clip-path-61);}.cls-107{clip-path:url(#clip-path-62);}.cls-108{clip-path:url(#clip-path-63);}.cls-109{clip-path:url(#clip-path-64);}.cls-110{clip-path:url(#clip-path-65);}.cls-111{clip-path:url(#clip-path-66);}.cls-112{clip-path:url(#clip-path-67);}.cls-113{clip-path:url(#clip-path-68);}.cls-114{clip-path:url(#clip-path-69);}.cls-115{clip-path:url(#clip-path-70);}.cls-116{clip-path:url(#clip-path-71);}.cls-117{clip-path:url(#clip-path-72);}.cls-118{clip-path:url(#clip-path-73);}.cls-119{clip-path:url(#clip-path-74);}</style><clipPath id="clip-path"><rect class="cls-1" width="1109.28" height="788.33"/></clipPath><clipPath id="clip-path-2"><rect class="cls-1" width="1109.28" height="788.33"/></clipPath><clipPath id="clip-path-3"><rect class="cls-1" x="731.82" y="203.68" width="205.28" height="263.2"/></clipPath><clipPath id="clip-path-4"><rect class="cls-1" x="102.17" y="173.4" width="45.33" height="43.61"/></clipPath><clipPath id="clip-path-5"><rect class="cls-1" x="119.7" y="166.25" width="128.05" height="128.05"/></clipPath><clipPath id="clip-path-6"><rect class="cls-1" x="556.4" y="173.1" width="178.95" height="178.92"/></clipPath><clipPath id="clip-path-7"><rect class="cls-1" x="700.46" y="176.3" width="40.43" height="32.54"/></clipPath><clipPath id="clip-path-8"><rect class="cls-1" y="482.46" width="35.52" height="33.78"/></clipPath><clipPath id="clip-path-9"><rect class="cls-1" x="256.81" y="162.69" width="35.52" height="33.78"/></clipPath><clipPath id="clip-path-10"><rect class="cls-1" x="320.8" y="135" width="43.99" height="41.7"/></clipPath><clipPath id="clip-path-11"><rect class="cls-1" x="415.9" y="400.88" width="39.41" height="39.41"/></clipPath><clipPath id="clip-path-12"><rect class="cls-1" x="932.7" y="227.81" width="32.91" height="32.91"/></clipPath><clipPath id="clip-path-13"><rect class="cls-1" x="470.77" y="230.73" width="19.08" height="19.32"/></clipPath><clipPath id="clip-path-14"><rect class="cls-1" x="713.85" y="683.97" width="28.58" height="19.83"/></clipPath><clipPath id="clip-path-15"><rect class="cls-1" x="576.76" y="130.86" width="28.58" height="19.83"/></clipPath><clipPath id="clip-path-16"><rect class="cls-1" x="656.6" y="425.15" width="28.58" height="19.83"/></clipPath><clipPath id="clip-path-17"><rect class="cls-1" x="1042.97" y="710.25" width="35.52" height="33.78"/></clipPath><clipPath id="clip-path-18"><rect class="cls-1" x="993.44" y="145.9" width="35.51" height="33.78"/></clipPath><clipPath id="clip-path-19"><rect class="cls-1" x="445.38" y="166.44" width="35.52" height="33.78"/></clipPath><clipPath id="clip-path-20"><rect class="cls-1" x="64.99" y="706.97" width="18.34" height="19.83"/></clipPath><clipPath id="clip-path-22"><rect class="cls-1" x="295.91" y="363.64" width="16.37" height="338.56"/></clipPath><clipPath id="clip-path-23"><rect class="cls-1" x="265.23" y="363.64" width="16.37" height="338.56"/></clipPath><clipPath id="clip-path-24"><rect class="cls-1" x="234.55" y="363.64" width="16.37" height="338.56"/></clipPath><clipPath id="clip-path-25"><rect class="cls-1" x="326.6" y="363.64" width="16.37" height="338.56"/></clipPath><clipPath id="clip-path-26"><rect class="cls-1" x="357.28" y="363.64" width="16.37" height="338.56"/></clipPath><clipPath id="clip-path-27"><rect class="cls-1" x="174.79" y="233.67" width="85.32" height="92.85"/></clipPath><clipPath id="clip-path-28"><rect class="cls-1" x="353.31" y="233.67" width="85.32" height="92.85"/></clipPath><clipPath id="clip-path-29"><rect class="cls-1" x="251.4" y="227.93" width="107.09" height="13.83"/></clipPath><clipPath id="clip-path-30"><rect class="cls-1" x="266.14" y="258.61" width="77.62" height="13.83"/></clipPath><clipPath id="clip-path-31"><rect class="cls-1" x="266.14" y="289.29" width="77.62" height="13.83"/></clipPath><clipPath id="clip-path-32"><rect class="cls-1" x="251.4" y="319.98" width="107.09" height="13.83"/></clipPath><clipPath id="clip-path-33"><rect class="cls-1" x="195.86" y="335.8" width="147.11" height="403.51"/></clipPath><clipPath id="clip-path-34"><rect class="cls-1" x="902.86" y="495.19" width="54.46" height="102.97"/></clipPath><clipPath id="clip-path-35"><rect class="cls-1" x="929.41" y="428.31" width="30.38" height="45.39"/></clipPath><clipPath id="clip-path-36"><rect class="cls-1" x="155.53" y="612.48" width="77.72" height="49.2"/></clipPath><clipPath id="clip-path-37"><rect class="cls-1" x="236.18" y="511.71" width="17.63" height="18.42"/></clipPath><clipPath id="clip-path-38"><rect class="cls-1" x="239.06" y="544.6" width="23.13" height="31.78"/></clipPath><clipPath id="clip-path-39"><rect class="cls-1" x="232.9" y="576.78" width="6.37" height="5.75"/></clipPath><clipPath id="clip-path-40"><rect class="cls-1" x="229.76" y="598.18" width="31.91" height="6.32"/></clipPath><clipPath id="clip-path-41"><rect class="cls-1" x="293.04" y="542.11" width="1.03" height="19.6"/></clipPath><clipPath id="clip-path-42"><rect class="cls-1" x="305.01" y="614.82" width="76.98" height="57.77"/></clipPath><clipPath id="clip-path-43"><rect class="cls-1" x="342.74" y="645.92" width="6.41" height="8.25"/></clipPath><clipPath id="clip-path-44"><rect class="cls-1" x="270.94" y="628.62" width="2.47" height="10.6"/></clipPath><clipPath id="clip-path-45"><rect class="cls-1" x="256.97" y="635.44" width="124.5" height="77.68"/></clipPath><clipPath id="clip-path-46"><rect class="cls-1" x="305.1" y="570.01" width="8.85" height="4.01"/></clipPath><clipPath id="clip-path-47"><rect class="cls-1" x="304.44" y="573.03" width="8.46" height="6.63"/></clipPath><clipPath id="clip-path-48"><rect class="cls-1" x="378.33" y="507.32" width="1.91" height="3.55"/></clipPath><clipPath id="clip-path-49"><rect class="cls-1" x="383.31" y="507.78" width="1.98" height="8.4"/></clipPath><clipPath id="clip-path-50"><rect class="cls-1" x="260.38" y="484.46" width="4.91" height="6.95"/></clipPath><clipPath id="clip-path-51"><rect class="cls-1" x="283.01" y="502.15" width="5.7" height="1.05"/></clipPath><clipPath id="clip-path-52"><rect class="cls-1" x="266.14" y="494.3" width="13.99" height="14.91"/></clipPath><clipPath id="clip-path-53"><rect class="cls-1" x="890.39" y="547.24" width="15.8" height="2"/></clipPath><clipPath id="clip-path-54"><rect class="cls-1" x="879.38" y="551.54" width="9.68" height="14.96"/></clipPath><clipPath id="clip-path-55"><rect class="cls-1" x="918.72" y="566.33" width="1.18" height="11.24"/></clipPath><clipPath id="clip-path-56"><rect class="cls-1" x="875.02" y="576.03" width="7.27" height="4.08"/></clipPath><clipPath id="clip-path-57"><rect class="cls-1" x="890.65" y="608.34" width="17.56" height="68.82"/></clipPath><clipPath id="clip-path-58"><rect class="cls-1" x="866.94" y="606.52" width="15.28" height="109.6"/></clipPath><clipPath id="clip-path-59"><rect class="cls-1" x="873.41" y="605.6" width="5.03" height="12.54"/></clipPath><clipPath id="clip-path-60"><rect class="cls-1" x="885.78" y="536.28" width="5.43" height="1.86"/></clipPath><clipPath id="clip-path-61"><rect class="cls-1" x="908.04" y="529.71" width="4.03" height="3.9"/></clipPath><clipPath id="clip-path-62"><rect class="cls-1" x="891.22" y="534.5" width="14.27" height="7.78"/></clipPath><clipPath id="clip-path-63"><rect class="cls-1" x="534.87" y="217.58" width="4.36" height="4.98"/></clipPath><clipPath id="clip-path-64"><rect class="cls-1" x="540.61" y="222.78" width="9.38" height="8.33"/></clipPath><clipPath id="clip-path-65"><rect class="cls-1" x="551.33" y="226.8" width="4.03" height="0.8"/></clipPath><clipPath id="clip-path-66"><rect class="cls-1" x="521.95" y="243.38" width="7.57" height="9.86"/></clipPath><clipPath id="clip-path-67"><rect class="cls-1" x="560.74" y="245.42" width="5.01" height="14.45"/></clipPath><clipPath id="clip-path-68"><rect class="cls-1" x="524.51" y="298.11" width="9.48" height="6.93"/></clipPath><clipPath id="clip-path-69"><rect class="cls-1" x="521.32" y="295.18" width="4.63" height="115.49"/></clipPath><clipPath id="clip-path-70"><rect class="cls-1" x="518.89" y="411.53" width="21.85" height="1.19"/></clipPath><clipPath id="clip-path-71"><rect class="cls-1" x="559.97" y="407.78" width="21.6" height="3.6"/></clipPath><clipPath id="clip-path-72"><rect class="cls-1" x="547.98" y="294.41" width="6.67" height="60.89"/></clipPath><clipPath id="clip-path-73"><rect class="cls-1" x="547.6" y="291.22" width="5.01" height="1.31"/></clipPath><clipPath id="clip-path-74"><rect class="cls-1" x="610.32" y="258.53" width="3.6" height="8.19"/></clipPath></defs><title>img-4</title><g class="cls-2"><g id="Слой_1" data-name="Слой 1"><g class="cls-3"><g class="cls-4"><g class="cls-5"><g class="cls-6"><path class="cls-7" d="M775,207.36c-62.44,18.53-74.44,242.73,82.58,258.91s55.83-300-82.58-258.91"/></g></g><g class="cls-5"><g class="cls-8"><path class="cls-7" d="M139.67,217h-37.5V194h37.5Zm-36.26-1.24h35V195.26h-35Z"/><path class="cls-7" d="M147.5,211.92l-9.07-1.7V200.8l9.07-1.7Zm-7.82-2.73,6.58,1.23V200.6l-6.58,1.23Z"/><path class="cls-7" d="M129.89,194.49a10.55,10.55,0,1,1,10.54-10.55,10.56,10.56,0,0,1-10.54,10.55m0-19.85a9.3,9.3,0,1,0,9.3,9.3,9.31,9.31,0,0,0-9.3-9.3"/><path class="cls-7" d="M110.81,194.3a6.54,6.54,0,1,1,6.54-6.54,6.54,6.54,0,0,1-6.54,6.54m0-11.83a5.3,5.3,0,1,0,5.3,5.3,5.3,5.3,0,0,0-5.3-5.3"/></g></g><g class="cls-5"><g class="cls-9"><path class="cls-7" d="M219.45,177.15l1.31.9a.69.69,0,0,1,.17,1,.71.71,0,0,1-1,.17,63.72,63.72,0,0,0-7-4.3.69.69,0,0,1,.65-1.22,64.8,64.8,0,0,1,5.83,3.49m7.73,6.11.08.07a64,64,0,0,1,5.76,6.09.69.69,0,1,1-1.07.88,62.28,62.28,0,0,0-5.64-6,.69.69,0,0,1,.85-1.08m-21.07-13a.69.69,0,0,1-.63,1.22,62.12,62.12,0,0,0-7.86-2.34.69.69,0,0,1,.31-1.35,63.61,63.61,0,0,1,8,2.39l.15.07M237.75,196a.7.7,0,0,1,.2.21,64,64,0,0,1,4,7.38.69.69,0,0,1-1.26.57,63,63,0,0,0-3.89-7.22.69.69,0,0,1,1-.94M190,166.63a.69.69,0,0,1-.45,1.26,62.82,62.82,0,0,0-8.2-.22.69.69,0,0,1-.05-1.38,64.36,64.36,0,0,1,8.38.22.67.67,0,0,1,.32.11m54.65,44.42a.69.69,0,0,1,.27.37,64.6,64.6,0,0,1,1.94,8.15.69.69,0,1,1-1.36.23,63.1,63.1,0,0,0-1.89-8,.69.69,0,0,1,1-.78m-71.18-43.78a.69.69,0,0,1-.27,1.25,63.31,63.31,0,0,0-8,1.91.69.69,0,1,1-.41-1.32,64.8,64.8,0,0,1,8.15-1.95.69.69,0,0,1,.5.11m73.95,60.09a.69.69,0,0,1,.3.55,64.11,64.11,0,0,1-.23,8.38.69.69,0,1,1-1.38-.13,63.11,63.11,0,0,0,.23-8.19.69.69,0,0,1,1.08-.6m-89.76-55.21a.69.69,0,0,1-.1,1.2,62.76,62.76,0,0,0-7.21,3.9.69.69,0,0,1-.74-1.17,64,64,0,0,1,7.37-4,.69.69,0,0,1,.67.05m88.22,71.67a.69.69,0,0,1,.29.73,63.76,63.76,0,0,1-2.4,8,.69.69,0,0,1-1.3-.48,62.42,62.42,0,0,0,2.35-7.86.69.69,0,0,1,.83-.52.67.67,0,0,1,.23.1m-5.78,15.5a.69.69,0,0,1,.22.9,64.88,64.88,0,0,1-3.46,5.76q-.46.69-.94,1.37a.69.69,0,0,1-1.13-.8q.47-.66.93-1.34a63.89,63.89,0,0,0,3.38-5.64.69.69,0,0,1,.93-.29l.06,0m-9.59,13.49.09.07a.69.69,0,0,1,0,1,63.85,63.85,0,0,1-6.09,5.76.69.69,0,0,1-.88-1.07,62.52,62.52,0,0,0,6-5.63.69.69,0,0,1,.89-.11m-12.75,10.55a.68.68,0,0,1,.2.21.69.69,0,0,1-.22,1,64,64,0,0,1-7.38,4,.69.69,0,1,1-.57-1.26,62.65,62.65,0,0,0,7.23-3.89.69.69,0,0,1,.75,0m-96.68-59.79a.69.69,0,0,1,.3.64,63.16,63.16,0,0,0-.25,8.2.69.69,0,0,1-1.38,0,64.37,64.37,0,0,1,.25-8.38.69.69,0,0,1,.75-.62.71.71,0,0,1,.32.11m81.62,66.66a.68.68,0,0,1,.27.37.69.69,0,0,1-.46.86,64.72,64.72,0,0,1-8.16,1.92.69.69,0,1,1-.23-1.36,63.3,63.3,0,0,0,8-1.89.69.69,0,0,1,.59.09m-81-50.12a.69.69,0,0,1,.3.46,63.27,63.27,0,0,0,1.88,8,.69.69,0,1,1-1.32.4,64.48,64.48,0,0,1-1.92-8.16.69.69,0,0,1,1.07-.69M186.37,293a.69.69,0,0,1-.36,1.27,64.29,64.29,0,0,1-8.37-.24.69.69,0,1,1,.13-1.38,62.75,62.75,0,0,0,8.19.24.68.68,0,0,1,.41.12m-59.89-37a.7.7,0,0,1,.24.29,62.55,62.55,0,0,0,3.87,7.23.69.69,0,1,1-1.17.73,64.06,64.06,0,0,1-4-7.39.69.69,0,0,1,1-.86m43.43,35.47a.69.69,0,0,1-.54,1.25,63.66,63.66,0,0,1-8-2.41.69.69,0,1,1,.49-1.29,62.3,62.3,0,0,0,7.85,2.36.69.69,0,0,1,.23.1M135.24,270a.67.67,0,0,1,.15.14,62.32,62.32,0,0,0,5.63,6,.69.69,0,1,1-.94,1,63.87,63.87,0,0,1-5.75-6.1.69.69,0,0,1,.92-1m19.17,15.64a.69.69,0,0,1-.71,1.19,64.7,64.7,0,0,1-7.13-4.41.69.69,0,0,1,.8-1.13,63.94,63.94,0,0,0,7,4.32l.06,0"/></g></g><g class="cls-5"><g class="cls-10"><path class="cls-7" d="M722.64,218.76a.69.69,0,0,1,1.22,0c.68,1.21,1.34,2.45,2,3.69a.69.69,0,1,1-1.24.62c-.61-1.22-1.26-2.45-1.93-3.64a.69.69,0,0,1,0-.65"/><path class="cls-7" d="M727.65,229.24a.69.69,0,0,1,1.26.05c.93,2.32,1.77,4.71,2.5,7.1a.69.69,0,0,1-1.32.4c-.72-2.35-1.55-4.71-2.47-7a.69.69,0,0,1,0-.57M732,243.51a.69.69,0,0,1,1.29.16c.53,2.45,1,4.94,1.29,7.42a.69.69,0,1,1-1.37.18c-.32-2.44-.74-4.89-1.27-7.3a.69.69,0,0,1,.06-.46m1.93,14.8a.69.69,0,0,1,1.31.28c.11,2.5.12,5,0,7.53a.69.69,0,1,1-1.38-.05c.09-2.46.09-4.95,0-7.41a.68.68,0,0,1,.07-.34m-.58,14.91a.69.69,0,0,1,1.3.4c-.31,2.48-.73,5-1.24,7.42a.69.69,0,1,1-1.35-.29c.51-2.4.92-4.86,1.22-7.31a.68.68,0,0,1,.07-.23"/><path class="cls-7" d="M730.27,287.83a.69.69,0,0,1,1.28.51c-.4,1.33-.84,2.66-1.3,4a.69.69,0,0,1-1.3-.46c.46-1.29.89-2.61,1.28-3.91a.66.66,0,0,1,0-.11"/><path class="cls-7" d="M710.63,322.34a.68.68,0,0,1,.11-.16c.93-1,1.84-2.05,2.71-3.1a.69.69,0,0,1,1.06.89c-.89,1.06-1.81,2.12-2.75,3.15a.69.69,0,0,1-1.13-.78"/><path class="cls-7" d="M565.44,223.43a.69.69,0,0,1,1.24.62c-1.22,2.5-2.33,5.09-3.31,7.69a.69.69,0,0,1-1.29-.49c1-2.64,2.12-5.26,3.36-7.81Zm4-7.4,0,0c1.47-2.42,3.07-4.79,4.76-7a.69.69,0,0,1,1.11.83c-1.66,2.22-3.24,4.55-4.68,6.93a.69.69,0,0,1-1.21-.67m-10,23.17a.69.69,0,0,1,1.29.49c-.73,2.68-1.33,5.43-1.79,8.17a.69.69,0,0,1-1.36-.23c.47-2.78,1.09-5.58,1.82-8.3a.69.69,0,0,1,0-.13m20-36.67a.69.69,0,0,1,.11-.15c1.9-2.09,3.92-4.11,6-6a.69.69,0,1,1,.93,1c-2.06,1.87-4,3.86-5.92,5.92a.69.69,0,0,1-1.13-.77M556.7,255.81a.69.69,0,0,1,1.31.36c-.2,2.77-.27,5.58-.21,8.37a.69.69,0,1,1-1.38,0c-.07-2.83,0-5.68.21-8.5a.67.67,0,0,1,.07-.26M592,191.2a.68.68,0,0,1,.2-.24c2.26-1.69,4.63-3.29,7-4.76a.69.69,0,1,1,.72,1.18c-2.38,1.45-4.71,3-6.93,4.69a.69.69,0,0,1-1-.87m-34.95,81.46a.69.69,0,0,1,1.3.23c.33,2.76.79,5.54,1.38,8.26a.69.69,0,1,1-1.35.29c-.6-2.76-1.07-5.58-1.4-8.38a.69.69,0,0,1,.07-.39m49.34-90.22a.68.68,0,0,1,.32-.31c2.54-1.23,5.17-2.36,7.81-3.35a.69.69,0,0,1,.48,1.3c-2.61,1-5.2,2.08-7.69,3.3a.69.69,0,0,1-.92-.93M560.65,289.13a.69.69,0,0,1,1.28.1c.84,2.65,1.82,5.29,2.91,7.85a.69.69,0,1,1-1.27.54c-1.1-2.6-2.1-5.28-3-8a.69.69,0,0,1,0-.52m61.56-112.59a.69.69,0,0,1,.44-.36c2.73-.73,5.52-1.35,8.3-1.82a.69.69,0,1,1,.23,1.36c-2.74.47-5.49,1.07-8.18,1.79a.69.69,0,0,1-.8-1m-55,128.09a.7.7,0,0,1,.29-.3.69.69,0,0,1,.94.28c1.32,2.44,2.78,4.85,4.33,7.16a.69.69,0,1,1-1.15.77c-1.57-2.34-3.06-4.79-4.4-7.27a.69.69,0,0,1,0-.64m71.58-130.92a.69.69,0,0,1,.57-.38c2.82-.21,5.67-.28,8.5-.22a.69.69,0,0,1,0,1.38c-2.78-.06-5.59,0-8.37.21a.69.69,0,0,1-.67-1m-62.18,144.9a.69.69,0,0,1,1.15-.13c1.76,2.15,3.65,4.24,5.61,6.21a.69.69,0,0,1-1,1c-2-2-3.91-4.12-5.7-6.31a.69.69,0,0,1-.08-.75m79-144.53a.69.69,0,0,1,.7-.38c2.8.33,5.63.8,8.39,1.4a.69.69,0,0,1-.29,1.35c-2.72-.59-5.49-1.05-8.25-1.38a.69.69,0,0,1-.61-.77.71.71,0,0,1,.07-.23M588.53,330.57a.64.64,0,0,1,.09-.13.69.69,0,0,1,1-.09c2.14,1.77,4.39,3.46,6.69,5a.69.69,0,1,1-.78,1.14c-2.34-1.59-4.62-3.31-6.8-5.11a.69.69,0,0,1-.18-.84m83.61-152.91a.69.69,0,0,1,.83-.35c2.68.86,5.36,1.86,8,3a.69.69,0,0,1-.54,1.27c-2.56-1.09-5.2-2.08-7.84-2.92a.69.69,0,0,1-.45-.87l0-.1M602.46,340v0a.69.69,0,0,1,.94-.27c.93.51,1.88,1,2.83,1.49,1.54.77,3.11,1.51,4.69,2.19a.69.69,0,0,1-.55,1.27c-1.6-.69-3.2-1.44-4.76-2.23-1-.49-1.93-1-2.87-1.51a.69.69,0,0,1-.28-.92m15.46,6.69a.69.69,0,0,1,.83-.35c2.64.86,5.36,1.6,8.07,2.2a.69.69,0,0,1-.3,1.35c-2.76-.61-5.52-1.36-8.2-2.24a.69.69,0,0,1-.44-.87l0-.1m16.45,3.65a.69.69,0,0,1,.7-.37c2.76.34,5.56.55,8.34.63a.69.69,0,1,1,0,1.38c-2.82-.08-5.67-.29-8.47-.64a.69.69,0,0,1-.53-1m16.84.46a.69.69,0,0,1,.57-.38c2.77-.19,5.57-.51,8.31-1a.69.69,0,0,1,.22,1.36c-2.79.46-5.63.79-8.44,1a.69.69,0,0,1-.66-1m16.63-2.73a.69.69,0,0,1,.44-.36c2.69-.71,5.37-1.55,8-2.51a.69.69,0,0,1,.48,1.3c-2.65,1-5.38,1.83-8.11,2.55a.69.69,0,0,1-.79-1m15.82-5.81A.69.69,0,0,1,684,342c2.51-1.2,5-2.54,7.37-4a.69.69,0,0,1,.71,1.19c-2.42,1.45-4.94,2.81-7.48,4a.69.69,0,0,1-.92-.94m14.44-8.69a.67.67,0,0,1,.21-.24c2.24-1.65,4.42-3.43,6.48-5.29a.69.69,0,1,1,.92,1c-2.1,1.89-4.32,3.7-6.59,5.38a.69.69,0,0,1-1-.87"/><path class="cls-7" d="M687.75,184.33v0a.69.69,0,0,1,.94-.28c1.22.66,2.44,1.36,3.63,2.08a.69.69,0,0,1-.72,1.18c-1.17-.71-2.37-1.4-3.57-2.05a.69.69,0,0,1-.29-.92"/><path class="cls-7" d="M722.64,218.76a.69.69,0,0,1,1.22,0c.68,1.21,1.34,2.45,2,3.69a.69.69,0,1,1-1.24.62c-.61-1.22-1.26-2.45-1.93-3.64a.69.69,0,0,1,0-.65"/><path class="cls-7" d="M727.65,229.24a.69.69,0,0,1,1.26.05c.93,2.32,1.77,4.71,2.5,7.1a.69.69,0,0,1-1.32.4c-.72-2.35-1.55-4.71-2.47-7a.69.69,0,0,1,0-.57M732,243.51a.69.69,0,0,1,1.29.16c.53,2.45,1,4.94,1.29,7.42a.69.69,0,1,1-1.37.18c-.32-2.44-.74-4.89-1.27-7.3a.69.69,0,0,1,.06-.46m1.93,14.8a.69.69,0,0,1,1.31.28c.11,2.5.12,5,0,7.53a.69.69,0,1,1-1.38-.05c.09-2.46.09-4.95,0-7.41a.68.68,0,0,1,.07-.34m-.58,14.91a.69.69,0,0,1,1.3.4c-.31,2.48-.73,5-1.24,7.42a.69.69,0,1,1-1.35-.29c.51-2.4.92-4.86,1.22-7.31a.68.68,0,0,1,.07-.23"/><path class="cls-7" d="M730.27,287.83a.69.69,0,0,1,1.28.51c-.4,1.33-.84,2.66-1.3,4a.69.69,0,0,1-1.3-.46c.46-1.29.89-2.61,1.28-3.91a.66.66,0,0,1,0-.11"/></g></g><g class="cls-5"><g class="cls-11"><path class="cls-7" d="M715.39,203.89V187.63l15,7.52Zm1.24-14.25v12.09l11.18-6.5Z"/><path class="cls-7" d="M740.89,208.84H700.46V176.3h15.16l2.93,7.13h22.34ZM701.7,207.6h37.95V184.67H717.71l-2.93-7.13H701.7Z"/></g></g><g class="cls-5"><g class="cls-12"><path class="cls-7" d="M28.73,516.24l-11-8-11,8L11,503.33l-11-8H13.57l4.19-12.9L22,495.36H35.52l-11,8Zm-11-9.68,8.34,6.06-3.19-9.81,8.34-6.06H20.95l-3.19-9.81-3.19,9.81H4.26l8.34,6.06-3.19,9.81Z"/></g></g><g class="cls-5"><g class="cls-13"><path class="cls-7" d="M285.54,196.47l-11-8-11,8,4.19-12.9-11-8h13.57l4.19-12.9,4.19,12.9h13.57l-11,8Zm-11-9.68,8.34,6.06L279.72,183l8.35-6.06H277.75l-3.19-9.81L271.38,177H261.06l8.35,6.06-3.19,9.81Z"/></g></g><g class="cls-5"><g class="cls-14"><path class="cls-7" d="M364.79,176.7h-44V135h44ZM322,175.46h41.51V136.24H322Z"/><path class="cls-7" d="M364.79,167.92h-44V143.78h44ZM322,166.68h41.51V145H322Z"/><path class="cls-7" d="M330.49,143.11h-7.1V137h7.1Zm-5.85-1.24h4.61v-3.63h-4.61Z"/><path class="cls-7" d="M341,143.11h-7.1V137H341Zm-5.86-1.24h4.61v-3.63h-4.61Z"/><path class="cls-7" d="M351.58,143.11h-7.1V137h7.1Zm-5.86-1.24h4.61v-3.63h-4.61Z"/><path class="cls-7" d="M362.12,143.11H355V137h7.1Zm-5.86-1.24h4.61v-3.63h-4.61Z"/><path class="cls-7" d="M330.49,174.81h-7.1v-6.11h7.1Zm-5.85-1.24h4.61v-3.62h-4.61Z"/><path class="cls-7" d="M341,174.81h-7.1v-6.11H341Zm-5.86-1.24h4.61v-3.62h-4.61Z"/><path class="cls-7" d="M351.58,174.81h-7.1v-6.11h7.1Zm-5.86-1.24h4.61v-3.62h-4.61Z"/><path class="cls-7" d="M362.12,174.81H355v-6.11h7.1Zm-5.86-1.24h4.61v-3.62h-4.61Z"/></g></g><g class="cls-5"><g class="cls-15"><path class="cls-7" d="M435.61,440.3a19.71,19.71,0,1,1,19.71-19.71,19.73,19.73,0,0,1-19.71,19.71m0-38.17a18.46,18.46,0,1,0,18.46,18.47,18.49,18.49,0,0,0-18.46-18.47"/><path class="cls-7" d="M429.71,430.54V410.71L448,419.88ZM431,412.72v15.67L445.44,420Z"/></g></g><g class="cls-5"><g class="cls-16"><path class="cls-7" d="M949.15,260.71a16.45,16.45,0,1,1,16.45-16.45,16.47,16.47,0,0,1-16.45,16.45m0-31.16a14.71,14.71,0,1,0,14.71,14.71,14.72,14.72,0,0,0-14.71-14.71"/><path class="cls-7" d="M949.15,247.15a2.89,2.89,0,1,1,2.89-2.89,2.89,2.89,0,0,1-2.89,2.89m0-4a1.14,1.14,0,1,0,1.14,1.14,1.14,1.14,0,0,0-1.14-1.14"/><path class="cls-7" d="M949.15,239.94a4.6,4.6,0,1,1,4.6-4.61,4.61,4.61,0,0,1-4.6,4.61m0-7.46a2.86,2.86,0,1,0,2.86,2.86,2.86,2.86,0,0,0-2.86-2.86"/><path class="cls-7" d="M958.08,248.87a4.6,4.6,0,1,1,4.6-4.6,4.61,4.61,0,0,1-4.6,4.6m0-7.46a2.86,2.86,0,1,0,2.86,2.86,2.86,2.86,0,0,0-2.86-2.86"/><path class="cls-7" d="M940.23,248.87a4.6,4.6,0,1,1,4.6-4.6,4.61,4.61,0,0,1-4.6,4.6m0-7.46a2.86,2.86,0,1,0,2.86,2.86,2.86,2.86,0,0,0-2.86-2.86"/><path class="cls-7" d="M949.15,257.79a4.6,4.6,0,1,1,4.6-4.61,4.61,4.61,0,0,1-4.6,4.61m0-7.46a2.86,2.86,0,1,0,2.86,2.86,2.86,2.86,0,0,0-2.86-2.86"/></g></g><g class="cls-5"><g class="cls-17"><path class="cls-7" d="M475.79,244.73h-5V236h5ZM472,243.49h2.53v-6.2H472Z"/><path class="cls-7" d="M484.47,250l-9.93-5.58V236.3l9.93-5.58Zm-8.68-6.3,7.44,4.18V232.85L475.79,237Z"/><path class="cls-7" d="M486.75,243.49v-1.24a1.86,1.86,0,0,0,0-3.72v-1.24a3.1,3.1,0,0,1,0,6.2"/></g></g><g class="cls-5"><g class="cls-18"><path class="cls-7" d="M713.85,703.8V684l18.34,9.17ZM715.09,686v15.67l14.49-8.42Z"/><polygon class="cls-7" points="724.1 703.8 724.1 697.68 725.34 697.68 725.34 701.64 739.83 693.22 725.34 685.97 725.34 689.06 724.1 689.06 724.1 683.97 742.43 693.14 724.1 703.8"/></g></g><g class="cls-5"><g class="cls-19"><path class="cls-7" d="M576.76,150.69V130.86L595.1,140ZM578,132.87v15.67l14.49-8.42Z"/><polygon class="cls-7" points="587 150.69 587 144.57 588.24 144.57 588.24 148.53 602.73 140.11 588.24 132.87 588.24 135.96 587 135.96 587 130.86 605.34 140.03 587 150.69"/></g></g><g class="cls-5"><g class="cls-20"><path class="cls-7" d="M656.6,445V425.15l18.34,9.17Zm1.24-17.82v15.67l14.49-8.42Z"/><polygon class="cls-7" points="666.84 444.98 666.84 438.86 668.08 438.86 668.08 442.82 682.57 434.4 668.08 427.15 668.08 430.24 666.84 430.24 666.84 425.14 685.18 434.31 666.84 444.98"/></g></g><g class="cls-5"><g class="cls-21"><path class="cls-7" d="M1071.71,744l-11-8-11,8,4.19-12.9-11-8h13.57l4.19-12.9,4.19,12.9h13.57l-11,8Zm-11-9.68,8.34,6.06-3.19-9.81,8.34-6.06h-10.31l-3.19-9.81-3.19,9.81h-10.31l8.34,6.06-3.19,9.81Z"/></g></g><g class="cls-5"><g class="cls-22"><path class="cls-7" d="M1022.17,179.68l-11-8-11,8,4.19-12.9-11-8H1007l4.19-12.9,4.19,12.9H1029l-11,8Zm-11-9.68,8.34,6.06-3.19-9.81,8.34-6.06h-10.31l-3.19-9.81-3.19,9.81H997.69l8.34,6.06-3.19,9.81Z"/></g></g><g class="cls-5"><g class="cls-23"><path class="cls-7" d="M474.11,200.22l-11-8-11,8,4.19-12.9-11-8h13.57l4.19-12.9,4.19,12.9H480.9l-11,8Zm-11-9.68,8.34,6.06-3.19-9.81,8.35-6.06H466.32l-3.19-9.81-3.19,9.81H449.63l8.35,6.06-3.19,9.81Z"/></g></g><g class="cls-5"><g class="cls-24"><path class="cls-7" d="M65,726.8V707l18.34,9.17ZM66.23,709v15.67l14.49-8.42Z"/></g></g></g><polygon class="cls-25" points="663.1 738.85 654.39 738.85 591.53 359.19 600.24 359.19 663.1 738.85"/><polygon class="cls-25" points="566.08 738.85 557.37 738.85 494.5 359.19 503.22 359.19 566.08 738.85"/><rect class="cls-26" x="475.55" y="352.97" width="141.08" height="9.96"/><rect class="cls-26" x="493.81" y="433.47" width="141.08" height="9.96"/><rect class="cls-26" x="501.28" y="518.94" width="141.08" height="9.96"/><rect class="cls-26" x="515.39" y="608.56" width="141.08" height="9.96"/><rect class="cls-26" x="522.86" y="689.89" width="141.08" height="9.96"/><g class="cls-4"><path class="cls-26" d="M661.61,713.41c35.28,17.91,54.54,25.51,81.13,13.84v6.24c-26.59,11.67-45.86,4.07-81.13-13.84s-83.31-20.35-143.82,15.2v-6.24c60.51-35.55,108.54-33.1,143.82-15.2"/><path class="cls-27" d="M355.79,602.16A137.58,137.58,0,1,0,493.37,464.58,137.58,137.58,0,0,0,355.79,602.16"/><path class="cls-26" d="M408.71,602.16a84.66,84.66,0,1,0,84.66-84.66,84.66,84.66,0,0,0-84.66,84.66"/><path class="cls-28" d="M355.79,602.16A137.58,137.58,0,1,0,493.37,464.58,137.58,137.58,0,0,0,355.79,602.16m177.28,0a37.27,37.27,0,1,1,37.27,37.27,37.27,37.27,0,0,1-37.27-37.27m-77,77a37.26,37.26,0,1,1,37.26,37.27,37.27,37.27,0,0,1-37.26-37.27m0-153.95a37.26,37.26,0,1,1,37.26,37.27,37.26,37.26,0,0,1-37.26-37.27m-77,77a37.27,37.27,0,1,1,37.27,37.27,37.27,37.27,0,0,1-37.27-37.27"/><path class="cls-27" d="M464.88,602.16a28.49,28.49,0,1,0,28.49-28.49,28.49,28.49,0,0,0-28.49,28.49"/><path class="cls-29" d="M838.05,1.59c51.43,35.31,42.32,123.7,46.78,123.3,46.54,23.84,47.24,78.39,18.58,124.59,83.61,18-1.34,144-1.34,144,75.87,26.63-16.83,161.17-43,194-101.61-48-148.41-175-100.15-173.45-84.66-128.26-13.57-155,12.12-141.1C708,152.32,776.81,121.1,795,125.81c-10.13-78.62,27.88-113.74,43-124.22"/><path class="cls-30" d="M884.83,124.89c46.54,23.84,47.24,78.39,18.58,124.59,83.61,18-1.34,144-1.34,144,75.87,26.63-16.83,161.17-43,194,0,0-60.33-276.49-21-585.88,51.43,35.31,42.32,123.7,46.78,123.3"/><path class="cls-31" d="M829.09,239.66a1.58,1.58,0,0,0,.6-.53l57.37-85.9a1.59,1.59,0,0,0-2-2.3,1.56,1.56,0,0,0-.6.53L827,237.36a1.59,1.59,0,0,0,2,2.3"/><path class="cls-30" d="M822.11,191.09l.13-.07a1.59,1.59,0,0,0,.49-2.2l-28.11-44.36a1.59,1.59,0,0,0-2.06-.57l-.13.08a1.59,1.59,0,0,0-.49,2.2L820,190.52a1.59,1.59,0,0,0,2.06.57"/><path class="cls-31" d="M838,369.13a1.62,1.62,0,0,0,.27-.17L905.9,315.1a1.59,1.59,0,0,0-1.71-2.66,1.65,1.65,0,0,0-.27.17l-67.59,53.86a1.59,1.59,0,0,0,1.71,2.66"/><path class="cls-30" d="M827.63,359.6a1.64,1.64,0,0,0,.67-2.19c-.95-1.87-41.26-43.34-58.55-61.08a1.59,1.59,0,0,0-1.86-.31,1.61,1.61,0,0,0-.39.28,1.59,1.59,0,0,0,0,2.25C790,321.65,824,356.81,825.52,359a1.53,1.53,0,0,0,2.11.64"/><path class="cls-30" d="M836,452.09a1.65,1.65,0,0,0,.34-.23,1.59,1.59,0,0,0,.12-2.25l-47.27-52.78a1.59,1.59,0,0,0-1.9-.36,1.61,1.61,0,0,0-.34.23,1.59,1.59,0,0,0-.12,2.25l47.27,52.78a1.59,1.59,0,0,0,1.9.36"/><path class="cls-31" d="M832,106a1.6,1.6,0,0,0,.41-.3l32.37-32.49a1.59,1.59,0,0,0-1.85-2.54,1.62,1.62,0,0,0-.41.3L830.13,103.5A1.59,1.59,0,0,0,832,106"/><path class="cls-31" d="M859.81,588.89a1.59,1.59,0,0,0,.84-1.7c-.61-3.42-60.6-344.7-21-585.35a1.59,1.59,0,0,0-3.14-.52c-39.66,241.18,20.43,583,21,586.42a1.59,1.59,0,0,0,1.85,1.29,1.62,1.62,0,0,0,.44-.15"/><path class="cls-29" d="M1079.63,205c29.88,54.77-18.26,129.46-14.11,131.12,30.7,42.32,6.64,91.28-39.83,119.5,66.39,53.94-66.39,127.8-66.39,127.8,55.6,58.09-88,136.1-126.14,153.52-68.88-88.79-53.11-223.23-10.79-200C804.95,384.3,880.46,392.6,897.06,416.66c-1.66-136.1,73.86-132.78,88-120.33,26.55-74.69,76.35-88.79,94.6-91.28"/><path class="cls-30" d="M1065.52,336.16c30.7,42.32,6.64,91.28-39.83,119.5,66.39,53.94-66.39,127.8-66.39,127.8,55.6,58.09-88,136.1-126.14,153.52,0,0,71.37-273.85,246.47-531.93,29.87,54.77-18.26,129.46-14.11,131.12"/><path class="cls-31" d="M963.86,413.27a1.58,1.58,0,0,0,.78-.2l90-50.62a1.59,1.59,0,0,0-1.56-2.77l-90,50.62a1.59,1.59,0,0,0,.78,3"/><path class="cls-30" d="M979.63,366.8h.15a1.59,1.59,0,0,0,1.43-1.73l-5-52.28a1.59,1.59,0,0,0-1.58-1.44h-.15a1.59,1.59,0,0,0-1.43,1.73l5,52.28a1.59,1.59,0,0,0,1.58,1.44"/><path class="cls-31" d="M913.24,532.77a1.63,1.63,0,0,0,.32,0l84.64-17.43a1.59,1.59,0,0,0-.32-3.15,1.55,1.55,0,0,0-.32,0l-84.65,17.43a1.59,1.59,0,0,0,.32,3.15"/><path class="cls-30" d="M908.27,519.56a1.64,1.64,0,0,0,1.59-1.65c0-2.09-17.17-57.32-24.55-81a1.59,1.59,0,1,0-3,.95c9.61,30.79,24,77.55,24.41,80.15a1.53,1.53,0,0,0,1.59,1.53"/><path class="cls-30" d="M873.82,605.8a1.63,1.63,0,0,0,.41-.05,1.59,1.59,0,0,0,1.13-1.95L857.1,535.33a1.59,1.59,0,0,0-1.54-1.18,1.62,1.62,0,0,0-.41.05,1.59,1.59,0,0,0-1.13,1.95l18.26,68.46a1.59,1.59,0,0,0,1.54,1.18"/><path class="cls-31" d="M1026.93,295.43a1.59,1.59,0,0,0,.5-.08L1071,281a1.59,1.59,0,1,0-1-3l-43.57,14.32a1.59,1.59,0,0,0,.5,3.1"/><path class="cls-31" d="M833.16,738.57a1.59,1.59,0,0,0,1.52-1.13c1-3.32,102-334.79,246.23-531.45a1.59,1.59,0,1,0-2.56-1.88C933.8,401.21,832.64,733.19,831.64,736.52a1.59,1.59,0,0,0,1.52,2.05"/><path class="cls-29" d="M16,179.53C-13.85,234.3,34.28,309,30.13,310.65-.57,353,23.49,401.93,70,430.15c-66.39,53.94,66.39,127.8,66.39,127.8C80.75,616,224.32,694,262.49,711.47c68.88-88.79,53.11-223.23,10.79-200,17.43-152.69-58.09-144.39-74.69-120.33,1.66-136.09-73.86-132.78-88-120.33C84.07,196.13,34.28,182,16,179.53"/><path class="cls-30" d="M30.13,310.65C-.57,353,23.49,401.93,70,430.15c-66.39,53.94,66.39,127.8,66.39,127.8C80.75,616,224.32,694,262.49,711.47c0,0-71.37-273.85-246.47-531.93C-13.85,234.3,34.28,309,30.13,310.65"/><path class="cls-31" d="M131.79,387.75a1.58,1.58,0,0,1-.78-.2L41,336.93a1.59,1.59,0,0,1,1.56-2.77l90,50.62a1.59,1.59,0,0,1-.78,3"/><path class="cls-30" d="M116,341.28h-.15a1.59,1.59,0,0,1-1.43-1.73l5-52.28a1.59,1.59,0,0,1,1.58-1.44h.15a1.59,1.59,0,0,1,1.43,1.73l-5,52.28a1.59,1.59,0,0,1-1.58,1.44"/><path class="cls-31" d="M182.41,507.25a1.61,1.61,0,0,1-.32,0L97.44,489.79a1.59,1.59,0,0,1,.32-3.15,1.54,1.54,0,0,1,.32,0l84.64,17.43a1.59,1.59,0,0,1-.32,3.15"/><path class="cls-30" d="M187.38,494a1.64,1.64,0,0,1-1.59-1.65c0-2.09,17.17-57.32,24.55-81a1.59,1.59,0,1,1,3,.95c-9.61,30.79-24,77.55-24.42,80.15a1.53,1.53,0,0,1-1.59,1.53"/><path class="cls-30" d="M221.83,580.28a1.6,1.6,0,0,1-1.54-2l18.26-68.46a1.59,1.59,0,1,1,3.07.82L223.36,579.1a1.59,1.59,0,0,1-1.54,1.18"/><path class="cls-31" d="M68.72,269.92a1.59,1.59,0,0,1-.5-.08L24.66,255.52a1.59,1.59,0,1,1,1-3l43.57,14.31a1.59,1.59,0,0,1-.5,3.1"/><path class="cls-31" d="M262.49,713.06a1.59,1.59,0,0,1-1.52-1.13c-1-3.32-102-334.79-246.23-531.45a1.59,1.59,0,0,1,2.56-1.88C161.85,375.69,263,707.68,264,711a1.59,1.59,0,0,1-1.52,2.05"/><path class="cls-29" d="M1106.18,453.27c12.72,31.45-17.94,68.8-15.8,70,13.95,24.78-2.11,49.73-29,62.07,32.5,33.28-43.84,64.9-43.84,64.9,26.41,34.85-56,68-77.72,75.06-31.67-52.27-14.76-123.91,6.65-108.71.12-83.58,40.39-74.38,47.86-60.34,7.6-73.62,48.19-67.12,55-59.51,19-38.69,46.79-43.2,56.8-43.41"/><path class="cls-30" d="M1090.38,523.22c13.94,24.78-2.11,49.73-29,62.07,32.5,33.28-43.84,64.9-43.84,64.9,26.41,34.85-56,68-77.72,75.06,0,0,55.65-143.48,166.34-272,12.72,31.45-17.94,68.79-15.8,69.95"/><path class="cls-31" d="M1030.65,558.53a.85.85,0,0,0,.43-.06l51.8-21.73a.86.86,0,0,0-.67-1.6l-51.8,21.73a.86.86,0,0,0,.24,1.66"/><path class="cls-30" d="M1042.07,534.41h.08a.86.86,0,0,0,.88-.85l.57-28.55a.86.86,0,0,0-.77-.87h-.08a.86.86,0,0,0-.88.85l-.57,28.55a.87.87,0,0,0,.77.88"/><path class="cls-31" d="M995.84,619.93H996l46.81-4.13a.87.87,0,0,0,0-1.72h-.18l-46.81,4.13a.87.87,0,0,0,0,1.72"/><path class="cls-30" d="M994,612.48a.89.89,0,0,0,1-.79c.13-1.13-5.7-32-8.21-45.27a.87.87,0,0,0-.75-.7.92.92,0,0,0-.26,0,.87.87,0,0,0-.69,1c3.27,17.24,8.15,43.39,8.19,44.82a.83.83,0,0,0,.76.92"/><path class="cls-30" d="M970,656.92a.81.81,0,0,0,.22,0,.87.87,0,0,0,.73-1l-5.59-38.12a.87.87,0,0,0-.76-.74h-.22a.87.87,0,0,0-.73,1l5.59,38.12a.87.87,0,0,0,.76.73"/><path class="cls-31" d="M1072.07,498.81a.87.87,0,0,0,.27,0l24.43-5a.87.87,0,0,0-.35-1.7l-24.43,5a.87.87,0,0,0,.07,1.71"/><path class="cls-31" d="M939.74,726.11a.87.87,0,0,0,.89-.52c.75-1.73,76-174.49,166.18-271.73a.86.86,0,0,0,0-1.22.87.87,0,0,0-1.22,0C1015.16,550.14,939.8,723.17,939,724.9a.87.87,0,0,0,.7,1.2"/><path class="cls-29" d="M15.69,549.06C10.08,580.68,45.79,609.25,44,610.74,36,636.42,55.75,656.37,83,662.53,59.48,699.72,136.37,714,136.37,714c-17.62,37.45,65.21,52,86.69,54.27,19.07-54.61-10.63-117.63-27.48-99.36-16.5-77.37-52-61-56.15-46.49C118,555.75,81.65,569.73,76.8,578.12,51.61,546,25,547.29,15.69,549.06"/><path class="cls-30" d="M44,610.74C36,636.42,55.75,656.37,83,662.53,59.48,699.72,136.37,714,136.37,714c-17.62,37.45,65.21,52,86.69,54.27,0,0-79.67-122-207.37-219.23C10.08,580.68,45.79,609.25,44,610.74"/><path class="cls-31" d="M106.27,631.72a.81.81,0,0,1-.41,0l-52.23-10a.82.82,0,0,1,.31-1.61l52.23,10a.82.82,0,0,1,.11,1.58"/><path class="cls-30" d="M91,611.62l-.08,0a.82.82,0,0,1-1-.61l-6.13-26.33a.82.82,0,0,1,.54-1l.07,0a.82.82,0,0,1,1,.61l6.13,26.33a.82.82,0,0,1-.54,1"/><path class="cls-31" d="M150.54,681.75l-.16,0-44.16,5.36a.82.82,0,0,1-.36-1.59l.16,0,44.16-5.36a.82.82,0,0,1,.36,1.59"/><path class="cls-30" d="M150.81,674.48a.85.85,0,0,1-1-.55c-.34-1-1-30.78-1.28-43.53a.82.82,0,0,1,.56-.79.86.86,0,0,1,.24,0,.82.82,0,0,1,.84.8c.35,16.6,1,41.78,1.21,43.11a.79.79,0,0,1-.52,1"/><path class="cls-30" d="M181.74,710.93l-.21,0a.82.82,0,0,1-.87-.77l-2.3-36.4a.82.82,0,0,1,.56-.83l.21,0a.82.82,0,0,1,.87.76l2.3,36.4a.82.82,0,0,1-.56.83"/><path class="cls-31" d="M56.2,584.54a.83.83,0,0,1-.26,0l-23.6.15a.82.82,0,0,1-.26-1.59.8.8,0,0,1,.25,0l23.6-.15a.82.82,0,0,1,.27,1.59"/><path class="cls-31" d="M223.32,769.07a.82.82,0,0,1-.93-.3c-1-1.46-104.6-146.68-207.18-219a.82.82,0,0,1,.94-1.34c102.81,72.52,206.53,218,207.57,219.42a.82.82,0,0,1-.19,1.14.84.84,0,0,1-.21.11"/><path class="cls-32" d="M1052.88,788.33H81.95V770a31,31,0,0,1,31-31h908.93a31,31,0,0,1,31,31Z"/><rect class="cls-33" x="214.05" y="363.64" width="180.1" height="338.56"/><path class="cls-34" d="M407.25,335.26H200.95a5.09,5.09,0,0,0-5.09,5.09v18.21a5.09,5.09,0,0,0,5.09,5.09H407.25a5.09,5.09,0,0,0,5.09-5.09V340.34a5.09,5.09,0,0,0-5.09-5.09"/><g class="cls-35"><g class="cls-36"><rect class="cls-37" x="295.91" y="363.64" width="16.37" height="338.56"/></g></g><g class="cls-35"><g class="cls-38"><rect class="cls-37" x="265.23" y="363.64" width="16.37" height="338.56"/></g></g><g class="cls-35"><g class="cls-39"><rect class="cls-37" x="234.55" y="363.64" width="16.37" height="338.56"/></g></g><g class="cls-35"><g class="cls-40"><rect class="cls-37" x="326.6" y="363.64" width="16.37" height="338.56"/></g></g><g class="cls-35"><g class="cls-41"><rect class="cls-37" x="357.28" y="363.64" width="16.37" height="338.56"/></g></g><path class="cls-34" d="M396.3,702.2H211.9a14.22,14.22,0,0,0-14.22,14.22V733.5a5.81,5.81,0,0,0,5.81,5.81H404.71a5.81,5.81,0,0,0,5.81-5.81V716.42A14.22,14.22,0,0,0,396.3,702.2"/><path class="cls-33" d="M394.33,213.55H215.57a61.12,61.12,0,0,0,0,122.25H394.33a61.12,61.12,0,0,0,0-122.25"/><g class="cls-35"><g class="cls-42"><path class="cls-37" d="M233.82,326.53a5.58,5.58,0,0,1-3.66-9.79c17.1-14.86,22.89-32.61,15.89-48.71-6.5-14.95-22.26-24.63-37.48-23-12.3,1.29-20.4,7.74-22.24,17.68A24,24,0,0,0,198.87,288c5.56,2.82,10.58,2.87,14.52.13,3.65-2.54,5.24-6.7,4.92-9.5a3.81,3.81,0,0,0-2.57-3.4,5.58,5.58,0,1,1,4.14-10.36,14.91,14.91,0,0,1,9.51,12.5c.83,7.33-3,15.34-9.65,19.93-7.3,5.08-16.76,5.31-25.93.65a34.93,34.93,0,0,1-18.46-37.25c2.76-14.93,14.74-24.93,32-26.75,19.94-2.1,40.49,10.38,48.88,29.68,4.29,9.87,11.05,35.64-18.8,61.58a5.55,5.55,0,0,1-3.66,1.37"/></g></g><g class="cls-35"><g class="cls-43"><path class="cls-37" d="M379.61,326.53a5.58,5.58,0,0,0,3.66-9.79c-17.1-14.86-22.89-32.61-15.89-48.71,6.5-14.95,22.26-24.63,37.48-23,12.3,1.29,20.4,7.74,22.24,17.68A24,24,0,0,1,414.56,288c-5.56,2.82-10.58,2.87-14.52.13-3.65-2.54-5.24-6.7-4.92-9.5a3.81,3.81,0,0,1,2.57-3.4,5.58,5.58,0,1,0-4.14-10.36,14.91,14.91,0,0,0-9.51,12.5c-.83,7.33,3,15.34,9.64,19.93,7.31,5.08,16.76,5.31,25.93.65a34.93,34.93,0,0,0,18.46-37.25c-2.76-14.93-14.73-24.93-32-26.75-19.94-2.1-40.49,10.38-48.88,29.68-4.29,9.87-11.05,35.64,18.8,61.58a5.56,5.56,0,0,0,3.66,1.37"/></g></g><g class="cls-35"><g class="cls-44"><path class="cls-37" d="M356,241.75H253.88a2.48,2.48,0,0,1-2.48-2.48V230.4a2.48,2.48,0,0,1,2.48-2.48H356a2.48,2.48,0,0,1,2.48,2.48v8.87a2.48,2.48,0,0,1-2.48,2.48"/></g></g><g class="cls-35"><g class="cls-45"><path class="cls-37" d="M341.28,272.44H268.62a2.48,2.48,0,0,1-2.48-2.48v-8.87a2.48,2.48,0,0,1,2.48-2.48h72.66a2.48,2.48,0,0,1,2.48,2.48V270a2.48,2.48,0,0,1-2.48,2.48"/></g></g><g class="cls-35"><g class="cls-46"><path class="cls-37" d="M341.28,303.12H268.62a2.48,2.48,0,0,1-2.48-2.48v-8.87a2.48,2.48,0,0,1,2.48-2.48h72.66a2.48,2.48,0,0,1,2.48,2.48v8.87a2.48,2.48,0,0,1-2.48,2.48"/></g></g><g class="cls-35"><g class="cls-47"><path class="cls-37" d="M356,333.8H253.88a2.48,2.48,0,0,1-2.48-2.48v-8.87a2.48,2.48,0,0,1,2.48-2.48H356a2.48,2.48,0,0,1,2.48,2.48v8.87A2.48,2.48,0,0,1,356,333.8"/></g></g><g class="cls-35"><g class="cls-48"><path class="cls-37" d="M197.68,725.67v13.65H328.11S321.56,711.48,343,702.2c0,0-88.53-272.53-97.81-338-15.83,1.09-21.83-21.29-7.64-27.83l-30-.55-1.15,0a14.13,14.13,0,0,0,3.7,27.79h4V702.2h7.09a23.47,23.47,0,0,0-23.47,23.47"/></g></g><path class="cls-49" d="M966.25,710.22H830.48a18,18,0,0,0-18,18v10.63H984.25V728.22a18,18,0,0,0-18-18"/><path class="cls-49" d="M651.31,591.89a178,178,0,0,0,292.94-202.3Z"/><path class="cls-50" d="M958.9,399.14,655,609a10.17,10.17,0,0,1-14.15-2.59l-6.83-9.89a10.17,10.17,0,0,1,2.59-14.15L940.51,372.5a10.17,10.17,0,0,1,14.15,2.59l6.83,9.89a10.17,10.17,0,0,1-2.59,14.15"/><path class="cls-50" d="M909.61,726.54H887.12a19,19,0,0,1-19-19V619.45a19,19,0,0,1,19-19h22.49a19,19,0,0,1,19,19V707.5a19,19,0,0,1-19,19"/><path class="cls-51" d="M914.55,636.5a16.18,16.18,0,1,1-16.18-16.18,16.18,16.18,0,0,1,16.18,16.18"/><g class="cls-52"><g class="cls-53"><path class="cls-54" d="M915.57,598.16a12.73,12.73,0,0,1-11-19.05c.19-.34,19.76-34.9,27.57-73.7a12.72,12.72,0,1,1,24.95,5c-8.64,43-29.55,79.79-30.43,81.33a12.72,12.72,0,0,1-11.05,6.4"/></g></g><g class="cls-52"><g class="cls-55"><path class="cls-54" d="M947,473.7a12.73,12.73,0,0,1-12.6-11.06,76.19,76.19,0,0,0-4.2-17.08,12.72,12.72,0,0,1,23.79-9,101.55,101.55,0,0,1,5.64,22.8,12.73,12.73,0,0,1-11,14.28,12.92,12.92,0,0,1-1.68.11"/></g></g><polygon class="cls-50" points="268.07 542.79 117.27 542.79 126.38 739.58 258.96 739.58 268.07 542.79"/><polygon class="cls-56" points="236.04 542.79 149.29 542.79 154.53 739.58 230.8 739.58 236.04 542.79"/><polygon class="cls-50" points="208.12 542.79 177.22 542.79 179.08 739.58 206.25 739.58 208.12 542.79"/><g class="cls-35"><g class="cls-57"><path class="cls-58" d="M227,661.68h-65.3a6.21,6.21,0,0,0-6.21-6.21V618.69a6.21,6.21,0,0,0,6.21-6.21H227a6.21,6.21,0,0,0,6.21,6.21v36.78a6.21,6.21,0,0,0-6.21,6.21"/></g></g><path class="cls-33" d="M230.6,658.83h-65.3a6.21,6.21,0,0,0-6.21-6.21V615.84a6.21,6.21,0,0,0,6.21-6.21h65.3a6.21,6.21,0,0,0,6.21,6.21v36.78a6.21,6.21,0,0,0-6.21,6.21"/><path class="cls-33" d="M117.27,542.79c1.19-14,13.31-14.32,16.16-10.75,4.28-5.35,12.48-1.78,13.19,2.14,1.43-12.83,16.76-17.82,24.6-14.26,6.06-7.13,12.84,2.5,12.84,2.5,13.55-9.63,24.24,8.56,24.24,10.69,7.84-8.56,12.12,2.5,12.12,2.5,19.61-14.62,30.3,3.57,30.3,3.57,7.84-4.63,17.35,3.62,17.35,3.62Z"/><rect class="cls-27" x="900.54" y="671.7" width="83.84" height="67.15"/><rect class="cls-59" x="909.48" y="674.68" width="65.96" height="61.19"/><rect class="cls-59" x="902.42" y="675.57" width="5.07" height="7.35"/><rect class="cls-59" x="902.42" y="691.31" width="5.07" height="7.35"/><rect class="cls-59" x="902.42" y="707.05" width="5.07" height="7.35"/><rect class="cls-59" x="902.42" y="722.79" width="5.07" height="7.35"/><rect class="cls-59" x="977.56" y="675.57" width="5.07" height="7.35"/><rect class="cls-59" x="977.56" y="691.31" width="5.07" height="7.35"/><rect class="cls-59" x="977.56" y="707.05" width="5.07" height="7.35"/><rect class="cls-59" x="977.56" y="722.79" width="5.07" height="7.35"/><rect class="cls-60" x="946.75" y="691.36" width="59.29" height="47.49"/><rect class="cls-61" x="953.07" y="693.47" width="46.65" height="43.28"/><rect class="cls-61" x="948.07" y="694.1" width="3.58" height="5.2"/><rect class="cls-61" x="948.07" y="705.23" width="3.58" height="5.2"/><rect class="cls-61" x="948.07" y="716.36" width="3.58" height="5.2"/><rect class="cls-61" x="948.07" y="727.49" width="3.58" height="5.2"/><rect class="cls-61" x="1001.21" y="694.1" width="3.58" height="5.2"/><rect class="cls-61" x="1001.21" y="705.23" width="3.58" height="5.2"/><rect class="cls-61" x="1001.21" y="716.36" width="3.58" height="5.2"/><rect class="cls-61" x="1001.21" y="727.49" width="3.58" height="5.2"/><polygon class="cls-28" points="293.94 665.53 346.99 665.53 341.88 640.47 272.31 607.06 240.08 530.02 192.9 529.44 211.78 635.36 220.04 655.02 293.94 665.53"/><path class="cls-26" d="M293.94,665.53h-.22l-67.47-2a22.85,22.85,0,0,1-21.83-19.09L186.83,537.91a7.37,7.37,0,0,1,14.54-2.4l17.58,106.55a8.09,8.09,0,0,0,7.73,6.76l67.47,2a7.37,7.37,0,0,1-.21,14.73"/><path class="cls-62" d="M388.39,698.91l8.16,23.42c12.12,3.84,25.81,9.4,29.22,14.72-34.7-4.27-47.15,1.23-47.15,1.23-1.52-4.85-.82-11-.1-14.09S379.75,701,379.75,701Z"/><path class="cls-63" d="M395.16,729.82c3.83-1.67,2.72-4.63,3.64-6.77,11.52,3.8,23.78,9,27,14-28.68,1.12-47.15,1.23-47.15,1.23-1.27-4-1-9-.45-12.31,2.87,2.43,12.07,6,17,3.86"/><path class="cls-64" d="M401.62,729.85a.23.23,0,0,0,.19-.23s0-5,2.38-5.68a.23.23,0,1,0-.13-.45c-2.67.75-2.72,5.91-2.72,6.13a.23.23,0,0,0,.23.23h0"/><path class="cls-64" d="M407.79,732a.23.23,0,0,0,.19-.23s0-5,2.38-5.68a.23.23,0,1,0-.13-.45c-2.67.76-2.72,5.91-2.72,6.13a.23.23,0,0,0,.23.23h0"/><path class="cls-64" d="M422.44,735.48a.23.23,0,0,0,0-.47l-41.46.29a.23.23,0,1,0,0,.47l41.46-.29h0"/><path class="cls-65" d="M240.34,634.45c.79,1.83,4.19,14.94,16,18.6s83.07.26,83.33,1.57c.26,11.27,37.21,67.6,37.21,67.6,14.15,1.31,22-5.24,22-5.24l-15.72-43.24s2.1-54.76-3.41-60.79-74.68-8.65-74.68-8.65Z"/><path class="cls-66" d="M382.83,516.76A19.85,19.85,0,0,1,372.9,524a34.61,34.61,0,0,1-.85-6.62c.2-.79,5.31-6.19,5.31-6.19Z"/><path class="cls-67" d="M383.87,506c.2.2,4.52,5.63,4.13,6.29s-2.23,5.57-3.54,6.22-2.16-1.11-2.16-1.11a4.47,4.47,0,0,1-4.39-1.11s-6.42,1.18-6.94-.07-.92-4.78-.33-6.16,4.52-4.65,5.24-5a16.89,16.89,0,0,1,4.26-.85c.65,0,3.73,1.83,3.73,1.83"/><path class="cls-62" d="M350.14,532.52s11.66-12.45,13-14.81,4.32-12.18,5.37-13.49,9.17-4.06,9.17-4.06l8.65,3,5.63,5c-.79,1.7-5.76-.39-6.94-1a14.62,14.62,0,0,0-5.76-1c-2,0-6.29,5.11-5.63,7.21s3-1.31,6.81-2,4.59,2.23,1.83,3.41-5.37,3.14-6,6.81-2.62,6.68-5,7.6-8.91,16.11-8.91,16.11-8.65-.79-9-2.62-3.14-10.09-3.14-10.09"/><path class="cls-68" d="M250,507.36c-13.63-.52-20.7,1.84-29.09,24.37s-11.79,64.46-7.6,68.65,11.79,4.72,11.79,4.72c.79,10.74,7.86,32,13.63,34.33,23.85,0,66.82-33.54,67.6-34.33.79-2.36.79-18.34.79-18.34l20.44,3.41s9.17.79,14.94-5.76,22-41.66,22-41.66c-7.86-2.62-14.41-10.22-14.41-10.22s-19.91,23.32-27.51,23.85-18.08-22.27-25.94-30.13-19.13-10.55-19.13-10.55l-11-1.24s-14.15-7.86-16.51-7.08"/><path class="cls-69" d="M343.32,557.93c-19,19.78-15.46,35.77-15.46,35.77s-37.73,5.76-37.73,5.37c.39-9.43,14.15-50.44,30.27-51.49,11.79,2.62,22.93,10.35,22.93,10.35"/><g class="cls-35"><g class="cls-70"><path class="cls-71" d="M253.58,530.13a.23.23,0,0,1-.23-.19c0-.17-3-16.86-16.95-17.75a.23.23,0,0,1,0-.47c14.3.92,17.35,18,17.38,18.14a.23.23,0,0,1-.19.27h0"/></g></g><g class="cls-35"><g class="cls-72"><path class="cls-71" d="M239.3,576.38a.23.23,0,0,1-.18-.09.24.24,0,0,1,0-.21c.06-.19,5.7-19,11-31.34a.23.23,0,1,1,.43.19c-4.93,11.41-10.13,28.43-10.9,31L262,574.73a.23.23,0,0,1,0,.47l-22.67,1.18h0"/></g></g><g class="cls-35"><g class="cls-73"><path class="cls-71" d="M237.59,582.54h-.07a.23.23,0,0,1-.15-.29s1.21-3.88,1.41-5a30.38,30.38,0,0,0-5.48,4.67.23.23,0,0,1-.33-.33c.87-.87,5.28-5.22,6.11-4.8a.37.37,0,0,1,.18.42c-.13.93-1.4,5-1.45,5.15a.24.24,0,0,1-.22.16"/></g></g><g class="cls-35"><g class="cls-74"><path class="cls-71" d="M233.36,604.5q-1.66,0-3.37-.09a.23.23,0,0,1-.22-.25.23.23,0,0,1,.25-.22,69.93,69.93,0,0,0,31.33-5.74.23.23,0,0,1,.21.42,70.16,70.16,0,0,1-28.19,5.88"/></g></g><g class="cls-35"><g class="cls-75"><path class="cls-71" d="M293.28,561.7h0a.23.23,0,0,1-.19-.27c0-.07,1.16-6.54.13-19.07a.23.23,0,0,1,.47,0c1,12.59-.12,19.13-.13,19.19a.23.23,0,0,1-.23.19"/></g></g><g class="cls-35"><g class="cls-76"><path class="cls-77" d="M381.76,672.59a.23.23,0,0,1-.23-.18c-.1-.45-10.32-45.6-12-48.85-.65-1.24-11.62-3.61-60.2-7.89-2.81-.25-4-.35-4.1-.38A.23.23,0,0,1,305,615a.24.24,0,0,1,.28-.18c.14,0,1.78.17,4,.37,40.27,3.55,59.52,6.13,60.57,8.14,1.74,3.31,11.65,47.11,12.07,49a.23.23,0,0,1-.18.28h-.05"/></g></g><g class="cls-35"><g class="cls-78"><path class="cls-71" d="M343.35,654.17a.6.6,0,0,1-.53-.21c-.23-.35.09-.83.75-1.8a14.14,14.14,0,0,0,2.67-6,.23.23,0,1,1,.46.06,14.54,14.54,0,0,1-2.75,6.24,5.38,5.38,0,0,0-.74,1.27,1.81,1.81,0,0,0,.76-.08,8.32,8.32,0,0,0,4.74-3.56.23.23,0,1,1,.4.24,8.63,8.63,0,0,1-5,3.78,3.53,3.53,0,0,1-.73.1m-.13-.46h0Z"/></g></g><g class="cls-35"><g class="cls-79"><path class="cls-71" d="M271.7,639.22a.23.23,0,0,1-.12,0,.23.23,0,0,1-.07-.32c0-.06,3.52-5.66-.5-9.84a.23.23,0,0,1,.34-.32c4.27,4.45.59,10.36.55,10.42a.24.24,0,0,1-.2.11"/></g></g><g class="cls-35"><g class="cls-80"><path class="cls-71" d="M381.23,713.12a.23.23,0,0,1-.2-.1c-10.56-16-27.29-64-27.29-67.21,0-1.74-.3-1.82-1-2a4.64,4.64,0,0,1-2.42-1.49c-1.41-1.52-1.06-2.24-.47-2.79l.09-.09-.08,0c-1.11-.35-32.15-.09-52.7.07-8.58.07-15.37.13-18.3.13-1.81,0-3.51,0-5.15.07-7.64.17-13.17.29-16.69-3.82a.23.23,0,0,1,.36-.31c3.38,3.95,8.81,3.83,16.33,3.66,1.64,0,3.34-.07,5.16-.07,2.93,0,9.71-.05,18.29-.12,28.51-.23,52.17-.39,52.91,0,.16.08.34.19.37.39s-.12.35-.27.49c-.34.32-.79.75.49,2.13a4.18,4.18,0,0,0,2.2,1.35c.89.25,1.35.48,1.35,2.47,0,3.21,16.68,51,27.21,67a.23.23,0,0,1-.07.32.24.24,0,0,1-.13,0"/></g></g><path class="cls-62" d="M263.88,575.4c-2.36,18.47-1,22.36-1,22.36s31.66-12.71,34.94-12.58a26.23,26.23,0,0,0,9.21-1.57c1.14-.61,5.42-3.06,5.42-3.06-.09-.52-1-1-2.79-.44,1.83-2.18,3.84-4.45,3.58-5.59a4.61,4.61,0,0,0,1.22-4.28c2.1-2.1,3.58-4.63,2.27-4.63s-5.33,2.53-10,3.32-8.74.35-8.56-.7.35-2.74,3.41-3.49c3.73-.92,4.72-4.72,3.93-5.15s-1.66,1-3,1-5.24.44-7.34,2.36-5.24,8.65-5.85,9.78-25.55,2.62-25.55,2.62"/><path class="cls-81" d="M276,574.24c-1.31,5,1,16.12,1.67,17.85l4.49-1.67c-1.64-5.57-1.57-15.89-1.38-16.57-3,.23-4.78.39-4.78.39"/><path class="cls-82" d="M282.4,584.36c.18,1.46-1.22,2.84-3.12,3.07s-3.59-.76-3.77-2.22,1.22-2.83,3.12-3.07,3.59.76,3.77,2.22"/><path class="cls-83" d="M281.92,584.42c.16,1.26-1,2.44-2.69,2.65s-3.1-.65-3.25-1.91,1-2.44,2.69-2.64,3.1.65,3.25,1.91"/><g class="cls-35"><g class="cls-84"><path class="cls-85" d="M305.33,574a.23.23,0,0,1,0-.47s2.91-.3,8.29-3.51a.23.23,0,1,1,.24.4c-5.48,3.26-8.36,3.56-8.48,3.57h0"/></g></g><g class="cls-35"><g class="cls-86"><path class="cls-85" d="M304.67,579.65a.23.23,0,0,1-.1-.45,28.33,28.33,0,0,0,7.92-6.11.23.23,0,0,1,.34.32,28.78,28.78,0,0,1-8.07,6.21l-.1,0"/></g></g><path class="cls-87" d="M320.4,547.58c6.29,5.11,1,16.38,3.27,17.95l34.85-5.37a8.44,8.44,0,0,1-1.44-3.67c0-1.57.39-9.43-1.31-11.4Z"/><g class="cls-35"><g class="cls-88"><path class="cls-85" d="M379.68,510.87h-.07a.23.23,0,0,1-.15-.29l.29-.94-1.37-1.94a.23.23,0,1,1,.38-.27l1.44,2a.24.24,0,0,1,0,.21l-.33,1a.23.23,0,0,1-.22.16"/></g></g><g class="cls-35"><g class="cls-89"><path class="cls-85" d="M383.55,516.18l-.11,0a.23.23,0,0,1-.1-.32c.43-.86,1.53-3.25,1.48-4a16.3,16.3,0,0,0-1.2-3.36l-.16-.38a.23.23,0,0,1,.15-.3.24.24,0,0,1,.3.15l.15.34a14.84,14.84,0,0,1,1.24,3.52c.07,1-1.37,3.92-1.53,4.25a.23.23,0,0,1-.21.13"/></g></g><path class="cls-90" d="M262.82,738.82c-39.18,0-72.67-13.62-91.55-38.36a2.34,2.34,0,1,1,3.73-2.84c23.1,30.27,69.51,43,121.12,33.31A62.33,62.33,0,0,0,333.22,708c8.77-11.08,13.2-24.23,11.85-35.18C342.92,655.26,326.86,646,301,647.53a2.34,2.34,0,1,1-.27-4.68c14.94-.86,26.86,1.58,35.42,7.27a30.24,30.24,0,0,1,13.57,22.16c1.51,12.35-3.16,26.44-12.83,38.66A67,67,0,0,1,297,735.54a184.8,184.8,0,0,1-34.16,3.28"/><polygon class="cls-90" points="215.32 611.91 201.43 724.06 204.64 723.08 219 611.91 215.32 611.91"/><polygon class="cls-91" points="218.33 611.91 204.44 724.06 207.66 723.08 222.02 611.91 218.33 611.91"/><polygon class="cls-90" points="264.04 613.75 302.31 729.3 305.52 728.32 267.73 613.75 264.04 613.75"/><polygon class="cls-91" points="267.06 613.75 305.33 729.3 308.54 728.32 270.74 613.75 267.06 613.75"/><path class="cls-90" d="M284.89,613.75H199.2v-9.17h79.92a5.77,5.77,0,0,1,5.77,5.77Z"/><path class="cls-91" d="M205.56,609a2.56,2.56,0,1,1-2.56-2.55,2.56,2.56,0,0,1,2.56,2.55"/><path class="cls-91" d="M259.81,738.82c-39.18,0-72.67-13.62-91.55-38.36a2.34,2.34,0,1,1,3.73-2.84c23.1,30.27,69.51,43,121.12,33.31A62.33,62.33,0,0,0,330.21,708c8.77-11.08,13.2-24.23,11.85-35.18C339.91,655.26,323.85,646,298,647.53a2.34,2.34,0,1,1-.27-4.68c14.94-.86,26.86,1.58,35.42,7.27a30.24,30.24,0,0,1,13.57,22.16c1.51,12.35-3.16,26.44-12.83,38.66A67,67,0,0,1,294,735.54a184.82,184.82,0,0,1-34.16,3.28"/><path class="cls-63" d="M259.68,486.09c-7.3-9.89-6.75-21.59-.08-22.75,2.11-5.1,11.57-6.73,18.08-4.57s11,3,11.52,3.8-.67,3.67-.42,3.7A8.79,8.79,0,0,1,291.1,473l-11.64,19.65-9.79,0Z"/><path class="cls-62" d="M266.21,466.06c-2.51,2-.41,4.46,2,6.5s4.16,2.63,3.2,5.28-1.59,3.77-1,6.37-.16,3.85-3.54,3.29c-2.63-6.13-7.77-4.68-8-.69s5,6,5.34,6.09c0,5.55-12.16,14.22-12.16,14.22.31,1.23,16,5.61,21.07,15.47,5.18,2.8,5.39-8.24,5.51-9.5s2-3.78,2-3.78c5.82.14,8.17,1.4,10.93-5.8s.81-15.51.81-17.66-.5-12.17-1.16-14.25-3.41-4.44-3.41-4.44c-1.57,3-7.3,4.53-12.55,1.69s-7.4-4.39-9-2.78"/><g class="cls-35"><g class="cls-92"><path class="cls-85" d="M263.53,491.4a.15.15,0,0,1-.11,0c-1.69-1-1.75-2.28-1.25-3.13a2.32,2.32,0,0,1,2.74-1,3.24,3.24,0,0,0-2.24-2.44,2,2,0,0,0-2,1.13.15.15,0,0,1-.26-.16,2.26,2.26,0,0,1,2.31-1.27,3.67,3.67,0,0,1,2.57,3,.15.15,0,0,1-.06.16.16.16,0,0,1-.17,0,2,2,0,0,0-2.63.76c-.43.73-.35,1.82,1.14,2.71a.16.16,0,0,1,.05.21.15.15,0,0,1-.1.07"/></g></g><path class="cls-63" d="M287.33,493.84l-.74.14a.16.16,0,0,1-.06-.31,21.11,21.11,0,0,0,4.52-1.17l-.16-.22c-4.42-5.85-3.89-8.87-2.67-10.37a.15.15,0,1,1,.24.2c-1.15,1.42-1.62,4.3,2.68,10l.21.29a.22.22,0,0,1,0,.21c-.18.41-2.5.93-4,1.24"/><g class="cls-35"><g class="cls-93"><path class="cls-85" d="M287,503.09a6.42,6.42,0,0,1-3.93-.5.15.15,0,1,1,.13-.28,5.46,5.46,0,0,0,5.23-.12.15.15,0,1,1,.2.24,4,4,0,0,1-1.63.66"/></g></g><g class="cls-35"><g class="cls-94"><path class="cls-85" d="M280,509.21H280c-5.78-.73-10.94-6.23-13.81-14.71a.15.15,0,0,1,.1-.2.16.16,0,0,1,.2.1c2.83,8.36,7.89,13.79,13.55,14.5a.15.15,0,0,1,0,.3"/></g></g><path class="cls-63" d="M280.66,485.86c0,1.3-.47,2.37-1.13,2.39s-1.22-1-1.25-2.33.47-2.37,1.13-2.39,1.22,1,1.25,2.33"/><path class="cls-63" d="M290.79,485.37c0,1.3-.47,2.37-1.13,2.39s-1.22-1-1.25-2.33.47-2.37,1.13-2.39,1.22,1,1.25,2.32"/><path class="cls-63" d="M273.49,482.37a24.45,24.45,0,0,1,10.09-.52c-4.71-3.05-8.15-2.16-10.09.52"/><path class="cls-63" d="M288.68,481.66c1.1-.87,2.82-.48,3-.07.42-2.67-2.49-1.77-3,.07"/><path class="cls-63" d="M277.56,496.27c5.33,1.82,11.69.11,12,.34s.32,3.68-3.41,4.37-10.16-4.81-8.58-4.71"/><path class="cls-95" d="M283.68,497.11a18.35,18.35,0,0,1-6.12-.84c-1.58-.1,4.82,5.38,8.55,4.71a10.68,10.68,0,0,0-2.43-3.87"/><path class="cls-96" d="M278.91,496.66c5.07,4.26,8.81,2.32,10.28-.06-1.3.12-5.93,1.07-10.29.05h0"/><path class="cls-62" d="M914.12,721.43a17.07,17.07,0,0,0,2.28,7.49c2.47,3.52,1.82,8.73,1.63,9.9h-32.5c4.89-6.77,12.25-10,16.41-11.14s4.17-6.58,4.1-6.77,8.08.52,8.08.52"/><path class="cls-63" d="M901.94,727.69l.37-.12c5.09,1.46,5,4.18,8.56,4.48,2.42.21,4.35-1.42,5.62-3,2.37,3.51,1.74,8.61,1.54,9.77h-32.5c4.88-6.77,12.25-10,16.41-11.14"/><path class="cls-62" d="M871.67,721.43a17.07,17.07,0,0,0,2.28,7.49c2.47,3.52,1.82,8.73,1.63,9.9h-32.5c4.89-6.77,12.25-10,16.41-11.14s4.17-6.58,4.1-6.77,8.08.52,8.08.52"/><path class="cls-63" d="M859.49,727.69l.37-.12c5.09,1.46,5,4.18,8.56,4.48,2.42.21,4.35-1.42,5.62-3,2.37,3.51,1.74,8.61,1.54,9.77h-32.5c4.88-6.77,12.25-10,16.41-11.14"/><path class="cls-62" d="M926.66,574.59c1.46,15.24.88,34.59-4.4,35.17s-21.69-4.4-21.69-4.4,5-22.57,6.45-25.5,7-7,7-7Z"/><path class="cls-65" d="M911,606.63c6.35,10.06,4.27,24.39,3.35,29.47s-.52,30.87.13,31.52c3.39,5.08,6.12,39,3,56.41-6,1.17-13.94-.13-13.94-.13l-12.51-45.59s-11.79,34.72-17.78,44c-5.73,2-12.83-1.24-12.83-1.24s1.73-66.44,4.36-87,10.74-28.39,10.74-28.39l10.66-8.54,16.41,2.05Z"/><path class="cls-62" d="M861.88,562.57s-14.07,5.47-15.44,4.69S834.52,555.92,832.76,554s.07-6.32-1.76-9.31a19.32,19.32,0,0,1-2.34-6.12c-1.43,1.17.39,6.51.26,7.43s-7.16-9-8.21-8.34,5.6,9.64,3.26,8.73-5.34-6.9-6.25-6.77,1.17,4.95.26,4-2-3-2-1.56,2.73,5.21,1.82,5-2-2.35-2-1,5.08,9,9.77,10.68c9.51,17.07,18,28,20.84,28.4S869.18,580,869.18,580Z"/><path class="cls-63" d="M911.51,600.67c-.1,2.35-.2,5.67-.49,6C897,610.25,875.36,605,875.36,605l1-4.2Z"/><path class="cls-68" d="M904.54,544.72s9.18,4.5,15.7,10.36,8.47,22.67,8.47,22.67l-9.12.91c-4.69,16.54-5.86,24.23-8.73,25s-33,.91-35.3-2-1.3-20.71-1.3-20.71l-5.47,1.69C860.32,575.4,858.1,563,858.1,563c11.59-8.6,19.8-11.33,21.89-12.51s11.27-4,11.27-4l6.19-2.8Z"/><g class="cls-35"><g class="cls-97"><path class="cls-98" d="M897,549.24a23.08,23.08,0,0,0,9.1-1.71.15.15,0,1,0-.12-.27,24,24,0,0,1-15.39.78.15.15,0,0,0-.19.09.15.15,0,0,0,.09.19,20.58,20.58,0,0,0,6.51.93"/></g></g><g class="cls-35"><g class="cls-99"><path class="cls-98" d="M888.91,566.5h0a.15.15,0,0,0,.13-.16c0-.11-1.15-10.62-9.46-14.77a.15.15,0,1,0-.13.27c8.17,4.09,9.29,14.43,9.3,14.54a.15.15,0,0,0,.15.13"/></g></g><g class="cls-35"><g class="cls-100"><path class="cls-98" d="M919.46,577.57a.15.15,0,0,0,.15-.12,27.71,27.71,0,0,0-.59-11,.15.15,0,0,0-.29.08,27.38,27.38,0,0,1,.58,10.88.15.15,0,0,0,.12.17h0"/></g></g><g class="cls-35"><g class="cls-101"><path class="cls-98" d="M875.17,580.11h.06a40.37,40.37,0,0,0,7-3.8.15.15,0,1,0-.18-.24,40.11,40.11,0,0,1-6.94,3.76.15.15,0,0,0-.08.2.15.15,0,0,0,.14.09"/></g></g><g class="cls-35"><g class="cls-102"><path class="cls-98" d="M890.8,677.16a.15.15,0,0,0,.14-.11c.09-.37,8.94-36.72,10.28-45.91,1-.33,3.67-2.36,5.41-6,1.62-3.36,2.81-9-.72-16.74a.15.15,0,1,0-.27.12c3.48,7.65,2.32,13.19.72,16.48-1.74,3.61-4.51,5.64-5.32,5.85a.15.15,0,0,0-.11.12c-1.29,9-10.2,45.6-10.29,46a.15.15,0,0,0,.11.18h0"/></g></g><g class="cls-35"><g class="cls-103"><path class="cls-98" d="M867.09,716.11a.15.15,0,0,0,.15-.14c.06-.84,5.71-84.16,15-109.25a.15.15,0,1,0-.28-.1c-9.28,25.13-14.93,108.5-15,109.34a.15.15,0,0,0,.14.16Z"/></g></g><g class="cls-35"><g class="cls-104"><path class="cls-98" d="M878.29,618.15a.15.15,0,0,0,0-.3c-2.1-.37-3.44-1.14-4.11-2.35-1.26-2.29,0-5.89,1.62-9.69a.15.15,0,0,0-.28-.11c-1.6,3.87-2.92,7.54-1.6,9.95.71,1.3,2.13,2.12,4.32,2.5h0"/></g></g><path class="cls-63" d="M911.39,530c7.37-6.49,6.45-12.5,3.59-14.06,3.8-3.21-1.21-2.76-1.21-2.76,0-8.47-9.92-11.58-15.06-13s-5.52-3-6.5-2.83c-3.76,1.68-5,5.34-3.38,7.19-5.6,2.92-7.32,12.24-2.46,17.4s17.33,10.83,17.33,10.83Z"/><path class="cls-62" d="M911.11,515.15c-5.82,4.91-2.27,9.28-2.46,9.35-1.8,2.53-.61,4.26-.61,4.26,1.43-1.19,4.74-.53,5.27,3.06s-4.79,4.92-7.2,2.56a25.48,25.48,0,0,0-.94,10.54c.38,3.11-10.56,3.23-15,1.82a4.32,4.32,0,0,0,.72-4.72c-3.34-.42-7.52-1.73-8.12-7.78s1.85-14.12,3.13-16.9c2.34-7.42,5.48-11,10-11.33.58,5.4,11.7,10.49,15.2,9.12"/><path class="cls-63" d="M887,526.83c0-.14.09-.19.54-.4,1.35-.63,4.92-2.31,4.35-6.28a.13.13,0,1,1,.25,0c.6,4.15-3.09,5.88-4.49,6.54l-.35.17a17.89,17.89,0,0,0,3.88,2.22.13.13,0,0,1,.08.16.13.13,0,0,1-.16.08c-1-.29-4-2.08-4.1-2.46"/><g class="cls-35"><g class="cls-105"><path class="cls-85" d="M888.28,537.91a4.8,4.8,0,0,0,2.84,0,.12.12,0,0,0,.08-.16.13.13,0,0,0-.16-.08c-2.77.85-5-1.35-5.06-1.37a.13.13,0,1,0-.18.18,6.57,6.57,0,0,0,2.46,1.41"/></g></g><g class="cls-35"><g class="cls-106"><path class="cls-85" d="M908.13,533.54a1.25,1.25,0,0,0,1.44-.48,1.51,1.51,0,0,0,.12-1.66,1.17,1.17,0,0,0-1.27-.41,2.31,2.31,0,0,1,2.11-1,1.35,1.35,0,0,1,1.28,1.32.13.13,0,1,0,.25,0,1.6,1.6,0,0,0-1.51-1.54,2.43,2.43,0,0,0-2.47,1.41.12.12,0,0,0,.15.16c.58-.16,1-.07,1.24.26a1.25,1.25,0,0,1-.12,1.37,1,1,0,0,1-1.17.39.13.13,0,0,0-.07.24"/></g></g><g class="cls-35"><g class="cls-107"><path class="cls-85" d="M891.31,542.12h0c5.93.82,11-1.82,14.14-7.44a.13.13,0,0,0-.22-.12c-3.13,5.52-8.06,8.12-13.89,7.32a.13.13,0,0,0-.05.24"/></g></g><path class="cls-63" d="M896.31,524c-.35,1.15,0,2.26.7,2.48s1.61-.52,2-1.67,0-2.26-.7-2.48-1.61.53-2,1.67"/><path class="cls-63" d="M887.46,521c-.35,1.15,0,2.26.7,2.48s1.61-.52,2-1.67,0-2.26-.7-2.48-1.61.52-2,1.67"/><path class="cls-63" d="M904.55,523.38c-3.19-2.89-8.07-3.31-8.07-3.31,3.59-2.5,8.11.2,8.07,3.31"/><path class="cls-63" d="M891.4,518.91a4.36,4.36,0,0,0-4.79-1.28,2.51,2.51,0,0,1,4.79,1.28"/><path class="cls-63" d="M894.49,533.5c-1.06-.88-8.24-3.32-8.54-2.89a4.41,4.41,0,0,0,2.3,5.11c2.82,1.29,7.3-1.5,6.24-2.21"/><path class="cls-96" d="M893.85,533.12c-3.8,1.47-7.38-.06-7.17-2.49a39.57,39.57,0,0,1,7.17,2.49"/><path class="cls-63" d="M881.87,520.59c-.87,2.86.28,5.76,2.55,6.45,2.08.63,4.4-.79,5.45-3.22a3.53,3.53,0,0,1,2.43.74,5.9,5.9,0,0,0,11.29,3.25l0-.14,4.4.45,0-.21-4.37-.44a5.91,5.91,0,0,0-11.32-3.12,3.78,3.78,0,0,0-2.41-.73c.06-.16.12-.33.17-.5.87-2.86-.28-5.76-2.56-6.45s-4.84,1.07-5.71,3.93m10.61,4.12a2.67,2.67,0,0,1,.33.4L893,525a2.88,2.88,0,0,0-.44-.52v0a5.26,5.26,0,1,1-.07.27m-10.41-4.06c.84-2.75,3.28-4.46,5.45-3.8s3.25,3.44,2.42,6.19c-.06.2-.13.39-.21.58l-.27,0,.05.2.13,0c-1,2.27-3.2,3.59-5.15,3-2.17-.66-3.25-3.43-2.42-6.19"/><path class="cls-63" d="M547.72,195.61c7.1-1.81,19.15.83,17.5,11.89s-4.46,19.48-.17,24.6,7.6,18.33-3.47,21.63-39.62,7.92-46.89,4,3.14-18.66,8.92-23.61-.5-42.43,24.1-38.47"/><path class="cls-62" d="M608,269.43s-32.53,11.74-34.83,10.85-10.46-13.65-10.46-13.65l2.3-13.4,6.51.51S579.38,265,579.76,265c9.7-1.4,23.93-2.22,24.44-3.24l1.4-2.06s3.05.41,3.14.74.16,2.64.25,4.13a20.75,20.75,0,0,1-1,4.9"/><path class="cls-62" d="M563.34,411.9s2.1,6.12.29,8.32-3.06,8.23-2.39,12.15h33.68c-3.16-6.51-16.17-10.53-17.22-12.15s-1.82-7.08-1.82-7.08Z"/><path class="cls-63" d="M577.69,420.22l-.05-.09c-4.06,1.21-6.44,5.48-8.56,5.64s-5.16-2.62-6.45-3.86a20.86,20.86,0,0,0-1.4,10.46h33.68c-3.16-6.51-16.17-10.52-17.22-12.15"/><path class="cls-62" d="M521.53,411.9s2.1,6.12.29,8.32-3.06,8.23-2.39,12.15H553.1c-3.16-6.51-16.17-10.53-17.22-12.15s-1.82-7.08-1.82-7.08Z"/><path class="cls-65" d="M525.29,288.95c-10.33,11.74-7.4,126.3-7.4,126.3,16.65,2.87,23.82-.29,23.82-.29l5.17-57.12c8,45.64,13.49,56.55,13.49,56.55,18.95.57,21.82-3.16,21.82-3.16s-8.17-103.94-19-121-37.89-1.28-37.89-1.28"/><polygon class="cls-63" points="563.18 284.74 563.18 290.22 527.46 290.22 528.22 283.59 563.18 284.74"/><path class="cls-68" d="M534.92,237.28c-13.08,2.81-17.29,6.38-19.71,10.72s-7.4,14-7.4,14l2,1,10.84,5,2.42,1.66,4.08,15.05h36l-.38-4.85a66.09,66.09,0,0,0,3.32-18.75l7.4-8s-10.33-13.65-14.29-14.93a19.78,19.78,0,0,0-6.51-1.13l-15.95,0Z"/><path class="cls-62" d="M546.64,202.64c3.4,10-3.21,14.45-7.18,14.26-3-2.2-6.36.1-5.6,3.44s4.74,3.83,5.6,3.45c1.15,8.9-.14,12.39-4.54,13.49,4.07,6.27,19.09,8.8,17.8-.24-2.82-.43-2.3-5.84-2.3-5.84s4.54,1,7.61-2.2,3.59-8.8,3.4-13.87-4.11-15.12-14.78-12.49"/><path class="cls-63" d="M555.27,221.22a.15.15,0,0,1,0-.29,10.63,10.63,0,0,0,2.74-1.09,8.41,8.41,0,0,1-2.42-4.82,4.59,4.59,0,0,1,1.46-3.91.15.15,0,1,1,.2.21,4.31,4.31,0,0,0-1.37,3.67,8.2,8.2,0,0,0,2.31,4.62.25.25,0,0,1,.12.25c-.06.44-1.89,1-3,1.36h0"/><g class="cls-35"><g class="cls-108"><path class="cls-85" d="M538.07,222.56c-1,0-1.55-.52-1.59-1.07-.06-.78.74-1.67,2.33-1.88-.39-.5-1.47-1.75-2.49-1.73a1.45,1.45,0,0,0-1.18.78.15.15,0,0,1-.2,0,.15.15,0,0,1,0-.2,1.72,1.72,0,0,1,1.42-.92c1.43,0,2.83,2,2.89,2.06a.15.15,0,0,1,0,.15.15.15,0,0,1-.12.08c-1.68.13-2.37,1-2.33,1.59s.65.86,1.54.79a.15.15,0,1,1,0,.29h-.26"/></g></g><g class="cls-35"><g class="cls-109"><path class="cls-85" d="M549.85,231.11h0c-3.6-.73-7-3.69-9.19-8.11a.15.15,0,0,1,.26-.13c2.2,4.35,5.47,7.25,9,8a.15.15,0,0,1,0,.29"/></g></g><g class="cls-35"><g class="cls-110"><path class="cls-85" d="M553.31,227.6a4.14,4.14,0,0,1-1.91-.48.15.15,0,1,1,.13-.26,3.75,3.75,0,0,0,3.58,0,.15.15,0,1,1,.16.24,3.84,3.84,0,0,1-2,.53"/></g></g><g class="cls-35"><g class="cls-111"><path class="cls-98" d="M529.37,253.24a.15.15,0,0,1-.14-.11l0-.14c-.64-2.44-1.83-7-7.15-9.33a.15.15,0,0,1,.12-.27c5.45,2.41,6.66,7,7.32,9.53l0,.14a.15.15,0,0,1-.1.18h0"/></g></g><g class="cls-35"><g class="cls-112"><path class="cls-98" d="M565.6,259.88a.15.15,0,0,1-.15-.14,33.45,33.45,0,0,0-4.7-14.09.15.15,0,1,1,.25-.15,33.72,33.72,0,0,1,4.74,14.23.15.15,0,0,1-.14.15Z"/></g></g><g class="cls-35"><g class="cls-113"><path class="cls-98" d="M524.65,305a.15.15,0,0,1,0-.29c.07,0,6.84-1.45,9.08-6.55a.15.15,0,0,1,.27.12c-2.3,5.24-9.22,6.7-9.29,6.72h0"/></g></g><g class="cls-35"><g class="cls-114"><path class="cls-98" d="M521.46,410.67h0a.14.14,0,0,1-.15-.15c0-4.38.68-107.29,4.35-115.26a.15.15,0,1,1,.27.12c-3.64,7.92-4.32,114.07-4.32,115.14a.14.14,0,0,1-.15.15"/></g></g><g class="cls-35"><g class="cls-115"><path class="cls-98" d="M530,412.72a67.3,67.3,0,0,1-11-.9.15.15,0,0,1-.12-.17.15.15,0,0,1,.17-.12,63.16,63.16,0,0,0,21.51,0,.15.15,0,0,1,.06.29,55.45,55.45,0,0,1-10.59.9"/></g></g><g class="cls-35"><g class="cls-116"><path class="cls-98" d="M571.14,410.58a67.19,67.19,0,0,1-11,.79.15.15,0,0,1,0-.29,63.11,63.11,0,0,0,21.25-3.29.15.15,0,0,1,.19.08.15.15,0,0,1-.08.19,55.25,55.25,0,0,1-10.33,2.51"/></g></g><g class="cls-35"><g class="cls-117"><path class="cls-98" d="M548.13,355.31h0a.15.15,0,0,1-.13-.16l4.21-47.71a.15.15,0,0,1,0-.1l2.12-1.87v-10.9a.15.15,0,1,1,.29,0v11a.14.14,0,0,1,0,.11l-2.12,1.88-4.2,47.66a.15.15,0,0,1-.15.13"/></g></g><path class="cls-63" d="M551.24,215.27c0,1.16-.56,2.11-1.24,2.11s-1.24-.94-1.24-2.11.56-2.1,1.24-2.1,1.24.94,1.24,2.1"/><path class="cls-63" d="M559.46,215.37c0,1.16-.56,2.1-1.24,2.1s-1.24-.94-1.24-2.1.56-2.1,1.24-2.1,1.24.94,1.24,2.1"/><path class="cls-63" d="M547.17,211.38a12.24,12.24,0,0,1,5.58-1.28c-2.71-2-5.33-.67-5.58,1.28"/><path class="cls-63" d="M557.69,210.84a3,3,0,0,1,2.74,1c-.29-2.17-2.46-2-2.74-1"/><path class="cls-63" d="M549,222.83c1.25-.08,7.53-.38,7.81.16s-.54,3.22-3.6,3.25-4.72-3.38-4.21-3.41"/><path class="cls-96" d="M549.88,222.78c2.67,2.24,5.57,2,6.4,0a46.81,46.81,0,0,0-6.4,0"/><path class="cls-62" d="M509.85,263c-3.54,10.72-4.88,18.37-3.73,20.28S528,292.58,530,295.17s8.23,2.49,11.29.67,5.84-3.35,7.27-2.68,4.4.91,4.26-.43c1.48,0,2-.43,1.87-.67-.43-.81-7.42-4.54-7.42-4.54s1.48-.57,1.77-.33c2.78,2.06,4.93,2.44,5.17,1.91a28.37,28.37,0,0,0-5.12-4.59c-.53-.24-5.45-.48-6.32,0s-5.88,4.31-6.41,4.35-17-14-17-14l3.06-7.91Z"/><g class="cls-35"><g class="cls-118"><path class="cls-85" d="M552.46,292.54h0s-4.09-.89-4.72-1a.15.15,0,0,1,.06-.29c.63.13,4.68,1,4.72,1a.15.15,0,0,1,0,.29"/></g></g><path class="cls-63" d="M535.88,420.22l-.05-.09c-4.06,1.21-6.44,5.48-8.56,5.64s-5.16-2.62-6.45-3.86a20.85,20.85,0,0,0-1.4,10.46H553.1c-3.16-6.51-16.17-10.52-17.22-12.15"/><path class="cls-62" d="M605.58,259.68c1.73-2.66,3.26-3.33,5-4.72s2.59-4,2.93-4c1.26.53.93,2.33-.07,4s-1.93,2.53,3.59.4,9-2.46,7.32-1.33-9.58,5.12-6.45,4.59,6.78-2.26,7.38-1.53-6.72,4.52-4.39,3.73,5-1.8,3.39-.07-7.58,4-5.32,4.06,5.65-1.26,4.52.27S614,268.86,611.3,269a20.07,20.07,0,0,0-5.65,1.33Z"/><g class="cls-35"><g class="cls-119"><path class="cls-85" d="M613.77,266.72a.15.15,0,0,1-.14-.1c0-.1-.89-2.38-3.14-2.19a.15.15,0,0,1-.13-.25s2.33-2.72,1.66-5.45a.15.15,0,1,1,.3-.07c.59,2.41-.93,4.7-1.52,5.46,2.23,0,3.1,2.38,3.11,2.41a.15.15,0,0,1-.09.2h-.05"/></g></g></g></g></g></g></svg>