<svg id="Слой_1" data-name="Слой 1" xmlns="http://www.w3.org/2000/svg" xmlns:xlink="http://www.w3.org/1999/xlink" viewBox="0 0 2975.02 1835.33"><defs><style>.cls-1{fill:none;}.cls-2{fill:#e3fcff;}.cls-3{fill:#d0fcff;}.cls-4{fill:#c1fcff;}.cls-5{fill:#bfd0ff;}.cls-6{clip-path:url(#clip-path);}.cls-7{fill:#413930;}.cls-8{fill:#f5fcff;}.cls-9{fill:#fcdc94;}.cls-10{fill:#ecc879;}.cls-11{fill:#062440;}.cls-12{fill:#2c2858;}.cls-13{fill:#b1dcf7;}.cls-14{fill:#e3eaff;}.cls-15{fill:#80bc48;}.cls-16{fill:#fff;}.cls-17{fill:#dadcf7;}.cls-18{fill:#f37a50;}.cls-19{fill:#de623c;}.cls-20{fill:#201d40;}.cls-21{fill:#e82e52;}.cls-22{fill:#ea2e53;}.cls-23{fill:#c0e8e4;}.cls-24{fill:#abe8e4;}</style><clipPath id="clip-path"><rect class="cls-1" width="2975.02" height="1835.33"/></clipPath></defs><title>img-7</title><rect class="cls-2" x="1547.61" y="779.5" width="251.6" height="1024.61"/><rect class="cls-3" x="1398.94" y="639.06" width="278.22" height="1165.05"/><rect class="cls-3" x="1432.69" y="573.44" width="210.71" height="69.7"/><rect class="cls-3" x="1475.13" y="504.19" width="125.84" height="69.7"/><rect class="cls-2" x="976.17" y="614.67" width="431.65" height="1189.43"/><rect class="cls-2" x="2114.83" y="525.92" width="333.11" height="1217.94"/><rect class="cls-2" x="2566.79" y="875.95" width="333.11" height="940.79"/><rect class="cls-2" x="2008.14" y="702.9" width="299.58" height="1113.84"/><rect class="cls-2" x="2298.64" y="442.66" width="419.14" height="1374.09"/><rect class="cls-4" x="2049.78" y="786.18" width="62.46" height="93.69"/><rect class="cls-4" x="2145.2" y="786.18" width="62.46" height="93.69"/><rect class="cls-4" x="2240.62" y="786.18" width="62.46" height="93.69"/><rect class="cls-4" x="2049.78" y="926.71" width="62.46" height="93.69"/><rect class="cls-4" x="2145.2" y="926.71" width="62.46" height="93.69"/><rect class="cls-4" x="2240.62" y="926.71" width="62.46" height="93.69"/><rect class="cls-4" x="2049.78" y="1067.24" width="62.46" height="93.69"/><rect class="cls-5" x="2145.2" y="1067.24" width="62.46" height="93.69"/><rect class="cls-4" x="2240.62" y="1067.24" width="62.46" height="93.69"/><rect class="cls-5" x="2049.78" y="1207.77" width="62.46" height="93.69"/><rect class="cls-5" x="2145.2" y="1207.77" width="62.46" height="93.69"/><rect class="cls-5" x="2240.62" y="1207.77" width="62.46" height="93.69"/><rect class="cls-5" x="2049.78" y="1348.31" width="62.46" height="93.69"/><rect class="cls-5" x="2145.2" y="1348.31" width="62.46" height="93.69"/><rect class="cls-5" x="2240.62" y="1348.31" width="62.46" height="93.69"/><rect class="cls-4" x="2366.19" y="786.18" width="62.46" height="93.69"/><rect class="cls-4" x="2476.98" y="786.18" width="62.46" height="93.69"/><rect class="cls-4" x="2585.86" y="786.18" width="62.46" height="93.69"/><rect class="cls-4" x="2366.19" y="635.21" width="62.46" height="93.69"/><rect class="cls-4" x="2476.98" y="635.21" width="62.46" height="93.69"/><rect class="cls-4" x="2585.86" y="635.21" width="62.46" height="93.69"/><rect class="cls-4" x="2366.19" y="492.19" width="62.46" height="93.69"/><rect class="cls-4" x="2476.98" y="492.19" width="62.46" height="93.69"/><rect class="cls-4" x="2585.86" y="492.19" width="62.46" height="93.69"/><rect class="cls-4" x="2366.19" y="926.71" width="62.46" height="93.69"/><rect class="cls-4" x="2476.98" y="926.71" width="62.46" height="93.69"/><rect class="cls-4" x="2585.86" y="926.71" width="62.46" height="93.69"/><rect class="cls-4" x="2366.19" y="1067.24" width="62.46" height="93.69"/><rect class="cls-4" x="2476.98" y="1067.24" width="62.46" height="93.69"/><rect class="cls-4" x="2585.86" y="1067.24" width="62.46" height="93.69"/><rect class="cls-5" x="2366.19" y="1207.77" width="62.46" height="93.69"/><rect class="cls-5" x="2476.98" y="1207.77" width="62.46" height="93.69"/><rect class="cls-5" x="2585.86" y="1207.77" width="62.46" height="93.69"/><rect class="cls-5" x="2366.19" y="1348.31" width="62.46" height="93.69"/><rect class="cls-5" x="2476.98" y="1348.31" width="62.46" height="93.69"/><rect class="cls-5" x="2585.86" y="1348.31" width="62.46" height="93.69"/><rect class="cls-2" x="2826.19" y="806.37" width="73.72" height="69.58"/><rect class="cls-2" x="2366.19" y="367.3" width="284.03" height="75.36"/><g class="cls-6"><path class="cls-7" d="M2896.07,1835.33H15.61A15.61,15.61,0,0,1,0,1819.72H0a15.61,15.61,0,0,1,15.61-15.61H2896.07a15.61,15.61,0,0,1,15.61,15.61h0a15.61,15.61,0,0,1-15.61,15.61"/><path class="cls-8" d="M1673.42,418.51a124.46,124.46,0,0,1,186.26-102.26h0a62.62,62.62,0,0,1,123.44-9.84A105.35,105.35,0,0,1,2106,370.81a78.57,78.57,0,0,1,89.56,23.25c8,9.75.88,24.44-11.73,24.44Z"/><path class="cls-8" d="M1400.54,276.23c0,.68,0,1.36,0,2H1165.74A55.07,55.07,0,0,1,1235,241.12a86.49,86.49,0,0,1,165.52,35.11"/><path class="cls-8" d="M1017.22,135.32c0,.9,0,1.79-.06,2.68H612.06c0-.89-.05-1.79-.05-2.68A71.7,71.7,0,0,1,705.1,66.93,112.71,112.71,0,0,1,913,71.48a71.68,71.68,0,0,1,104.24,63.84"/><path class="cls-8" d="M2517.45,204.32c0,.9,0,1.8-.06,2.68H2112.29c0-.89-.06-1.79-.06-2.68a71.7,71.7,0,0,1,93.09-68.39,112.71,112.71,0,0,1,207.89,4.55,71.68,71.68,0,0,1,104.24,63.84"/><path class="cls-9" d="M2973.78,1479.26a175.27,175.27,0,0,0-3.48-50.21c-6.09-28.15-19.64-62-56.94-93.51-78.87-66.7-335.56-152.93-553.68-150.12C2327.9,1167,2032.49,940,1901.88,866.56c-123.63-68.64-814.68-27.1-878.24-18.84-174.47,21.92-495.32,309-501,394.46-.31,4.14-.63,308.28,4.45,328.3s270.78,64.83,270.78,64.83,2067.27,56.58,2096.51,51.8a98.54,98.54,0,0,0,70.88-36.24c14.62-24.77,8.57-171.61,8.57-171.61m-1913.23-276.1S936,1174.9,935.75,1125.8,1170,886.58,1304.64,894.33c0,0,25,197.8,85.53,309.84-75.09,1.26-329.62-1-329.62-1m381.09,0c-65.59-97.24-99-314.23-99-314.23s360.46,2.57,430,8.19,508.55,328.57,508.55,328.57-767.17-20.25-839.55-22.53"/><path class="cls-10" d="M2973.47,1515.72s6,109.21-8.58,134A98.52,98.52,0,0,1,2894,1686c-29.24,4.77-2272.26,4.45-2312,0s-55.3-58.79-56.25-102c0-9.22-3.5,14.41-4.13-68.22Z"/><path class="cls-10" d="M2228.6,1586.05c.28-143.23,116.62-259.1,259.84-258.82s259.1,116.62,258.82,259.84a259.34,259.34,0,0,1-13.67,82.56l-438.26,20.66-60.07-46.08a310.18,310.18,0,0,1-6.67-58.16"/><path class="cls-11" d="M2487.93,1367.08c-120.93,0-219,98-219,219s98,219,219,219,219-98,219-219-98-219-219-219"/><path class="cls-2" d="M2487.93,1429.06a157,157,0,1,0,157,157,157,157,0,0,0-157-157"/><path class="cls-4" d="M2487.93,1496.18a89.87,89.87,0,1,0,89.87,89.87,89.87,89.87,0,0,0-89.87-89.87"/><path class="cls-10" d="M764.14,1586.05c0-143.31,116.18-259.49,259.49-259.49s259.49,116.18,259.49,259.49a238,238,0,0,1-12.71,80.09l-500.55-26.7a260.53,260.53,0,0,1-5.72-53.39"/><path class="cls-11" d="M1023.74,1367.08c-120.93-.06-219,97.93-219.07,218.87S902.6,1805,1023.53,1805s219-97.93,219.07-218.86-97.93-219-218.87-219.07"/><path class="cls-2" d="M1023.71,1429.06a157,157,0,1,0,156.92,157.07,157,157,0,0,0-156.92-157.07"/><path class="cls-4" d="M1023.68,1496.18a89.87,89.87,0,1,0,89.83,89.91,89.87,89.87,0,0,0-89.83-89.91"/><path class="cls-10" d="M2743,1324.77s170.4,10.77,195,88.89c13.29,27.32-138,10.38-138,10.38Z"/><path class="cls-10" d="M2281.18,1225.7l-106.23-82.85s-119.1-21.71-124.64,65.84c3.18,84.58,199.15,38.72,230.88,17"/><path class="cls-10" d="M1658.52,1288.79H1499.31a17.28,17.28,0,0,1,0-34.56h159.21a17.28,17.28,0,0,1,0,34.56"/><path class="cls-12" d="M927.94,1809.52l-712,.31a140.11,140.11,0,0,1-140.2-140L75,339.41a140.11,140.11,0,0,1,140-140.2l712-.31a140.11,140.11,0,0,1,140.2,140l.76,1330.4a140.11,140.11,0,0,1-140,140.2"/><path class="cls-13" d="M896.07,1768.53l-647.79.28c-70.4,0-127.5-57.9-127.55-129.42L120,371.53C120,300,177,242,247.41,241.95l647.79-.28c70.4,0,127.5,57.9,127.55,129.42l.71,1267.86c0,71.52-57,129.54-127.38,129.58"/><path class="cls-14" d="M753.39,1308.8,891,1222.32l28.58,78.38L791.2,1381.08l14,23.63,218-136.45,0-32.48-79.41,49.73-28.6-78.41,108-67.85-.08-157.75-13.72-22.61,13.69-19.2,0-48.07-30.69,43L874.88,876.36,975.34,735.49,1023,761.93l0-31.82-31.36-17.42,31.32-43.92,0-57.66L970.54,582l52.32-5.5V548.67l-94.9,9.7L729.46,448.08,991.4,317.7l31.35,57.13v-3.74a129.84,129.84,0,0,0-63.46-111.93l5.15,9.39L861.75,319.66l-78.53-77.94-39.82,0,91.38,91.35-152,75.63-172.14-128,22-38.88-62.31,0-52.9,76.25L350.39,283,378,241.89l-33.67,0-37.73,56.16-49-56.12H247.41C218.26,242,194,253.86,194,253.86l50.18,57.74-123.5,46.32c-.46,4.47-.68,30-.68,30l143.5-53.81-.15-.41L273.21,345,174,519.38,120,396.55l.08,137.66L140,579.27l-19.83,34.87,0,92.59,77.12,117.39-13.92,17.65L120.3,863.7v29.69l79.91-28,137.4-174.18L392.14,715l-233,515-38.73-190.87.08,143.36L132.41,1242l-11.9,3.34,0,57.45,54-15.3,387,135.31,122.35-73.42L676.74,1376H735.6ZM956.46,978l59.9,99.84L895.48,1153,849,1025.68l83.72-59.44Zm-52-25.82-73.75,52.36L764.56,970.9l73.53-51.64ZM590.85,1059.26l-57.33-77.1L500.34,867.7,710.27,974.51Zm10.34,108.23L504.64,1236l45.22-137.23ZM808.68,904.67,735.9,956.32,489.72,831.06,463.5,733.37ZM464.14,574.78l2.17,4.29,119.78-59.63,124.09,68.87L601.52,740.7l-93.21-46.26Zm-10,335.86,27.6,96.54,2.8,4.16,32.4,43.35-141.54-40.63ZM738.77,989,805,1022.74l-158,112.15-39.8-53.52ZM849.54,863.79,626.85,753.27,734.77,602l216,119.88ZM929.29,591l82.22,45.67L967,699l-80.61-44.77ZM699.22,463.13l205.13,114-41.89,63.84-246-136.64ZM494.81,303.67l65.55,48.75-31,41.79-66-44.92Zm-47.34,68.54,87.47,59.53L582.65,369l72.17,53.66L446.3,526.43,409.61,427ZM339.75,298.9,401.59,341l-25.44,36.67-50.48-57.8Zm-47.1,68.45,50.41,58L232.21,585.08,196,569.34l-7.93-18.07ZM215.57,801,124.71,662.7l29.35-51.63,157.1,68.61Zm69.1-193.07,86-124.49,71.71,193.07Zm134.64,181,25.22,88.23L285.16,1086.42ZM214.84,1242.39l19.35-42.92,123.14-161.74,167.22,48.41-78.24,237.5Zm339.7,119.24-81.81-28.72,17.22-52.26,127.93-90.84,69.59,93.11Zm180.29-108.76-71.09-95.61,161.64-114.78,45.82,125.6Z"/><polygon class="cls-15" points="232.21 585.08 343.06 425.34 292.65 367.35 188.07 551.27 196 569.34 232.21 585.08"/><polygon class="cls-15" points="1022.75 374.83 991.4 317.7 729.46 448.08 927.95 558.37 1022.85 548.67 1022.75 374.83"/><polygon class="cls-15" points="504.64 1236.03 549.86 1098.8 601.19 1167.49 504.64 1236.03"/><path class="cls-16" d="M1023.13,1367.69v304.66A96.17,96.17,0,0,1,927,1768.53l-710.21.31a96.16,96.16,0,0,1-96.23-96.11l-.18-305Z"/><path class="cls-17" d="M906.78,1511.33H530.2a19,19,0,0,1-19-19v-23.52a19,19,0,0,1,19-19H906.78a19,19,0,0,1,19,19v23.52a19,19,0,0,1-19,19"/><path class="cls-13" d="M430.67,1508c-.51-9.94-4.4-17.87-12.11-23.74a29.84,29.84,0,0,0-18.7-6c-12.82,0-28.77,10.34-29.6,29.92H286c-.36-9.89-4.32-18-12.38-24a28.74,28.74,0,0,0-18.2-5.86,30,30,0,0,0-29.61,29.79c-5.08-1.44-9.84-2.75-14.55-4.2a2.27,2.27,0,0,1-1.13-1.76c-.05-13.9-.14-27.8.09-41.69a11.44,11.44,0,0,1,2.56-6.07c7-9.34,16.52-15.79,26.5-21.5,11.28-6.44,23.2-11.29,36.2-12.93a94,94,0,0,1,11.06-.7c11.73-.09,23.48.37,35.2-.15a45.87,45.87,0,0,1,28.36,8.14c9.7,6.55,19,13.74,28.23,20.92a14.43,14.43,0,0,0,7.26,3c15.75,2.23,31.36,5.18,45.86,12a71,71,0,0,1,11.51,7.46c2.43,1.8,3.34,4.58,3.32,7.66q-.07,11.64,0,23.28c0,1.3-.16,2.17-1.67,2.56-4.53,1.18-9,2.52-13.95,3.92m-191.82-57.2,57.92,2V1434c-21.69-2.38-40.63,4.38-57.92,16.85m72.56-17.23v19.63l52,1.82.13-.72c-3-2.32-5.84-4.82-9-6.92-5.31-3.56-10.79-6.85-16.19-10.26-8.44-5.32-17.81-3-27-3.55"/><path class="cls-13" d="M255.89,1487.91a20.5,20.5,0,1,1-20.57,20.43,20.56,20.56,0,0,1,20.57-20.43"/><path class="cls-13" d="M400.72,1487.91A20.5,20.5,0,1,1,380,1508.17a20.56,20.56,0,0,1,20.74-20.26"/><path class="cls-17" d="M875,1644.27H291.21a23.39,23.39,0,0,1-23.39-23.39v-21.29a23.39,23.39,0,0,1,23.39-23.39H875a23.39,23.39,0,0,1,23.39,23.39v21.29A23.39,23.39,0,0,1,875,1644.27"/><path class="cls-17" d="M875,1735.23H291.21a23.39,23.39,0,0,1-23.39-23.39v-21.29a23.39,23.39,0,0,1,23.39-23.39H875a23.39,23.39,0,0,1,23.39,23.39v21.29A23.39,23.39,0,0,1,875,1735.23"/><polygon class="cls-15" points="500.34 867.7 533.52 982.16 590.85 1059.26 710.27 974.51 500.34 867.7"/><polygon class="cls-18" points="1260.67 676.96 1260.63 676.96 1226.42 677.09 1218.67 757.89 1258.61 778.98 1301.2 758.13 1294.32 677.09 1260.67 676.96"/><path class="cls-18" d="M1328.66,619.33c-7.78,58.6-51.4,101.15-97.42,95s-77-58.57-69.24-117.17,51.4-101.14,97.43-95,77,58.57,69.24,117.17"/><path class="cls-19" d="M1216.35,620.6c-8.46,11-19.14,24.45-19.14,24.45s3.1,12.79,19.41,14.54c-6.64-3.52-13-8.83-9.32-17.77s9-21.21,9-21.21"/><path class="cls-20" d="M1347.65,572.22c5-55.83-46.35-74.16-46.35-74.16s11.5-4,8.71-20.92a44.85,44.85,0,0,1-27.51,6.35c-63.83-6.32-104,4.17-97.66,29.19,2.26,8.9-39.15,13.47-20.7,72.54,3.95-7,7.49-33.16,19.91-38.92s5.06,14.64,33.26,11.47c28.45-3.2,47-15,67.69-3.77,16.57,10.18,37.3,78.16,36.35,82.81,2.17-10.66,24.11-40,26.31-64.58"/><path class="cls-20" d="M1161.55,629.18s5.44,31.84,12.39,40.35c1.51-13.71,31.58-5.08,44.65-3.94,23.66,2.08,47.68-18.92,55.66,12.16,30.13,1.75,41.1-64.59,41.1-64.59,18.54,66.29-14.65,114.65-87.71,121.38-48.13,4.44-74.79-57-66.08-105.36"/><path d="M1250.49,617.13a8.13,8.13,0,1,0-7.57-8.66,8.14,8.14,0,0,0,7.57,8.66"/><path d="M1183.31,614.65a8.14,8.14,0,1,0-7.57-8.66,8.14,8.14,0,0,0,7.57,8.66"/><path class="cls-20" d="M1169.8,597.67a4,4,0,0,0,3.6-1.74c2.3-3.35,5-5.28,7.87-5.72,5-.77,9.74,2.88,9.79,2.92a4,4,0,0,0,5-6.3c-.3-.24-7.4-5.87-16-4.61-5.25.77-9.76,3.84-13.4,9.14a4,4,0,0,0,3.05,6.31"/><path class="cls-20" d="M1268.84,604.16a4,4,0,0,0,3.58-6.33c-4.85-7-10.46-11-16.69-11.86a19.7,19.7,0,0,0-14.17,3.64,4,4,0,0,0,5,6.33,11.61,11.61,0,0,1,8.1-2c3.9.61,7.64,3.45,11.13,8.47a4,4,0,0,0,3,1.72"/><path class="cls-18" d="M1316.11,613.43c-10.07,9.58-11.88,24-4,32.27s22.36,7.16,32.43-2.42,11.88-24,4-32.27-22.36-7.16-32.43,2.42"/><path class="cls-19" d="M1325.21,641.78a3,3,0,0,1-1.16-.78c-4.75-5.16-5.76-11.39-2.72-16.66a14.64,14.64,0,0,1,15.42-7.07,3,3,0,0,1-1.33,5.93,8.67,8.67,0,0,0-8.83,4.17c-1.69,2.93-1,6.31,1.93,9.5a3,3,0,0,1-3.32,4.9"/><path class="cls-16" d="M1244.92,674.73c.34-2.09-.14-4.09-2.24-3.82a170.64,170.64,0,0,1-45.32.36c-2.11-.23-2.61,1.78-2.18,3.85,1.78,8.6,11.54,18.2,24.49,18.1s24-10.7,25.25-18.5"/><path d="M1198.24,1734.13c-30.25,41.74-104.54,16.13-102.08,72.58,113-.72,159.92,0,159.92,0-.15-13-2.38-43.74-5-55.79Z"/><path d="M1367.26,1735.23c-30.25,41.74-104.54,16.13-102.08,72.58,113-.73,159.92,0,159.92,0-.15-13-2.38-43.74-5-55.79Z"/><path class="cls-21" d="M1145.94,1096.93s-18.34,267.51-10.89,327,33.84,135.72,30.85,332.44c36.83,9.22,90.18,0,90.18,0s7.91-222.44-31-321.79c15.83-96.51,66.63-317.54,66.63-317.54Z"/><path class="cls-22" d="M1215.65,1104.24s37,300.33,55.17,357.29,33.91,98.69,66.73,292.48c37.85,1.89,92.51.72,92.51.72s-4.95-240.1-63.89-296c-2-97.86,9.53-352.56,9.53-352.56Z"/><path class="cls-23" d="M1386.38,763.4s-64.32-22.52-85.78-12.19c-66.65,32.09-81.94,0-81.94,0-21.3,1.84-85.59,12.19-85.59,12.19,0,71.8-4.79,143.85-3.49,198.18.92,47.32-8.1,176.08-8.1,176.08s70.92,18.59,138,19.08c67.09-.44,135.37-18.32,135.37-18.32s-3.58-130.42-6.56-178.89c1-54.33-1.93-124.52-1.93-196.13"/><path class="cls-24" d="M1018.74,870.11c26.55-63.35,105.34-103.64,114.34-106.71l18.27,81.32a476.21,476.21,0,0,0-65.32,46.6c4.66,22.64,3.88,44.85,17,73.49,0,0-11.38-15.71-25.43-6.41-13.65,9-38.76-9.41-38.76-9.41s-40.37-30.49-20.09-78.88"/><path class="cls-9" d="M1033.53,1030.2a7.15,7.15,0,0,1-1.38.28h-1.51a7.19,7.19,0,0,1-6.11-5l-70.78-228.2a7.24,7.24,0,0,1-.28-1.38,7.14,7.14,0,0,1,0-.9c0-.18,0-.36,0-.54s.06-.31.09-.47a7.16,7.16,0,0,1,4.92-5.7,7.39,7.39,0,0,1,1.35-.29,7.23,7.23,0,0,1,1.54,0h178.18l71.4,242.5H1033.41Z"/><path class="cls-10" d="M1137.92,788.26a7.19,7.19,0,0,1,9,4.73l70.34,227.64.16.53a7.18,7.18,0,0,1-4.7,9v0a7.19,7.19,0,0,1-9-4.73l-70.52-228.16a7.19,7.19,0,0,1,4.73-9"/><path class="cls-18" d="M1003.3,933a7.47,7.47,0,0,0-2.13-.93l.24-.33c4.43-6.68,4.14-14.68-.66-17.86a7.64,7.64,0,0,0-2.56-1.07c1.25-5,.13-9.68-3.3-11.95a8.06,8.06,0,0,0-4.6-1.28c1.57-4.86.32-10-3.51-12.51-4.8-3.18-11.76-1.13-15.54,4.58s-3,12.91,1.84,16.09a9,9,0,0,0,4,1.43c-3.19,6.22-2.55,13,1.79,15.91a7.68,7.68,0,0,0,2.56,1.07c-1.25,5-.13,9.68,3.3,11.95a8,8,0,0,0,4.24,1.29c-1.59,4.25-.58,8.84,2.79,11.07,4.05,2.68,9.93,1,13.12-3.87s2.5-10.9-1.55-13.59"/><path class="cls-18" d="M1222.36,918.62l-16.24-9.41s-4.5-23-30.58-23.59l7.29,23.59s-12.84,10-43.29-7.09c-29.77-6.69-17.05,15-26.92,16.57-14.56,2.3,10.61,30.91,40.33,35.28,38.46,5.66,43-2.21,43-2.21l21.76,7.6Z"/><path class="cls-24" d="M1388.48,945.42c-54.29-3.79-162.71-32.79-162.71-32.79-14.82,22.73-10.72,52.93-10.72,52.93,84.31,73.92,211.2,97.81,250.13,80,35.54-16.24,10.3-232.66-78.95-282.23Z"/><path class="cls-10" d="M1101.61,822.91c3.08,7.71,11,11.79,17.66,9.12s9.6-11.07,6.52-18.78-11-11.79-17.66-9.12-9.6,11.07-6.52,18.78"/><path class="cls-10" d="M1078.86,820.3c1.83,4.6,6.55,7,10.54,5.44s5.73-6.61,3.89-11.2-6.55-7-10.54-5.44-5.72,6.61-3.89,11.2"/></g></svg>