<svg id="Слой_2" data-name="Слой 2" xmlns="http://www.w3.org/2000/svg" viewBox="0 0 3000 2000"><defs><style>.cls-1{fill:#ebf3fa;}.cls-2{fill:#a8d29f;}.cls-3{fill:#6bb7bf;}.cls-4{fill:#599dad;opacity:0.3;}.cls-5{fill:#f99746;}.cls-6{fill:#f48d3b;}.cls-7{fill:#ffb27d;}.cls-8{fill:#ed985f;}.cls-9{fill:#2c3a64;}.cls-10{fill:#ed7d2b;}.cls-11{fill:#d0dfea;}.cls-12{fill:#202d4c;}.cls-13{fill:#2e3552;}</style></defs><title>img-10</title><path class="cls-1" d="M500.57,1849.74s-277.79-298.26-47-621.16c204.79-286.5,443.56-266.92,618.73-150.65,74.61,49.52,289.72,6.1,472.81-285.42,249.68-397.56,1115.16-156.44,957.36,455.22-76.37,296,232.41,306.76,75.08,602.64Z"/><path class="cls-2" d="M908.91,1847.12s69.41-123.36,227.14-114.06,200.33-114.66,368.07-96.07,198.74,124.66,313.4,125.86,318.39-13.56,278.51,89.89Z"/><path class="cls-3" d="M1150.16,675.3l-89.61-163.52s-133.7,39.52-305.06,133.43c-17.46,9.56-34.66,19.46-51.43,29.49C579.24,749.3,478.88,830.54,478.88,830.54L568.5,994.06c139.06,253.75,418.33,375.95,517.57,316.32l26.1-14.31A114.47,114.47,0,0,0,1136,1278.2C1227.33,1190.65,1278.41,909.32,1150.16,675.3ZM915.91,845.5a219.65,219.65,0,0,1,109.77-81.78c33.57-11.24,59-10.88,60-10.86a11.36,11.36,0,0,1-.42,22.72H1085c-2.64,0-24.7.35-53,10-39.88,13.55-72.72,38.16-97.59,73.12a11.37,11.37,0,0,1-18.52-13.18Zm-148.38,85c-39.89,13.55-72.73,38.16-97.6,73.12a11.37,11.37,0,0,1-18.52-13.18,219.71,219.71,0,0,1,109.77-81.78A223.5,223.5,0,0,1,785.75,902c20.71-4.38,34.67-4.17,35.46-4.16a11.36,11.36,0,0,1-.42,22.72h-.17a145.11,145.11,0,0,0-23.2,2.36A196.49,196.49,0,0,0,767.53,930.51Zm157.72,280.82a10.49,10.49,0,0,1-16.16-10.64c6.26-34.46,18.09-62.68,35.6-83.91a119.7,119.7,0,0,1,35.06-29.11c51.76-28.36,106.95-11.63,135.63,1.12a10.48,10.48,0,0,1,0,19.13c-23.94,10.75-65.06,29.74-98.4,47.69-7.11,3.82-14,7.68-20.74,11.51C966.71,1184,941.51,1200.33,925.25,1211.32Z"/><path class="cls-4" d="M1136,1278.2a114.47,114.47,0,0,1-23.88,17.87l-26.1,14.31C986.83,1370,707.56,1247.81,568.5,994.06L478.88,830.54S579.24,749.3,704.06,674.7c15.93,83.55,45,159.36,81.69,227.27h0a223.5,223.5,0,0,0-24.57,6.69,219.71,219.71,0,0,0-109.77,81.78,11.37,11.37,0,1,0,18.52,13.18c24.87-35,57.71-59.57,97.6-73.12a196.49,196.49,0,0,1,29.89-7.61c43,74.69,94.79,139.37,147.27,193.88-17.52,21.24-29.34,49.46-35.6,83.91a10.49,10.49,0,0,0,16.16,10.64c16.26-11,41.45-27.35,71-44.22h0A1262.27,1262.27,0,0,0,1136,1278.2Z"/><path class="cls-5" d="M2260.6,873c-17.17-10.06-34.51-19.74-51.72-29-128.13-68.75-249.4-113.11-249.4-113.11l-94.24,160.89c-146.27,249.67-107.63,552-5.48,606.55l25.69,15a114,114,0,0,0,27.6,11.3c122,33.34,389.61-67.38,524.5-297.63l94.25-160.89S2429.21,971.76,2260.6,873ZM1898.71,971.5a11.37,11.37,0,0,1,12.22-10.43,219.74,219.74,0,0,1,126.56,52.16,223.22,223.22,0,0,1,18.37,17.65c14.4,15.52,21.39,27.61,21.78,28.28a11.36,11.36,0,0,1-19.71,11.31,124.27,124.27,0,0,0-8.93-12.66c-1.5-1.91-3.19-4-5.08-6.18A197.35,197.35,0,0,0,2022,1029.9c-32.11-27.26-70.08-42.79-112.87-46.17a11.36,11.36,0,0,1-10.43-12.23Zm190.46,396.33c-51.25,19.27-96.38,19-133.27-2.56a124.18,124.18,0,0,1-20-14.54c-34.8-31.06-45.49-75.77-48.73-102.39a10.48,10.48,0,0,1,16.4-9.84c12.81,8.93,31.24,21.6,50.92,34.47,13.4,8.76,27.37,17.61,40.55,25.47,37.44,22.3,73.12,39.88,94.93,50.07A10.49,10.49,0,0,1,2089.17,1367.83Zm244.5-140.7a11.37,11.37,0,0,1-15.49-4.19,119.44,119.44,0,0,0-8.93-12.67,195.52,195.52,0,0,0-27-27.91c-32.12-27.25-70.09-42.78-112.87-46.17a11.16,11.16,0,0,1-4.84-1.52,11.36,11.36,0,0,1,6.64-21.13,219.73,219.73,0,0,1,126.55,52.16c26.89,23,39.62,45,40.15,45.93A11.36,11.36,0,0,1,2333.67,1227.13Z"/><path class="cls-6" d="M2208.88,844c-63.5,56.59-113.58,120.51-153,186.85a0,0,0,0,1,0,0,223.22,223.22,0,0,0-18.37-17.65,219.74,219.74,0,0,0-126.56-52.16,11.37,11.37,0,1,0-1.79,22.66c42.78,3.38,80.75,18.91,112.87,46.17a197.35,197.35,0,0,1,21.91,21.73c-41.12,73.67-69.66,149.65-89.41,221.32-19.69-12.87-38.11-25.53-50.92-34.47a10.48,10.48,0,0,0-16.4,9.84c3.24,26.62,13.93,71.33,48.73,102.39a1260.6,1260.6,0,0,0-22.87,174,114,114,0,0,1-27.6-11.3l-25.69-15c-102.14-54.51-140.79-356.88,5.48-606.55l94.24-160.89S2080.75,775.27,2208.88,844Z"/><path class="cls-1" d="M1902,325.68c-5.56-3.26-11.18-6.4-16.76-9.39a704.89,704.89,0,0,0-80.8-36.65l-30.53,52.13c-47.39,80.89-34.87,178.86-1.78,196.52l8.32,4.88a36.94,36.94,0,0,0,8.94,3.66c39.53,10.8,126.23-21.83,169.94-96.43l30.54-52.13S1956.63,357.68,1902,325.68ZM1784.75,357.6a3.69,3.69,0,0,1,4-3.38,71.2,71.2,0,0,1,41,16.9,72.49,72.49,0,0,1,6,5.72,55.57,55.57,0,0,1,7.06,9.16,3.68,3.68,0,0,1-6.38,3.66,40.33,40.33,0,0,0-2.9-4.1c-.48-.62-1-1.29-1.65-2a64,64,0,0,0-7.1-7,63,63,0,0,0-36.57-15,3.68,3.68,0,0,1-3.38-4ZM1846.46,486c-10.39,14.38-36.77,7.93-48.26.2-19.39-13.05-24.53-32.71-17.18-38.92C1807.7,424.73,1857.47,470.76,1846.46,486Zm79.22-45.59a3.68,3.68,0,0,1-5-1.36,38.64,38.64,0,0,0-2.89-4.11,63.72,63.72,0,0,0-45.31-24,3.62,3.62,0,0,1-1.57-.49,3.68,3.68,0,0,1,2.15-6.85,71.2,71.2,0,0,1,41,16.9,63,63,0,0,1,13,14.88A3.68,3.68,0,0,1,1925.67,440.42Z"/><path class="cls-7" d="M1510.87,981.18c-9.93,152.45-20.62,344.88-11.69,370.91,11.69,34.06-5.36,421.23-5.36,421.23l-50.38-3.06s-67.86-337.42-60.46-387.4a326.07,326.07,0,0,0,2.77-64.77,252.75,252.75,0,0,0-2.77-27c-45.94-154.74-60.29-273.25-63.16-353.09s5.77-121.07,5.77-121.07l198.71-26.57S1517.71,876.32,1510.87,981.18Z"/><path class="cls-7" d="M1595.4,784.12s55.08,187.77-4.51,505.13c-4.23,22.55-5.46,42.1,4.25,91.68s-42.45,389.79-42.45,389.79l-48.7,0s-11.46-349.16-26.35-415.17c-21.56-95.57-51.1-560-51.1-560Z"/><path class="cls-8" d="M1510.87,981.18c-9.93,152.45-20.35,344.79-11.69,370.91,14.64,44.1-5.36,421.23-5.36,421.23l-3.76-3.06c4.42-178.78,2.38-427.5-34.4-519.61-.94-16.62-59.12-95.67-59.12-95.67-45.94-154.74-73.85-137.14-76.72-217h191Z"/><path class="cls-9" d="M1463,158.5s-16.46-9-48.7,5-124.22,110.05-123.15,138,34.4,51.6,24.72,76.32-39.46,38.55-24.74,66.77c28.05,53.76-28.36,35.43,9.12,107.59,10.17,19.57,330.69-13.86,342.11-27.92,32.36-39.82-24.45-71.58-21.76-99.34S1579.48,367,1587,344.4s45.21-48.45-40.51-149.33C1546.49,195.08,1507,146.18,1463,158.5Z"/><path class="cls-7" d="M1425.75,344.4s1.47,61.35-14.72,68.71a100.32,100.32,0,0,1-31.41,8.34s92.76,52,166.88,0c0,0-29.45-6.38-34.85-16.2s-4.91-60.86-4.91-60.86Z"/><path class="cls-8" d="M1425.39,363.59s16.36,37.09,42.8,38.4S1507,368.06,1507,368.06Z"/><path class="cls-7" d="M1465.65,387.75h0c-22.45,0-67.85-36-67.85-73.34V268.88A68.05,68.05,0,0,1,1465.65,201h0a68.05,68.05,0,0,1,67.85,67.85v45.54C1533.51,351.74,1490.53,387.75,1465.65,387.75Z"/><path class="cls-7" d="M1355.94,423s129.28-16,232.47,1.88c0,0,7.63,127.43-9.67,261.39-2.71,21,41.92,130.6,41.92,130.6-9.16,16.42-224.12,59.66-295.06,0,0,0-5.37,5.27,44.07-122C1383.51,659.27,1299.91,431.32,1355.94,423Z"/><path class="cls-5" d="M1719,1152.28a435.76,435.76,0,0,1-88.23,38.87c-147.19,46.71-292.29,14.33-292.29,14.33s-18.67-32.25-27.41-199.45,72.56-522.89,72.56-522.89l206.11-19.94s25.27,98.48,16.4,150.55-16.95,87.08-7.25,113.91C1670.64,926.55,1719,1152.28,1719,1152.28Z"/><path class="cls-9" d="M1510.87,1849.72h-87.07c-5.64-18.44,1.62-34,8.07-43.17s12.07-34.22,12.07-34.22c16.81-13,38.15-8,46.61-5.21,2.34.79,3.7,1.38,3.7,1.38h0c.28.65,9.41,21.69,12.59,38,2.61,13.45,3.64,33.48,3.94,40.57C1510.84,1848.77,1510.87,1849.72,1510.87,1849.72Z"/><path class="cls-5" d="M1693.21,631.94s-22.37,25.76-54.56,42c-17.71,8.95-38.37,15-59.92,12.34-60.73-7.52-235.94-7.52-235.94-7.52s-10.37-2.56-24.1-7.49c-25.08-9-61.34-25.86-66.2-49.48h0c.69-2,66-186.43,91-198s45-3.91,45-3.91,69.24,27.64,147.26-1.32c0,0,57.68-3.39,74.41,21.7s82.26,189.71,83,191.64Z"/><path class="cls-10" d="M1719,1152.28a435.76,435.76,0,0,1-88.23,38.87c-73.89-143.26-31.89-463.49-31.89-463.49C1670.64,926.55,1719,1152.28,1719,1152.28Z"/><path class="cls-9" d="M1503.43,1527.42l-9.18,241.1h0l-.35,9.1-3.71-.39-46.25-4.91-50.17-244.91s30.17-19.72,68.68-14.93A99,99,0,0,1,1503.43,1527.42Z"/><path class="cls-9" d="M1602.19,1527.41s-54-35.27-109.66,0l9.54,250.21,50-5.29Z"/><path class="cls-1" d="M1472.36,402.17c-4.74-.13-9.47-.17-14.12-.12a518.22,518.22,0,0,0-65,5L1392,451.4c-1.93,68.89,40.79,127.59,68.36,127.27l7.09.2a27.15,27.15,0,0,0,7.06-.8c29.29-7,73.62-58.72,75.4-122.25l1.24-44.39S1518.88,403.47,1472.36,402.17Zm-64.27,62a2.71,2.71,0,0,1,1.36-3.58,52.33,52.33,0,0,1,32.4-3.61,53.16,53.16,0,0,1,5.86,1.58,40.84,40.84,0,0,1,7.79,3.41,2.71,2.71,0,0,1-2.82,4.62,29.77,29.77,0,0,0-3.32-1.62c-.53-.23-1.12-.47-1.77-.71a47,47,0,0,0-7.06-2,46.32,46.32,0,0,0-28.86,3.29,2.71,2.71,0,0,1-3.58-1.36Zm85.18,60.92c-8.49,9.9-17.94,15-28.12,14.74a29.59,29.59,0,0,1-5.84-.75c-10.82-2.5-18.18-10.61-21.91-15.79a2.5,2.5,0,0,1,2.3-3.93c3.7.4,9,.93,14.58,1.36,3.8.29,7.73.54,11.39.67,10.37.37,19.84-.05,25.56-.43A2.5,2.5,0,0,1,1493.27,525.13Zm34.92-57.4a2.71,2.71,0,0,1-3.71.9,28.67,28.67,0,0,0-3.32-1.62,46.85,46.85,0,0,0-37.69.56,2.66,2.66,0,0,1-1.19.24,2.71,2.71,0,0,1-1-5.17,52.34,52.34,0,0,1,32.4-3.61,46.31,46.31,0,0,1,13.65,5A2.71,2.71,0,0,1,1528.19,467.73Z"/><path class="cls-11" d="M1458.24,402a187.75,187.75,0,0,0-10.53,56.55h0a53.16,53.16,0,0,0-5.86-1.58,52.33,52.33,0,0,0-32.4,3.61,2.71,2.71,0,0,0,2.22,4.94,46.32,46.32,0,0,1,28.86-3.29,47,47,0,0,1,7.06,2,237.84,237.84,0,0,0,6.7,56.45c-5.59-.43-10.88-1-14.58-1.36a2.5,2.5,0,0,0-2.3,3.93c3.73,5.19,11.08,13.3,21.91,15.79a300.22,300.22,0,0,0,15.16,38.94,27.15,27.15,0,0,1-7.06.8l-7.09-.2C1432.76,579,1390,520.29,1392,451.4l1.24-44.39A518.22,518.22,0,0,1,1458.24,402Z"/><path class="cls-7" d="M1573.35,519.38s-8.33-24.55-4.8-39.05-15.77-53.68-17.88-52.9-2.16,46.22-4.18,57.41c-1.71,9.44-7.33,18.61,0,39.43Z"/><path class="cls-7" d="M1367.27,519.38s8.33-24.55,4.8-39.05,15.77-53.68,17.88-52.9,2.16,46.22,4.18,57.41c1.71,9.44,7.33,18.61,0,39.43Z"/><path class="cls-10" d="M1318.7,671.29c-25.08-9-61.34-25.86-66.2-49.48h0c1.43-1.07,93.17-69.42,114.76-69.62C1382.83,552,1342.76,628,1318.7,671.29Z"/><path class="cls-7" d="M1394.13,524.26s-33.85,196.46-61.82,212.19-46.12,17.64-46.12,17.64-39.57-54.09-8.34-97.5,89.42-137.2,89.42-137.2Z"/><path class="cls-10" d="M1693.21,631.94s-22.37,25.76-54.56,42c-27-37.7-62.39-111.92-48.16-111.34,19.44.78,101.43,68.26,102.71,69.31Z"/><path class="cls-7" d="M1546.49,524.26s33.85,196.46,61.82,212.19,46.12,17.64,46.12,17.64,39.57-54.09,8.34-97.5-89.42-137.2-89.42-137.2Z"/><path class="cls-9" d="M1435.31,216.59s14.89,41.93,47.81,63.88,45.47,20.77,45.47,20.77-13.23-20.38-13.87-34.09c0,0,13.07,44.7,40.51,34.1s-33-116.59-83.71-110.13S1435.31,216.59,1435.31,216.59Z"/><path class="cls-9" d="M1456.47,229.13S1402,254.6,1397.8,290.46c0,0-33.42-22.92-10.49-71.12,14.13-29.71,61.37-34.68,69.48-21.75S1456.47,229.13,1456.47,229.13Z"/><path class="cls-12" d="M1510.78,1847.12h-48.39c-7.55-18,21-34.73,26.17-55.73a82.32,82.32,0,0,0,1.63-14.16c.17-3,.28-6.43.35-10.11.75-37.91-2.81-106.63-2-163.37,1-71.31-24.67-90.27-26.08-91.26a99,99,0,0,1,41,14.93l-9.18,241.1h0c.28.65,9.41,21.69,12.59,38C1509.45,1820,1510.48,1840,1510.78,1847.12Z"/><path class="cls-9" d="M1501.95,1770.1s-6.25,27.24-12.7,36.45-13.71,24.74-8.06,43.17h87.07s-.81-26.59-4-43.17-11.54-35.83-11.54-35.83S1523.4,1753.44,1501.95,1770.1Z"/><path class="cls-2" d="M2424.8,1846.41H2307.71c-6.28-5.32,4.34-17.41,15.43-18.22,4.82-.36,10.91.64,17.87,2.12,1.61-21.4,10.81-117.61,45.49-113.74,39,4.33,0,42.37-11,64.89-8.17,16.68-16.78,40.6-20.71,51.89,3.17.69,6.44,1.36,9.79,2,5.17-15.87,24.4-69.24,48.85-66.13,28.71,3.64,17.17,25-3.18,37.75-14.93,9.34-33.26,22.62-42,29a124.49,124.49,0,0,0,22.9,1.84C2411.22,1837.32,2421,1843.23,2424.8,1846.41Z"/><path class="cls-2" d="M652.37,1841c-6-9.48-24.18-34.07-48.36-30.81-26.34,3.55,29.1,20.91,46.07,30.88a28.16,28.16,0,0,1-9.39-1.1c-11.35-4-30.78,3.71-37,6.43h108a17.11,17.11,0,0,0-7.72-9.88c-1.77-1.08-5.34-1.24-9.94-.88,6.42-7.57,10.88-31.76-7-25.54-13.06,4.55-13,19.33-11.75,28.07-2.78.44-5.6.88-8.38,1.28-5.38-27.41-24.4-107.74-63-109.89-39.09-2.17,33.15,83.31,57.2,110.65C658.08,1840.59,655.11,1840.87,652.37,1841Z"/><path class="cls-2" d="M1310.43,1722.85s-59.82-266.49-121.79-247.9S1310.43,1722.85,1310.43,1722.85Z"/><path class="cls-2" d="M1278.6,1722.85s-86.76-118.2-119.29-98.06S1278.6,1722.85,1278.6,1722.85Z"/><path class="cls-2" d="M1796.06,1777.63c1.55.54,4.65-154.88,37.18-132.94S1796.06,1777.63,1796.06,1777.63Z"/><path class="cls-2" d="M1784.78,1770.77s-7.23-88.81-26.86-84S1784.78,1770.77,1784.78,1770.77Z"/><path class="cls-2" d="M1817.52,1771.23s41.46-66.55,51.79-52.76S1817.52,1771.23,1817.52,1771.23Z"/><path class="cls-13" d="M355.45,1846.41H2737.33a2.7,2.7,0,0,1,2.7,2.7v.92a2.7,2.7,0,0,1-2.7,2.7H355.46a2.71,2.71,0,0,1-2.71-2.71v-.92a2.7,2.7,0,0,1,2.7-2.7Z"/></svg>