<svg xmlns="http://www.w3.org/2000/svg" xmlns:xlink="http://www.w3.org/1999/xlink" viewBox="0 0 1163.72 677.52"><defs><style>.cls-1{fill:none;}.cls-2{isolation:isolate;}.cls-3{clip-path:url(#clip-path);}.cls-4{clip-path:url(#clip-path-2);}.cls-5{opacity:0.2;}.cls-6{clip-path:url(#clip-path-3);}.cls-7{fill:#1e0f00;}.cls-8{clip-path:url(#clip-path-4);}.cls-9{clip-path:url(#clip-path-5);}.cls-10{clip-path:url(#clip-path-6);}.cls-11{clip-path:url(#clip-path-7);}.cls-12{clip-path:url(#clip-path-8);}.cls-13{clip-path:url(#clip-path-9);}.cls-14{clip-path:url(#clip-path-10);}.cls-15{clip-path:url(#clip-path-11);}.cls-16{clip-path:url(#clip-path-12);}.cls-17{clip-path:url(#clip-path-13);}.cls-18{clip-path:url(#clip-path-14);}.cls-19{clip-path:url(#clip-path-15);}.cls-20{clip-path:url(#clip-path-16);}.cls-21{clip-path:url(#clip-path-17);}.cls-22{clip-path:url(#clip-path-18);}.cls-23{clip-path:url(#clip-path-19);}.cls-24{clip-path:url(#clip-path-20);}.cls-25{fill:#a1c8ad;}.cls-26{fill:#6bb3ab;}.cls-27{fill:#55949e;}.cls-28{mix-blend-mode:screen;}.cls-29{fill:#413931;}.cls-30{mix-blend-mode:multiply;}.cls-31{fill:#25468f;}.cls-32{opacity:0.6;}.cls-33{fill:#feb;}.cls-34{fill:#778ae4;}.cls-35{fill:#1e3865;}.cls-36{fill:#fff;}.cls-37{fill:#f37600;}.cls-38{fill:#043d7e;}.cls-39{fill:#0b3563;}.cls-40{fill:#0d458e;}.cls-41{fill:#ffae73;}.cls-42{fill:#ff912b;}.cls-43{fill:#ffa05e;}.cls-44{fill:#1f5697;}.cls-45{fill:#1358a8;}.cls-46{fill:#003876;}.cls-47{fill:#90a9f4;}.cls-48{fill:#adbdff;}.cls-49{opacity:0.5;}.cls-50{fill:#bbac87;}.cls-51{fill:#667ee8;}.cls-52{fill:#183257;}.cls-53{fill:#899bfa;}.cls-54{fill:#f9924f;}.cls-55{fill:#113057;}.cls-56{fill:#0d2546;}.cls-57{fill:#6d76ff;}.cls-58{fill:#f8caa4;}.cls-59{fill:#375b8a;}.cls-60{fill:#fc7600;}.cls-61{fill:#f48f4e;}.cls-62{fill:#e65f00;}.cls-63{fill:#fc9f38;}.cls-64{fill:#fa9332;}.cls-65{opacity:0.4;}.cls-66{fill:#d0efca;}.cls-67{fill:#032c52;}.cls-68{fill:#f0c19c;}.cls-69{fill:#fddbba;}.cls-70{fill:#f59d64;}.cls-71{fill:#6ca3ea;}.cls-72{fill:#d96400;}</style><clipPath id="clip-path"><rect class="cls-1" y="70" width="1163.72" height="606.52"/></clipPath><clipPath id="clip-path-2"><rect class="cls-1" y="70" width="1163.72" height="606.52"/></clipPath><clipPath id="clip-path-3"><rect class="cls-1" x="179.77" y="171.14" width="45.33" height="43.61"/></clipPath><clipPath id="clip-path-4"><rect class="cls-1" x="197.31" y="163.99" width="128.05" height="128.05"/></clipPath><clipPath id="clip-path-5"><rect class="cls-1" x="808.52" y="109.1" width="178.95" height="178.92"/></clipPath><clipPath id="clip-path-6"><rect class="cls-1" x="952.58" y="112.3" width="40.43" height="32.54"/></clipPath><clipPath id="clip-path-7"><rect class="cls-1" x="63.75" y="413.75" width="35.52" height="33.78"/></clipPath><clipPath id="clip-path-8"><rect class="cls-1" x="1097.29" y="276.04" width="35.52" height="33.78"/></clipPath><clipPath id="clip-path-9"><rect class="cls-1" x="1066.32" y="340.73" width="43.99" height="41.7"/></clipPath><clipPath id="clip-path-10"><rect class="cls-1" x="528.1" y="107.85" width="39.41" height="39.41"/></clipPath><clipPath id="clip-path-11"><rect class="cls-1" x="402.58" y="208.93" width="32.9" height="32.91"/></clipPath><clipPath id="clip-path-12"><rect class="cls-1" x="345.81" y="241.83" width="19.08" height="19.32"/></clipPath><clipPath id="clip-path-13"><rect class="cls-1" y="489.87" width="28.58" height="19.83"/></clipPath><clipPath id="clip-path-14"><rect class="cls-1" x="370.13" y="148.28" width="28.58" height="19.83"/></clipPath><clipPath id="clip-path-15"><rect class="cls-1" x="705.76" y="331.49" width="28.58" height="19.83"/></clipPath><clipPath id="clip-path-16"><rect class="cls-1" x="876.42" y="231.7" width="35.52" height="33.78"/></clipPath><clipPath id="clip-path-17"><rect class="cls-1" x="446.09" y="75.32" width="35.52" height="33.78"/></clipPath><clipPath id="clip-path-18"><rect class="cls-1" x="1104.9" y="663.25" width="18.34" height="19.83"/></clipPath><clipPath id="clip-path-19"><rect class="cls-1" x="43.37" y="657.29" width="18.34" height="19.83"/></clipPath><clipPath id="clip-path-20"><rect class="cls-1" x="671.42" y="92.7" width="18.34" height="19.83"/></clipPath></defs><title>img-9</title><g class="cls-2"><g id="Слой_1" data-name="Слой 1"><g class="cls-3"><g class="cls-4"><g class="cls-5"><g class="cls-6"><path class="cls-7" d="M217.28,214.76h-37.5v-23h37.5ZM181,213.51h35V193H181Z"/><path class="cls-7" d="M225.1,209.66,216,208v-9.43l9.07-1.7Zm-7.82-2.73,6.58,1.23v-9.83l-6.58,1.23Z"/><path class="cls-7" d="M207.5,192.23A10.55,10.55,0,1,1,218,181.69a10.56,10.56,0,0,1-10.54,10.55m0-19.85a9.3,9.3,0,1,0,9.3,9.3,9.31,9.31,0,0,0-9.3-9.3"/><path class="cls-7" d="M188.41,192a6.54,6.54,0,1,1,6.54-6.54,6.55,6.55,0,0,1-6.54,6.54m0-11.83a5.3,5.3,0,1,0,5.3,5.3,5.3,5.3,0,0,0-5.3-5.3"/></g></g><g class="cls-5"><g class="cls-8"><path class="cls-7" d="M297.06,174.89l1.31.9a.69.69,0,0,1,.16,1,.71.71,0,0,1-1,.16,64,64,0,0,0-7-4.3.69.69,0,0,1,.65-1.22,64.79,64.79,0,0,1,5.83,3.49m7.73,6.11.08.07a64,64,0,0,1,5.77,6.09.69.69,0,0,1-1.07.88,62.42,62.42,0,0,0-5.64-6,.69.69,0,0,1,.86-1.08m-21.07-13a.69.69,0,0,1-.63,1.22,62.21,62.21,0,0,0-7.86-2.34.69.69,0,0,1,.31-1.35,63.82,63.82,0,0,1,8,2.39l.15.07m31.63,25.7a.68.68,0,0,1,.2.21,64,64,0,0,1,4,7.38.69.69,0,1,1-1.26.58,63,63,0,0,0-3.89-7.22.69.69,0,0,1,1-.94M267.6,164.38a.69.69,0,0,1-.45,1.26,62.83,62.83,0,0,0-8.2-.22.69.69,0,1,1-.05-1.38,64.36,64.36,0,0,1,8.38.22.7.7,0,0,1,.32.11m54.65,44.42a.69.69,0,0,1,.27.37,64.62,64.62,0,0,1,1.94,8.16.69.69,0,0,1-1.36.23,63.3,63.3,0,0,0-1.89-8,.69.69,0,0,1,1-.78M251.06,165a.69.69,0,0,1-.27,1.26,63.13,63.13,0,0,0-8,1.91.69.69,0,1,1-.41-1.32,64.62,64.62,0,0,1,8.15-1.95.69.69,0,0,1,.5.11M325,225.11a.69.69,0,0,1,.3.55,64.11,64.11,0,0,1-.23,8.38.69.69,0,1,1-1.38-.13,62.94,62.94,0,0,0,.23-8.2.69.69,0,0,1,1.08-.6M235.25,169.9a.69.69,0,0,1-.1,1.2,62.86,62.86,0,0,0-7.21,3.9.69.69,0,1,1-.74-1.17,64.15,64.15,0,0,1,7.37-4,.69.69,0,0,1,.67.05m88.22,71.67a.69.69,0,0,1,.29.73,63.71,63.71,0,0,1-2.4,8,.69.69,0,1,1-1.3-.48,62.41,62.41,0,0,0,2.35-7.86.69.69,0,0,1,.83-.52.67.67,0,0,1,.23.1m-5.78,15.5a.69.69,0,0,1,.22.9,64.78,64.78,0,0,1-3.46,5.76q-.46.69-.94,1.37a.68.68,0,0,1-1,.16.69.69,0,0,1-.16-1q.47-.66.93-1.34a63.88,63.88,0,0,0,3.38-5.64.69.69,0,0,1,.93-.29l.06,0m-9.59,13.49.09.07a.69.69,0,0,1,0,1,63.84,63.84,0,0,1-6.09,5.76.69.69,0,0,1-.88-1.07,62.42,62.42,0,0,0,6-5.63.69.69,0,0,1,.89-.1m-12.75,10.55a.69.69,0,0,1,0,1.16,64.14,64.14,0,0,1-7.38,4,.69.69,0,1,1-.57-1.26,62.81,62.81,0,0,0,7.23-3.89.69.69,0,0,1,.75,0m-96.68-59.79a.69.69,0,0,1,.3.64,63.17,63.17,0,0,0-.25,8.2.69.69,0,1,1-1.38,0,64.36,64.36,0,0,1,.25-8.38.69.69,0,0,1,1.07-.51M280.29,288a.69.69,0,0,1-.18,1.23,64.73,64.73,0,0,1-8.16,1.93.69.69,0,1,1-.23-1.36,63.31,63.31,0,0,0,8-1.89.69.69,0,0,1,.59.09m-81-50.12a.69.69,0,0,1,.3.46,63.31,63.31,0,0,0,1.88,8,.69.69,0,0,1-1.32.4,64.54,64.54,0,0,1-1.92-8.16.69.69,0,0,1,1.07-.69M264,290.73a.69.69,0,0,1-.36,1.27,64.31,64.31,0,0,1-8.37-.24.69.69,0,1,1,.13-1.38,62.75,62.75,0,0,0,8.19.24.68.68,0,0,1,.41.12m-59.89-37a.68.68,0,0,1,.24.29,62.79,62.79,0,0,0,3.88,7.23.69.69,0,0,1-1.17.73,64.15,64.15,0,0,1-4-7.39.69.69,0,0,1,1-.86m43.43,35.47a.69.69,0,0,1-.54,1.25,64,64,0,0,1-8-2.41.69.69,0,1,1,.49-1.3,62.26,62.26,0,0,0,7.85,2.36.68.68,0,0,1,.23.1m-34.66-21.43a.66.66,0,0,1,.15.13,62.59,62.59,0,0,0,5.63,6,.69.69,0,1,1-.94,1,63.76,63.76,0,0,1-5.75-6.1.69.69,0,0,1,.92-1M232,283.37a.69.69,0,0,1-.71,1.18,64.92,64.92,0,0,1-7.12-4.41A.69.69,0,1,1,225,279a63.94,63.94,0,0,0,7,4.32l.06,0"/></g></g><g class="cls-5"><g class="cls-9"><path class="cls-7" d="M974.76,154.76a.69.69,0,0,1,1.22,0c.68,1.21,1.34,2.45,2,3.69a.69.69,0,1,1-1.24.62c-.61-1.22-1.26-2.44-1.93-3.64a.69.69,0,0,1,0-.65"/><path class="cls-7" d="M979.77,165.24a.69.69,0,0,1,1.26.05c.93,2.32,1.77,4.71,2.5,7.1a.69.69,0,1,1-1.32.4c-.72-2.35-1.55-4.7-2.47-7a.69.69,0,0,1,0-.57m4.37,14.27a.69.69,0,0,1,1.29.16c.53,2.45,1,4.94,1.28,7.42a.69.69,0,1,1-1.37.18c-.32-2.44-.74-4.89-1.27-7.3a.68.68,0,0,1,.06-.46m1.93,14.8a.69.69,0,0,1,1.31.28c.11,2.5.12,5,0,7.53a.69.69,0,1,1-1.38-.05c.09-2.46.09-4.95,0-7.41a.7.7,0,0,1,.07-.34m-.58,14.91a.69.69,0,0,1,1.3.4c-.31,2.48-.73,5-1.24,7.42a.69.69,0,1,1-1.35-.29c.51-2.4.92-4.86,1.22-7.31a.68.68,0,0,1,.07-.23"/><path class="cls-7" d="M982.4,223.83a.69.69,0,0,1,1.28.51c-.4,1.33-.84,2.66-1.3,4a.69.69,0,0,1-1.3-.46c.46-1.29.89-2.61,1.28-3.91l0-.11"/><path class="cls-7" d="M962.76,258.34a.68.68,0,0,1,.11-.16c.93-1,1.84-2.05,2.71-3.1a.69.69,0,0,1,1.06.89c-.89,1.06-1.81,2.12-2.76,3.15a.69.69,0,0,1-1.13-.78"/><path class="cls-7" d="M817.56,159.43a.69.69,0,0,1,1.24.62c-1.22,2.5-2.33,5.09-3.31,7.69a.69.69,0,0,1-1.29-.49c1-2.64,2.12-5.26,3.36-7.81h0m4-7.4,0,0c1.47-2.42,3.07-4.79,4.76-7a.69.69,0,0,1,1.11.83c-1.66,2.22-3.24,4.55-4.68,6.93a.69.69,0,0,1-1.21-.67m-10,23.17a.69.69,0,0,1,1.28.49c-.72,2.68-1.33,5.43-1.79,8.17a.69.69,0,0,1-1.36-.23c.47-2.78,1.08-5.58,1.82-8.3a.63.63,0,0,1,0-.13m20-36.67a.67.67,0,0,1,.11-.15c1.9-2.09,3.92-4.11,6-6a.69.69,0,0,1,.93,1c-2.06,1.87-4,3.86-5.92,5.92a.69.69,0,0,1-1.13-.78m-22.86,53.28a.69.69,0,0,1,1.31.36c-.2,2.77-.27,5.58-.21,8.36a.69.69,0,0,1-1.38,0c-.07-2.83,0-5.68.21-8.5a.69.69,0,0,1,.07-.26m35.33-64.61a.69.69,0,0,1,.2-.24c2.26-1.69,4.63-3.29,7-4.76a.69.69,0,0,1,.72,1.18c-2.38,1.45-4.71,3-6.93,4.69a.69.69,0,0,1-1-.87m-34.95,81.46a.69.69,0,0,1,1.3.23c.33,2.76.79,5.54,1.38,8.26a.69.69,0,0,1-1.35.29c-.6-2.76-1.07-5.58-1.4-8.39a.68.68,0,0,1,.07-.39m49.34-90.22a.69.69,0,0,1,.32-.31c2.54-1.23,5.17-2.36,7.81-3.35a.69.69,0,1,1,.48,1.3c-2.61,1-5.2,2.08-7.69,3.29a.69.69,0,0,1-.92-.93M812.78,225.13a.69.69,0,0,1,1.28.1c.84,2.65,1.82,5.29,2.91,7.85a.69.69,0,0,1-1.27.54c-1.1-2.6-2.1-5.28-3-8a.69.69,0,0,1,0-.52m61.56-112.59a.69.69,0,0,1,.44-.36c2.73-.73,5.52-1.35,8.3-1.82a.69.69,0,1,1,.23,1.36c-2.74.47-5.49,1.07-8.18,1.79a.69.69,0,0,1-.8-1m-55,128.09a.69.69,0,0,1,1.23,0c1.32,2.44,2.78,4.85,4.33,7.16a.69.69,0,0,1-1.15.77c-1.58-2.34-3.05-4.79-4.4-7.27a.69.69,0,0,1,0-.64M891,109.72a.69.69,0,0,1,.57-.38c2.82-.21,5.68-.28,8.5-.22a.69.69,0,1,1,0,1.38c-2.78-.06-5.59,0-8.37.21a.69.69,0,0,1-.67-1m-62.18,144.9a.71.71,0,0,1,.18-.22.69.69,0,0,1,1,.1c1.76,2.15,3.65,4.24,5.61,6.21a.69.69,0,1,1-1,1c-2-2-3.91-4.12-5.7-6.31a.7.7,0,0,1-.08-.75m79-144.53a.69.69,0,0,1,.7-.38c2.8.33,5.62.8,8.38,1.4a.69.69,0,1,1-.29,1.35c-2.72-.59-5.49-1.05-8.25-1.38a.69.69,0,0,1-.61-.77.7.7,0,0,1,.07-.23M840.66,266.57a.68.68,0,0,1,.08-.13.69.69,0,0,1,1-.09c2.14,1.77,4.39,3.46,6.69,5a.69.69,0,1,1-.78,1.14c-2.34-1.59-4.62-3.31-6.8-5.11a.69.69,0,0,1-.18-.84m83.61-152.91a.69.69,0,0,1,.83-.35c2.68.86,5.36,1.85,8,3a.69.69,0,1,1-.54,1.27c-2.56-1.09-5.2-2.08-7.84-2.92a.69.69,0,0,1-.45-.87l0-.1M854.59,276v0a.69.69,0,0,1,.94-.27c.93.51,1.88,1,2.83,1.49,1.54.77,3.11,1.51,4.68,2.19a.69.69,0,0,1-.55,1.27c-1.6-.69-3.2-1.44-4.76-2.23-1-.49-1.93-1-2.87-1.51a.69.69,0,0,1-.28-.92m15.46,6.7a.69.69,0,0,1,.83-.35c2.65.86,5.36,1.6,8.07,2.2a.69.69,0,0,1-.3,1.35c-2.75-.61-5.51-1.36-8.2-2.24a.69.69,0,0,1-.44-.87l0-.1m16.45,3.65a.69.69,0,0,1,.7-.37c2.76.34,5.56.55,8.34.63a.69.69,0,0,1,0,1.38c-2.82-.08-5.67-.29-8.47-.64a.69.69,0,0,1-.6-.77.72.72,0,0,1,.07-.23m16.84.46a.69.69,0,0,1,.57-.38c2.77-.19,5.57-.51,8.31-1a.69.69,0,1,1,.22,1.36c-2.79.46-5.63.79-8.44,1a.69.69,0,0,1-.74-.64.7.7,0,0,1,.07-.36M920,284.11a.69.69,0,0,1,.44-.36c2.69-.71,5.37-1.55,8-2.51a.69.69,0,0,1,.48,1.3c-2.65,1-5.38,1.83-8.11,2.55a.69.69,0,0,1-.79-1m15.82-5.81a.69.69,0,0,1,.32-.31c2.51-1.2,5-2.54,7.37-4a.69.69,0,0,1,.71,1.18c-2.42,1.46-4.94,2.81-7.48,4a.69.69,0,0,1-.92-.94m14.44-8.69a.69.69,0,0,1,.21-.24c2.24-1.65,4.42-3.43,6.49-5.29a.69.69,0,0,1,.92,1c-2.1,1.89-4.32,3.7-6.59,5.38a.69.69,0,0,1-1-.87"/><path class="cls-7" d="M939.87,120.34v0a.69.69,0,0,1,.94-.28c1.22.66,2.44,1.37,3.63,2.08a.69.69,0,0,1-.72,1.18c-1.17-.71-2.37-1.4-3.57-2.05a.69.69,0,0,1-.29-.92"/><path class="cls-7" d="M974.76,154.76a.69.69,0,0,1,1.22,0c.68,1.21,1.34,2.45,2,3.69a.69.69,0,1,1-1.24.62c-.61-1.22-1.26-2.44-1.93-3.64a.69.69,0,0,1,0-.65"/><path class="cls-7" d="M979.77,165.24a.69.69,0,0,1,1.26.05c.93,2.32,1.77,4.71,2.5,7.1a.69.69,0,1,1-1.32.4c-.72-2.35-1.55-4.7-2.47-7a.69.69,0,0,1,0-.57m4.37,14.27a.69.69,0,0,1,1.29.16c.53,2.45,1,4.94,1.28,7.42a.69.69,0,1,1-1.37.18c-.32-2.44-.74-4.89-1.27-7.3a.68.68,0,0,1,.06-.46m1.93,14.8a.69.69,0,0,1,1.31.28c.11,2.5.12,5,0,7.53a.69.69,0,1,1-1.38-.05c.09-2.46.09-4.95,0-7.41a.7.7,0,0,1,.07-.34m-.58,14.91a.69.69,0,0,1,1.3.4c-.31,2.48-.73,5-1.24,7.42a.69.69,0,1,1-1.35-.29c.51-2.4.92-4.86,1.22-7.31a.68.68,0,0,1,.07-.23"/><path class="cls-7" d="M982.4,223.83a.69.69,0,0,1,1.28.51c-.4,1.33-.84,2.66-1.3,4a.69.69,0,0,1-1.3-.46c.46-1.29.89-2.61,1.28-3.91l0-.11"/></g></g><g class="cls-5"><g class="cls-10"><path class="cls-7" d="M967.51,139.89V123.63l15,7.52Zm1.24-14.25v12.09l11.18-6.5Z"/><path class="cls-7" d="M993,144.84H952.58V112.3h15.16l2.93,7.13H993Zm-39.19-1.24h37.95V120.67H969.84l-2.93-7.13H953.82Z"/></g></g><g class="cls-5"><g class="cls-11"><path class="cls-7" d="M92.49,447.53l-11-8-11,8,4.19-12.9-11-8H77.32l4.19-12.9,4.19,12.9H99.27l-11,8Zm-11-9.68,8.34,6.06-3.19-9.81L95,428H84.7l-3.19-9.81L78.32,428H68l8.35,6.06-3.19,9.81Z"/></g></g><g class="cls-5"><g class="cls-12"><path class="cls-7" d="M1126,309.82l-11-8-11,8,4.19-12.9-11-8h13.57L1115,276l4.19,12.9h13.57l-11,8Zm-11-9.68,8.34,6.06-3.19-9.81,8.34-6.06h-10.31l-3.19-9.81-3.19,9.81h-10.31l8.34,6.06-3.19,9.81Z"/></g></g><g class="cls-5"><g class="cls-13"><path class="cls-7" d="M1110.31,382.43h-44v-41.7h44Zm-42.75-1.24h41.51V342h-41.51Z"/><path class="cls-7" d="M1110.31,373.65h-44V349.51h44Zm-42.75-1.24h41.51V350.75h-41.51Z"/><path class="cls-7" d="M1076,348.84h-7.1v-6.11h7.1Zm-5.85-1.24h4.61V344h-4.61Z"/><path class="cls-7" d="M1086.55,348.84h-7.1v-6.11h7.1Zm-5.85-1.24h4.61V344h-4.61Z"/><path class="cls-7" d="M1097.09,348.84H1090v-6.11h7.1Zm-5.85-1.24h4.61V344h-4.61Z"/><path class="cls-7" d="M1107.64,348.84h-7.1v-6.11h7.1Zm-5.85-1.24h4.61V344h-4.61Z"/><path class="cls-7" d="M1076,380.54h-7.1v-6.11h7.1Zm-5.85-1.24h4.61v-3.62h-4.61Z"/><path class="cls-7" d="M1086.55,380.54h-7.1v-6.11h7.1Zm-5.85-1.24h4.61v-3.62h-4.61Z"/><path class="cls-7" d="M1097.09,380.54H1090v-6.11h7.1Zm-5.85-1.24h4.61v-3.62h-4.61Z"/><path class="cls-7" d="M1107.64,380.54h-7.1v-6.11h7.1Zm-5.85-1.24h4.61v-3.62h-4.61Z"/></g></g><g class="cls-5"><g class="cls-14"><path class="cls-7" d="M547.81,147.26a19.71,19.71,0,1,1,19.71-19.71,19.73,19.73,0,0,1-19.71,19.71m0-38.17a18.46,18.46,0,1,0,18.46,18.46,18.49,18.49,0,0,0-18.46-18.46"/><path class="cls-7" d="M541.9,137.51V117.68l18.34,9.17Zm1.24-17.82v15.67l14.49-8.42Z"/></g></g><g class="cls-5"><g class="cls-15"><path class="cls-7" d="M419,241.84a16.45,16.45,0,1,1,16.45-16.45A16.47,16.47,0,0,1,419,241.84m0-31.16a14.71,14.71,0,1,0,14.71,14.71A14.72,14.72,0,0,0,419,210.68"/><path class="cls-7" d="M419,228.27a2.89,2.89,0,1,1,2.89-2.89,2.89,2.89,0,0,1-2.89,2.89m0-4a1.14,1.14,0,1,0,1.14,1.14,1.14,1.14,0,0,0-1.14-1.14"/><path class="cls-7" d="M419,221.07a4.6,4.6,0,1,1,4.6-4.6,4.61,4.61,0,0,1-4.6,4.6m0-7.46a2.86,2.86,0,1,0,2.86,2.86,2.86,2.86,0,0,0-2.86-2.86"/><path class="cls-7" d="M428,230a4.6,4.6,0,1,1,4.6-4.6A4.61,4.61,0,0,1,428,230m0-7.46a2.86,2.86,0,1,0,2.86,2.86,2.86,2.86,0,0,0-2.86-2.86"/><path class="cls-7" d="M410.11,230a4.6,4.6,0,1,1,4.6-4.6,4.61,4.61,0,0,1-4.6,4.6m0-7.46a2.86,2.86,0,1,0,2.86,2.86,2.86,2.86,0,0,0-2.86-2.86"/><path class="cls-7" d="M419,238.92a4.6,4.6,0,1,1,4.6-4.6,4.61,4.61,0,0,1-4.6,4.6m0-7.46a2.86,2.86,0,1,0,2.86,2.86,2.86,2.86,0,0,0-2.86-2.86"/></g></g><g class="cls-5"><g class="cls-16"><path class="cls-7" d="M350.83,255.83h-5v-8.68h5Zm-3.77-1.24h2.53v-6.2h-2.53Z"/><path class="cls-7" d="M359.51,261.15l-9.93-5.57v-8.17l9.93-5.57Zm-8.68-6.3,7.44,4.18V244l-7.44,4.18Z"/><path class="cls-7" d="M361.79,254.59v-1.24a1.86,1.86,0,0,0,0-3.72v-1.24a3.1,3.1,0,1,1,0,6.2"/></g></g><g class="cls-5"><g class="cls-17"><path class="cls-7" d="M0,509.7V489.87L18.34,499Zm1.24-17.82v15.67l14.49-8.42Z"/><polygon class="cls-7" points="10.24 509.7 10.24 503.58 11.48 503.58 11.48 507.54 25.97 499.12 11.48 491.88 11.48 494.96 10.24 494.96 10.24 489.87 28.58 499.04 10.24 509.7"/></g></g><g class="cls-5"><g class="cls-18"><path class="cls-7" d="M370.13,168.11V148.28l18.34,9.17Zm1.24-17.82V166l14.49-8.42Z"/><polygon class="cls-7" points="380.37 168.11 380.37 161.99 381.61 161.99 381.61 165.95 396.1 157.53 381.61 150.29 381.61 153.37 380.37 153.37 380.37 148.28 398.71 157.45 380.37 168.11"/></g></g><g class="cls-5"><g class="cls-19"><path class="cls-7" d="M705.76,351.32V331.49l18.34,9.17ZM707,333.5v15.67l14.49-8.42Z"/><polygon class="cls-7" points="716 351.32 716 345.2 717.24 345.2 717.24 349.16 731.73 340.74 717.24 333.5 717.24 336.58 716 336.58 716 331.49 734.34 340.66 716 351.32"/></g></g><g class="cls-5"><g class="cls-20"><path class="cls-7" d="M905.15,265.48l-11-8-11,8,4.19-12.9-11-8H890l4.19-12.9,4.19,12.9h13.57l-11,8Zm-11-9.68,8.34,6.06-3.19-9.81,8.34-6.06H897.36l-3.19-9.81L891,246H880.67l8.34,6.06-3.19,9.81Z"/></g></g><g class="cls-5"><g class="cls-21"><path class="cls-7" d="M474.82,109.1l-11-8-11,8,4.19-12.9-11-8h13.57l4.19-12.9L468,88.22h13.57l-11,8Zm-11-9.68,8.34,6.06L469,95.67l8.35-6.06H467l-3.19-9.81-3.19,9.81H450.35l8.35,6.06-3.19,9.81Z"/></g></g><g class="cls-5"><g class="cls-22"><path class="cls-7" d="M1104.9,683.09V663.25l18.34,9.17Zm1.24-17.82v15.67l14.49-8.42Z"/></g></g><g class="cls-5"><g class="cls-23"><path class="cls-7" d="M43.37,677.12V657.29l18.34,9.17Zm1.24-17.82V675l14.49-8.42Z"/></g></g><g class="cls-5"><g class="cls-24"><path class="cls-7" d="M671.42,112.54V92.7l18.34,9.17Zm1.24-17.82v15.67L687.15,102Z"/></g></g></g><path class="cls-25" d="M1081.51,92c29.88,54.77-18.26,129.46-14.11,131.12,30.7,42.32,6.64,91.28-39.83,119.5,66.39,53.94-66.39,127.8-66.39,127.8,55.6,58.09-88,136.1-126.14,153.52-68.88-88.79-53.11-223.23-10.79-200-17.43-152.69,58.09-144.39,74.69-120.33-1.66-136.09,73.86-132.78,88-120.33,26.55-74.69,76.35-88.79,94.6-91.28"/><path class="cls-26" d="M1067.4,223.12c30.7,42.32,6.64,91.28-39.83,119.5,66.39,53.94-66.39,127.8-66.39,127.8,55.6,58.09-88,136.1-126.14,153.52,0,0,71.37-273.85,246.47-531.93,29.87,54.77-18.26,129.46-14.11,131.12"/><path class="cls-27" d="M965.74,300.23a1.58,1.58,0,0,0,.78-.2l90-50.62a1.59,1.59,0,0,0-1.56-2.77l-90,50.62a1.59,1.59,0,0,0,.78,3"/><path class="cls-26" d="M981.51,253.76h.15a1.59,1.59,0,0,0,1.43-1.73l-5-52.28a1.59,1.59,0,0,0-1.58-1.44h-.15a1.59,1.59,0,0,0-1.43,1.73l5,52.28a1.59,1.59,0,0,0,1.58,1.44"/><path class="cls-27" d="M915.12,419.73a1.56,1.56,0,0,0,.32,0l84.64-17.43a1.59,1.59,0,0,0-.32-3.15,1.54,1.54,0,0,0-.32,0L914.8,416.58a1.59,1.59,0,0,0,.32,3.15"/><path class="cls-26" d="M910.15,406.51a1.64,1.64,0,0,0,1.59-1.65c0-2.09-17.17-57.32-24.55-81a1.59,1.59,0,0,0-3,.95c9.61,30.79,24,77.55,24.41,80.15a1.53,1.53,0,0,0,1.59,1.53"/><path class="cls-26" d="M875.7,492.75a1.62,1.62,0,0,0,.41-.05,1.59,1.59,0,0,0,1.13-1.95L859,422.29a1.59,1.59,0,0,0-1.54-1.18,1.63,1.63,0,0,0-.41.05,1.59,1.59,0,0,0-1.13,1.95l18.26,68.46a1.59,1.59,0,0,0,1.54,1.18"/><path class="cls-27" d="M1028.81,182.39a1.59,1.59,0,0,0,.5-.08L1072.88,168a1.59,1.59,0,1,0-1-3l-43.57,14.31a1.59,1.59,0,0,0,.5,3.1"/><path class="cls-27" d="M835,625.53a1.59,1.59,0,0,0,1.52-1.13c1-3.32,102-334.79,246.23-531.45a1.59,1.59,0,1,0-2.57-1.88c-144.54,197.1-245.7,529.09-246.71,532.42a1.59,1.59,0,0,0,1.52,2.05"/><path class="cls-26" d="M294,565.57a1.59,1.59,0,0,1-1.54-2l18.26-68.46a1.59,1.59,0,1,1,3.07.82l-18.26,68.46a1.59,1.59,0,0,1-1.54,1.18"/><path class="cls-25" d="M1156.47,353.75c22,40.42-13.47,95.55-10.41,96.77,22.66,31.24,4.9,67.37-29.4,88.2,49,39.81-49,94.32-49,94.32,41,42.87-64.92,100.44-93.1,113.31-50.83-65.53-39.2-164.75-8-147.6-12.86-112.7,42.87-106.57,55.12-88.81-1.22-100.44,54.51-98,64.92-88.81,19.6-55.12,56.35-65.54,69.82-67.37"/><path class="cls-26" d="M1146.05,450.52c22.66,31.24,4.9,67.37-29.4,88.2,49,39.81-49,94.32-49,94.32,41,42.87-64.92,100.44-93.1,113.31,0,0,52.67-202.11,181.9-392.59,22,40.42-13.48,95.55-10.41,96.77"/><path class="cls-27" d="M1071,507.43a1.16,1.16,0,0,0,.57-.15l66.45-37.36a1.17,1.17,0,1,0-1.15-2l-66.45,37.36a1.17,1.17,0,0,0,.58,2.2"/><path class="cls-26" d="M1082.66,473.13h.11a1.17,1.17,0,0,0,1.06-1.28l-3.67-38.59a1.18,1.18,0,0,0-1.17-1.06h-.11a1.17,1.17,0,0,0-1.06,1.28l3.67,38.59a1.17,1.17,0,0,0,1.17,1.06"/><path class="cls-27" d="M1033.66,595.63l.24,0,62.47-12.86a1.17,1.17,0,0,0-.24-2.32l-.24,0-62.47,12.86a1.17,1.17,0,0,0,.24,2.32"/><path class="cls-26" d="M1030,585.87a1.21,1.21,0,0,0,1.17-1.22c0-1.54-12.67-42.31-18.12-59.76a1.17,1.17,0,0,0-2.24.7c7.09,22.73,17.75,57.24,18,59.15a1.13,1.13,0,0,0,1.17,1.13"/><path class="cls-26" d="M1004.57,649.52a1.18,1.18,0,0,0,1.13-1.48l-13.47-50.53a1.17,1.17,0,0,0-2.27.61l13.47,50.53a1.18,1.18,0,0,0,1.13.87"/><path class="cls-27" d="M1117.57,420.46a1.2,1.2,0,0,0,.37-.06l32.15-10.57a1.17,1.17,0,1,0-.73-2.23l-32.16,10.57a1.17,1.17,0,0,0,.37,2.29"/><path class="cls-27" d="M974.56,747.52a1.18,1.18,0,0,0,1.12-.83c.74-2.45,75.29-247.09,181.73-392.24a1.17,1.17,0,1,0-1.89-1.39C1048.84,498.53,974.18,743.55,973.44,746a1.18,1.18,0,0,0,1.13,1.51"/><path class="cls-25" d="M60.51,493.28C54.9,524.9,90.62,553.46,88.86,555c-8.05,25.68,11.71,45.63,39,51.79-23.57,37.19,53.32,51.49,53.32,51.49-17.62,37.45,65.21,52,86.69,54.27C287,657.9,257.25,594.87,240.4,613.14c-16.5-77.37-52-61-56.15-46.49-21.47-66.69-57.78-52.7-62.63-44.32-25.19-32.1-51.8-30.83-61.11-29.06"/><path class="cls-26" d="M88.86,555c-8.05,25.68,11.71,45.63,39,51.79-23.57,37.19,53.32,51.5,53.32,51.5-17.62,37.45,65.21,52,86.69,54.26,0,0-79.67-122-207.37-219.23C54.9,524.9,90.62,553.46,88.86,555"/><path class="cls-27" d="M151.1,575.94a.82.82,0,0,1-.41,0L98.46,566a.82.82,0,0,1,.31-1.61l52.23,10a.82.82,0,0,1,.11,1.58"/><path class="cls-26" d="M135.8,555.84l-.08,0a.82.82,0,0,1-1-.61l-6.13-26.33a.82.82,0,0,1,.54-1l.07,0a.82.82,0,0,1,1,.61l6.13,26.33a.82.82,0,0,1-.54,1"/><path class="cls-27" d="M195.37,626l-.16,0L151,631.35a.82.82,0,0,1-.36-1.59l.16,0L195,624.37a.82.82,0,0,1,.36,1.59"/><path class="cls-26" d="M195.63,618.7a.85.85,0,0,1-1-.55c-.34-1-1-30.78-1.28-43.53a.82.82,0,0,1,.56-.79.86.86,0,0,1,.24,0,.82.82,0,0,1,.84.8c.35,16.6,1,41.78,1.21,43.11a.79.79,0,0,1-.52,1"/><path class="cls-26" d="M226.56,655.15l-.21,0a.82.82,0,0,1-.87-.77l-2.3-36.4a.82.82,0,0,1,.56-.83l.21,0a.82.82,0,0,1,.87.77l2.3,36.4a.82.82,0,0,1-.56.83"/><path class="cls-27" d="M101,528.76a.81.81,0,0,1-.26,0l-23.6.15a.82.82,0,0,1,0-1.64l23.6-.15a.82.82,0,0,1,.27,1.59"/><path class="cls-27" d="M268.14,713.28a.82.82,0,0,1-.93-.3c-1-1.46-104.6-146.68-207.18-219a.82.82,0,0,1,.94-1.34c102.81,72.52,206.53,218,207.57,219.42a.82.82,0,0,1-.2,1.14.84.84,0,0,1-.21.11"/><path class="cls-29" d="M1110,676.81H139.06V658.51a31,31,0,0,1,31-31H1079a31,31,0,0,1,31,31Z"/></g><rect class="cls-31" x="350.67" y="288.37" width="549.17" height="3.81" rx="0.54" ry="0.54"/><rect class="cls-31" x="350.67" y="264.85" width="549.17" height="3.81" rx="0.54" ry="0.54"/><polygon class="cls-31" points="819.03 291.56 816.91 289.33 840.62 265.81 842.74 268.04 819.03 291.56"/><polygon class="cls-31" points="840.62 291.56 842.74 289.33 819.03 265.81 816.91 268.04 840.62 291.56"/><polygon class="cls-31" points="794.65 291.56 792.52 289.33 816.23 265.81 818.36 268.04 794.65 291.56"/><polygon class="cls-31" points="816.23 291.56 818.36 289.33 794.65 265.81 792.52 268.04 816.23 291.56"/><polygon class="cls-31" points="868.64 291.56 866.51 289.33 890.22 265.81 892.35 268.04 868.64 291.56"/><polygon class="cls-31" points="890.22 291.56 892.35 289.33 868.64 265.81 866.51 268.04 890.22 291.56"/><polygon class="cls-31" points="844.25 291.56 842.13 289.33 865.84 265.81 867.96 268.04 844.25 291.56"/><polygon class="cls-31" points="865.84 291.56 867.96 289.33 844.25 265.81 842.13 268.04 865.84 291.56"/><polygon class="cls-31" points="385.57 291.56 383.45 289.33 407.16 265.81 409.28 268.04 385.57 291.56"/><polygon class="cls-31" points="407.16 291.56 409.28 289.33 385.57 265.81 383.45 268.04 407.16 291.56"/><polygon class="cls-31" points="361.19 291.56 359.06 289.33 382.77 265.81 384.9 268.04 361.19 291.56"/><polygon class="cls-31" points="382.77 291.56 384.9 289.33 361.19 265.81 359.06 268.04 382.77 291.56"/><polygon class="cls-31" points="771.28 291.56 769.15 289.33 792.86 265.81 794.99 268.04 771.28 291.56"/><polygon class="cls-31" points="792.86 291.56 794.99 289.33 771.28 265.81 769.15 268.04 792.86 291.56"/><polygon class="cls-31" points="745.54 291.56 743.41 289.33 767.12 265.81 769.25 268.04 745.54 291.56"/><polygon class="cls-31" points="767.12 291.56 769.25 289.33 745.54 265.81 743.41 268.04 767.12 291.56"/><polygon class="cls-31" points="719.8 291.56 717.67 289.33 741.38 265.81 743.51 268.04 719.8 291.56"/><polygon class="cls-31" points="741.38 291.56 743.51 289.33 719.8 265.81 717.67 268.04 741.38 291.56"/><polygon class="cls-31" points="694.06 291.56 691.93 289.33 715.64 265.81 717.77 268.04 694.06 291.56"/><polygon class="cls-31" points="715.64 291.56 717.77 289.33 694.06 265.81 691.93 268.04 715.64 291.56"/><polygon class="cls-31" points="668.32 291.56 666.19 289.33 689.9 265.81 692.02 268.04 668.32 291.56"/><polygon class="cls-31" points="689.9 291.56 692.02 289.33 668.32 265.81 666.19 268.04 689.9 291.56"/><polygon class="cls-31" points="642.58 291.56 640.45 289.33 664.16 265.81 666.28 268.04 642.58 291.56"/><polygon class="cls-31" points="664.16 291.56 666.28 289.33 642.58 265.81 640.45 268.04 664.16 291.56"/><polygon class="cls-31" points="616.84 291.56 614.71 289.33 638.42 265.81 640.54 268.04 616.84 291.56"/><polygon class="cls-31" points="638.42 291.56 640.54 289.33 616.84 265.81 614.71 268.04 638.42 291.56"/><polygon class="cls-31" points="591.09 291.56 588.97 289.33 612.68 265.81 614.8 268.04 591.09 291.56"/><polygon class="cls-31" points="612.68 291.56 614.8 289.33 591.09 265.81 588.97 268.04 612.68 291.56"/><polygon class="cls-31" points="565.69 291.56 563.57 289.33 587.28 265.81 589.4 268.04 565.69 291.56"/><polygon class="cls-31" points="587.28 291.56 589.4 289.33 565.69 265.81 563.57 268.04 587.28 291.56"/><polygon class="cls-31" points="539.95 291.56 537.83 289.33 561.54 265.81 563.66 268.04 539.95 291.56"/><polygon class="cls-31" points="561.54 291.56 563.66 289.33 539.95 265.81 537.83 268.04 561.54 291.56"/><polygon class="cls-31" points="514.21 291.56 512.09 289.33 535.79 265.81 537.92 268.04 514.21 291.56"/><polygon class="cls-31" points="535.79 291.56 537.92 289.33 514.21 265.81 512.09 268.04 535.79 291.56"/><polygon class="cls-31" points="488.47 291.56 486.35 289.33 510.05 265.81 512.18 268.04 488.47 291.56"/><polygon class="cls-31" points="510.05 291.56 512.18 289.33 488.47 265.81 486.35 268.04 510.05 291.56"/><polygon class="cls-31" points="462.73 291.56 460.61 289.33 484.31 265.81 486.44 268.04 462.73 291.56"/><polygon class="cls-31" points="484.31 291.56 486.44 289.33 462.73 265.81 460.61 268.04 484.31 291.56"/><polygon class="cls-31" points="435.97 291.56 433.85 289.33 457.56 265.81 459.68 268.04 435.97 291.56"/><polygon class="cls-31" points="457.56 291.56 459.68 289.33 435.97 265.81 433.85 268.04 457.56 291.56"/><polygon class="cls-31" points="410.23 291.56 408.11 289.33 431.82 265.81 433.94 268.04 410.23 291.56"/><polygon class="cls-31" points="431.82 291.56 433.94 289.33 410.23 265.81 408.11 268.04 431.82 291.56"/><g class="cls-32"><path class="cls-33" d="M403.82,310.74l65.41,315.9H730.59l112.58-315.9h-31l-37.68,41.51,3.31-41.51h-31s-66.43,48.76-140.1,44.16-106.34-44.16-106.34-44.16h-31l10.17,46.45-44.55-46.45Z"/></g><path class="cls-34" d="M306.19,195.6V627.75h-7.83V200.13q3.53-2.25,7.5-4.36Z"/><path class="cls-34" d="M355.33,182.89V627.75H347.5V183.38Q351.42,183,355.33,182.89Z"/><polygon class="cls-34" points="348.57 350.09 348.57 363.61 342.7 353.45 327.46 327.06 323.56 320.3 311.73 299.82 305.87 289.67 305.87 276.14 311.73 286.3 327.46 313.54 331.37 320.3 342.7 339.93 348.57 350.09"/><polygon class="cls-34" points="348.57 276.99 348.57 290.51 342.7 300.67 331.37 320.3 327.46 327.06 311.73 354.3 305.87 364.46 305.87 350.94 311.73 340.78 323.56 320.3 327.46 313.54 342.7 287.15 348.57 276.99"/><polygon class="cls-34" points="348.57 428 348.57 441.52 342.7 431.37 327.46 404.97 323.56 398.22 311.73 377.74 305.87 367.58 305.87 354.06 311.73 364.21 327.46 391.45 331.37 398.22 342.7 417.85 348.57 428"/><polygon class="cls-34" points="348.57 354.9 348.57 368.43 342.7 378.58 331.37 398.22 327.46 404.97 311.73 432.22 305.87 442.37 305.87 428.85 311.73 418.7 323.56 398.22 327.46 391.45 342.7 365.06 348.57 354.9"/><path class="cls-34" d="M348.56,188.6v13.52l-1.06-1.84-1.45-2.51L342.7,192l-4.26-7.38q3.61-.63,7.22-1l1.84,3.2Z"/><path class="cls-34" d="M311.68,192.9l-2.81,4.87-2.68,4.63-.33.57v-7.2l.33-.17,1.1-.57.7-.36Q309.83,193.74,311.68,192.9Z"/><path class="cls-34" d="M348.57,266.51V280l-.88-1.52-.19-.32-4.8-8.31-15.24-26.39-3.91-6.76-11.83-20.48-5.54-9.59-.33-.57V195.77l.33-.17,1.1-.57,1.58,2.74,2.86,5L327.46,230l3.91,6.76,11.33,19.63,4.8,8.31Z"/><polygon class="cls-34" points="348.57 193.41 348.57 206.94 342.7 217.09 331.37 236.73 327.46 243.49 311.73 270.73 305.87 280.88 305.87 267.37 311.73 257.21 323.56 236.73 327.46 229.97 342.7 203.57 348.57 193.41"/><polygon class="cls-34" points="348.57 513.63 348.57 527.15 342.7 517 327.46 490.6 323.56 483.85 311.73 463.37 305.87 453.21 305.87 439.69 311.73 449.84 327.46 477.08 331.37 483.85 342.7 503.48 348.57 513.63"/><polygon class="cls-34" points="348.57 440.53 348.57 454.06 342.7 464.21 331.37 483.85 327.46 490.6 311.73 517.85 305.87 528 305.87 514.48 311.73 504.33 323.56 483.85 327.46 477.08 342.7 450.69 348.57 440.53"/><polygon class="cls-34" points="348.57 591.55 348.57 605.07 342.7 594.91 327.46 568.52 323.56 561.76 311.73 541.28 305.87 531.13 305.87 517.6 311.73 527.76 327.46 555 331.37 561.76 342.7 581.39 348.57 591.55"/><polygon class="cls-34" points="348.57 518.44 348.57 531.97 342.7 542.13 331.37 561.76 327.46 568.52 311.73 595.76 305.87 605.92 305.87 592.4 311.73 582.24 323.56 561.76 327.46 555 342.7 528.61 348.57 518.44"/><path class="cls-34" d="M905,180.43V627.75h-7.82V176.85Q901.14,178.6,905,180.43Z"/><path class="cls-34" d="M954.12,211.08V627.75H946.3V204.94l1.06.8q2.57,2,5,4C952.81,210.08,953.41,210.54,954.12,211.08Z"/><polygon class="cls-34" points="947.36 350.09 947.36 363.61 941.5 353.45 926.26 327.06 922.35 320.3 910.53 299.82 904.66 289.67 904.66 276.14 910.53 286.3 926.26 313.54 930.16 320.3 941.5 339.93 947.36 350.09"/><polygon class="cls-34" points="947.36 276.99 947.36 290.51 941.5 300.67 930.16 320.3 926.26 327.06 910.53 354.3 904.66 364.46 904.66 350.94 910.53 340.78 922.35 320.3 926.26 313.54 941.5 287.15 947.36 276.99"/><polygon class="cls-34" points="947.36 428 947.36 441.52 941.5 431.37 926.26 404.97 922.35 398.22 910.53 377.74 904.66 367.58 904.66 354.06 910.53 364.21 926.26 391.45 930.16 398.22 941.5 417.85 947.36 428"/><polygon class="cls-34" points="947.36 354.9 947.36 368.43 941.5 378.58 930.16 398.22 926.26 404.97 910.53 432.22 904.66 442.37 904.66 428.85 910.53 418.7 922.35 398.22 926.26 391.45 941.5 365.06 947.36 354.9"/><path class="cls-34" d="M908.8,182.28q3.06,1.51,6,3.06l-4.32,7.47-2.86,5L905,202.4l-.33.57V189.45l.33-.57Z"/><polygon class="cls-34" points="947.36 266.51 947.36 280.03 941.5 269.88 926.26 243.49 922.35 236.73 910.53 216.25 904.66 206.09 904.66 192.57 910.53 202.72 926.26 229.97 930.16 236.73 941.5 256.36 947.36 266.51"/><path class="cls-34" d="M947.36,205.74v1.2l-1.06,1.84-4.8,8.32-11.34,19.63-3.9,6.76-15.73,27.24-4.5,7.78-1,1.81-.33.57V267.37l.33-.57,5.54-9.59,11.82-20.48,3.91-6.76,15.24-26.39.86-1.5c1.33,1,2.65,1.9,3.94,2.87Z"/><polygon class="cls-34" points="947.36 513.63 947.36 527.15 941.5 517 926.26 490.6 922.35 483.85 910.53 463.37 904.66 453.21 904.66 439.69 910.53 449.84 926.26 477.08 930.16 483.85 941.5 503.48 947.36 513.63"/><polygon class="cls-34" points="947.36 440.53 947.36 454.06 941.5 464.21 930.16 483.85 926.26 490.6 910.53 517.85 904.66 528 904.66 514.48 910.53 504.33 922.35 483.85 926.26 477.08 941.5 450.69 947.36 440.53"/><polygon class="cls-34" points="947.36 591.55 947.36 605.07 941.5 594.91 926.26 568.52 922.35 561.76 910.53 541.28 904.66 531.13 904.66 517.6 910.53 527.76 926.26 555 930.16 561.76 941.5 581.39 947.36 591.55"/><polygon class="cls-34" points="947.36 518.44 947.36 531.97 941.5 542.13 930.16 561.76 926.26 568.52 910.53 595.76 904.66 605.92 904.66 592.4 910.53 582.24 922.35 561.76 926.26 555 941.5 528.61 947.36 518.44"/><path class="cls-35" d="M401.82,296.08l41.28-.22a1.58,1.58,0,0,1,1.38,2.29L438,311.38a1.54,1.54,0,0,1-1.38.87H401.89a1.58,1.58,0,0,1-1.38-2.29l-.07-13A1.54,1.54,0,0,1,401.82,296.08Z"/><polygon class="cls-36" points="410.34 298.77 441.38 298.77 434.86 310.74 403.82 310.74 410.34 298.77"/><polygon class="cls-35" points="407.53 297.39 397.4 290.28 398 289.39 408.13 296.5 407.53 297.39"/><polygon class="cls-35" points="440.87 297.39 430.74 290.28 431.34 289.39 441.47 296.5 440.87 297.39"/><path class="cls-35" d="M467.24,296.08l41.28-.22a1.58,1.58,0,0,1,1.38,2.29l-6.47,13.22a1.54,1.54,0,0,1-1.38.87H467.3a1.58,1.58,0,0,1-1.38-2.29l-.07-13A1.54,1.54,0,0,1,467.24,296.08Z"/><polygon class="cls-36" points="475.75 298.77 506.79 298.77 500.28 310.74 469.23 310.74 475.75 298.77"/><polygon class="cls-35" points="472.94 297.39 462.82 290.28 463.41 289.39 473.54 296.5 472.94 297.39"/><polygon class="cls-35" points="506.28 297.39 496.15 290.28 496.75 289.39 506.88 296.5 506.28 297.39"/><path class="cls-35" d="M845.17,296.08l-41.28-.22a1.58,1.58,0,0,0-1.38,2.29L809,311.38a1.54,1.54,0,0,0,1.38.87H845.1a1.58,1.58,0,0,0,1.38-2.29l.07-13A1.54,1.54,0,0,0,845.17,296.08Z"/><polygon class="cls-36" points="836.66 298.77 805.62 298.77 812.13 310.74 843.17 310.74 836.66 298.77"/><polygon class="cls-35" points="839.46 297.39 849.59 290.28 848.99 289.39 838.87 296.5 839.46 297.39"/><polygon class="cls-35" points="806.13 297.39 816.25 290.28 815.65 289.39 805.53 296.5 806.13 297.39"/><path class="cls-35" d="M779.76,296.08l-41.28-.22a1.58,1.58,0,0,0-1.38,2.29l6.47,13.22a1.54,1.54,0,0,0,1.38.87h34.73a1.58,1.58,0,0,0,1.38-2.29l.07-13A1.54,1.54,0,0,0,779.76,296.08Z"/><polygon class="cls-36" points="771.24 298.77 740.2 298.77 746.72 310.74 777.76 310.74 771.24 298.77"/><polygon class="cls-35" points="774.05 297.39 784.18 290.28 783.58 289.39 773.45 296.5 774.05 297.39"/><polygon class="cls-35" points="740.71 297.39 750.84 290.28 750.24 289.39 740.11 296.5 740.71 297.39"/><path class="cls-37" d="M428.25,440.29s-22.1,15.78-20.14,26.56S421,497.1,421,497.1Z"/><polygon class="cls-35" points="544.39 402.08 426.46 519.61 426.46 517.48 543.35 400.99 544.39 402.08"/><path class="cls-35" d="M522.89,426.15l-4.16-4.46a3.74,3.74,0,0,1,.12-5.19l19.72-19.19a3.55,3.55,0,0,1,5.08.13l4.16,4.46a3.74,3.74,0,0,1-.12,5.19L528,426.28A3.55,3.55,0,0,1,522.89,426.15Z"/><path class="cls-38" d="M436.73,617.84s.57,9.15,2.31,9.27c.23,0,8.79,0,8.79,0l10.92-.09a3.6,3.6,0,0,0-3.27-3.25c-3.19-.56-8.54-2.84-10.49-7.15C443,612.1,436.73,617.84,436.73,617.84Z"/><path class="cls-38" d="M412.4,617.9s.57,9.15,2.31,9.27c.23,0,8.79,0,8.79,0l10.92-.09a3.6,3.6,0,0,0-3.27-3.25c-3.19-.56-8.54-2.84-10.49-7.15C418.62,612.15,412.4,617.9,412.4,617.9Z"/><path class="cls-39" d="M448.62,519.5s-2.82,18.67-13.4,51.83-12,47.51-12,47.51l-11.43-.3s-.17-36.21,4.7-52.88.93-60.07.93-60.07Z"/><path class="cls-40" d="M454.16,506.52a462.62,462.62,0,0,1-4.23,62.67c-4.69,34.55-3,49.2-3,49.2l-11.41.41s-6.89-34.53-5-51.82S421,507.69,421,507.69Z"/><path class="cls-41" d="M431.93,440.75l6.09,4.06,8.78-1.69c-.12-.72-.71-3.73-1.24-6.44l-.09-.48-.85-4.3-8.21-3.68-3.06-1.37s.24,2.57.28,2.94A21.76,21.76,0,0,1,431.93,440.75Z"/><path class="cls-37" d="M444.54,438.67c-.17-.07-10.59-3.19-11.72-2.8s-1.79,2.62-1.79,2.62l17,3.89S446.72,439.6,444.54,438.67Z"/><path class="cls-42" d="M416.66,510.08c1.78,8.22,31.15,9.13,38.71,1.65.86-.85.89-4.81.56-10.15-.66-10.43-2.73-26.11-2.83-34.12A64.74,64.74,0,0,0,451.82,456a94.28,94.28,0,0,0-3.75-13.66s-14.35-4.7-17-3.89C418.11,442.39,414.88,501.86,416.66,510.08Z"/><path class="cls-37" d="M455.92,501.58c-.66-10.43-2.73-26.11-2.83-34.12A64.74,64.74,0,0,0,451.82,456l-8.63-1.54S434.83,489.72,455.92,501.58Z"/><path class="cls-43" d="M434.23,429.89c1.81,3.11,8.53,5.8,11.33,6.78l-.09-.48-.85-4.3-8.21-3.68C434.58,428.19,433.48,428.61,434.23,429.89Z"/><path class="cls-41" d="M447.7,431.38s-13.21,4.24-15.67-4.2-5.82-13.58,2.51-16.65,10.91-.34,12.41,2.27S451.08,430.06,447.7,431.38Z"/><path class="cls-39" d="M446.43,412s-.82,9.83-2.81,9.41-3.8-.73-3.5,2.23,3.07,6.38-3.07,6.92-15-15.6-13.31-18.67C428.58,403,453.43,401.2,446.43,412Z"/><path class="cls-41" d="M484.46,458.35s5.82-9.09,6.19-7.52-1,4.51,0,4.06,4.72-5.33,5.26-4.6,0,7.57-1.18,8.77-8.09,3.34-8.09,3.34Z"/><path class="cls-42" d="M437.61,457.33S454,485.79,463.88,484.8s24-19.9,24-19.9a6.19,6.19,0,0,0-.55-3.56,18.72,18.72,0,0,0-2.82-3s-16,10.58-19.16,9-11.9-24.09-17.24-25S437.61,457.33,437.61,457.33Z"/><polygon class="cls-40" points="890.01 483.61 911.71 483.61 924.3 483.61 924.3 472.77 899.58 472.77 890.01 483.61"/><rect class="cls-44" x="934.15" y="446.72" width="18.07" height="3.08"/><polygon class="cls-45" points="890.01 451.19 890.01 483.61 907.27 475.76 907.27 461.88 890.01 451.19"/><polygon class="cls-40" points="922.53 451.19 890.01 451.19 906.27 461.88 922.53 461.88 922.53 451.19"/><polygon class="cls-40" points="943.88 484.28 924.3 484.28 934.09 477.84 943.88 477.84 943.88 484.28"/><rect class="cls-44" x="935.28" y="480.66" width="2.9" height="50.36"/><path class="cls-44" d="M957.29,626.63c.28,0,.53,0,.47-.49l-13.93-97.61-1.93,1.25,14.89,96.41A.52.52,0,0,0,957.29,626.63Z"/><rect class="cls-44" x="930.62" y="528.53" width="13.18" height="2.49"/><path class="cls-39" d="M950.43,578.64l-.71.08a1.27,1.27,0,0,1-1.4-1.12l-.21-1.9a1.27,1.27,0,0,1,1.12-1.4l.71-.08a1.27,1.27,0,0,1,1.4,1.12l.21,1.9A1.27,1.27,0,0,1,950.43,578.64Z"/><path class="cls-44" d="M917.21,626.63c-.28,0-.53,0-.47-.49l13.93-97.61,1.93,1.25-14.89,96.41A.52.52,0,0,1,917.21,626.63Z"/><rect class="cls-39" x="922.45" y="574.85" width="4.43" height="3.23" rx="1.26" ry="1.26" transform="translate(248.95 1431.3) rotate(-83.62)"/><path class="cls-39" d="M952.47,485.29h6.21a0,0,0,0,1,0,0v1.1a1.73,1.73,0,0,1-1.73,1.73H954.2a1.73,1.73,0,0,1-1.73-1.73v-1.1A0,0,0,0,1,952.47,485.29Z"/><path class="cls-39" d="M911.1,455.13h20.24a0,0,0,0,1,0,0V480a0,0,0,0,1,0,0H911.1a11.52,11.52,0,0,1-11.52-11.52v-1.8A11.52,11.52,0,0,1,911.1,455.13Z"/><path class="cls-44" d="M978.17,454.46v26.18c0,2.56-2.59,4.65-5.76,4.65H926.56c-3.17,0-5.76-2.09-5.76-4.65V454.46c0-2.56,2.59-4.65,5.76-4.65h45.85C975.58,449.81,978.17,451.9,978.17,454.46Z"/><rect class="cls-39" x="954.25" y="449.81" width="23.92" height="35.48" rx="11.09" ry="11.09"/><rect class="cls-39" x="920.81" y="435.91" width="36.89" height="10.81" rx="5.01" ry="5.01"/><rect class="cls-44" x="946.29" y="435.91" width="11.42" height="10.81" rx="5.01" ry="5.01"/><rect class="cls-39" x="928.21" y="446.72" width="18.07" height="3.08"/><rect class="cls-39" x="901.08" y="612.41" width="71.52" height="13.29"/><path class="cls-46" d="M1000.56,618.54s-.5,7.94-2,8c-.2,0-7.62,0-7.62,0l-9.48-.08a3.12,3.12,0,0,1,2.84-2.82c2.77-.49,7.41-2.47,9.1-6.2C995.16,613.56,1000.56,618.54,1000.56,618.54Z"/><path class="cls-46" d="M1021.66,618.59s-.5,7.94-2,8c-.2,0-7.62,0-7.62,0l-9.48-.08a3.12,3.12,0,0,1,2.84-2.82c2.77-.49,7.41-2.47,9.1-6.2C1016.27,613.6,1021.66,618.59,1021.66,618.59Z"/><path class="cls-39" d="M990.24,533.22s2.44,16.2,11.63,45,10.42,41.22,10.42,41.22l9.92-.26s.15-31.41-4.08-45.88-.81-52.11-.81-52.11Z"/><path class="cls-40" d="M985.44,522a401.34,401.34,0,0,0,3.67,54.37c4.07,30,2.64,42.68,2.64,42.68l9.9.36s6-30,4.32-45,8.21-51.44,8.21-51.44Z"/><path class="cls-41" d="M1004.72,464.9l-5.28,3.52L991.82,467c.11-.63.62-3.23,1.08-5.59L993,461l.74-3.73,7.13-3.19,2.66-1.19s-.21,2.23-.24,2.55A18.88,18.88,0,0,0,1004.72,464.9Z"/><path class="cls-47" d="M993.78,463.1c.15-.06,9.19-2.77,10.17-2.43s1.56,2.27,1.56,2.27l-14.78,3.38A7.44,7.44,0,0,1,993.78,463.1Z"/><path class="cls-48" d="M1018,525c-1.55,7.13-27,7.92-33.58,1.43-.75-.74-.77-4.17-.48-8.8.57-9,2.37-22.65,2.45-29.6a56.19,56.19,0,0,1,1.11-9.91,81.83,81.83,0,0,1,3.26-11.85s12.45-4.08,14.78-3.38C1016.72,466.33,1019.52,517.92,1018,525Z"/><g class="cls-49"><path class="cls-47" d="M983.91,517.68c.57-9,2.37-22.65,2.45-29.6a56.19,56.19,0,0,1,1.11-9.91l7.49-1.33S1002.21,507.39,983.91,517.68Z"/></g><path class="cls-43" d="M1002.73,455.48c-1.57,2.7-7.4,5-9.83,5.88L993,461l.74-3.73,7.13-3.19C1002.42,454,1003.38,454.37,1002.73,455.48Z"/><path class="cls-41" d="M991,456.77s11.46,3.68,13.59-3.65,5-11.78-2.18-14.44-9.47-.3-10.76,2S988.11,455.63,991,456.77Z"/><path class="cls-39" d="M992.15,439.95s.71,8.53,2.44,8.16,3.29-.64,3,1.93-2.66,5.53,2.66,6,13-13.54,11.55-16.19C1007.63,432.19,986.07,430.59,992.15,439.95Z"/><path class="cls-41" d="M957.53,487.72s-5.05-7.88-5.37-6.53.86,3.91,0,3.52-4.1-4.62-4.56-4,0,6.57,1,7.61,7,2.9,7,2.9Z"/><path class="cls-48" d="M999.8,479.28S985.6,504,977,503.12s-23.76-11-23.76-11a5.06,5.06,0,0,1,1-3,4.15,4.15,0,0,1,3.33-1.44s18,4.49,19.7,1.93,8.86-22.57,13.49-23.33S999.8,479.28,999.8,479.28Z"/><g class="cls-49"><path class="cls-50" d="M700.64,441.77a3.79,3.79,0,0,0-5.26-.22c-1.71,1.35-5.39,3.7-8.44,3.78,0,0,0-.12,0-.12-11.4-3.67-45.19-17.78-45.19-17.78h0a13.79,13.79,0,0,0-9.52.1c-16.55,5.43-34.92,12.15-40.45,14.19l-1.82-1a3.75,3.75,0,0,1-1.44-2.8q-.3-2.63-.67-5c-.22-1.44-.45-2.79-.7-4.09h0l0-.09,0-.11c-.53-3-1.29-5.81-1.29-5.81h0c7.87-.9,17-2,21.67-2.87,6.46-1.17,16.12-5.42,21.45-7.92a1.22,1.22,0,0,0,1.41,1l5.15-1a1.23,1.23,0,0,0,.94-1.54c-.07-.27-.15-.65-.23-1a10.4,10.4,0,0,0,3.23-1.06c.84-.66,2.36-2.83,1.48-5,.05,0,.1,0,.16,0l.27-.07,1.69-.55a3.18,3.18,0,0,0,2.11-2.29l.35-1.42,2.42-.47a1,1,0,0,0,.82-1l.05-3.31,4.15-.81a1.16,1.16,0,0,0,.86-.74l.35-.95h0l4.34-.85-.11-.59-4.34.85-.07-.35,5.19-1-.29-1.57-1.34.26-.09-.47-.75.15-.36.56-8,1.56L647,390.3a2.57,2.57,0,0,0-.76,0l-7.15,1.4a2.15,2.15,0,0,0-1.67,1.64c0,.11-.09.17-.11.27a2.33,2.33,0,0,0-1.43.31,5,5,0,0,0-3.38-.76.32.32,0,0,0-.27.35.31.31,0,0,0,.34.28,4.51,4.51,0,0,1,2.87.59,3.93,3.93,0,0,1,.56.41l.54.5a5.93,5.93,0,0,1-3.7,2.27A1.22,1.22,0,0,0,632,399l.11.59a13.33,13.33,0,0,0-1.52,2.47c-2.14.12-7.4.62-20.42,2.34-15.88,2.1-25.27-1.73-34.84-1.83.17-.44.29-.79.38-1h0a22,22,0,0,0,.83-2.14,23.77,23.77,0,0,0,4.28-.59c2.37-.8,1.69-9.2.73-13.5a3,3,0,0,0,1.33-.39c1.75-1,1.59-3.82,1.59-3.82a3.2,3.2,0,0,1-1.18,1.45s2.66-4.54-1.13-7.12-7.21-.33-9.23,0c-4.47.7-7,1.4-8.54,4.41-3.28,6.53.91,13.74,4,16.45a16.92,16.92,0,0,1-2,3.55,5,5,0,0,0-1.67-.41,8.78,8.78,0,0,0-2.24,4.51h.09c-4.62,4.69-6.28,16.32-5.29,29.35.13,1.73.32,27.66,15.59,31.37l-.08.05,4.67,4.3c1.16,3.44,11.09,6.2,16.08,7,10.43,1.75,22.8,1.24,29.69,3.63.21.07.44.12.66.18,6.79,8,37.6,24,37.6,24a10.24,10.24,0,0,0,1.55-.75c.63,1,2.21,3.69,3.43,4.65a.87.87,0,0,0,1,0l13.44-9.57a.67.67,0,0,0,0-1.09,3.67,3.67,0,0,0-3.72-.56c-2.2,1.3-6.37,2.89-9.29,1.32a14.12,14.12,0,0,0,.66-1.38c-9.89-7.87-31.95-28.52-31.95-28.52h-.07a30.18,30.18,0,0,0-4.14-3.61c-3.65-2.66-7.64-5.21-11.66-7.57,4.86-2.93,11.42-6.8,16.39-10,1.66-1.06,5.42-2.54,7.73-1.06.52.35,1.05.68,1.62,1,7.13,4,36.43,7.38,36.43,7.38.24-.21.42-.44.63-.66,1.3.36,2.43.68,2.93.85a4.44,4.44,0,0,0,4-.82l10.22-10.74A.72.72,0,0,0,700.64,441.77Zm-56.45-41.58,0,.17a2.18,2.18,0,0,1-1.45,1.57l-1.69.55s-.09,0-.14,0a2.39,2.39,0,0,1,.82-.89h.05s0-.06.06-.08c.85-.57,1.85-1,1.54-1.29a1.76,1.76,0,0,0-1.14-.4l1.39-.27A.52.52,0,0,1,644.18,400.19Z"/></g><path class="cls-31" d="M580,416.77c-5.21-28.67-3.23-61.84-.65-84.62,2.8-24.67,6.88-42.81,6.92-43l.31.07c0,.18-4.12,18.3-6.91,43-2.58,22.75-4.56,55.89.65,84.52Z"/><path class="cls-31" d="M669.86,434.67c-5.7-10.79-13.26-34.47-17-86-2.22-30.79-2-57.3-2-57.56h.32c0,.26-.22,26.76,2,57.54,2,28.39,6.65,66.34,16.94,85.84Z"/><path class="cls-31" d="M652.05,465.33c-9.7-19-12-66.12-12.29-102.29-.27-39.18,1.78-74.33,1.8-74.68l.32,0c0,.35-2.07,35.49-1.8,74.66.25,36.14,2.58,83.2,12.25,102.15Z"/><path class="cls-51" d="M587.42,398.19c14.1-4.83,23.71,3.06,45,.24s21.88-2.35,21.88-2.35l.75,4.35s-16,8.11-25.31,9.79-35.93,4.43-35.93,4.43S579.12,401,587.42,398.19Z"/><path class="cls-52" d="M723.08,436.86,712.86,447.6a4.44,4.44,0,0,1-4,.82c-1.52-.52-8.68-2.28-9.38-3.07,0,0,0-8.35,2.78-6.76.1.06,4.85.35,5,.4,3.19,1.53,8.38-1.76,10.5-3.43a3.79,3.79,0,0,1,5.26.22A.72.72,0,0,1,723.08,436.86Z"/><path class="cls-35" d="M612.35,436.38s22.42-8.35,42.16-14.83,21.94,24.23,12.74,18.29c-2.31-1.49-6.08,0-7.74,1.06-6.78,4.3-16.56,9.95-20.88,12.71s-11.8,7.95-11.8,7.95Z"/><path class="cls-35" d="M664.07,421.45s33.8,14.11,45.19,17.78c0,0,0,5.54-4,9,0,0-29.3-3.4-36.43-7.38C658.44,435,655.08,423.39,664.07,421.45Z"/><path class="cls-35" d="M703.25,492.27l-13.44,9.57a.87.87,0,0,1-1,0c-1.27-1-2.95-3.89-3.52-4.79h0a.92.92,0,0,1-.12-.72c.37-1.51,1.9-6.82,4.41-4.81l.28.21c2.92,2,7.44.28,9.76-1.09a3.67,3.67,0,0,1,3.72.56A.67.67,0,0,1,703.25,492.27Z"/><path class="cls-31" d="M613.66,436.13s24.25,10,41.12,22.3,1.06,18.84-9.25,15.26c-6.89-2.39-19.27-1.87-29.69-3.63-5-.84-14.92-3.59-16.08-7C597.59,456.58,613.66,436.13,613.66,436.13Z"/><path class="cls-41" d="M598.56,406.29c-6.71.09-12.69-9.88-12.69-9.88s4.14-1.65,6.26-10.31l3.58,5.36,2.43,3.64a41.72,41.72,0,0,1-1.63,4.18q-.32.72-.7,1.54a1.23,1.23,0,0,0,.17,1.33A15.51,15.51,0,0,1,598.56,406.29Z"/><path class="cls-53" d="M607,412.77a93.25,93.25,0,0,1,3.18,14.15q.37,2.38.67,5c.1.86-.06,2.58,5.19,5.27,1.34.69-2.43,3.48-.3,4.3,3.65,1.39-17.92,17.66-18.62,17.59-17.2-1.89-17.35-30-17.49-31.77-1-13.42.74-25.43,5.69-29.82a17.38,17.38,0,0,1,6.14,0,25.46,25.46,0,0,1,5.27,1.89,15.64,15.64,0,0,1,3.75,2.19C603.1,404.1,605.3,407.61,607,412.77Z"/><path class="cls-54" d="M599.21,391.87a12.91,12.91,0,0,1-1.22,3.68c-5.16-2.52-7.16-5.13-7.16-5.13a11.64,11.64,0,0,1,4.88,1Z"/><path class="cls-41" d="M603.09,392.83s-11.29,3-13-4.18-4.37-11.68,2.76-13.92,9.21.15,10.36,2.42S606,391.86,603.09,392.83Z"/><path class="cls-31" d="M590.83,390.43s1.54-3.53.48-4.81c-1.29-1.56-1-3.42.32-3.14s1.52,1.35,2,.67.25-3.33,4.16-3.89,5.63.69,7.37-.31,1.59-3.82,1.59-3.82a3.21,3.21,0,0,1-1.18,1.45s2.66-4.54-1.13-7.12-7.21-.33-9.23,0c-4.47.7-7,1.4-8.53,4.41C583.34,380.47,587.68,387.8,590.83,390.43Z"/><path class="cls-51" d="M587,393.45a8.78,8.78,0,0,0-2.24,4.51s5-.48,13.86,2.33a26.81,26.81,0,0,0-2.33-2.55C594.28,396.16,588.09,393.31,587,393.45Z"/><path class="cls-55" d="M595.09,458.72a49.22,49.22,0,0,0,17.11-24l5.94,3.37s-3.44,19.81-18.38,25Z"/><path class="cls-31" d="M659,462s22.06,20.65,31.95,28.52c0,0-2,5.45-7.14,7.36,0,0-34.18-17.75-38.51-25.25S649.44,460.59,659,462Z"/><path class="cls-56" d="M605.74,450.65s7.06.89,8,2,2.52,11.13,1.79,11.82-4.41,1-5,.45-.89-9.28-1.85-9.33-3.47.43-4-.74C604.29,453.88,603.66,450.86,605.74,450.65Z"/><path class="cls-51" d="M590.58,415.26s6.16,2.38,17.53,1.55c0,0,.79,3,1.32,6S594.39,420.36,590.58,415.26Z"/><polygon class="cls-31" points="681.45 383.95 670.91 386.01 670.62 384.44 681.15 382.38 681.45 383.95"/><polygon class="cls-31" points="680.77 385.06 671.09 386.95 670.98 386.36 680.65 384.47 680.77 385.06"/><path class="cls-35" d="M663.24,393.89s0,.78-.45,1l-1.11-1.17Z"/><path class="cls-35" d="M664.07,395.6h0a3,3,0,0,1-2.24-1.32.28.28,0,0,1,.07-.38.27.27,0,0,1,.37.07,2.53,2.53,0,0,0,1.79,1.08.28.28,0,0,1,.06.55Z"/><path class="cls-35" d="M659.14,389.36a.31.31,0,0,1-.3-.11h0a4.27,4.27,0,0,0-1-.83,4.51,4.51,0,0,0-2.87-.59.31.31,0,0,1-.34-.28.32.32,0,0,1,.27-.35,5.17,5.17,0,0,1,4.45,1.64.32.32,0,0,1,0,.45A.31.31,0,0,1,659.14,389.36Z"/><path class="cls-35" d="M659.72,387.66a2.36,2.36,0,0,0-2,.6l1.47,1.36Z"/><path class="cls-31" d="M670.62,384.44l-1.25-.13a2.56,2.56,0,0,0-.76,0l-7.15,1.4a2.15,2.15,0,0,0-1.67,1.64,5.54,5.54,0,0,1-4.57,4.22,1.22,1.22,0,0,0-.94,1.42l.11.59,5.34,1.12,1.31,1.85a2.29,2.29,0,0,0,2.31.94l.27-.07,1.69-.55a3.18,3.18,0,0,0,2.11-2.29l.35-1.42,2.42-.47a1,1,0,0,0,.82-1l.05-3.31,4.15-.81a1.16,1.16,0,0,0,.86-.74l.35-.95L676,383.4Zm-4.16,9.93a2.18,2.18,0,0,1-1.45,1.57l-1.69.55a1.31,1.31,0,0,1-1.47-.5l-.4-.56a.69.69,0,0,1,.42-1.08l4-.79a.52.52,0,0,1,.59.64Z"/><path class="cls-35" d="M651.16,405.91c-.19-2.55-.13-8.08,3.23-12.29a4.89,4.89,0,0,1,5.42,1.14c2.5,2.51,1.18,2.11.65,2.27s-2.86.36-2.62,3a28.33,28.33,0,0,0,.88,4.5,1.24,1.24,0,0,1-.94,1.54l-5.15,1A1.25,1.25,0,0,1,651.16,405.91Z"/><polygon class="cls-35" points="678.61 382.88 678.97 382.32 679.72 382.17 679.81 382.64 678.61 382.88"/><path class="cls-31" d="M653.12,398.49a21.22,21.22,0,0,0-.81,6.31.75.75,0,0,0,.89.7l2.91-.57a.76.76,0,0,0,.59-.91,16.16,16.16,0,0,1-.39-4.4.77.77,0,0,0-.42-.77l-1.72-.84A.74.74,0,0,0,653.12,398.49Z"/><ellipse class="cls-57" cx="654.65" cy="399.51" rx="0.37" ry="0.37" transform="translate(-64.49 133.04) rotate(-11.06)"/><path class="cls-53" d="M587.42,401.92c14.1-4.83,23.71,3.06,45,.24s21.88-2.35,21.88-2.35l.75,4.35s-16,8.11-25.31,9.79-38.07,4.88-38.07,4.88S579.12,404.76,587.42,401.92Z"/><path class="cls-41" d="M654.34,399.8a11.24,11.24,0,0,1,2.6-3c3-2.09,7.47-3.85,8.73-2.57.57.57-3.29,1.45-2.5,3.12,1,2.19-.58,4.46-1.45,5.13-1.16.9-6.63,1.67-6.63,1.67Z"/><path class="cls-39" d="M799.07,437.57s-8.92-1.37-13.24,4.37-2.51,11.32-9.76,11.95-8.5,3.57-7,7.65-7.53,4.22-9.48,9.78-1,15.09,12.82,12.53,18.86-11.11,25.25-8.83,15.45-4.28,12.25-8.33,2-3.6,1.53-12.8S805.16,437.36,799.07,437.57Z"/><path class="cls-53" d="M841.42,477.9s-2.72,19.5-14.61,19.49c-7.8,0-16.86-6.77-16.86-6.77a17.59,17.59,0,0,0,.2-3.92c-1-4.39-3.07-15.88.39-17.7a20,20,0,0,1,4.08,2.66c5.11,4.21,6.32,10.31,11,11.53,4.31,1.13,4.67-4.33,9.72-4Z"/><path class="cls-58" d="M831.78,494.84c-.31,0-.62-.1-.93-.17A2.54,2.54,0,0,1,831.78,494.84Z"/><path class="cls-59" d="M763.27,611.13s-3.3,3.08-2.66,5.27,3.63,3.65,4,6.32,2,4.13,3.47,4.13H775s1.07-1.88-1.51-2.45-3.55-3.71-3.39-6.63a52.52,52.52,0,0,0-.24-6.81l-5.48-1.3Z"/><path class="cls-59" d="M791.24,612.69s-1.19,13.05.26,13.78l18.57,0s0-2.19-3-2.68-8.22-2.27-9.11-6.24S791.24,612.69,791.24,612.69Z"/><path class="cls-53" d="M807.25,502.71,795.62,512,784.52,504h0l-.9-.33s-1.83-.93-2.38-5.35c-.07-.55-.45-5.21-.84-9.92-.41-5.08-.82-10.19-.82-10.19l7.09-10.74c14.88-3.21,23.87,1.57,23.87,1.57s1.64,6.16,3.07,14.19A21.6,21.6,0,0,1,807.25,502.71Z"/><path class="cls-60" d="M806.4,505.34s5.35,17,5.7,22.81-10.23,82.32-10.66,85c-.4,2.52-3.46,4.12-3.46,4.12a4.54,4.54,0,0,1-3.42.27,8.39,8.39,0,0,1-3.67-1.77s-4.17-54.57-1.59-74.07a315.29,315.29,0,0,0,2.61-36.35Z"/><path class="cls-42" d="M783.72,504.83s-8.16,11.19-8.93,18.76S773.6,557.73,772,565.1s-7.58,21.57-7.58,44.57a4.52,4.52,0,0,0,2.53,2,20.59,20.59,0,0,0,2.23.63,3.48,3.48,0,0,0,3.91-1.9c4-8.28,16.86-35,17.52-40.55.47-3.93,4.52-29.9,13.35-45.15,2.12-3.66-1.3-18.21-1.3-18.21Z"/><path class="cls-41" d="M794.8,469.79a2.79,2.79,0,0,1-2.24-3.09c.12-2.4.66-4.71.27-8.13l.5,0,8.36.72.38,5.19C802.32,467.86,802.1,471.93,794.8,469.79Z"/><path class="cls-61" d="M801.69,459.32s.1,2.65.37,5.13c-4.59.39-7.48-3.59-8.73-5.84Z"/><path class="cls-51" d="M793.33,504.4a14.73,14.73,0,0,0-3-7.12c-2.58-3.16-2.12-11.93-4.23-11.93-3.93,0-3.61,15.22.1,18.05A6.68,6.68,0,0,0,793.33,504.4Z"/><path class="cls-41" d="M803.47,461.49s-10.81,1.43-11.57-5.46-2.68-11.34,4.19-12.54,8.5,1.27,9.31,3.51S806.26,460.95,803.47,461.49Z"/><path class="cls-39" d="M801,442.75s-2.08,8.42-6.49,10.14-6.53.7-6.53.7a13.37,13.37,0,0,0,3.36-8.26S798.35,439.16,801,442.75Z"/><path class="cls-39" d="M800.34,443.49a6.73,6.73,0,0,1,3.38,2.12,11.35,11.35,0,0,1,2.16,6.16s1.63-5.75-1.22-8.57C801.63,440.21,800.34,443.49,800.34,443.49Z"/><path class="cls-60" d="M807.25,502.71a11.06,11.06,0,0,1-6.42,1.82c-5.1.1-17.73-1.33-17.73-1.33a10.88,10.88,0,0,0-.54,3.29s15.43,4,24.37.58A5.88,5.88,0,0,0,807.25,502.71Z"/><path class="cls-36" d="M799.73,506.34a2.35,2.35,0,1,1,2.33,2.69A2.53,2.53,0,0,1,799.73,506.34Zm.77,0a1.59,1.59,0,1,0,1.56-1.9A1.76,1.76,0,0,0,800.5,506.34Z"/><polygon class="cls-36" points="862.89 525.01 800.9 530.36 798.14 496.97 860.13 491.63 862.89 525.01"/><polygon class="cls-35" points="863.35 530.67 801.36 536.02 798.6 502.63 860.59 497.28 863.35 530.67"/><polygon class="cls-35" points="804.54 502.41 800.55 502.75 803.23 496.53 807.22 496.19 804.54 502.41"/><polygon class="cls-35" points="813.09 501.67 809.1 502.01 811.78 495.8 815.77 495.45 813.09 501.67"/><polygon class="cls-35" points="821.64 500.93 817.64 501.27 820.33 495.06 824.32 494.71 821.64 500.93"/><polygon class="cls-35" points="830.18 500.19 826.19 500.54 828.88 494.32 832.87 493.98 830.18 500.19"/><polygon class="cls-35" points="838.73 499.46 834.74 499.8 837.43 493.58 841.42 493.24 838.73 499.46"/><polygon class="cls-35" points="847.28 498.72 843.29 499.06 845.98 492.85 849.97 492.5 847.28 498.72"/><polygon class="cls-35" points="855.83 497.98 851.84 498.32 854.52 492.11 858.52 491.76 855.83 497.98"/><polygon class="cls-36" points="855.35 472.26 798.04 496.98 795.88 491.75 853.19 467.03 855.35 472.26"/><polygon class="cls-39" points="803.5 494.62 799.81 496.21 800.59 489.72 804.28 488.13 803.5 494.62"/><polygon class="cls-39" points="811.41 491.21 807.72 492.8 808.49 486.31 812.18 484.72 811.41 491.21"/><polygon class="cls-39" points="819.31 487.8 815.62 489.39 816.39 482.9 820.09 481.31 819.31 487.8"/><polygon class="cls-39" points="827.21 484.39 823.52 485.99 824.3 479.49 827.99 477.9 827.21 484.39"/><polygon class="cls-39" points="835.12 480.99 831.43 482.58 832.2 476.08 835.89 474.49 835.12 480.99"/><polygon class="cls-39" points="843.02 477.58 839.33 479.17 840.11 472.67 843.79 471.08 843.02 477.58"/><polygon class="cls-39" points="850.92 474.17 847.23 475.76 848.01 469.26 851.7 467.67 850.92 474.17"/><polygon class="cls-35" points="803.5 494.62 803.61 496.52 800.55 502.75 798.6 502.63 795.88 491.75 802.55 488.87 803.5 494.62"/><path class="cls-41" d="M794.44,512s3.15,0,3.78-.6,3.72-2,4.7-1.15c1.31,1.08,3.06,3.38,2.61,4.17s-2.42-.55-4.38.63c-1,.6-2.9,2.09-4.42,1.54s-3.38-1.46-3.38-1.46Z"/><path class="cls-41" d="M796.38,511.86a32.15,32.15,0,0,0,2.88-2.87c.74-1,1-.43.89.13a4.3,4.3,0,0,1-1.29,2.17C798,512.19,796.23,512.42,796.38,511.86Z"/><path class="cls-53" d="M786.66,467.45a11.77,11.77,0,0,0-9.39,6.11c-3.41,6-6.18,22.06-3.63,27.72s9.63,12.35,19.71,13.83l1.1-3.13a23.32,23.32,0,0,0-4.07-7.57c-3.2-4.16-6.36-9.4-5.86-11.9S786.66,467.45,786.66,467.45Z"/><path class="cls-41" d="M834.74,474.49a2,2,0,0,0,1.93,2c2.06.32,4.13-2.77,3.43-3.84S835.86,471.94,834.74,474.49Z"/><path class="cls-31" d="M381.53,627.18h.08c.49,0,.88-.66.87-1.47l-1.32-94.4-3.88-.75,3.31,95.16C380.62,626.54,381,627.18,381.53,627.18Z"/><path class="cls-31" d="M212.42,627.18h-.08c-.49,0-.88-.66-.87-1.47l1.32-94.4,3.88-.75-3.31,95.16C213.33,626.54,212.92,627.18,212.42,627.18Z"/><rect class="cls-31" x="200.68" y="527.35" width="190.78" height="5.7" rx="2.64" ry="2.64"/><path class="cls-62" d="M349.41,485.4l3.25,39.53s.34,2.4-1.4,2.4H337s2.16-.5,2.13-1.62c0-1.32-3.8-40.68-3.8-40.68Z"/><path class="cls-62" d="M336.06,526.61c.56,0,11.46,0,14.26,0,1.22,0,1.43-1.11,1.44-1.81a3.6,3.6,0,0,0,0-.59l-.08-1-.22-2.62-.19-2.31-.24-3-.21-2.51-2.31-28.09-14.1-.37s1.59,16.47,2.71,28.46c.13,1.34.24,2.62.36,3.81l.1,1.12c.1,1.13.2,2.18.28,3.1l.12,1.35c.14,1.62.23,2.65.23,2.85a1.68,1.68,0,0,1,0,.32C337.91,526.57,336.27,526.61,336.06,526.61Z"/><polygon class="cls-63" points="383.65 463.89 375.73 496.42 374.64 500.88 370.95 516.02 302.35 516.02 315.96 463.89 383.65 463.89"/><polygon class="cls-64" points="383.65 463.89 384.75 464.27 372.41 517.16 370.95 516.02 383.65 463.89"/><polygon class="cls-62" points="372.41 517.16 304.24 517.16 302.35 516.02 370.95 516.02 372.41 517.16"/><rect class="cls-62" x="333.71" y="526.63" width="14.76" height="0.72"/><polygon class="cls-63" points="305.68 506.42 316.81 464.58 383.76 464.58 383.76 463.89 315.96 463.89 304.87 506.33 305.68 506.42"/><polygon class="cls-62" points="337.46 517.16 337.54 517.7 351.42 520.57 351.23 518.25 351.14 517.16 337.46 517.16"/><path class="cls-62" d="M336.06,526.61c.56,0,11.46,0,14.26,0,1.22,0,1.43-1.11,1.44-1.81l-13.82-2.65c.14,1.62.23,2.65.23,2.85a1.68,1.68,0,0,1,0,.32C337.91,526.57,336.27,526.61,336.06,526.61Z"/><g class="cls-65"><polygon class="cls-62" points="340.82 505.47 370.95 516.02 374.64 500.88 340.82 505.47"/></g><polygon class="cls-39" points="383.65 463.89 315.96 463.89 304.98 505.79 373.79 505.79 383.65 463.89"/><polygon class="cls-66" points="308.17 503.98 371.55 503.98 378.73 474.77 379.28 472.53 379.75 470.62 380.85 466.14 318.38 466.14 317.18 470.62 316.66 472.53 316.06 474.77 308.17 503.98"/><rect class="cls-39" x="361.82" y="469.39" width="15.45" height="0.53"/><rect class="cls-39" x="361.21" y="470.9" width="15.45" height="0.53"/><rect class="cls-39" x="360.76" y="472.37" width="15.45" height="0.53"/><path class="cls-67" d="M303.86,616.73s.61,9.72,2.45,9.86c.25,0,9.34,0,9.34,0l11.61-.09a3.82,3.82,0,0,0-3.48-3.45c-3.4-.6-9.08-3-11.15-7.6C310.47,610.62,303.86,616.73,303.86,616.73Z"/><path class="cls-39" d="M270.63,536.76c-.44.38-12.27,13.47-11.3,23.52a5.72,5.72,0,0,0,5.68,5.17h14.41s14.7,2.68,15,5.93,3.36,20.73,9.32,45.59c0,0,4.39,1.54,7.06.44,3.52-1.46,4-3,4-3s-3.55-55.65-6.36-59.57-31.7-15.56-41.06-16.72S270.63,536.76,270.63,536.76Z"/><path class="cls-41" d="M354.17,522.87s8.36-2,10.5,0a10.62,10.62,0,0,1,2.82,4.47H354.17Z"/><path class="cls-39" d="M324.21,616.73s.61,9.72,2.45,9.86c.24,0,9.34,0,9.34,0l11.61-.09a3.82,3.82,0,0,0-3.48-3.45c-3.4-.6-9.08-3-11.15-7.6C330.82,610.62,324.21,616.73,324.21,616.73Z"/><path class="cls-31" d="M259.7,536.76c-.34.29-2.9,7.32-4.6,15.31a11,11,0,0,0,10.54,13.38h33.51s14.7,2.68,15,5.93,3.36,20.73,9.32,45.59c0,0,4.41,1.18,7.85-.32a9.78,9.78,0,0,0,3.27-2.72s-3.58-55.18-6.39-59.1-31.7-15.56-41.06-16.72S259.7,536.76,259.7,536.76Z"/><path class="cls-41" d="M278.27,487l5.18,5.08h8.83c0-.73,0-3.75-.05-6.49,0-.16,0-.32,0-.48,0-.61,0-1.2,0-1.73,0-1.51,0-2.6,0-2.6l-2.27-1.59-5-3.53-2.73-1.9s-.23,2.54-.26,2.9A21.38,21.38,0,0,1,278.27,487Z"/><path class="cls-68" d="M291.11,486.08c-.17-.07-9.72-4.45-10.84-4.07s-2.51,3.86-2.51,3.86l16.82,3.88S293.26,487,291.11,486.08Z"/><path class="cls-69" d="M249.79,515.33c1.82-11.47,9.51-20,12.79-23.26,2.21-3.39,15.18-6.19,15.18-6.19l16.82,3.88a21.36,21.36,0,0,1,14.83,10.08c3.31,5.59,12.78,18.37,19,18.76s25.75,4.27,25.75,4.27v4.47l-29.78,1.27a5,5,0,0,1-1.08-.09c-2.56-.49-13.55-2.72-19-5.63-.87,14.37-1.9,36.31-6.82,39.8-5.2,3.69-41.74,4.18-45.61-1.44-2-2.87.45-19.9,3.48-36.31C251.57,523.12,249,520.14,249.79,515.33Z"/><path class="cls-70" d="M283.55,478.67l.45.29a35.92,35.92,0,0,0,8.21,4.43c0-1.51,0-2.6,0-2.6l-2.27-1.59Z"/><path class="cls-41" d="M295.27,480.86s-13.59,1.64-14.46-7-3.21-14.28,5.43-15.69,10.66,1.71,11.64,4.53S298.78,480.21,295.27,480.86Z"/><path class="cls-39" d="M297.52,461.79s-2.56,9.39-4.42,8.61-3.55-1.43-3.8,1.51,1.83,6.77-4.22,6.14-11.75-18-9.57-20.62C281.8,449.76,306.26,452.64,297.52,461.79Z"/><path class="cls-71" d="M235.31,559.52h71.83a0,0,0,0,1,0,0v7.79a0,0,0,0,1,0,0h-64.6a7.23,7.23,0,0,1-7.23-7.23v-.57A0,0,0,0,1,235.31,559.52Z"/><rect class="cls-42" x="260.93" y="559.52" width="57.68" height="7.79" rx="3.61" ry="3.61"/><polygon class="cls-31" points="272.87 623.66 268.53 623.66 267.31 567.32 273.94 567.32 272.87 623.66"/><polygon class="cls-31" points="291.7 623.66 249.55 623.66 249.55 619.77 271.03 617.79 291.7 619.77 291.7 623.66"/><ellipse class="cls-31" cx="248.92" cy="623.05" rx="3.47" ry="3.54"/><ellipse class="cls-31" cx="291.08" cy="623.05" rx="3.47" ry="3.54"/><path class="cls-31" d="M247.44,567.31h46.37a0,0,0,0,1,0,0v.27a3.43,3.43,0,0,1-3.43,3.43H250.87a3.43,3.43,0,0,1-3.43-3.43v-.27A0,0,0,0,1,247.44,567.31Z"/><path class="cls-42" d="M242,567.31a3.34,3.34,0,0,1-3.3-3.37V512.06c0-9.72,6.22-17.6,13.9-17.6H284c7.68,0,13.9,7.88,13.9,17.6v55.26Z"/><path class="cls-72" d="M241.33,567.31a6.08,6.08,0,0,1-6-6.15V512.06c0-9.72,6.22-17.6,13.9-17.6h31.43c7.68,0,13.9,7.88,13.9,17.6v55.26Z"/><rect class="cls-35" x="158.95" y="625.7" width="932.62" height="2.96" rx="1.37" ry="1.37"/><ellipse class="cls-39" cx="531.66" cy="568.17" rx="8.18" ry="8.35"/><rect class="cls-39" x="530.15" y="574.76" width="5.06" height="42.49"/><polygon class="cls-40" points="579.99 558.51 547.47 565.48 545.11 554 566.15 549.49 579.99 558.51"/><polygon class="cls-44" points="512.3 538.49 529.99 534.7 529.37 531.68 511.68 535.47 512.3 538.49"/><polygon class="cls-45" points="573.47 526.78 579.99 558.51 561.52 554.45 558.73 540.87 573.47 526.78"/><polygon class="cls-40" points="541.64 533.61 573.47 526.78 559.7 540.66 543.79 544.07 541.64 533.61"/><polygon class="cls-40" points="527.41 570.47 546.57 566.36 535.69 562.12 526.11 564.17 527.41 570.47"/><path class="cls-39" d="M514.25,577.22l5-1.06a.59.59,0,0,0,.45-.7l-.45-2.19-6.08,1.3.45,2.19A.58.58,0,0,0,514.25,577.22Z"/><path class="cls-39" d="M538.81,563.62,558,559.5a12.45,12.45,0,0,0,9.4-14.7h0A12.2,12.2,0,0,0,553,535.2l-19.18,4.11Z"/><path class="cls-44" d="M487.85,548.49l5.27,25.62c.52,2.51,3.47,4,6.57,3.35l44.88-9.63c3.1-.66,5.21-3.26,4.7-5.76L544,536.45c-.51-2.5-3.47-4-6.57-3.35l-44.88,9.63C489.44,543.39,487.33,546,487.85,548.49Z"/><path class="cls-39" d="M498.24,577.76l15-3.22a4.39,4.39,0,0,0,3.31-5.19L511.2,543.2a4.3,4.3,0,0,0-5.08-3.39l-15,3.22a4.39,4.39,0,0,0-3.31,5.19l5.38,26.16A4.3,4.3,0,0,0,498.24,577.76Z"/><path class="cls-39" d="M510.29,535.77l28.18-6a4.15,4.15,0,0,0,3.13-4.9l-.51-2.48a4.07,4.07,0,0,0-4.8-3.2l-28.18,6a4.15,4.15,0,0,0-3.13,4.9l.51,2.48A4.07,4.07,0,0,0,510.29,535.77Z"/><path class="cls-44" d="M509.56,535.93l4.7-1a3.39,3.39,0,0,0,2.56-4l-.81-4a3.32,3.32,0,0,0-3.92-2.61l-4.7,1a3.39,3.39,0,0,0-2.56,4l.81,4A3.32,3.32,0,0,0,509.56,535.93Z"/><polygon class="cls-39" points="518.12 537.24 535.8 533.45 535.18 530.43 517.5 534.22 518.12 537.24"/><ellipse class="cls-39" cx="503.41" cy="621.94" rx="3.82" ry="3.9"/><ellipse class="cls-39" cx="565.54" cy="621.94" rx="3.82" ry="3.9"/><rect class="cls-44" x="495.35" y="611.97" width="77" height="8.59"/><ellipse class="cls-36" cx="432.19" cy="229.44" rx="1.45" ry="1.48"/><ellipse class="cls-36" cx="658.87" cy="229.44" rx="1.45" ry="1.48"/><ellipse class="cls-36" cx="392.74" cy="211.86" rx="1.45" ry="1.48"/><ellipse class="cls-36" cx="392.74" cy="245.53" rx="1.45" ry="1.48"/><ellipse class="cls-36" cx="462.82" cy="211.86" rx="1.45" ry="1.48"/><ellipse class="cls-36" cx="462.82" cy="245.53" rx="1.45" ry="1.48"/><ellipse class="cls-36" cx="612.35" cy="211.86" rx="1.45" ry="1.48"/><ellipse class="cls-36" cx="612.35" cy="245.53" rx="1.45" ry="1.48"/><ellipse class="cls-36" cx="704.85" cy="211.86" rx="1.45" ry="1.48"/><ellipse class="cls-36" cx="704.85" cy="245.53" rx="1.45" ry="1.48"/><ellipse class="cls-36" cx="741.56" cy="229.44" rx="1.45" ry="1.48"/><ellipse class="cls-36" cx="787.54" cy="211.86" rx="1.45" ry="1.48"/><ellipse class="cls-36" cx="787.54" cy="245.53" rx="1.45" ry="1.48"/><path class="cls-51" d="M325,477.78c3.17-1.09,5.33.69,10.12.05s4.92-.53,4.92-.53l.17,1a28.88,28.88,0,0,1-5.69,2.2c-2.09.38-8.07,1-8.07,1S323.18,478.42,325,477.78Z"/><path class="cls-52" d="M355.53,486.47l-2.3,2.41a1,1,0,0,1-.9.18,14.35,14.35,0,0,1-2.11-.69s0-1.88.62-1.52c0,0,1.09.08,1.11.09.72.34,1.88-.4,2.36-.77a.85.85,0,0,1,1.18.05A.16.16,0,0,1,355.53,486.47Z"/><path class="cls-35" d="M330.65,486.36s5-1.88,9.47-3.33,4.93,5.44,2.86,4.11a1.86,1.86,0,0,0-1.74.24c-1.52,1-3.72,2.23-4.69,2.86S333.9,492,333.9,492Z"/><path class="cls-35" d="M342.27,483s7.59,3.17,10.15,4a2.92,2.92,0,0,1-.89,2s-6.58-.76-8.19-1.66C341,486.06,340.25,483.45,342.27,483Z"/><path class="cls-35" d="M351.07,498.92l-3,2.15a.2.2,0,0,1-.23,0A5.22,5.22,0,0,1,347,500h0a.21.21,0,0,1,0-.16c.08-.34.43-1.53,1-1.08l.06,0a2.25,2.25,0,0,0,2.19-.24.82.82,0,0,1,.84.13A.15.15,0,0,1,351.07,498.92Z"/><path class="cls-31" d="M330.94,486.31a52.47,52.47,0,0,1,9.24,5c3.79,2.77.24,4.23-2.08,3.43-1.55-.54-4.33-.42-6.67-.82-1.12-.19-3.35-.81-3.61-1.58C327.33,490.9,330.94,486.31,330.94,486.31Z"/><path class="cls-41" d="M327.55,479.6c-1.51,0-2.85-2.22-2.85-2.22s.93-.37,1.41-2.32l.8,1.2.55.82a9.35,9.35,0,0,1-.37.94l-.16.35a.28.28,0,0,0,0,.3A3.49,3.49,0,0,1,327.55,479.6Z"/><path class="cls-53" d="M329.44,481.06a20.94,20.94,0,0,1,.71,3.18q.08.53.15,1.13c0,.19,0,.58,1.17,1.18.3.15-.55.78-.07,1,.82.31-4,4-4.18,4-3.87-.42-3.9-6.73-3.93-7.14-.23-3,.17-5.71,1.28-6.7a3.91,3.91,0,0,1,1.38,0,5.74,5.74,0,0,1,1.18.43,3.52,3.52,0,0,1,.84.49A5.85,5.85,0,0,1,329.44,481.06Z"/><path class="cls-54" d="M327.7,476.36a2.9,2.9,0,0,1-.27.83,4.73,4.73,0,0,1-1.61-1.15,2.62,2.62,0,0,1,1.1.23Z"/><path class="cls-41" d="M328.57,476.58s-2.54.68-2.93-.94-1-2.62.62-3.13,2.07,0,2.33.54S329.22,476.36,328.57,476.58Z"/><path class="cls-31" d="M325.81,476s.35-.79.11-1.08-.23-.77.07-.71.34.3.45.15.06-.75.93-.87,1.26.15,1.66-.07.36-.86.36-.86a.72.72,0,0,1-.27.33s.6-1-.25-1.6-1.62-.07-2.07,0c-1,.16-1.58.31-1.92,1A3.3,3.3,0,0,0,325.81,476Z"/><path class="cls-51" d="M325,476.72a2,2,0,0,0-.5,1,8.74,8.74,0,0,1,3.11.52,6,6,0,0,0-.52-.57A6.74,6.74,0,0,0,325,476.72Z"/><path class="cls-55" d="M326.77,491.38a11.06,11.06,0,0,0,3.84-5.4l1.34.76s-.77,4.45-4.13,5.61Z"/><path class="cls-31" d="M341.13,492.13s5,4.64,7.18,6.41a3,3,0,0,1-1.6,1.65s-7.68-4-8.65-5.67S339,491.8,341.13,492.13Z"/><path class="cls-56" d="M329.17,489.57A5.75,5.75,0,0,1,331,490a6.93,6.93,0,0,1,.4,2.66,1.51,1.51,0,0,1-1.11.1c-.12-.13-.2-2.09-.42-2.1s-.78.1-.89-.17S328.7,489.62,329.17,489.57Z"/><path class="cls-51" d="M325.76,481.62a9.92,9.92,0,0,0,3.94.35s.18.66.3,1.35S326.61,482.76,325.76,481.62Z"/><polygon class="cls-31" points="346.18 474.58 343.81 475.05 343.74 474.69 346.11 474.23 346.18 474.58"/><polygon class="cls-31" points="346.02 474.83 343.85 475.26 343.82 475.12 346 474.7 346.02 474.83"/><path class="cls-35" d="M342.09,476.82s0,.18-.1.23l-.25-.26Z"/><path class="cls-35" d="M342.27,477.2h0a.68.68,0,0,1-.5-.3.06.06,0,0,1,0-.09.06.06,0,0,1,.08,0,.57.57,0,0,0,.4.24.06.06,0,0,1,0,.12Z"/><path class="cls-35" d="M341.16,475.8a.07.07,0,0,1-.07,0h0a1,1,0,0,0-.23-.19,1,1,0,0,0-.64-.13.07.07,0,0,1-.08-.06.07.07,0,0,1,.06-.08,1.16,1.16,0,0,1,1,.37.07.07,0,0,1,0,.1Z"/><path class="cls-35" d="M341.29,475.42a.53.53,0,0,0-.44.13l.33.31Z"/><path class="cls-31" d="M343.74,474.69l-.28,0h-.17l-1.61.31a.48.48,0,0,0-.37.37,1.25,1.25,0,0,1-1,.95.27.27,0,0,0-.21.32l0,.13,1.2.25.29.42a.51.51,0,0,0,.52.21l.06,0,.38-.12A.71.71,0,0,0,343,477l.08-.32.54-.11a.23.23,0,0,0,.18-.22v-.74l.93-.18a.26.26,0,0,0,.19-.17L345,475l-.11-.57Zm-.93,2.23a.49.49,0,0,1-.33.35l-.38.12a.29.29,0,0,1-.33-.11l-.09-.13a.16.16,0,0,1,.09-.24l.91-.18a.12.12,0,0,1,.13.14Z"/><path class="cls-35" d="M339.37,479.52a4.06,4.06,0,0,1,.73-2.76,1.1,1.1,0,0,1,1.22.26c.56.56.27.47.15.51s-.64.08-.59.67a6.36,6.36,0,0,0,.2,1,.28.28,0,0,1-.21.35l-1.16.23A.28.28,0,0,1,339.37,479.52Z"/><polygon class="cls-35" points="345.54 474.34 345.62 474.22 345.79 474.18 345.81 474.29 345.54 474.34"/><path class="cls-31" d="M339.81,477.85a4.77,4.77,0,0,0-.18,1.42.17.17,0,0,0,.2.16l.65-.13a.17.17,0,0,0,.13-.2,3.62,3.62,0,0,1-.09-1,.17.17,0,0,0-.09-.17l-.39-.19A.17.17,0,0,0,339.81,477.85Z"/><circle class="cls-57" cx="340.16" cy="478.08" r="0.08" transform="translate(-84.96 73.67) rotate(-11)"/><path class="cls-53" d="M325,478.62c3.17-1.09,5.33.69,10.12.05s4.92-.53,4.92-.53l.17,1a28.86,28.86,0,0,1-5.69,2.2c-2.09.38-8.55,1.1-8.55,1.1S323.18,479.26,325,478.62Z"/><path class="cls-41" d="M340.08,478.14a2.53,2.53,0,0,1,.58-.67c.66-.47,1.68-.87,2-.58.13.13-.74.32-.56.7a1,1,0,0,1-.33,1.15,5.86,5.86,0,0,1-1.49.38Z"/></g></g></svg>