<svg width="90" height="35" viewBox="0 0 90 35" fill="none" xmlns="http://www.w3.org/2000/svg">
<path d="M32.153 20.2379C31.8857 20.1351 31.572 20.2593 31.4628 20.4959C30.0885 23.4713 28.5291 24.83 26.5018 24.7903C25.0183 24.7612 24.2165 23.9529 24.2606 22.6397C24.2769 22.1558 24.3524 21.7177 24.5208 21.1177C27.26 20.4776 30.9322 18.9789 30.9135 16.5372C30.9051 15.4315 30.0354 14.8384 28.7994 14.8466C25.8825 14.8659 23.3202 19.6733 23.2221 22.6235C23.1593 24.5121 24.4327 25.7715 26.4844 25.7579C28.9812 25.7414 30.8557 24.2116 32.43 20.8811C32.4614 20.8144 32.4785 20.7655 32.478 20.6964C32.4765 20.5123 32.3575 20.3163 32.153 20.2379V20.2379ZM24.908 20.0093C25.6854 18.2305 27.101 15.8253 28.8067 15.8141C29.3506 15.8105 29.8707 15.9221 29.8753 16.544C29.8884 18.2488 26.9551 19.397 24.908 20.0093V20.0093ZM41.7446 20.1745C41.4672 20.0592 41.1802 20.175 41.0543 20.4324C39.5639 23.4804 38.6889 24.7096 37.5271 24.7174C37.0079 24.7208 36.7832 24.4228 36.7781 23.7549C36.7711 22.8334 37.183 21.7481 37.6677 20.4779L38.0313 19.5079C38.6849 17.6837 39.1404 16.4809 39.5574 15.3974C39.6736 15.0955 39.4289 14.7533 39.0581 14.7556C38.8356 14.7572 38.6451 14.8759 38.5661 15.0815C38.1119 16.2616 37.5241 17.8296 36.9188 19.5153L32.9142 19.5417L34.465 15.4311C34.5791 15.1284 34.3365 14.7868 33.9657 14.7893C33.7432 14.7909 33.5529 14.9096 33.4739 15.1152C33.0198 16.2953 32.4317 17.8633 31.8018 19.5491L31.463 20.5189L29.7427 25.0913C29.5101 25.7105 30.5003 26.0131 30.7336 25.3843C31.4795 23.3735 32.0663 21.8049 32.5509 20.5346C33.8858 20.5259 35.2452 20.4938 36.5555 20.4852C36.1193 21.6398 35.7317 22.7021 35.7399 23.7617C35.7483 24.8904 36.3479 25.6926 37.5344 25.6848C39.2154 25.6737 40.3742 24.3098 42.0214 20.8176C42.1433 20.5591 42.0235 20.2901 41.7446 20.1745V20.1745ZM49.5808 20.1226C49.3134 20.0199 48.9998 20.1441 48.8906 20.3805C47.5162 23.3561 45.9569 24.7147 43.9296 24.6749C42.4461 24.6459 41.6443 23.8375 41.6884 22.5245C41.7047 22.0404 41.7802 21.6023 41.9486 21.0023C44.6878 20.3622 48.36 18.8637 48.3413 16.4219C48.3329 15.3163 47.4632 14.7231 46.2272 14.7312C43.3103 14.7507 40.7479 19.5581 40.6499 22.5082C40.5871 24.3968 41.8605 25.6563 43.9122 25.6427C46.409 25.6262 48.2833 24.0963 49.8578 20.7658C49.9752 20.5168 49.8514 20.2265 49.5808 20.1226V20.1226ZM42.3358 19.8941C43.1132 18.1151 44.5288 15.7101 46.2345 15.6989C46.7784 15.6953 47.2983 15.8069 47.3031 16.4288C47.316 18.1334 44.3829 19.2816 42.3358 19.8941V19.8941ZM62.3856 19.9919C62.1878 19.9931 62 20.1129 61.9182 20.2944C61.1248 22.0538 60.3079 23.0923 59.0718 23.1005C58.7999 23.1023 58.5279 23.0811 58.2797 22.9445C59.4278 21.1402 60.2007 18.7624 60.1869 16.9426C60.1742 15.284 59.6004 14.5967 58.0925 14.6067C57.5734 14.6102 57.0804 14.7978 56.589 15.1926C57.0733 13.8533 57.5511 12.5579 57.9696 11.4516C58.084 11.1492 57.841 10.8075 57.4454 10.8102C57.2478 10.8115 57.0462 10.9265 56.9782 11.1126L55.5009 15.1538C55.1031 14.8569 54.5826 14.6343 53.89 14.6345C50.9977 14.6351 48.3431 19.9005 48.369 23.2866C48.3815 24.945 48.9554 25.6323 50.4633 25.6223C50.9082 25.6194 51.3521 25.4782 51.7949 25.1758C51.1404 26.8849 50.4642 28.6868 49.7594 30.5798C49.6646 30.8344 49.8092 31.1196 50.0856 31.1995C50.3546 31.2774 50.6588 31.1055 50.7505 30.8726C51.3136 29.4426 52.0833 27.3393 52.9554 25.0069C53.3784 25.3497 53.9238 25.5901 54.6658 25.5946C55.7534 25.6009 56.8107 24.8431 57.6922 23.7316C58.1394 24.0052 58.6095 24.0712 59.1534 24.0676C60.6861 24.0574 61.8939 22.9456 62.8852 20.6796C63.0359 20.3349 62.7069 19.9896 62.3856 19.9919V19.9919ZM50.4558 24.6318C49.7141 24.6366 49.439 24.2238 49.4316 23.2335C49.4103 20.4461 51.7962 15.6159 53.8727 15.6022C54.4165 15.5986 54.8385 15.8262 55.1137 16.239C54.532 17.7862 53.9113 19.6847 53.0544 21.7582C52.2111 23.799 51.2962 24.6262 50.4558 24.6318V24.6318ZM54.683 24.6269C54.0904 24.5992 53.618 24.3575 53.3918 23.8754C53.6581 23.1364 53.9095 22.3923 54.2153 21.6353L54.7006 20.4342C56.0752 17.0321 57.0124 15.6044 58.0999 15.5972C58.8416 15.5924 58.9467 16.019 59.1242 16.9957C59.4339 18.6988 57.2189 24.7452 54.683 24.6269ZM72.5459 19.9706C72.2809 19.8496 71.9706 19.9812 71.8556 20.2287C70.48 23.1908 69.5149 24.5057 68.3284 24.5135C67.8094 24.517 67.5845 24.2191 67.5795 23.551C67.5747 22.9291 68.1253 21.0582 69.0503 18.6808C69.4103 17.7557 69.8731 16.5094 70.408 15.1703C70.528 14.8696 70.2795 14.5262 69.884 14.5286C69.6862 14.53 69.4878 14.6461 69.4166 14.8314C68.1546 18.1101 67.2497 20.5539 66.407 22.1767C65.5931 23.7438 64.5956 24.5382 63.582 24.545C62.6921 24.5508 62.2188 24.0703 62.2116 23.1259C62.2046 22.2044 62.4706 21.718 65.0437 15.2058C65.1626 14.9047 64.9647 14.5612 64.5444 14.564C64.3466 14.5654 64.1516 14.6826 64.077 14.8666C61.7494 20.6185 61.1646 21.981 61.1734 23.1327C61.1853 24.699 62.0075 25.5229 63.5648 25.5126C64.7714 25.5047 65.8757 24.7502 66.5434 23.8573C66.6995 24.8699 67.2481 25.4882 68.3357 25.4811C69.992 25.4702 71.2236 24.0592 72.7979 20.6141C72.9113 20.3657 72.8111 20.0918 72.5459 19.9706V19.9706ZM80.3574 19.9191C80.09 19.8162 79.7766 19.9405 79.6671 20.177C78.4388 22.8291 76.931 24.4567 74.5332 24.4725C73.3466 24.4804 72.5488 23.6102 72.539 22.3204C72.518 19.5563 75.1323 15.5076 77.0605 15.4949C77.8022 15.49 78.1264 15.8794 78.1327 16.6856C78.1397 17.6071 77.5493 18.0025 77.5517 18.3251C77.5541 18.6245 77.7531 18.7845 78.0744 18.7823C78.643 18.7785 79.1787 17.7154 79.1708 16.6787C79.1611 15.4118 78.4622 14.5181 77.0531 14.5274C74.5317 14.544 71.4733 18.7107 71.5007 22.3041C71.515 24.1931 72.7113 25.4522 74.5158 25.4402C77.3833 25.4212 79.1573 23.7077 80.6342 20.5622C80.6655 20.4955 80.6828 20.4467 80.6823 20.3776C80.681 20.1933 80.5618 19.9975 80.3574 19.9191V19.9191Z" fill="#FEFEFE"/>
<path d="M32.0825 20.3976C31.9311 20.3395 31.7445 20.395 31.6567 20.5234C31.2939 21.5639 30.8707 22.6157 30.4811 23.651C31.0979 22.9466 31.668 22.0426 32.2042 20.9279C32.2651 20.768 32.3423 20.671 32.2308 20.5142C32.195 20.4636 32.1445 20.4213 32.0825 20.3976ZM31.8258 20.0397C32.1362 19.9873 32.4038 20.116 32.5657 20.3618C33.8955 20.3532 35.225 20.3213 36.5548 20.3126C36.6839 20.3122 36.7723 20.431 36.7302 20.5426C36.3448 21.5652 35.9141 22.6803 35.9253 23.7755C35.9369 24.7337 36.4059 25.5195 37.5336 25.5122C38.3155 25.5071 38.9813 25.1818 39.6489 24.4449C39.9343 24.1297 40.22 23.7403 40.5142 23.2702C40.4365 22.8136 40.456 22.355 40.5151 21.8977C40.0761 22.7201 39.6877 23.3527 39.3164 23.8178C38.728 24.5548 38.1724 24.8857 37.5278 24.89C36.7775 24.8951 36.5972 24.3539 36.5929 23.7556C36.5893 23.277 36.6932 22.7602 36.8598 22.2011C37.0253 21.6463 37.25 21.0561 37.4926 20.4203C37.9046 19.3215 38.2977 18.2175 38.7079 17.1181C38.9501 16.4683 39.1704 15.8913 39.3829 15.3392C39.5163 14.9917 38.93 14.7089 38.735 15.154C38.171 16.6204 37.6252 18.0931 37.0946 19.5702C37.0679 19.6448 36.9914 19.6911 36.9109 19.6879L32.9149 19.7144C32.7861 19.7148 32.6978 19.5964 32.7392 19.4849L34.2898 15.3742C34.4218 15.0168 33.8343 14.75 33.6428 15.1877C33.078 16.6559 32.5301 18.1301 31.9783 19.6026L31.8258 20.0397V20.0397ZM31.2921 20.4275L31.3153 20.3822C31.7024 19.2747 32.1161 18.1863 32.5286 17.0857C32.8032 16.3567 33.0608 15.6776 33.2941 15.0708C33.4124 14.715 33.8343 14.5324 34.2059 14.6536C34.5691 14.7726 34.7681 15.15 34.6401 15.4886L33.1765 19.3673L36.7848 19.3434C37.3033 17.9034 37.8363 16.4671 38.3863 15.0371C38.5611 14.512 39.3166 14.4305 39.6428 14.8635C39.7727 15.0362 39.8081 15.2569 39.7318 15.4556C39.2069 16.8198 38.6996 18.1881 38.2072 19.5628C38.0844 19.883 37.9564 20.2128 37.8429 20.5354C37.6009 21.1696 37.3769 21.7578 37.2173 22.2932C37.0588 22.8245 36.96 23.3117 36.9634 23.7542C36.9664 24.1463 37.013 24.548 37.5264 24.5447C38.043 24.5414 38.5066 24.2534 39.0185 23.612C39.5425 22.9557 40.1081 21.9417 40.8147 20.5052C41.1647 19.3132 41.7562 18.0613 42.5036 17.019C43.5176 15.6051 44.8261 14.5679 46.2264 14.5586C47.4901 14.5503 48.5171 15.1593 48.5266 16.4212C48.5473 19.1221 44.4008 20.5937 42.1007 21.1449C41.9753 21.608 41.8897 22.0512 41.8736 22.5299C41.839 23.7984 42.5911 24.468 43.934 24.5023C44.8968 24.521 45.7507 24.2062 46.5285 23.5319C47.2814 22.8792 47.966 21.8902 48.6111 20.5435C48.9077 19.527 49.3452 18.5016 49.8813 17.5925C50.8295 15.9838 52.6545 13.8507 54.8707 14.6209C55.0671 14.6892 55.2449 14.7764 55.4063 14.876L56.8023 11.0571C56.8941 10.8056 57.1609 10.64 57.4429 10.6375C57.944 10.6339 58.3011 11.0593 58.1447 11.5092C57.7389 12.583 57.3447 13.6599 56.95 14.7372C57.3026 14.545 57.6804 14.4369 58.0917 14.4341C59.8986 14.4224 60.3604 15.4179 60.3721 16.9419C60.3866 18.8796 59.5684 21.1926 58.5426 22.8673C58.7117 22.9205 58.894 22.929 59.0711 22.9279C59.6308 22.9242 60.1001 22.6828 60.5221 22.2398C60.9437 21.7973 61.3205 21.1546 61.6923 20.3468C62.0764 19.3167 62.6468 17.9082 63.4725 15.8696L63.9033 14.8057C64.0423 14.4624 64.4571 14.3093 64.8221 14.4344C65.1877 14.5598 65.3488 14.9319 65.2181 15.2654C64.5081 17.0561 63.7849 18.8456 63.0919 20.6418C63.0759 20.7089 63.0468 20.7684 63.0189 20.8315C62.4771 22.2484 62.3932 22.6236 62.3969 23.1252C62.4024 23.8779 62.7127 24.3779 63.5813 24.3724C64.8383 24.3642 65.7565 23.0324 66.2398 22.1015C66.9693 20.6966 67.7516 18.657 68.7767 15.9835L69.2414 14.7731C69.377 14.4256 69.7941 14.2746 70.1569 14.4002C70.5127 14.5235 70.7175 14.8911 70.5824 15.2306C70.116 16.3961 69.6797 17.5706 69.2247 18.7397C68.7726 19.902 68.41 20.9433 68.1588 21.7751C67.9016 22.6264 67.7625 23.2504 67.7647 23.5503C67.7677 23.9418 67.8138 24.3442 68.3277 24.3409C68.8567 24.3375 69.348 24.0287 69.8721 23.3753C70.3858 22.7352 70.9214 21.7772 71.5406 20.4693C71.8444 19.2209 72.433 17.9967 73.1671 16.9783C74.2756 15.4409 75.7267 14.3635 77.0523 14.3548C80.3981 14.3334 79.5058 18.9462 78.0751 18.9549C77.6546 18.9577 77.3694 18.7254 77.3665 18.3258C77.3653 18.1588 77.4574 18.0107 77.573 17.8253C77.7343 17.5664 77.9514 17.2178 77.9474 16.6863C77.943 16.0881 77.7813 15.6631 77.0612 15.6675C76.1755 15.6733 75.1079 16.6358 74.2506 17.93C73.4609 19.1223 72.7183 20.8521 72.7242 22.305L72.725 22.3204C72.7315 23.3448 73.3088 24.2989 74.5164 24.2998L74.533 24.2991C77.1877 24.283 78.5642 22.1218 79.4964 20.1086C79.7143 19.6378 80.4225 19.5657 80.7375 19.9953C80.8862 20.1877 80.9036 20.4202 80.8043 20.6312C79.5845 23.2292 77.8851 25.5825 74.5348 25.6127L74.5158 25.6136C73.0073 25.622 71.8955 24.7895 71.4868 23.4657C70.7763 24.5457 69.8194 25.6442 68.3365 25.6538C67.3225 25.6603 66.6954 25.1583 66.4422 24.266C65.736 25.0567 64.6974 25.6779 63.5655 25.6853C62.085 25.6948 61.1921 24.9779 61.0192 23.6158C60.454 24.0287 59.8349 24.2358 59.1541 24.2402C58.6525 24.2434 58.1849 24.189 57.7398 23.9598C57.0143 24.8392 55.9319 25.7744 54.665 25.7672C54.0708 25.7636 53.5276 25.6173 53.0446 25.2937C52.3444 27.1736 51.6602 29.0648 50.9249 30.9323C50.7121 31.4721 49.895 31.5652 49.6164 31.0314C49.5424 30.8887 49.5229 30.7205 49.572 30.5591C49.5743 30.5515 49.5799 30.5292 49.5842 30.5236C50.1988 28.8725 50.8167 27.2224 51.4447 25.5756C51.1367 25.7151 50.8078 25.793 50.464 25.7949C48.9321 25.8049 48.3171 25.1059 48.2035 23.7468C47.0943 25.0177 45.7257 25.8035 43.913 25.8153C42.9426 25.8048 42.0477 25.5794 41.3556 24.9097C41.0285 24.5932 40.7843 24.2035 40.6346 23.754C39.9211 24.8204 39.005 25.8479 37.5351 25.8575C36.1945 25.8659 35.5689 24.9342 35.5547 23.7793L35.5538 23.7618C35.5474 22.7031 35.922 21.6499 36.2928 20.6598C35.0894 20.6705 33.8861 20.697 32.6826 20.7063C32.6515 20.7879 32.6417 20.8601 32.6042 20.9413C32.0302 22.4391 31.4664 23.9374 30.9088 25.4405C30.7821 25.7823 30.408 25.9812 30.0297 25.8806C29.6492 25.7852 29.4463 25.4186 29.555 25.0711C29.5683 25.0269 29.5872 24.9823 29.6034 24.9391C28.6044 25.651 27.5548 25.9422 26.3063 25.9286C24.3198 25.8711 23.0488 24.6319 23.0348 22.7867C23.0582 20.8993 23.9601 18.69 25.0759 17.1342C26.0899 15.7204 27.3981 14.6831 28.7986 14.674C30.0623 14.6657 31.0893 15.2747 31.0988 16.5365C31.1195 19.2374 26.973 20.709 24.6729 21.2602C24.5475 21.7233 24.4619 22.1664 24.4458 22.6451C24.4109 23.9139 25.1636 24.583 26.5062 24.6177C27.469 24.6362 28.3229 24.3215 29.1007 23.6471C29.8961 22.9575 30.6152 21.8931 31.2921 20.4275V20.4275ZM30.4702 22.6351C29.5409 23.9579 28.3052 24.9983 26.4983 24.9629C24.9457 24.9251 24.0375 24.0974 24.0753 22.6357C24.0933 22.0953 24.1951 21.596 24.3414 21.0743C24.3589 21.0109 24.4122 20.965 24.4759 20.95C26.5937 20.4549 30.7472 19.052 30.7283 16.5379C30.7201 15.4726 29.8525 15.0126 28.8001 15.0193C27.5404 15.0274 26.335 16.0002 25.384 17.3264C24.3082 18.8264 23.4294 20.9653 23.4053 22.7853C23.4178 24.4425 24.5324 25.5319 26.3172 25.5833C27.6266 25.5986 28.6927 25.2412 29.6803 24.4323L30.4702 22.6351ZM31.4049 23.0532C31.0131 23.615 30.6019 24.0909 30.1678 24.4838C30.0821 24.7118 29.9924 24.9407 29.9105 25.1697C29.7899 25.5652 30.4098 25.7298 30.5585 25.3282L31.4049 23.0532ZM24.736 19.9443C25.3628 18.5096 26.8443 15.6539 28.8059 15.6415C29.4715 15.6372 30.0552 15.821 30.0606 16.5433C30.0753 18.4948 26.6102 19.6817 24.9647 20.1739C24.8136 20.2191 24.6781 20.0788 24.736 19.9443V19.9443ZM26.9535 17.0094C26.2569 17.7592 25.6689 18.7971 25.2372 19.7259C26.6243 19.2867 29.7025 18.1831 29.69 16.5447C29.6863 16.041 29.2503 15.984 28.8074 15.9867C28.1434 15.991 27.5148 16.4055 26.9535 17.0094V17.0094ZM41.669 20.3323C41.482 20.2549 41.3052 20.3359 41.2229 20.5042L41.161 20.6306C40.9575 21.3332 40.8376 22.0066 40.8342 22.7339C41.1564 22.1692 41.4918 21.51 41.8513 20.7479C41.9333 20.5743 41.8513 20.4079 41.669 20.3323V20.3323ZM41.3744 19.9736C41.866 19.8662 42.3485 20.2807 42.2385 20.7529C44.2944 20.2333 48.1744 18.8509 48.1561 16.4226C48.1479 15.3572 47.2803 14.8972 46.2279 14.9039C44.9682 14.9122 43.7627 15.8851 42.8116 17.2112C42.2143 18.0441 41.7198 19.0136 41.3744 19.9736V19.9736ZM41.5192 22.2435C41.3083 22.6441 41.1038 23.0072 40.9029 23.3347C41.1878 24.6823 42.2916 25.4262 43.745 25.4681C45.7154 25.4911 47.0642 24.624 48.1838 23.2046C48.1858 22.7918 48.2259 22.3531 48.3 21.9005C47.355 23.4698 46.0254 24.8889 43.9261 24.8476C42.3732 24.8101 41.4656 23.982 41.5031 22.5205C41.5062 22.4262 41.5114 22.3348 41.5192 22.2435V22.2435ZM49.5103 20.2824C49.343 20.2184 49.133 20.2929 49.0613 20.4489L48.9586 20.6673C48.7604 21.3532 48.6289 22.0333 48.578 22.667C48.9616 22.1057 49.3271 21.4563 49.6781 20.716C49.7188 20.5869 49.7487 20.5261 49.6586 20.399C49.6228 20.3484 49.5723 20.3061 49.5103 20.2824V20.2824ZM49.1943 19.9368C49.4424 19.8751 49.7033 19.9376 49.8826 20.109C50.1095 19.4866 50.3874 18.8696 50.6999 18.2991C51.5819 16.6891 52.7547 15.4369 53.872 15.4296C54.4696 15.4257 54.9558 15.6743 55.2714 16.1476C55.3039 16.1964 55.3071 16.2545 55.2857 16.304C55.0893 16.8268 54.8948 17.3713 54.689 17.9472C54.268 19.1255 53.8 20.4349 53.2273 21.8205L53.2235 21.8292C52.8007 22.8506 51.8617 24.7953 50.4566 24.8044C49.4104 24.8114 49.2463 24.026 49.2463 23.2181C49.2448 22.886 49.2765 22.5261 49.3368 22.1497C49.0845 22.5781 48.8241 22.9672 48.5546 23.3179C48.5638 24.0891 48.6984 24.6303 48.9985 24.9704C49.2933 25.3045 49.7677 25.4542 50.4625 25.4497C50.9152 25.4469 51.3243 25.2828 51.6852 25.0363C51.8328 24.9355 52.0303 25.0751 51.9696 25.2339C51.2825 27.0309 50.6064 28.8315 49.9353 30.6337C49.8457 30.9076 50.1103 31.141 50.3878 31.0047C50.4743 30.9622 50.5448 30.8923 50.5761 30.813C51.3405 28.8713 52.0523 26.9048 52.7803 24.95C52.8237 24.8336 52.9796 24.7971 53.0773 24.8765C53.5357 25.2472 54.0608 25.4185 54.6665 25.4219C55.85 25.4287 56.8893 24.4531 57.5432 23.6287C57.6035 23.553 57.7181 23.5363 57.8001 23.5911C58.2184 23.845 58.6638 23.8981 59.1526 23.8949C59.8259 23.8906 60.4346 23.6561 60.9888 23.1872C60.9835 22.8024 61.035 22.4543 61.1268 22.0791C60.6312 22.7419 59.9907 23.2673 59.0726 23.2731C58.7592 23.2752 58.4605 23.2451 58.1852 23.0934C58.0969 23.0449 58.0678 22.9387 58.1199 22.8564C59.1679 21.2092 60.0162 18.8702 60.0016 16.9433C59.9956 16.1551 59.8616 15.6035 59.5572 15.2586C59.2624 14.9245 58.788 14.7748 58.0932 14.7794C57.5606 14.7828 57.1063 15.0051 56.7103 15.3232C56.5671 15.4386 56.3546 15.3013 56.4133 15.1377C56.8652 13.887 57.324 12.6388 57.7944 11.3941C57.905 11.1106 57.5253 10.8687 57.2618 11.0385C57.213 11.0707 57.1734 11.1149 57.1541 11.1681L55.6768 15.2092C55.6333 15.3292 55.4707 15.3652 55.3738 15.2799C54.9104 14.9383 54.4473 14.8161 53.862 14.8074C52.5074 14.8246 51.1913 16.0892 50.2069 17.7592C49.8067 18.4378 49.4631 19.182 49.1943 19.9368V19.9368ZM50.0278 20.8355L50.0244 20.8429C49.7643 21.6909 49.6137 22.5198 49.6168 23.2178C49.6452 23.8123 49.6304 24.4644 50.4551 24.4592C51.6392 24.4515 52.5276 22.5515 52.8782 21.7045L52.8815 21.6959C53.4525 20.3141 53.9183 19.0112 54.3372 17.8388C54.5376 17.2779 54.7278 16.7455 54.9082 16.2631C54.6591 15.9328 54.3058 15.7721 53.8735 15.7749C52.9145 15.7812 51.8554 16.9513 51.0311 18.4561C50.6551 19.1425 50.3307 19.8965 50.0877 20.6425C50.0795 20.7163 50.0573 20.766 50.0278 20.8355ZM42.1638 19.8291C42.7905 18.3944 44.2721 15.5387 46.2337 15.5262C46.8993 15.5219 47.483 15.7058 47.4884 16.4281C47.5028 18.3796 44.0381 19.5664 42.3925 20.0587C42.2414 20.1039 42.1059 19.9636 42.1638 19.8291V19.8291ZM44.3813 16.8943C43.6847 17.6439 43.0967 18.6819 42.665 19.6107C44.0523 19.1712 47.13 18.068 47.1178 16.4295C47.1141 15.9256 46.6781 15.8687 46.2352 15.8715C45.5712 15.8758 44.9426 16.2903 44.3813 16.8943V16.8943ZM62.3863 20.1645C62.1692 20.166 62.1022 20.3338 62.0323 20.487C61.6071 21.6285 61.4208 22.2837 61.3722 22.8161C61.8439 22.2994 62.2756 21.5961 62.674 20.7029L62.7375 20.5013C62.7365 20.3378 62.5662 20.1637 62.3863 20.1645ZM62.2834 19.8271C62.5274 19.7905 62.763 19.8879 62.9232 20.0592C63.5645 18.4194 64.2202 16.7834 64.8693 15.1461C65.0284 14.7391 64.3907 14.5809 64.2507 14.9275C63.5902 16.5582 62.9179 18.1878 62.2834 19.8271V19.8271ZM62.0792 22.5141C61.8516 22.8304 61.6138 23.1027 61.3649 23.3314C61.4381 24.6274 62.1333 25.3493 63.564 25.34C64.7081 25.3325 65.7589 24.6039 66.3909 23.7585C66.4891 23.6266 66.7091 23.6811 66.7281 23.8382C66.8658 24.7222 67.3117 25.315 68.335 25.3085C69.7832 25.2991 70.7214 24.028 71.3708 22.97C71.3019 22.55 71.3035 22.1252 71.3382 21.7026C70.9245 22.4958 70.5425 23.1184 70.17 23.5825C69.5713 24.3289 68.9859 24.6819 68.3292 24.6862C67.5789 24.6913 67.3985 24.1501 67.3942 23.5517C67.3918 23.2189 67.5354 22.5618 67.8013 21.6817C68.0545 20.8434 68.42 19.7938 68.8759 18.6218C69.3311 17.4519 69.7684 16.277 70.2341 15.1102C70.3786 14.7281 69.7262 14.5377 69.5911 14.8893L69.127 16.1C68.0994 18.7798 67.3155 20.8241 66.5741 22.2519C66.0172 23.3243 65.0153 24.7081 63.5828 24.7176C62.5017 24.7246 62.0335 24.075 62.0264 23.1266C62.0249 22.9219 62.0359 22.7389 62.0792 22.5141ZM54.6742 24.7996C54.0364 24.77 53.4855 24.5067 53.2217 23.9444C53.2025 23.9032 53.2017 23.8589 53.2162 23.8195C53.4833 23.069 53.7428 22.3144 54.0416 21.5745L54.5269 20.3733C55.2187 18.6608 55.8024 17.4427 56.3517 16.6491C56.9308 15.8123 57.4871 15.4286 58.0992 15.4246C58.5468 15.4218 58.8062 15.5548 58.9842 15.8424C59.1412 16.0963 59.2153 16.4614 59.3072 16.9672C59.3373 17.1331 59.3455 17.3355 59.3331 17.5649C59.2264 19.5484 57.4059 24.4058 55.0406 24.7791C54.9198 24.7982 54.7973 24.8053 54.6742 24.7996V24.7996ZM53.9817 24.2652C54.2591 24.4266 54.6558 24.4891 54.9796 24.4379C55.9947 24.2778 56.9572 23.0754 57.6834 21.6604C58.4224 20.2204 58.9078 18.5697 58.9626 17.5485C58.9736 17.3436 58.9669 17.166 58.9412 17.0241C58.8556 16.5539 58.7882 16.2166 58.663 16.0143C58.5589 15.846 58.3944 15.7681 58.1007 15.7699C57.6256 15.7729 57.1688 16.107 56.6642 16.8361C56.1295 17.6086 55.5567 18.8058 54.8742 20.4951L54.389 21.6962C54.1004 22.4108 53.8501 23.14 53.5913 23.8646C53.6851 24.0371 53.8184 24.17 53.9817 24.2652V24.2652ZM72.4683 20.1276C72.2986 20.0555 72.1174 20.1269 72.0348 20.279L71.8936 20.5792C71.747 21.1931 71.6749 21.7972 71.6886 22.4259C71.9897 21.886 72.2991 21.264 72.6236 20.5543C72.6516 20.459 72.6776 20.4009 72.6384 20.3008C72.6105 20.2293 72.5525 20.1669 72.4683 20.1276V20.1276ZM72.6026 19.8045C72.687 19.8424 72.7558 19.8822 72.8229 19.9443C73.1027 19.179 73.4899 18.4209 73.9351 17.7486C74.8542 16.3611 76.0352 15.329 77.0597 15.3222C77.9983 15.3164 78.3119 15.889 78.318 16.6849C78.3227 17.3107 78.0767 17.7055 77.8941 17.9987C77.8065 18.1394 77.7365 18.2517 77.737 18.3244C77.7386 18.5309 77.861 18.6109 78.0736 18.6096C78.2797 18.6084 78.4979 18.3807 78.6717 18.0434C78.8858 17.628 78.9902 17.1245 78.9854 16.6651C78.9715 15.5136 78.3623 14.6916 77.0538 14.7C75.8585 14.7078 74.5192 15.7224 73.4751 17.1705C72.9147 17.9478 72.4421 18.848 72.1236 19.7845C72.2892 19.7334 72.4424 19.7442 72.6026 19.8045V19.8045ZM72.3671 21.9301C72.1604 22.3339 71.958 22.7013 71.758 23.0339C72.0241 24.3742 73.0184 25.281 74.5304 25.2674C75.9079 25.2554 77.0243 24.8373 77.9729 24.045C78.9376 23.2393 79.736 22.044 80.4641 20.4931C80.518 20.3779 80.5057 20.3009 80.4304 20.1882C80.2789 19.9852 79.9393 20.0256 79.8378 20.2453C78.8388 22.4022 77.3618 24.6265 74.5339 24.6451C73.0958 24.6451 72.3537 23.5474 72.3537 22.305C72.3532 22.1822 72.3577 22.0572 72.3671 21.9301V21.9301Z" fill="#FEFEFE"/>
<path d="M25.2745 6.2068C25.2706 5.6651 24.621 5.4369 24.2684 5.8342C23.4135 6.7979 22.4867 6.986 21.4562 6.9933C19.8291 7.0048 18.5434 5.441 15.3704 5.4635C9.48589 5.5053 6.42469 9.812 6.46689 15.7509C6.46909 16.0765 6.74209 16.3186 7.04039 16.3164C7.31149 16.3145 7.62529 16.122 7.63299 15.7426C7.74579 10.1819 10.1718 6.6396 15.3515 6.6027C18.2802 6.5819 19.566 8.14571 21.4644 8.13231C22.8475 8.12251 24.0474 7.82351 25.1416 6.58731C25.2314 6.48591 25.2755 6.3423 25.2745 6.2068ZM14.1806 9.757C14.4962 9.1144 15.2039 8.4054 15.8244 8.2807C16.4751 8.15 16.4325 7.1378 15.7078 7.1425C14.84 7.1487 13.694 8.15291 13.1463 9.22191C12.3832 10.7114 11.7913 12.7309 11.1793 14.8225C9.93809 19.063 8.48119 24.4421 4.63029 24.4694C3.11169 24.4801 1.83099 23.6214 1.81909 21.9401C1.80769 20.3401 3.12479 18.6766 4.58909 18.6661C4.75169 18.665 4.88349 18.6756 5.02339 18.7172C5.67019 18.9097 6.11459 17.9311 5.34089 17.603C5.07219 17.4891 4.82489 17.4982 4.55369 17.5002C2.51989 17.5145 0.663793 19.6432 0.680393 22.0025C0.696093 24.1992 2.44169 25.624 4.66549 25.6082C9.19429 25.576 10.7465 20.2464 12.2662 15.1402C12.8655 13.126 13.4803 11.183 14.1806 9.757V9.757ZM16.6485 13.5634C15.5366 13.5712 14.5279 13.8949 13.8884 14.4508C13.7728 14.5514 13.7003 14.6962 13.7018 14.886C13.7054 15.3934 14.2497 15.6277 14.6268 15.3133C15.0991 14.9197 15.7885 14.6813 16.6563 14.6751C19.1511 14.6575 20.8188 16.5167 20.8388 19.3372C20.8651 23.0523 18.5757 25.2654 15.3214 25.2886C13.0434 25.3047 11.5453 24.3931 11.5353 22.9831C11.5288 22.0609 12.282 21.1878 13.177 21.1815C14.0719 21.1751 14.5352 21.509 15.0767 22.1848C15.6884 22.9482 16.3764 23.2437 15.9416 22.1512C15.4372 20.8834 14.4707 20.0604 13.1419 20.0699C11.7317 20.0799 10.4117 21.3096 10.4236 22.991C10.4384 25.0791 12.4007 26.4483 15.3294 26.4276C19.2888 26.3995 21.9816 23.6954 21.9506 19.3294C21.9258 15.8309 19.7942 13.541 16.6485 13.5634V13.5634Z" fill="#FEFEFE"/>
<path d="M25.0712 6.20751C25.0689 5.85551 24.6504 5.70971 24.4208 5.96901C23.5908 6.90471 22.6753 7.18841 21.4572 7.19671C20.7352 7.20161 20.0972 6.92411 19.3546 6.60121C18.3641 6.17031 17.1768 5.65411 15.3712 5.66681C9.3911 5.70911 6.6308 10.1856 6.6701 15.7501C6.6732 16.2286 7.4203 16.2334 7.4297 15.7387C7.5344 10.5767 9.6685 6.43981 15.3507 6.39941C17.0152 6.38801 18.1539 6.87121 19.1695 7.30231C19.9519 7.63461 20.6591 7.93491 21.4637 7.92911C22.9177 7.91861 24.0034 7.56611 24.9893 6.45251C25.0458 6.38911 25.0718 6.29111 25.0712 6.20751V6.20751ZM25.2212 5.62541C25.53 5.89971 25.5675 6.41311 25.2939 6.72191C24.2281 7.92551 23.0389 8.32491 21.4653 8.33571C20.5764 8.34171 19.8329 8.02621 19.0102 7.67681C18.0306 7.26111 16.9325 6.79481 15.3522 6.80591C9.9031 6.84481 7.9363 10.8157 7.8362 15.7463C7.8227 16.4365 6.9915 16.7699 6.5023 16.3041C6.3587 16.1672 6.2651 15.9735 6.2636 15.7517C6.2224 9.95701 9.1598 5.30411 15.3696 5.26041C17.2614 5.24701 18.4912 5.78181 19.5171 6.22801C20.2179 6.53281 20.8198 6.7944 21.4554 6.7902C22.5558 6.7824 23.3648 6.54611 24.1161 5.69961C24.4083 5.37031 24.899 5.34041 25.2212 5.62541ZM13.9981 9.66781C14.315 9.02281 15.0553 8.22761 15.7847 8.08151C16.1959 7.99491 16.1892 7.34241 15.7086 7.34591C15.3364 7.34831 14.893 7.56951 14.4742 7.90971C14.0164 8.28121 13.5957 8.79031 13.3273 9.31441C12.9517 10.0473 12.6165 10.9162 12.2992 11.8612C11.9237 12.9785 11.5976 14.1148 11.2673 15.2464C10.0286 19.4892 8.5234 24.6451 4.6309 24.6726C2.9553 24.6844 1.6281 23.7011 1.6158 21.941C1.6097 21.0925 1.9544 20.2284 2.4937 19.577C3.0618 18.8908 3.9186 18.3736 4.8364 18.4731C5.0568 18.4972 5.2492 18.6221 5.4336 18.4305C5.6431 18.2124 5.5526 17.9135 5.2621 17.7903C5.0323 17.6932 4.7979 17.7019 4.5546 17.7034C3.5969 17.71 2.6762 18.2217 1.9961 19.0121C1.3138 19.8051 0.875902 20.8767 0.883702 22.0017C0.898902 24.145 2.6229 25.4192 4.6647 25.405C9.008 25.3741 10.5491 20.196 12.0372 15.1957C12.3411 14.1793 12.6473 13.165 12.9933 12.1618C13.3118 11.239 13.644 10.3889 13.9981 9.66781V9.66781ZM15.0654 8.93901C14.7721 9.20191 14.5166 9.53361 14.3631 9.84611C14.017 10.551 13.6911 11.3859 13.3775 12.2941C13.034 13.2901 12.7264 14.3016 12.4277 15.312C10.8977 20.4537 9.3129 25.7786 4.6663 25.8115C2.3974 25.8273 0.493903 24.3723 0.477203 22.0033C0.468603 20.7767 0.944803 19.61 1.687 18.7473C2.4406 17.8714 3.471 17.3044 4.553 17.2969C4.8654 17.2946 5.1245 17.29 5.4205 17.4157C6.4277 17.8445 5.8557 19.1769 4.9658 18.9125C4.8416 18.8756 4.719 18.8688 4.59 18.8693C3.9231 18.8742 3.2824 19.2634 2.8078 19.8369C2.3253 20.4198 2.017 21.1886 2.0224 21.9392C2.0333 23.4695 3.1833 24.2761 4.6295 24.2662C8.2179 24.2409 9.6765 19.2443 10.8766 15.1331C11.2086 13.9962 11.5361 12.8544 11.9133 11.7319C12.2354 10.772 12.578 9.88571 12.9654 9.12941C13.4322 8.21811 14.6059 6.94701 15.707 6.93941C16.0958 6.93711 16.4511 7.21131 16.4842 7.60981C16.5181 8.01951 16.2797 8.3978 15.8643 8.481C15.607 8.5317 15.3241 8.70651 15.0654 8.93901ZM16.6495 13.7667C15.7521 13.775 14.7145 14.0021 14.0214 14.6045C13.792 14.8044 13.9105 15.2546 14.2503 15.2523C14.3327 15.2518 14.4192 15.2217 14.4968 15.1571C15.0946 14.6587 15.8922 14.4772 16.6555 14.4718C17.9633 14.4627 19.0568 14.9478 19.8269 15.8063C20.5908 16.6576 21.0315 17.8745 21.0421 19.3364C21.0554 21.2153 20.4895 22.7257 19.5108 23.7814C18.4221 24.9558 16.8833 25.4919 15.3037 25.4919C14.135 25.4975 13.16 25.2633 12.4718 24.8445C11.75 24.4049 11.3377 23.765 11.332 22.984C11.3252 21.9816 12.1381 20.9853 13.1762 20.9782L13.8096 21.2952C13.0683 21.2458 11.7688 21.3154 11.7385 22.9824C11.7429 23.6109 12.0849 24.1323 12.6838 24.4969C13.3092 24.8776 14.2102 25.0905 15.3021 25.0853L15.3212 25.0845C16.9187 25.0739 18.2731 24.5174 19.2127 23.5038C20.1223 22.5228 20.648 21.108 20.6356 19.338C20.6183 16.9035 19.2672 14.86 16.6572 14.8785C15.9941 14.8834 15.2772 15.036 14.7567 15.4693C14.2422 15.8981 13.5034 15.5575 13.4987 14.8869C13.4971 14.6562 13.5797 14.4497 13.7553 14.297C14.5185 13.6339 15.6378 13.37 16.6285 13.3604L16.6485 13.3592C18.2808 13.3488 19.6519 13.9393 20.6198 14.988C21.5786 16.0274 22.1367 17.5152 22.1537 19.3082L22.1547 19.3292C22.1825 23.5256 19.6699 26.5905 15.3504 26.6305L15.3295 26.6316C13.8218 26.6412 12.5576 26.2904 11.6658 25.6657C10.7591 25.0307 10.2347 24.1167 10.2207 23.0124L10.2194 22.9908C10.2142 22.0939 10.5639 21.3162 11.1034 20.7617C11.6454 20.2049 12.3804 19.8718 13.141 19.8666C14.453 19.8573 15.41 20.6045 15.965 21.7077C15.7146 21.3487 15.335 21.1022 14.9248 20.9619C14.4629 20.5282 13.8685 20.2684 13.1428 20.2732C12.4935 20.2776 11.863 20.5649 11.3954 21.0454C10.8807 21.5745 10.6197 22.271 10.627 23.0065C10.6387 23.9719 11.1005 24.7731 11.8986 25.3323C12.7233 25.91 13.9063 26.2344 15.3285 26.2243C19.4392 26.1844 21.7852 23.3078 21.7472 19.3132C21.7192 16.2172 19.9193 13.7432 16.6495 13.7667V13.7667ZM16.2646 22.5203C16.2792 22.6066 16.2846 22.6926 16.274 22.7706L16.2646 22.5203Z" fill="#FEFEFE"/>
<path d="M29.8323 6.5611H28.6058V9.68019H27.9238V6.5611H26.7026V5.9796H29.8323V6.5611V6.5611ZM33.1999 9.104V9.68019H30.4244V5.9796H33.1258V6.5558H31.1116V7.518H32.8985V8.0836H31.1116V9.104H33.1999V9.104ZM36.4194 8.8238H34.5691L34.2043 9.68019H33.4959L35.1612 5.9796H35.8378L37.5084 9.68019H36.7894L36.4194 8.8238ZM36.192 8.2845L35.4942 6.6668L34.8017 8.2845H36.192ZM40.5747 6.5611H39.3482V9.68019H38.6662V6.5611H37.445V5.9796H40.5747V6.5611V6.5611ZM42.6893 5.9796C43.01 5.9796 43.2894 6.0324 43.5273 6.1382C43.7652 6.2439 43.9475 6.3955 44.0744 6.5928C44.2013 6.7902 44.2647 7.0246 44.2647 7.2959C44.2647 7.5638 44.2013 7.7973 44.0744 7.9964C43.9475 8.1955 43.7652 8.348 43.5273 8.4537C43.2894 8.5594 43.01 8.6123 42.6893 8.6123H41.854V9.68019H41.1668V5.9796H42.6893ZM42.6576 8.0308C42.9572 8.0308 43.1845 7.9673 43.3396 7.8405C43.4947 7.7136 43.5722 7.5321 43.5722 7.2959C43.5722 7.0598 43.4947 6.8783 43.3396 6.7514C43.1845 6.6245 42.9572 6.5611 42.6576 6.5611H41.854V8.0308H42.6576V8.0308ZM47.183 8.8238H45.3327L44.9679 9.68019H44.2595L45.9248 5.9796H46.6014L48.272 9.68019H47.553L47.183 8.8238ZM46.9556 8.2845L46.2578 6.6668L45.5653 8.2845H46.9556ZM52.0255 5.9796V9.68019H51.3488V6.5611H49.8897L49.858 7.4863C49.8403 8.0043 49.7981 8.4246 49.7311 8.7471C49.6641 9.0696 49.5566 9.3145 49.4086 9.482C49.2606 9.6494 49.0562 9.7331 48.7954 9.7331C48.7037 9.7331 48.5786 9.71539 48.42 9.68019L48.4676 9.0828C48.5134 9.0969 48.5663 9.104 48.6262 9.104C48.8412 9.104 48.9936 8.9762 49.0835 8.7207C49.1734 8.4652 49.2289 8.06249 49.25 7.51269L49.3029 5.9796H52.0255V5.9796ZM54.7745 7.2325C55.2185 7.2325 55.5595 7.3321 55.7974 7.5312C56.0353 7.7303 56.1543 8.0255 56.1543 8.4167C56.1543 8.8255 56.0239 9.1383 55.7631 9.3551C55.5022 9.5718 55.1357 9.68019 54.6634 9.68019H53.0722V5.9796H53.7489V7.2325H54.7745V7.2325ZM54.6317 9.1515C54.8996 9.1515 55.1058 9.0899 55.2503 8.9665C55.3948 8.8432 55.467 8.6634 55.467 8.4273C55.467 7.9797 55.1886 7.7559 54.6317 7.7559H53.7489V9.1515H54.6317ZM60.1457 5.9796V9.68019H59.4584V8.0942H57.5446V9.68019H56.8574V5.9796H57.5446V7.5074H59.4584V5.9796H60.1457ZM63.6348 8.8238H61.7845L61.4197 9.68019H60.7113L62.3766 5.9796H63.0532L64.7238 9.68019H64.0048L63.6348 8.8238ZM63.4074 8.2845L62.7096 6.6668L62.0171 8.2845H63.4074ZM67.9328 5.9796V9.68019H67.2561V8.6493H66.3416H66.2675L65.5803 9.68019H64.856L65.649 8.5383C65.3917 8.4431 65.1935 8.2925 65.0543 8.0863C64.9151 7.8801 64.8454 7.6308 64.8454 7.3382C64.8454 7.0563 64.9089 6.8131 65.0358 6.6087C65.1626 6.4043 65.3424 6.2483 65.575 6.1408C65.8076 6.0333 66.0807 5.9796 66.3944 5.9796H67.9328V5.9796ZM66.4156 6.5611C66.1336 6.5611 65.9177 6.6263 65.768 6.7567C65.6182 6.8871 65.5433 7.07739 65.5433 7.32769C65.5433 7.57079 65.6155 7.7585 65.76 7.8907C65.9045 8.0229 66.1142 8.0889 66.3891 8.0889H67.2561V6.5611H66.4156V6.5611Z" fill="#FEFEFE"/>
<path d="M63.4204 29.818V33.5186H58.6678V29.818H59.3445V32.9371H60.7084V29.818H61.3851V32.9371H62.7437V29.818H63.4204ZM65.8258 31.9591H65.1386V33.5186H64.4619V29.818H65.1386V31.367H65.847L66.9096 29.818H67.6391L66.3756 31.6101L67.6867 33.5186H66.9096L65.8258 31.9591V31.9591ZM69.8595 33.5715C69.4824 33.5715 69.1423 33.4895 68.8392 33.3256C68.5361 33.1618 68.2982 32.9344 68.1255 32.6437C67.9528 32.3529 67.8665 32.0278 67.8665 31.6683C67.8665 31.3088 67.9528 30.9837 68.1255 30.6929C68.2982 30.4021 68.5361 30.1748 68.8392 30.0109C69.1423 29.8471 69.4824 29.7651 69.8595 29.7651C70.2367 29.7651 70.5768 29.8471 70.8799 30.0109C71.183 30.1748 71.4209 30.4013 71.5936 30.6903C71.7662 30.9793 71.8526 31.3053 71.8526 31.6683C71.8526 32.0313 71.7662 32.3573 71.5936 32.6463C71.4209 32.9353 71.183 33.1618 70.8799 33.3256C70.5768 33.4895 70.2367 33.5715 69.8595 33.5715V33.5715ZM69.8595 32.9688C70.1063 32.9688 70.3283 32.9133 70.5257 32.8023C70.723 32.6912 70.8781 32.5362 70.9909 32.337C71.1037 32.1379 71.16 31.915 71.16 31.6683C71.16 31.4216 71.1037 31.1987 70.9909 30.9995C70.8781 30.8004 70.723 30.6453 70.5257 30.5343C70.3283 30.4233 70.1063 30.3678 69.8595 30.3678C69.6128 30.3678 69.3908 30.4233 69.1934 30.5343C68.9961 30.6453 68.841 30.8004 68.7282 30.9995C68.6154 31.1987 68.559 31.4216 68.559 31.6683C68.559 31.915 68.6154 32.1379 68.7282 32.337C68.841 32.5362 68.9961 32.6912 69.1934 32.8023C69.3908 32.9133 69.6128 32.9688 69.8595 32.9688ZM75.6695 29.818V33.5186H74.9928V30.3995H73.5337L73.502 31.3247C73.4843 31.8427 73.4421 32.263 73.3751 32.5855C73.3081 32.908 73.2006 33.1529 73.0526 33.3204C72.9046 33.4878 72.7002 33.5715 72.4394 33.5715C72.3477 33.5715 72.2226 33.5538 72.064 33.5186L72.1116 32.9212C72.1574 32.9353 72.2103 32.9424 72.2702 32.9424C72.4852 32.9424 72.6376 32.8146 72.7275 32.5591C72.8174 32.3036 72.8729 31.9009 72.894 31.3511L72.9469 29.818H75.6695ZM79.1639 32.6622H77.3136L76.9488 33.5186H76.2404L77.9057 29.818H78.5823L80.2529 33.5186H79.5339L79.1639 32.6622ZM78.9365 32.1229L78.2387 30.5052L77.5462 32.1229H78.9365Z" fill="#FEFEFE"/>
<path d="M25.2745 6.2068C25.2706 5.6651 24.621 5.4369 24.2684 5.8342C23.4135 6.7979 22.4867 6.986 21.4562 6.9933C19.8291 7.0048 18.5434 5.441 15.3704 5.4635C9.48589 5.5053 6.42469 9.812 6.46689 15.7509C6.46909 16.0765 6.74209 16.3186 7.04039 16.3164C7.31149 16.3145 7.62529 16.122 7.63299 15.7426C7.74579 10.1819 10.1718 6.6396 15.3515 6.6027C18.2802 6.5819 19.566 8.14571 21.4644 8.13231C22.8475 8.12251 24.0474 7.82351 25.1416 6.58731C25.2314 6.48591 25.2755 6.3423 25.2745 6.2068ZM14.1806 9.757C14.4962 9.1144 15.2039 8.4054 15.8244 8.2807C16.4751 8.15 16.4325 7.1378 15.7078 7.1425C14.84 7.1487 13.694 8.15291 13.1463 9.22191C12.3832 10.7114 11.7913 12.7309 11.1793 14.8225C9.93809 19.063 8.48119 24.4421 4.63029 24.4694C3.11169 24.4801 1.83099 23.6214 1.81909 21.9401C1.80769 20.3401 3.12479 18.6766 4.58909 18.6661C4.75169 18.665 4.88349 18.6756 5.02339 18.7172C5.67019 18.9097 6.11459 17.9311 5.34089 17.603C5.07219 17.4891 4.82489 17.4982 4.55369 17.5002C2.51989 17.5145 0.663793 19.6432 0.680393 22.0025C0.696093 24.1992 2.44169 25.624 4.66549 25.6082C9.19429 25.576 10.7465 20.2464 12.2662 15.1402C12.8655 13.126 13.4803 11.183 14.1806 9.757V9.757ZM16.6485 13.5634C15.5366 13.5712 14.5279 13.8949 13.8884 14.4508C13.7728 14.5514 13.7003 14.6962 13.7018 14.886C13.7054 15.3934 14.2497 15.6277 14.6268 15.3133C15.0991 14.9197 15.7885 14.6813 16.6563 14.6751C19.1511 14.6575 20.8188 16.5167 20.8388 19.3372C20.8651 23.0523 18.5757 25.2654 15.3214 25.2886C13.0434 25.3047 11.5453 24.3931 11.5353 22.9831C11.5288 22.0609 12.282 21.1878 13.177 21.1815C14.0719 21.1751 14.5352 21.509 15.0767 22.1848C15.6884 22.9482 16.3764 23.2437 15.9416 22.1512C15.4372 20.8834 14.4707 20.0604 13.1419 20.0699C11.7317 20.0799 10.4117 21.3096 10.4236 22.991C10.4384 25.0791 12.4007 26.4483 15.3294 26.4276C19.2888 26.3995 21.9816 23.6954 21.9506 19.3294C21.9258 15.8309 19.7942 13.541 16.6485 13.5634V13.5634Z" fill="#FEFEFE"/>
<path d="M16.6495 13.7666C15.7521 13.775 14.7146 14.0022 14.0215 14.6047C13.792 14.8045 13.9106 15.2547 14.2503 15.2523C14.3327 15.2518 14.4191 15.2217 14.4968 15.1572C15.0946 14.6586 15.8922 14.4773 16.6557 14.4719C17.9634 14.4627 19.0567 14.9477 19.8268 15.8063C20.5907 16.6575 21.0314 17.8744 21.042 19.3364C21.0555 21.2153 20.4895 22.7258 19.5109 23.7814C18.422 24.956 16.8833 25.492 15.3039 25.492C14.135 25.4974 13.1601 25.2634 12.472 24.8446C11.7502 24.4048 11.3377 23.765 11.332 22.9841C11.3252 21.9816 12.1381 20.9853 13.1761 20.9783L13.8096 21.2951C13.0683 21.2457 11.7688 21.3154 11.7384 22.9824C11.7429 23.611 12.0849 24.1322 12.6838 24.4969C13.3091 24.8776 14.2103 25.0906 15.3022 25.0852L15.3213 25.0845C16.9186 25.0739 18.273 24.5174 19.2128 23.5039C20.1222 22.5229 20.6479 21.108 20.6357 19.3381C20.6183 16.9036 19.2672 14.8601 16.6571 14.8785C15.9941 14.8834 15.2773 15.036 14.7567 15.4694C14.2421 15.8981 13.5033 15.5577 13.4986 14.8869C13.497 14.6562 13.5796 14.4498 13.7552 14.297C14.5185 13.634 15.6379 13.3699 16.6286 13.3605L16.6486 13.3593C18.2808 13.3487 19.6519 13.9394 20.6197 14.9879C21.5786 16.0273 22.1368 17.5152 22.1537 19.3082L22.1547 19.3291C22.1824 23.5255 19.67 26.5905 15.3505 26.6305L15.3295 26.6317C13.8219 26.6413 12.5577 26.2903 11.6659 25.6658C10.759 25.0306 10.2347 24.1167 10.2206 23.0123L10.2194 22.9909C10.2143 22.0939 10.5639 21.3163 11.1034 20.7617C11.6454 20.2049 12.3804 19.8718 13.141 19.8666C14.453 19.8574 15.41 20.6046 15.9652 21.7076C15.7147 21.3486 15.3349 21.1021 14.9248 20.962C14.4629 20.5281 13.8685 20.2685 13.1427 20.2732C12.4936 20.2776 11.8629 20.5649 11.3954 21.0454C10.8807 21.5746 10.6197 22.271 10.627 23.0064C10.6387 23.9719 11.1004 24.773 11.8985 25.3324C12.7232 25.9099 13.9064 26.2345 15.3286 26.2244C19.4393 26.1844 21.7853 23.3078 21.7471 19.3133C21.7191 16.2173 19.9193 13.7433 16.6495 13.7666V13.7666Z" fill="#FEFEFE"/>
<path d="M15.0654 8.939C14.772 9.202 14.5166 9.5337 14.3631 9.8461C14.017 10.5509 13.691 11.386 13.3776 12.294C13.0339 13.2901 12.7265 14.3017 12.4277 15.3121C10.8977 20.4537 9.3128 25.7785 4.6663 25.8115C2.3973 25.8273 0.493899 24.3723 0.477199 22.0033C0.468499 20.7767 0.944698 19.61 1.687 18.7474C2.4406 17.8714 3.4711 17.3045 4.5531 17.297C4.8655 17.2946 5.1244 17.2901 5.4206 17.4158C6.4277 17.8445 5.85559 19.177 4.96569 18.9124C4.84169 18.8757 4.719 18.8689 4.59 18.8693C3.9231 18.8741 3.2825 19.2634 2.8079 19.8369C2.3253 20.4198 2.0171 21.1885 2.0225 21.9393C2.0333 23.4695 3.1834 24.2761 4.6296 24.2662C8.2179 24.241 9.6766 19.2444 10.8767 15.1332C11.2087 13.9963 11.5362 12.8545 11.9133 11.7318C12.2354 10.772 12.5779 9.8859 12.9654 9.1294C13.4322 8.2181 14.6058 6.9471 15.7069 6.9393C16.0958 6.9372 16.4511 7.21151 16.4843 7.60981C16.5182 8.01971 16.2797 8.3977 15.8644 8.4809C15.6071 8.5317 15.3241 8.7064 15.0654 8.939Z" fill="#FEFEFE"/>
<path d="M13.9982 9.6679C14.3151 9.0228 15.0553 8.2275 15.7848 8.0816C16.1959 7.9949 16.1893 7.3424 15.7085 7.3459C15.3363 7.3482 14.893 7.5695 14.4742 7.9097C14.0163 8.2812 13.5956 8.7902 13.3272 9.3145C12.9518 10.0474 12.6165 10.9161 12.2992 11.8613C11.9237 12.9786 11.5976 14.1147 11.2673 15.2464C10.0287 19.4892 8.5235 24.6452 4.631 24.6727C2.9552 24.6843 1.6282 23.7012 1.6157 21.9409C1.6098 21.0924 1.9545 20.2284 2.4938 19.577C3.0619 18.8908 3.9186 18.3735 4.8363 18.4731C5.0569 18.4971 5.2492 18.6221 5.4335 18.4305C5.6431 18.2123 5.5527 17.9135 5.2621 17.7902C5.0324 17.6932 4.7979 17.7019 4.5547 17.7033C3.597 17.7101 2.6763 18.2217 1.9961 19.012C1.3139 19.8051 0.875798 20.8766 0.883798 22.0016C0.898798 24.1449 2.6228 25.4193 4.6646 25.4051C9.008 25.3741 10.549 20.1959 12.0371 15.1958C12.3411 14.1793 12.6473 13.1651 12.9932 12.1619C13.3119 11.2391 13.6439 10.389 13.9982 9.6679V9.6679Z" fill="#FEFEFE"/>
<path d="M25.2213 5.62539C25.5299 5.89969 25.5676 6.41309 25.294 6.72179C24.228 7.92549 23.0389 8.32499 21.4653 8.33559C20.5764 8.34169 19.8329 8.0263 19.0101 7.6769C18.0308 7.2611 16.9325 6.79479 15.3521 6.80579C9.903 6.84489 7.9363 10.8158 7.8363 15.7462C7.8226 16.4365 6.9916 16.7698 6.5024 16.3042C6.3587 16.1672 6.265 15.9734 6.2636 15.7516C6.2224 9.95699 9.1598 5.3041 15.3695 5.2603C17.2614 5.2471 18.4912 5.78169 19.5172 6.22809C20.2178 6.53269 20.8198 6.7945 21.4554 6.7903C22.5558 6.7823 23.3647 6.54619 24.1162 5.69959C24.4083 5.37019 24.899 5.34029 25.2213 5.62539V5.62539Z" fill="#FEFEFE"/>
<path d="M25.0713 6.2074C25.0689 5.8554 24.6504 5.70969 24.4208 5.96889C23.5907 6.90469 22.6752 7.1884 21.4571 7.1966C20.7353 7.2016 20.0973 6.924 19.3545 6.6012C18.3641 6.1704 17.1769 5.65409 15.3712 5.66679C9.3912 5.70899 6.6309 10.1855 6.6702 15.75C6.6733 16.2286 7.4203 16.2333 7.4297 15.7387C7.5344 10.5768 9.6685 6.4397 15.3507 6.3995C17.0151 6.3879 18.1539 6.8713 19.1695 7.3023C19.952 7.6345 20.659 7.9349 21.4637 7.929C22.9177 7.9187 24.0034 7.5662 24.9894 6.4525C25.0456 6.3891 25.0718 6.2912 25.0713 6.2074V6.2074Z" fill="#FEFEFE"/>
<path d="M13.315 20.0827C16.0693 20.277 17.6729 23.3246 18.234 26.5081C18.3743 27.3041 18.45 28.1106 18.4626 28.8823C18.6763 28.808 18.8855 28.7476 19.0857 28.7032C22.4129 27.9649 26.188 27.6362 29.8743 27.887C33.1822 28.112 36.4271 28.804 39.2262 30.085C41.596 31.1695 44.6919 32.5667 47.7629 33.1445C50.7548 33.7075 53.7352 33.4915 55.9866 31.4179L56.6314 32.1187C54.1124 34.4388 50.846 34.6931 47.5876 34.08C44.4082 33.4817 41.2486 32.0562 38.8312 30.9498C36.1449 29.7206 33.0137 29.0553 29.811 28.8374C26.212 28.5925 22.5311 28.9123 19.2909 29.6314C19.0229 29.6907 18.7353 29.7847 18.4411 29.9052C18.4226 30.2087 18.3935 30.5028 18.3538 30.7838C18.1639 32.1242 17.7192 33.2022 17.0274 33.7056C16.4208 34.1469 15.679 34.174 14.8162 33.6192L14.7917 33.6033L14.7642 33.5801C14.5988 33.439 14.4803 33.279 14.405 33.1046C14.1999 32.6295 14.3217 32.1015 14.6627 31.5762C14.9472 31.1375 15.3964 30.6879 15.9252 30.2777C16.4028 29.9073 16.9534 29.5636 17.511 29.2861C17.522 28.4517 17.4507 27.557 17.2947 26.6722C16.8006 23.9163 15.469 21.2612 13.2478 21.0331L13.315 20.0827V20.0827ZM17.4106 30.6534L17.4428 30.4011C17.1148 30.5923 16.7966 30.8057 16.5066 31.0306C16.0583 31.3785 15.6853 31.7478 15.4605 32.0943C15.2922 32.3536 15.2163 32.5781 15.2811 32.728C15.2968 32.7642 15.3227 32.8005 15.3596 32.8359C15.8263 33.1268 16.1943 33.133 16.4682 32.9339C16.9378 32.5923 17.2559 31.7459 17.4106 30.6534V30.6534Z" fill="#FEFEFE"/>
<path d="M13.3293 19.8788C14.661 19.9728 15.7338 20.697 16.5586 21.7743C17.5077 23.0141 18.1275 24.7249 18.4355 26.4728C18.5051 26.8676 18.5595 27.2709 18.5982 27.6757C18.6282 27.9875 18.6486 28.2978 18.6593 28.6037L18.7251 28.5843C18.8256 28.5555 18.9319 28.5286 19.0419 28.5042C20.7524 28.1246 22.578 27.8527 24.4457 27.7115C26.2381 27.5759 28.0737 27.5596 29.888 27.6831C31.6023 27.7997 33.3004 28.0412 34.9286 28.4239C36.4633 28.7845 37.9391 29.2721 39.3108 29.8997C40.4882 30.4384 41.8471 31.0557 43.3042 31.6137C44.7496 32.1674 46.2804 32.6579 47.8004 32.9439C49.2736 33.2211 50.7431 33.3068 52.118 33.0686C53.4812 32.8324 54.7543 32.2752 55.8484 31.2676L55.9987 31.1294L56.9198 32.1308L56.7695 32.269C55.4795 33.4569 53.9982 34.1163 52.4227 34.3999C50.8567 34.6816 49.2011 34.5911 47.5502 34.2805C45.945 33.9785 44.3488 33.469 42.8509 32.8964C41.3647 32.3284 39.9622 31.6916 38.7465 31.1351C37.4581 30.5455 36.0631 30.0862 34.6049 29.745C33.0553 29.3821 31.4357 29.1526 29.7973 29.0412C28.0465 28.9222 26.2749 28.9374 24.5445 29.0679C22.7369 29.2042 20.9771 29.4659 19.3348 29.8303C19.2099 29.8579 19.0787 29.8944 18.9433 29.9379C18.8429 29.9702 18.7401 30.0068 18.6363 30.047L18.6084 30.3731C18.5933 30.5261 18.5756 30.6731 18.556 30.8118C18.456 31.5182 18.2861 32.1558 18.0479 32.6804C17.8148 33.1944 17.521 33.6444 17.1541 33.9113C16.8059 34.1647 16.3562 34.4087 15.9267 34.3921C14.9137 34.3327 13.9899 33.5679 14.1236 32.3491C14.1728 32.0564 14.3011 31.759 14.4918 31.4652C14.6384 31.2389 14.8256 31.0109 15.0419 30.7885C15.2655 30.5584 15.5224 30.332 15.8004 30.1163C16.045 29.9267 16.3073 29.7443 16.5785 29.5748C16.8165 29.426 17.0616 29.2862 17.3082 29.1595C17.3092 28.7878 17.2935 28.4001 17.2607 28.0039C17.2253 27.5748 17.1695 27.1396 17.0933 26.7075C16.8324 25.2476 16.3329 23.8192 15.589 22.7826C14.9714 21.922 14.2419 21.3572 13.2844 21.259L13.0303 21.216L13.1256 19.8645L13.3293 19.8788V19.8788ZM16.2343 22.022C15.5213 21.0907 14.6132 20.4481 13.5039 20.3066L13.4652 20.8567C14.4621 21.0223 15.2785 21.6508 15.9199 22.5446C16.7015 23.6337 17.2237 25.1216 17.4952 26.6363C17.5745 27.0819 17.632 27.5296 17.6683 27.9704C17.7049 28.4142 17.7203 28.8572 17.7148 29.2885L17.7132 29.4139L17.602 29.4691C17.3274 29.6058 17.0553 29.7584 16.7944 29.9216C16.5327 30.085 16.2816 30.2595 16.0498 30.4393C15.7875 30.6427 15.545 30.8565 15.3344 31.0731C15.1355 31.278 14.9648 31.4849 14.8338 31.6873C14.6733 31.9344 14.5661 32.1804 14.5263 32.4161C14.4909 32.6265 14.5096 32.8311 14.5928 33.0239C14.6246 33.098 14.6657 33.1688 14.7153 33.2346C14.7664 33.3014 14.827 33.3655 14.8968 33.4251L14.9263 33.4477C15.3139 33.6964 15.6702 33.8187 15.9937 33.8311C16.3267 33.8441 16.6322 33.7405 16.9075 33.5401C17.2146 33.3168 17.4714 32.9626 17.6756 32.5125C17.8978 32.023 18.0571 31.4234 18.1515 30.7558C18.1716 30.6142 18.1887 30.4726 18.2025 30.333C18.2163 30.193 18.2281 30.046 18.2372 29.8933L18.245 29.7653L18.3635 29.7166C18.517 29.6538 18.6697 29.5975 18.8186 29.5496C18.9636 29.503 19.1073 29.4633 19.2471 29.4324C20.9132 29.0626 22.6925 28.7978 24.5141 28.6603C26.2623 28.5286 28.0533 28.5132 29.8246 28.6336C31.4847 28.7465 33.1265 28.9792 34.6975 29.347C36.1783 29.6937 37.5987 30.1619 38.9158 30.7645C40.1172 31.3142 41.5039 31.9439 42.9963 32.5144C44.4771 33.0804 46.051 33.5831 47.6251 33.8795C49.2322 34.1819 50.8393 34.2707 52.3508 33.9989C53.7909 33.7396 55.1484 33.151 56.3412 32.1049L55.9728 31.7044C54.8507 32.6842 53.5616 33.233 52.1868 33.4714C50.761 33.7184 49.2436 33.6306 47.7255 33.345C46.1745 33.0533 44.6213 32.556 43.1588 31.9957C41.708 31.44 40.3334 30.8158 39.1415 30.2704C37.7982 29.6557 36.3481 29.1771 34.836 28.8218C33.2293 28.4441 31.5531 28.2058 29.8607 28.0907C28.0671 27.9688 26.2509 27.9847 24.4761 28.1191C22.6224 28.2591 20.8163 28.5279 19.1296 28.9021C19.041 28.9218 18.9431 28.947 18.837 28.9774C18.7282 29.0087 18.6255 29.0413 18.5289 29.0748L18.2635 29.1671L18.2588 28.8856C18.2526 28.5023 18.2305 28.1096 18.1923 27.714C18.1555 27.3303 18.1021 26.9377 18.0327 26.5432C17.735 24.8536 17.1405 23.2058 16.2343 22.022ZM17.645 30.4267L17.6129 30.6814C17.5313 31.2576 17.4044 31.7702 17.2339 32.1823C17.0642 32.5932 16.8484 32.9099 16.588 33.0994C16.4073 33.2306 16.1956 33.2926 15.9531 33.2712C15.7414 33.2527 15.5073 33.1686 15.2517 33.0094L15.2346 32.9989L15.2182 32.983C15.1927 32.9583 15.1692 32.9313 15.1486 32.9032C15.1267 32.8742 15.1084 32.8419 15.094 32.8087C15.0429 32.6902 15.0424 32.5541 15.084 32.4068C15.1206 32.2771 15.192 32.1337 15.2895 31.9833C15.4072 31.802 15.5614 31.6161 15.7427 31.4317C15.9293 31.242 16.1462 31.0522 16.3819 30.8691C16.5287 30.7553 16.6844 30.6432 16.8452 30.5351C17.0115 30.4232 17.1773 30.3191 17.3396 30.2244L17.6973 30.0158L17.645 30.4267V30.4267ZM17.2146 30.7346C17.0035 30.884 16.826 30.997 16.6256 31.152C16.3182 31.3906 15.5631 32.1004 15.5826 32.514C15.6008 32.8971 15.8401 32.9875 16.0838 32.9282C16.4213 32.846 16.7322 32.2978 16.8515 32.0087C16.9913 31.6709 17.1382 31.2056 17.2146 30.7346V30.7346Z" fill="#FEFEFE"/>
<path fill-rule="evenodd" clip-rule="evenodd" d="M56.3795 31.0136C56.7633 31.0136 57.0742 31.3245 57.0742 31.7084C57.0742 32.0922 56.7633 32.4031 56.3795 32.4031C55.9956 32.4031 55.6847 32.0922 55.6847 31.7084C55.6847 31.3245 55.9956 31.0136 56.3795 31.0136Z" fill="#FEFEFE"/>
<path fill-rule="evenodd" clip-rule="evenodd" d="M72.1314 2.28871C72.5865 2.37611 72.8837 2.80881 72.7952 3.25531C72.7067 3.70191 72.266 3.993 71.811 3.9056C71.3559 3.8183 71.0587 3.38551 71.1472 2.93901C71.2357 2.49251 71.6763 2.20141 72.1314 2.28871Z" fill="#FCC859"/>
<path d="M72.2059 1.92599L72.2109 1.927C72.5382 1.9923 72.8085 2.18 72.9809 2.4312C73.1519 2.6805 73.2274 2.99419 73.1673 3.31389L73.1655 3.32599C73.1015 3.64889 72.9094 3.9163 72.6514 4.0869C72.393 4.2576 72.0683 4.33149 71.7393 4.26849L71.7308 4.26719C71.4042 4.20249 71.1343 4.01459 70.9616 3.76309C70.7904 3.51179 70.7146 3.1963 70.7759 2.8767L70.7769 2.86849C70.8408 2.54549 71.0327 2.278 71.2909 2.1075C71.5491 1.9367 71.8736 1.8626 72.203 1.9258L72.2059 1.92599V1.92599ZM72.0626 2.6524L72.0567 2.65139C71.932 2.62799 71.8096 2.6558 71.7127 2.7199C71.6149 2.7845 71.5419 2.88639 71.5175 3.00969L71.5165 3.01219C71.493 3.13459 71.5218 3.2553 71.5875 3.3507C71.6543 3.446 71.7565 3.5173 71.88 3.5419L71.8826 3.54269C72.0084 3.56669 72.1322 3.5389 72.2296 3.4745C72.3256 3.4109 72.3977 3.3118 72.4234 3.1919L72.4258 3.183C72.4491 3.061 72.4199 2.9401 72.3536 2.8436C72.288 2.7481 72.1857 2.6766 72.0626 2.6524Z" fill="#FCC859"/>
<path fill-rule="evenodd" clip-rule="evenodd" d="M80.623 1.3104C81.0781 1.3978 81.3753 1.83051 81.2868 2.27701C81.1983 2.72351 80.7577 3.01471 80.3026 2.92731C79.8475 2.84001 79.5503 2.40721 79.6388 1.96071C79.7273 1.51421 80.1679 1.2231 80.623 1.3104Z" fill="#FCC859"/>
<path d="M80.6954 0.947693L80.7013 0.948797L80.6282 1.3115L80.7028 0.948797C81.0296 1.0135 81.2997 1.2014 81.4724 1.4529C81.6439 1.7047 81.7194 2.0199 81.6581 2.3398L81.6571 2.3491C81.5926 2.6716 81.4008 2.9382 81.1431 3.1087C80.8847 3.2793 80.56 3.35329 80.231 3.29019L80.223 3.289C79.8959 3.2237 79.6256 3.0362 79.4531 2.7849C79.2823 2.5356 79.2066 2.2218 79.2667 1.9021L79.2685 1.89C79.3325 1.5671 79.5246 1.2997 79.7826 1.1291C80.041 0.9584 80.3657 0.884493 80.6954 0.947693V0.947693ZM80.5536 1.674L80.55 1.67309C80.4248 1.64949 80.3014 1.6773 80.2044 1.7415C80.1084 1.8051 80.0363 1.904 80.0106 2.0241L80.0082 2.03309C79.9849 2.15499 80.0141 2.2759 80.0804 2.3724C80.146 2.4679 80.2481 2.5394 80.3707 2.5636L80.3773 2.5647C80.502 2.588 80.6246 2.5602 80.7213 2.4963C80.8191 2.4317 80.8921 2.3298 80.9165 2.2065L80.9175 2.2001C80.9403 2.0788 80.9115 1.9598 80.8465 1.8653C80.7797 1.77 80.6771 1.6987 80.5536 1.674V1.674Z" fill="#FCC859"/>
<path fill-rule="evenodd" clip-rule="evenodd" d="M88.0093 5.3679C88.4644 5.4553 88.7616 5.888 88.6731 6.3346C88.5846 6.7811 88.144 7.0722 87.6889 6.9849C87.2338 6.8975 86.9366 6.4648 87.0251 6.0182C87.1136 5.5717 87.5542 5.2806 88.0093 5.3679Z" fill="#FCC859"/>
<path d="M88.0869 5.00519L88.0918 5.00629C88.4177 5.07279 88.6868 5.25999 88.8588 5.51039C89.0298 5.75959 89.1052 6.07359 89.0451 6.39319L89.0434 6.40519C88.9795 6.72839 88.7875 6.99559 88.5294 7.16619C88.2709 7.33689 87.946 7.41079 87.6172 7.34769L87.6065 7.3465C87.2807 7.28 87.0116 7.09299 86.8394 6.84239C86.6685 6.59319 86.593 6.27919 86.6531 5.95959L86.6548 5.94759C86.7187 5.62459 86.9108 5.35719 87.1688 5.18659C87.4274 5.01599 87.7522 4.94199 88.0811 5.00509L88.0869 5.00519V5.00519ZM87.9367 5.73169L87.9318 5.73059C87.8082 5.70769 87.6866 5.7356 87.5906 5.799C87.4945 5.8626 87.4227 5.96149 87.397 6.08159L87.3945 6.09059C87.3712 6.21249 87.4004 6.33339 87.4667 6.42989C87.5324 6.52549 87.6344 6.597 87.7571 6.6211L87.7664 6.62219C87.89 6.64509 88.0116 6.61719 88.1077 6.55379C88.2035 6.49039 88.2755 6.39129 88.3013 6.27119L88.3037 6.26219C88.327 6.14029 88.2976 6.01919 88.2315 5.92289C88.1659 5.82739 88.0636 5.75579 87.9412 5.73169H87.9367V5.73169Z" fill="#FCC859"/>
<path d="M71.8115 5.2464C71.7785 5.0446 71.9187 4.8548 72.1244 4.8227C72.3301 4.7906 72.5239 4.92821 72.5569 5.12991C72.7377 6.23671 72.8854 7.3434 72.9415 8.4481C72.9906 9.4146 72.9698 10.3838 72.8412 11.3567C74.3343 11.3329 75.9474 11.5021 77.7049 11.8398C79.5348 12.1914 81.522 12.726 83.6942 13.4153C84.0686 12.5084 84.478 11.6199 84.9203 10.7496C85.4137 9.77901 85.9559 8.8175 86.5438 7.8659C86.651 7.6916 86.8824 7.6356 87.0603 7.741C87.2382 7.8463 87.2956 8.0733 87.1883 8.2476C86.6194 9.1685 86.0878 10.1127 85.5959 11.0802C85.1089 12.0382 84.6669 13.0077 84.2719 13.9885C84.2071 14.183 83.994 14.2887 83.7959 14.2251C81.5201 13.4932 79.4521 12.9287 77.5616 12.5655C75.6844 12.2049 73.9807 12.0424 72.4196 12.1101C72.3944 12.1103 72.3688 12.1089 72.3429 12.1047C72.1374 12.0723 71.9977 11.8823 72.0306 11.6811C72.2075 10.621 72.2407 9.5539 72.1864 8.483C72.1315 7.404 71.9876 6.3248 71.8115 5.2464V5.2464Z" fill="#FCC859"/>
<path d="M73.2937 4.8396C73.1489 4.693 73.1527 4.4588 73.3023 4.317C73.4519 4.1752 73.6909 4.1793 73.8356 4.326L76.1752 6.6862L78.8828 3.6484C79.0196 3.4951 79.2578 3.4795 79.4144 3.6139C79.5711 3.7483 79.5871 3.9818 79.4503 4.1351L76.4524 7.4971C76.3028 7.6389 76.0638 7.6348 75.9191 7.4881L73.2937 4.8396V4.8396Z" fill="#FCC859"/>
<path d="M80.5933 4.3343C80.5299 4.1396 80.6396 3.9312 80.8381 3.8693C81.0365 3.8075 81.2491 3.9151 81.3125 4.1097L82.5916 8.0185L85.68 6.6161C85.8686 6.5308 86.0928 6.6115 86.1802 6.7964C86.2676 6.9814 86.1854 7.2009 85.9968 7.2862L82.5465 8.8529C82.5249 8.8648 82.5018 8.87471 82.4773 8.88231C82.2788 8.94411 82.0662 8.83651 82.0028 8.64191L80.5933 4.3343V4.3343Z" fill="#FCC859"/>
<path d="M73.7717 10.8545C73.564 10.8482 73.4004 10.6778 73.4065 10.474C73.4125 10.2702 73.5864 10.1101 73.7942 10.1163C75.5279 10.1681 77.1983 10.3391 78.8087 10.6432C80.4248 10.9488 81.9802 11.3883 83.4778 11.9761C83.6714 12.0514 83.766 12.2666 83.6894 12.4562C83.6127 12.6458 83.3933 12.7384 83.1997 12.6631C81.7441 12.0918 80.2346 11.665 78.6685 11.369C77.0963 11.0719 75.465 10.9051 73.7717 10.8545V10.8545Z" fill="#FCC859"/>
<path fill-rule="evenodd" clip-rule="evenodd" d="M72.1314 2.28871C72.5865 2.37611 72.8837 2.80881 72.7952 3.25531C72.7067 3.70191 72.266 3.993 71.811 3.9056C71.3559 3.8183 71.0587 3.38551 71.1472 2.93901C71.2357 2.49251 71.6763 2.20141 72.1314 2.28871Z" fill="#FCC859"/>
<path d="M72.2059 1.92599L72.2109 1.927C72.5382 1.9923 72.8085 2.18 72.9809 2.4312C73.1519 2.6805 73.2274 2.99419 73.1673 3.31389L73.1655 3.32599C73.1015 3.64889 72.9094 3.9163 72.6514 4.0869C72.393 4.2576 72.0683 4.33149 71.7393 4.26849L71.7308 4.26719C71.4042 4.20249 71.1343 4.01459 70.9616 3.76309C70.7904 3.51179 70.7146 3.1963 70.7759 2.8767L70.7769 2.86849C70.8408 2.54549 71.0327 2.278 71.2909 2.1075C71.5491 1.9367 71.8736 1.8626 72.203 1.9258L72.2059 1.92599V1.92599ZM72.0626 2.6524L72.0567 2.65139C71.932 2.62799 71.8096 2.6558 71.7127 2.7199C71.6149 2.7845 71.5419 2.88639 71.5175 3.00969L71.5165 3.01219C71.493 3.13459 71.5218 3.2553 71.5875 3.3507C71.6543 3.446 71.7565 3.5173 71.88 3.5419L71.8826 3.54269C72.0084 3.56669 72.1322 3.5389 72.2296 3.4745C72.3256 3.4109 72.3977 3.3118 72.4234 3.1919L72.4258 3.183C72.4491 3.061 72.4199 2.9401 72.3536 2.8436C72.288 2.7481 72.1857 2.6766 72.0626 2.6524Z" fill="#FCC859"/>
<path fill-rule="evenodd" clip-rule="evenodd" d="M80.623 1.3104C81.0781 1.3978 81.3753 1.83051 81.2868 2.27701C81.1983 2.72351 80.7577 3.01471 80.3026 2.92731C79.8475 2.84001 79.5503 2.40721 79.6388 1.96071C79.7273 1.51421 80.1679 1.2231 80.623 1.3104Z" fill="#FCC859"/>
<path d="M80.6954 0.947693L80.7013 0.948797L80.6282 1.3115L80.7028 0.948797C81.0296 1.0135 81.2997 1.2014 81.4724 1.4529C81.6439 1.7047 81.7194 2.0199 81.6581 2.3398L81.6571 2.3491C81.5926 2.6716 81.4008 2.9382 81.1431 3.1087C80.8847 3.2793 80.56 3.35329 80.231 3.29019L80.223 3.289C79.8959 3.2237 79.6256 3.0362 79.4531 2.7849C79.2823 2.5356 79.2066 2.2218 79.2667 1.9021L79.2685 1.89C79.3325 1.5671 79.5246 1.2997 79.7826 1.1291C80.041 0.9584 80.3657 0.884493 80.6954 0.947693V0.947693ZM80.5536 1.674L80.55 1.67309C80.4248 1.64949 80.3014 1.6773 80.2044 1.7415C80.1084 1.8051 80.0363 1.904 80.0106 2.0241L80.0082 2.03309C79.9849 2.15499 80.0141 2.2759 80.0804 2.3724C80.146 2.4679 80.2481 2.5394 80.3707 2.5636L80.3773 2.5647C80.502 2.588 80.6246 2.5602 80.7213 2.4963C80.8191 2.4317 80.8921 2.3298 80.9165 2.2065L80.9175 2.2001C80.9403 2.0788 80.9115 1.9598 80.8465 1.8653C80.7797 1.77 80.6771 1.6987 80.5536 1.674V1.674Z" fill="#FCC859"/>
<path fill-rule="evenodd" clip-rule="evenodd" d="M88.0093 5.3679C88.4644 5.4553 88.7616 5.888 88.6731 6.3346C88.5846 6.7811 88.144 7.0722 87.6889 6.9849C87.2338 6.8975 86.9366 6.4648 87.0251 6.0182C87.1136 5.5717 87.5542 5.2806 88.0093 5.3679Z" fill="#FCC859"/>
<path d="M88.0869 5.00519L88.0918 5.00629C88.4177 5.07279 88.6868 5.25999 88.8588 5.51039C89.0298 5.75959 89.1052 6.07359 89.0451 6.39319L89.0434 6.40519C88.9795 6.72839 88.7875 6.99559 88.5294 7.16619C88.2709 7.33689 87.946 7.41079 87.6172 7.34769L87.6065 7.3465C87.2807 7.28 87.0116 7.09299 86.8394 6.84239C86.6685 6.59319 86.593 6.27919 86.6531 5.95959L86.6548 5.94759C86.7187 5.62459 86.9108 5.35719 87.1688 5.18659C87.4274 5.01599 87.7522 4.94199 88.0811 5.00509L88.0869 5.00519V5.00519ZM87.9367 5.73169L87.9318 5.73059C87.8082 5.70769 87.6866 5.7356 87.5906 5.799C87.4945 5.8626 87.4227 5.96149 87.397 6.08159L87.3945 6.09059C87.3712 6.21249 87.4004 6.33339 87.4667 6.42989C87.5324 6.52549 87.6344 6.597 87.7571 6.6211L87.7664 6.62219C87.89 6.64509 88.0116 6.61719 88.1077 6.55379C88.2035 6.49039 88.2755 6.39129 88.3013 6.27119L88.3037 6.26219C88.327 6.14029 88.2976 6.01919 88.2315 5.92289C88.1659 5.82739 88.0636 5.75579 87.9412 5.73169H87.9367V5.73169Z" fill="#FCC859"/>
<path d="M71.8115 5.2464C71.7785 5.0446 71.9187 4.8548 72.1244 4.8227C72.3301 4.7906 72.5239 4.92821 72.5569 5.12991C72.7377 6.23671 72.8854 7.3434 72.9415 8.4481C72.9906 9.4146 72.9698 10.3838 72.8412 11.3567C74.3343 11.3329 75.9474 11.5021 77.7049 11.8398C79.5348 12.1914 81.522 12.726 83.6942 13.4153C84.0686 12.5084 84.478 11.6199 84.9203 10.7496C85.4137 9.77901 85.9559 8.8175 86.5438 7.8659C86.651 7.6916 86.8824 7.6356 87.0603 7.741C87.2382 7.8463 87.2956 8.0733 87.1883 8.2476C86.6194 9.1685 86.0878 10.1127 85.5959 11.0802C85.1089 12.0382 84.6669 13.0077 84.2719 13.9885C84.2071 14.183 83.994 14.2887 83.7959 14.2251C81.5201 13.4932 79.4521 12.9287 77.5616 12.5655C75.6844 12.2049 73.9807 12.0424 72.4196 12.1101C72.3944 12.1103 72.3688 12.1089 72.3429 12.1047C72.1374 12.0723 71.9977 11.8823 72.0306 11.6811C72.2075 10.621 72.2407 9.5539 72.1864 8.483C72.1315 7.404 71.9876 6.3248 71.8115 5.2464V5.2464Z" fill="#FCC859"/>
<path d="M73.2937 4.8396C73.1489 4.693 73.1527 4.4588 73.3023 4.317C73.4519 4.1752 73.6909 4.1793 73.8356 4.326L76.1752 6.6862L78.8828 3.6484C79.0196 3.4951 79.2578 3.4795 79.4144 3.6139C79.5711 3.7483 79.5871 3.9818 79.4503 4.1351L76.4524 7.4971C76.3028 7.6389 76.0638 7.6348 75.9191 7.4881L73.2937 4.8396V4.8396Z" fill="#FCC859"/>
<path d="M80.5933 4.3343C80.5299 4.1396 80.6396 3.9312 80.8381 3.8693C81.0365 3.8075 81.2491 3.9151 81.3125 4.1097L82.5916 8.0185L85.68 6.6161C85.8686 6.5308 86.0928 6.6115 86.1802 6.7964C86.2676 6.9814 86.1854 7.2009 85.9968 7.2862L82.5465 8.8529C82.5249 8.8648 82.5018 8.87471 82.4773 8.88231C82.2788 8.94411 82.0662 8.83651 82.0028 8.64191L80.5933 4.3343V4.3343Z" fill="#FCC859"/>
<path d="M73.7717 10.8545C73.564 10.8482 73.4004 10.6778 73.4065 10.474C73.4125 10.2702 73.5864 10.1101 73.7942 10.1163C75.5279 10.1681 77.1983 10.3391 78.8087 10.6432C80.4248 10.9488 81.9802 11.3883 83.4778 11.9761C83.6714 12.0514 83.766 12.2666 83.6894 12.4562C83.6127 12.6458 83.3933 12.7384 83.1997 12.6631C81.7441 12.0918 80.2346 11.665 78.6685 11.369C77.0963 11.0719 75.465 10.9051 73.7717 10.8545V10.8545Z" fill="#FCC859"/>
<path fill-rule="evenodd" clip-rule="evenodd" d="M88.0093 5.3679C88.4644 5.4553 88.7616 5.888 88.6731 6.3346C88.5846 6.7811 88.144 7.0722 87.6889 6.9849C87.2338 6.8975 86.9366 6.4648 87.0251 6.0182C87.1136 5.5717 87.5542 5.2806 88.0093 5.3679Z" fill="#FCC859"/>
<path d="M88.0869 5.00519L88.0918 5.00629C88.4177 5.07279 88.6868 5.25999 88.8588 5.51039C89.0298 5.75959 89.1052 6.07359 89.0451 6.39319L89.0434 6.40519C88.9795 6.72839 88.7875 6.99559 88.5294 7.16619C88.2709 7.33689 87.946 7.41079 87.6172 7.34769L87.6065 7.3465C87.2807 7.28 87.0116 7.09299 86.8394 6.84239C86.6685 6.59319 86.593 6.27919 86.6531 5.95959L86.6548 5.94759C86.7187 5.62459 86.9108 5.35719 87.1688 5.18659C87.4274 5.01599 87.7522 4.94199 88.0811 5.00509L88.0869 5.00519V5.00519ZM87.9367 5.73169L87.9318 5.73059C87.8082 5.70769 87.6866 5.7356 87.5906 5.799C87.4945 5.8626 87.4227 5.96149 87.397 6.08159L87.3945 6.09059C87.3712 6.21249 87.4004 6.33339 87.4667 6.42989C87.5324 6.52549 87.6344 6.597 87.7571 6.6211L87.7664 6.62219C87.89 6.64509 88.0116 6.61719 88.1077 6.55379C88.2035 6.49039 88.2755 6.39129 88.3013 6.27119L88.3037 6.26219C88.327 6.14029 88.2976 6.01919 88.2315 5.92289C88.1659 5.82739 88.0636 5.75579 87.9412 5.73169H87.9367V5.73169Z" fill="#FCC859"/>
<path fill-rule="evenodd" clip-rule="evenodd" d="M88.0093 5.3679C88.4644 5.4553 88.7616 5.888 88.6731 6.3346C88.5846 6.7811 88.144 7.0722 87.6889 6.9849C87.2338 6.8975 86.9366 6.4648 87.0251 6.0182C87.1136 5.5717 87.5542 5.2806 88.0093 5.3679Z" fill="#FCC859"/>
<path d="M88.0869 5.00519L88.0918 5.00629C88.4177 5.07279 88.6868 5.25999 88.8588 5.51039C89.0298 5.75959 89.1052 6.07359 89.0451 6.39319L89.0434 6.40519C88.9795 6.72839 88.7875 6.99559 88.5294 7.16619C88.2709 7.33689 87.946 7.41079 87.6172 7.34769L87.6065 7.3465C87.2807 7.28 87.0116 7.09299 86.8394 6.84239C86.6685 6.59319 86.593 6.27919 86.6531 5.95959L86.6548 5.94759C86.7187 5.62459 86.9108 5.35719 87.1688 5.18659C87.4274 5.01599 87.7522 4.94199 88.0811 5.00509L88.0869 5.00519V5.00519ZM87.9367 5.73169L87.9318 5.73059C87.8082 5.70769 87.6866 5.7356 87.5906 5.799C87.4945 5.8626 87.4227 5.96149 87.397 6.08159L87.3945 6.09059C87.3712 6.21249 87.4004 6.33339 87.4667 6.42989C87.5324 6.52549 87.6344 6.597 87.7571 6.6211L87.7664 6.62219C87.89 6.64509 88.0116 6.61719 88.1077 6.55379C88.2035 6.49039 88.2755 6.39129 88.3013 6.27119L88.3037 6.26219C88.327 6.14029 88.2976 6.01919 88.2315 5.92289C88.1659 5.82739 88.0636 5.75579 87.9412 5.73169H87.9367V5.73169Z" fill="#FCC859"/>
<path fill-rule="evenodd" clip-rule="evenodd" d="M72.1314 2.28871C72.5865 2.37611 72.8837 2.80881 72.7952 3.25531C72.7067 3.70191 72.266 3.993 71.811 3.9056C71.3559 3.8183 71.0587 3.38551 71.1472 2.93901C71.2357 2.49251 71.6763 2.20141 72.1314 2.28871Z" fill="#FCC859"/>
<path d="M72.2059 1.92599L72.2109 1.927C72.5382 1.9923 72.8085 2.18 72.9809 2.4312C73.1519 2.6805 73.2274 2.99419 73.1673 3.31389L73.1655 3.32599C73.1015 3.64889 72.9094 3.9163 72.6514 4.0869C72.393 4.2576 72.0683 4.33149 71.7393 4.26849L71.7308 4.26719C71.4042 4.20249 71.1343 4.01459 70.9616 3.76309C70.7904 3.51179 70.7146 3.1963 70.7759 2.8767L70.7769 2.86849C70.8408 2.54549 71.0327 2.278 71.2909 2.1075C71.5491 1.9367 71.8736 1.8626 72.203 1.9258L72.2059 1.92599V1.92599ZM72.0626 2.6524L72.0567 2.65139C71.932 2.62799 71.8096 2.6558 71.7127 2.7199C71.6149 2.7845 71.5419 2.88639 71.5175 3.00969L71.5165 3.01219C71.493 3.13459 71.5218 3.2553 71.5875 3.3507C71.6543 3.446 71.7565 3.5173 71.88 3.5419L71.8826 3.54269C72.0084 3.56669 72.1322 3.5389 72.2296 3.4745C72.3256 3.4109 72.3977 3.3118 72.4234 3.1919L72.4258 3.183C72.4491 3.061 72.4199 2.9401 72.3536 2.8436C72.288 2.7481 72.1857 2.6766 72.0626 2.6524Z" fill="#FCC859"/>
<path fill-rule="evenodd" clip-rule="evenodd" d="M80.623 1.3104C81.0781 1.3978 81.3753 1.83051 81.2868 2.27701C81.1983 2.72351 80.7577 3.01471 80.3026 2.92731C79.8475 2.84001 79.5503 2.40721 79.6388 1.96071C79.7273 1.51421 80.1679 1.2231 80.623 1.3104Z" fill="#FCC859"/>
<path d="M80.6954 0.947693L80.7013 0.948797L80.6282 1.3115L80.7028 0.948797C81.0296 1.0135 81.2997 1.2014 81.4724 1.4529C81.6439 1.7047 81.7194 2.0199 81.6581 2.3398L81.6571 2.3491C81.5926 2.6716 81.4008 2.9382 81.1431 3.1087C80.8847 3.2793 80.56 3.35329 80.231 3.29019L80.223 3.289C79.8959 3.2237 79.6256 3.0362 79.4531 2.7849C79.2823 2.5356 79.2066 2.2218 79.2667 1.9021L79.2685 1.89C79.3325 1.5671 79.5246 1.2997 79.7826 1.1291C80.041 0.9584 80.3657 0.884493 80.6954 0.947693V0.947693ZM80.5536 1.674L80.55 1.67309C80.4248 1.64949 80.3014 1.6773 80.2044 1.7415C80.1084 1.8051 80.0363 1.904 80.0106 2.0241L80.0082 2.03309C79.9849 2.15499 80.0141 2.2759 80.0804 2.3724C80.146 2.4679 80.2481 2.5394 80.3707 2.5636L80.3773 2.5647C80.502 2.588 80.6246 2.5602 80.7213 2.4963C80.8191 2.4317 80.8921 2.3298 80.9165 2.2065L80.9175 2.2001C80.9403 2.0788 80.9115 1.9598 80.8465 1.8653C80.7797 1.77 80.6771 1.6987 80.5536 1.674V1.674Z" fill="#FCC859"/>
<path fill-rule="evenodd" clip-rule="evenodd" d="M88.0093 5.3679C88.4644 5.4553 88.7616 5.888 88.6731 6.3346C88.5846 6.7811 88.144 7.0722 87.6889 6.9849C87.2338 6.8975 86.9366 6.4648 87.0251 6.0182C87.1136 5.5717 87.5542 5.2806 88.0093 5.3679Z" fill="#FCC859"/>
<path d="M88.0869 5.00519L88.0918 5.00629C88.4177 5.07279 88.6868 5.25999 88.8588 5.51039C89.0298 5.75959 89.1052 6.07359 89.0451 6.39319L89.0434 6.40519C88.9795 6.72839 88.7875 6.99559 88.5294 7.16619C88.2709 7.33689 87.946 7.41079 87.6172 7.34769L87.6065 7.3465C87.2807 7.28 87.0116 7.09299 86.8394 6.84239C86.6685 6.59319 86.593 6.27919 86.6531 5.95959L86.6548 5.94759C86.7187 5.62459 86.9108 5.35719 87.1688 5.18659C87.4274 5.01599 87.7522 4.94199 88.0811 5.00509L88.0869 5.00519V5.00519ZM87.9367 5.73169L87.9318 5.73059C87.8082 5.70769 87.6866 5.7356 87.5906 5.799C87.4945 5.8626 87.4227 5.96149 87.397 6.08159L87.3945 6.09059C87.3712 6.21249 87.4004 6.33339 87.4667 6.42989C87.5324 6.52549 87.6344 6.597 87.7571 6.6211L87.7664 6.62219C87.89 6.64509 88.0116 6.61719 88.1077 6.55379C88.2035 6.49039 88.2755 6.39129 88.3013 6.27119L88.3037 6.26219C88.327 6.14029 88.2976 6.01919 88.2315 5.92289C88.1659 5.82739 88.0636 5.75579 87.9412 5.73169H87.9367V5.73169Z" fill="#FCC859"/>
<path d="M71.8115 5.2464C71.7785 5.0446 71.9187 4.8548 72.1244 4.8227C72.3301 4.7906 72.5239 4.92821 72.5569 5.12991C72.7377 6.23671 72.8854 7.3434 72.9415 8.4481C72.9906 9.4146 72.9698 10.3838 72.8412 11.3567C74.3343 11.3329 75.9474 11.5021 77.7049 11.8398C79.5348 12.1914 81.522 12.726 83.6942 13.4153C84.0686 12.5084 84.478 11.6199 84.9203 10.7496C85.4137 9.77901 85.9559 8.8175 86.5438 7.8659C86.651 7.6916 86.8824 7.6356 87.0603 7.741C87.2382 7.8463 87.2956 8.0733 87.1883 8.2476C86.6194 9.1685 86.0878 10.1127 85.5959 11.0802C85.1089 12.0382 84.6669 13.0077 84.2719 13.9885C84.2071 14.183 83.994 14.2887 83.7959 14.2251C81.5201 13.4932 79.4521 12.9287 77.5616 12.5655C75.6844 12.2049 73.9807 12.0424 72.4196 12.1101C72.3944 12.1103 72.3688 12.1089 72.3429 12.1047C72.1374 12.0723 71.9977 11.8823 72.0306 11.6811C72.2075 10.621 72.2407 9.5539 72.1864 8.483C72.1315 7.404 71.9876 6.3248 71.8115 5.2464V5.2464Z" fill="#FCC859"/>
<path d="M73.2937 4.8396C73.1489 4.693 73.1527 4.4588 73.3023 4.317C73.4519 4.1752 73.6909 4.1793 73.8356 4.326L76.1752 6.6862L78.8828 3.6484C79.0196 3.4951 79.2578 3.4795 79.4144 3.6139C79.5711 3.7483 79.5871 3.9818 79.4503 4.1351L76.4524 7.4971C76.3028 7.6389 76.0638 7.6348 75.9191 7.4881L73.2937 4.8396V4.8396Z" fill="#FCC859"/>
<path d="M80.5933 4.3343C80.5299 4.1396 80.6396 3.9312 80.8381 3.8693C81.0365 3.8075 81.2491 3.9151 81.3125 4.1097L82.5916 8.0185L85.68 6.6161C85.8686 6.5308 86.0928 6.6115 86.1802 6.7964C86.2676 6.9814 86.1854 7.2009 85.9968 7.2862L82.5465 8.8529C82.5249 8.8648 82.5018 8.87471 82.4773 8.88231C82.2788 8.94411 82.0662 8.83651 82.0028 8.64191L80.5933 4.3343V4.3343Z" fill="#FCC859"/>
<path d="M73.7717 10.8545C73.564 10.8482 73.4004 10.6778 73.4065 10.474C73.4125 10.2702 73.5864 10.1101 73.7942 10.1163C75.5279 10.1681 77.1983 10.3391 78.8087 10.6432C80.4248 10.9488 81.9802 11.3883 83.4778 11.9761C83.6714 12.0514 83.766 12.2666 83.6894 12.4562C83.6127 12.6458 83.3933 12.7384 83.1997 12.6631C81.7441 12.0918 80.2346 11.665 78.6685 11.369C77.0963 11.0719 75.465 10.9051 73.7717 10.8545V10.8545Z" fill="#FCC859"/>
<path fill-rule="evenodd" clip-rule="evenodd" d="M72.1314 2.28871C72.5865 2.37611 72.8837 2.80881 72.7952 3.25531C72.7067 3.70191 72.266 3.993 71.811 3.9056C71.3559 3.8183 71.0587 3.38551 71.1472 2.93901C71.2357 2.49251 71.6763 2.20141 72.1314 2.28871Z" fill="#FCC859"/>
<path d="M72.2059 1.92599L72.2109 1.927C72.5382 1.9923 72.8085 2.18 72.9809 2.4312C73.1519 2.6805 73.2274 2.99419 73.1673 3.31389L73.1655 3.32599C73.1015 3.64889 72.9094 3.9163 72.6514 4.0869C72.393 4.2576 72.0683 4.33149 71.7393 4.26849L71.7308 4.26719C71.4042 4.20249 71.1343 4.01459 70.9616 3.76309C70.7904 3.51179 70.7146 3.1963 70.7759 2.8767L70.7769 2.86849C70.8408 2.54549 71.0327 2.278 71.2909 2.1075C71.5491 1.9367 71.8736 1.8626 72.203 1.9258L72.2059 1.92599V1.92599ZM72.0626 2.6524L72.0567 2.65139C71.932 2.62799 71.8096 2.6558 71.7127 2.7199C71.6149 2.7845 71.5419 2.88639 71.5175 3.00969L71.5165 3.01219C71.493 3.13459 71.5218 3.2553 71.5875 3.3507C71.6543 3.446 71.7565 3.5173 71.88 3.5419L71.8826 3.54269C72.0084 3.56669 72.1322 3.5389 72.2296 3.4745C72.3256 3.4109 72.3977 3.3118 72.4234 3.1919L72.4258 3.183C72.4491 3.061 72.4199 2.9401 72.3536 2.8436C72.288 2.7481 72.1857 2.6766 72.0626 2.6524Z" fill="#FCC859"/>
<path fill-rule="evenodd" clip-rule="evenodd" d="M80.623 1.3104C81.0781 1.3978 81.3753 1.83051 81.2868 2.27701C81.1983 2.72351 80.7577 3.01471 80.3026 2.92731C79.8475 2.84001 79.5503 2.40721 79.6388 1.96071C79.7273 1.51421 80.1679 1.2231 80.623 1.3104Z" fill="#FCC859"/>
<path d="M80.6954 0.947693L80.7013 0.948797L80.6282 1.3115L80.7028 0.948797C81.0296 1.0135 81.2997 1.2014 81.4724 1.4529C81.6439 1.7047 81.7194 2.0199 81.6581 2.3398L81.6571 2.3491C81.5926 2.6716 81.4008 2.9382 81.1431 3.1087C80.8847 3.2793 80.56 3.35329 80.231 3.29019L80.223 3.289C79.8959 3.2237 79.6256 3.0362 79.4531 2.7849C79.2823 2.5356 79.2066 2.2218 79.2667 1.9021L79.2685 1.89C79.3325 1.5671 79.5246 1.2997 79.7826 1.1291C80.041 0.9584 80.3657 0.884493 80.6954 0.947693V0.947693ZM80.5536 1.674L80.55 1.67309C80.4248 1.64949 80.3014 1.6773 80.2044 1.7415C80.1084 1.8051 80.0363 1.904 80.0106 2.0241L80.0082 2.03309C79.9849 2.15499 80.0141 2.2759 80.0804 2.3724C80.146 2.4679 80.2481 2.5394 80.3707 2.5636L80.3773 2.5647C80.502 2.588 80.6246 2.5602 80.7213 2.4963C80.8191 2.4317 80.8921 2.3298 80.9165 2.2065L80.9175 2.2001C80.9403 2.0788 80.9115 1.9598 80.8465 1.8653C80.7797 1.77 80.6771 1.6987 80.5536 1.674V1.674Z" fill="#FCC859"/>
<path fill-rule="evenodd" clip-rule="evenodd" d="M88.0093 5.3679C88.4644 5.4553 88.7616 5.888 88.6731 6.3346C88.5846 6.7811 88.144 7.0722 87.6889 6.9849C87.2338 6.8975 86.9366 6.4648 87.0251 6.0182C87.1136 5.5717 87.5542 5.2806 88.0093 5.3679Z" fill="#FCC859"/>
<path d="M88.0869 5.00519L88.0918 5.00629C88.4177 5.07279 88.6868 5.25999 88.8588 5.51039C89.0298 5.75959 89.1052 6.07359 89.0451 6.39319L89.0434 6.40519C88.9795 6.72839 88.7875 6.99559 88.5294 7.16619C88.2709 7.33689 87.946 7.41079 87.6172 7.34769L87.6065 7.3465C87.2807 7.28 87.0116 7.09299 86.8394 6.84239C86.6685 6.59319 86.593 6.27919 86.6531 5.95959L86.6548 5.94759C86.7187 5.62459 86.9108 5.35719 87.1688 5.18659C87.4274 5.01599 87.7522 4.94199 88.0811 5.00509L88.0869 5.00519V5.00519ZM87.9367 5.73169L87.9318 5.73059C87.8082 5.70769 87.6866 5.7356 87.5906 5.799C87.4945 5.8626 87.4227 5.96149 87.397 6.08159L87.3945 6.09059C87.3712 6.21249 87.4004 6.33339 87.4667 6.42989C87.5324 6.52549 87.6344 6.597 87.7571 6.6211L87.7664 6.62219C87.89 6.64509 88.0116 6.61719 88.1077 6.55379C88.2035 6.49039 88.2755 6.39129 88.3013 6.27119L88.3037 6.26219C88.327 6.14029 88.2976 6.01919 88.2315 5.92289C88.1659 5.82739 88.0636 5.75579 87.9412 5.73169H87.9367V5.73169Z" fill="#FCC859"/>
<path d="M71.8115 5.2464C71.7785 5.0446 71.9187 4.8548 72.1244 4.8227C72.3301 4.7906 72.5239 4.92821 72.5569 5.12991C72.7377 6.23671 72.8854 7.3434 72.9415 8.4481C72.9906 9.4146 72.9698 10.3838 72.8412 11.3567C74.3343 11.3329 75.9474 11.5021 77.7049 11.8398C79.5348 12.1914 81.522 12.726 83.6942 13.4153C84.0686 12.5084 84.478 11.6199 84.9203 10.7496C85.4137 9.77901 85.9559 8.8175 86.5438 7.8659C86.651 7.6916 86.8824 7.6356 87.0603 7.741C87.2382 7.8463 87.2956 8.0733 87.1883 8.2476C86.6194 9.1685 86.0878 10.1127 85.5959 11.0802C85.1089 12.0382 84.6669 13.0077 84.2719 13.9885C84.2071 14.183 83.994 14.2887 83.7959 14.2251C81.5201 13.4932 79.4521 12.9287 77.5616 12.5655C75.6844 12.2049 73.9807 12.0424 72.4196 12.1101C72.3944 12.1103 72.3688 12.1089 72.3429 12.1047C72.1374 12.0723 71.9977 11.8823 72.0306 11.6811C72.2075 10.621 72.2407 9.5539 72.1864 8.483C72.1315 7.404 71.9876 6.3248 71.8115 5.2464V5.2464Z" fill="#FCC859"/>
<path d="M73.2937 4.8396C73.1489 4.693 73.1527 4.4588 73.3023 4.317C73.4519 4.1752 73.6909 4.1793 73.8356 4.326L76.1752 6.6862L78.8828 3.6484C79.0196 3.4951 79.2578 3.4795 79.4144 3.6139C79.5711 3.7483 79.5871 3.9818 79.4503 4.1351L76.4524 7.4971C76.3028 7.6389 76.0638 7.6348 75.9191 7.4881L73.2937 4.8396V4.8396Z" fill="#FCC859"/>
<path d="M80.5933 4.3343C80.5299 4.1396 80.6396 3.9312 80.8381 3.8693C81.0365 3.8075 81.2491 3.9151 81.3125 4.1097L82.5916 8.0185L85.68 6.6161C85.8686 6.5308 86.0928 6.6115 86.1802 6.7964C86.2676 6.9814 86.1854 7.2009 85.9968 7.2862L82.5465 8.8529C82.5249 8.8648 82.5018 8.87471 82.4773 8.88231C82.2788 8.94411 82.0662 8.83651 82.0028 8.64191L80.5933 4.3343V4.3343Z" fill="#FCC859"/>
<path d="M73.7717 10.8545C73.564 10.8482 73.4004 10.6778 73.4065 10.474C73.4125 10.2702 73.5864 10.1101 73.7942 10.1163C75.5279 10.1681 77.1983 10.3391 78.8087 10.6432C80.4248 10.9488 81.9802 11.3883 83.4778 11.9761C83.6714 12.0514 83.766 12.2666 83.6894 12.4562C83.6127 12.6458 83.3933 12.7384 83.1997 12.6631C81.7441 12.0918 80.2346 11.665 78.6685 11.369C77.0963 11.0719 75.465 10.9051 73.7717 10.8545V10.8545Z" fill="#FCC859"/>
<path fill-rule="evenodd" clip-rule="evenodd" d="M88.0093 5.3679C88.4644 5.4553 88.7616 5.888 88.6731 6.3346C88.5846 6.7811 88.144 7.0722 87.6889 6.9849C87.2338 6.8975 86.9366 6.4648 87.0251 6.0182C87.1136 5.5717 87.5542 5.2806 88.0093 5.3679Z" fill="#FCC859"/>
<path d="M88.0869 5.00519L88.0918 5.00629C88.4177 5.07279 88.6868 5.25999 88.8588 5.51039C89.0298 5.75959 89.1052 6.07359 89.0451 6.39319L89.0434 6.40519C88.9795 6.72839 88.7875 6.99559 88.5294 7.16619C88.2709 7.33689 87.946 7.41079 87.6172 7.34769L87.6065 7.3465C87.2807 7.28 87.0116 7.09299 86.8394 6.84239C86.6685 6.59319 86.593 6.27919 86.6531 5.95959L86.6548 5.94759C86.7187 5.62459 86.9108 5.35719 87.1688 5.18659C87.4274 5.01599 87.7522 4.94199 88.0811 5.00509L88.0869 5.00519V5.00519ZM87.9367 5.73169L87.9318 5.73059C87.8082 5.70769 87.6866 5.7356 87.5906 5.799C87.4945 5.8626 87.4227 5.96149 87.397 6.08159L87.3945 6.09059C87.3712 6.21249 87.4004 6.33339 87.4667 6.42989C87.5324 6.52549 87.6344 6.597 87.7571 6.6211L87.7664 6.62219C87.89 6.64509 88.0116 6.61719 88.1077 6.55379C88.2035 6.49039 88.2755 6.39129 88.3013 6.27119L88.3037 6.26219C88.327 6.14029 88.2976 6.01919 88.2315 5.92289C88.1659 5.82739 88.0636 5.75579 87.9412 5.73169H87.9367V5.73169Z" fill="#FCC859"/>
<path fill-rule="evenodd" clip-rule="evenodd" d="M88.0093 5.3679C88.4644 5.4553 88.7616 5.888 88.6731 6.3346C88.5846 6.7811 88.144 7.0722 87.6889 6.9849C87.2338 6.8975 86.9366 6.4648 87.0251 6.0182C87.1136 5.5717 87.5542 5.2806 88.0093 5.3679Z" fill="#FCC859"/>
<path d="M88.0869 5.00519L88.0918 5.00629C88.4177 5.07279 88.6868 5.25999 88.8588 5.51039C89.0298 5.75959 89.1052 6.07359 89.0451 6.39319L89.0434 6.40519C88.9795 6.72839 88.7875 6.99559 88.5294 7.16619C88.2709 7.33689 87.946 7.41079 87.6172 7.34769L87.6065 7.3465C87.2807 7.28 87.0116 7.09299 86.8394 6.84239C86.6685 6.59319 86.593 6.27919 86.6531 5.95959L86.6548 5.94759C86.7187 5.62459 86.9108 5.35719 87.1688 5.18659C87.4274 5.01599 87.7522 4.94199 88.0811 5.00509L88.0869 5.00519V5.00519ZM87.9367 5.73169L87.9318 5.73059C87.8082 5.70769 87.6866 5.7356 87.5906 5.799C87.4945 5.8626 87.4227 5.96149 87.397 6.08159L87.3945 6.09059C87.3712 6.21249 87.4004 6.33339 87.4667 6.42989C87.5324 6.52549 87.6344 6.597 87.7571 6.6211L87.7664 6.62219C87.89 6.64509 88.0116 6.61719 88.1077 6.55379C88.2035 6.49039 88.2755 6.39129 88.3013 6.27119L88.3037 6.26219C88.327 6.14029 88.2976 6.01919 88.2315 5.92289C88.1659 5.82739 88.0636 5.75579 87.9412 5.73169H87.9367V5.73169Z" fill="#FCC859"/>
</svg>
