<svg id="Слой_1" data-name="Слой 1" xmlns="http://www.w3.org/2000/svg" viewBox="0 0 201.86 200.33"><defs><style>.cls-1{fill:#fcc442;}</style></defs><title>icon-28</title><path class="cls-1" d="M123.47,129.91c2.85,9.77,5.45,19,8.36,28.23.36,1.14,2.2,2.24,3.54,2.57,10.5,2.58,16,9.11,16.16,19.87.12,6.47,0,12.94,0,19.75H50.81c0-8.14-.49-16.13.14-24,.61-7.69,6.82-13.74,15.06-15.28,3-.57,4.18-1.89,4.91-4.56,2.26-8.35,4.69-16.65,7-25a3.83,3.83,0,0,0-.1-1.34c-7.13-2-14.36-3.35-21.12-5.93C28.72,113.52,12.94,92,5.19,64A180.67,180.67,0,0,1,.24,36.58C-1.65,20.22,7.72,10.11,24.19,10c5.13,0,10.26,0,16,0V0h121.4V10c5.8,0,11.07,0,16.33,0,16,.16,25.23,10,23.83,25.85C200,55.08,195.86,73.68,185.56,90.4q-19.91,32.32-57.44,38.41c-1.29.21-2.55.59-4.64,1.09M59.15,104.3l1-1.12a8.17,8.17,0,0,0-.54-1.72C49.74,84.4,45.82,65.57,43,46.39c-.75-5.2.27-12.68-2.72-15-3.47-2.72-10.46-.92-15.93-1.09-.17,0-.33,0-.5,0-2.79-.2-4,1-3.58,3.85.62,4.45.86,9,1.68,13.36,3.23,17.5,9.13,33.81,22.63,46.2,4.39,4,9.66,7.1,14.53,10.61m82.12-.72c7.33-2.12,15.66-8.32,21.59-15.76,12.54-15.74,17-34.31,18.75-53.82.27-2.95-1-3.86-3.71-3.81-4.32.08-8.66.18-13,0-3.38-.18-4.68,1.06-5,4.47-1.93,23.86-6.26,47.12-18.69,69"/></svg>