<svg id="Capa_1" data-name="Capa 1" xmlns="http://www.w3.org/2000/svg" viewBox="0 0 890.5 890.5"><defs><style>.cls-1{fill:#fcc544;}</style></defs><title>icon-29</title><path class="cls-1" d="M208.1,180.56l355-96.9-18.8-38a50,50,0,0,0-67-22.6L159.5,180.56Z"/><path class="cls-1" d="M673.3,86.46a50,50,0,0,0-13.2,1.8l-83.4,22.8L322,180.56H737.1l-15.6-57.2A49.91,49.91,0,0,0,673.3,86.46Z"/><path class="cls-1" d="M789.2,215.56H50.1a50.06,50.06,0,0,0-48.3,36.9A51.76,51.76,0,0,0,0,265.56v557.1a50,50,0,0,0,50,50H789.1a50,50,0,0,0,50-50V683.16H542.4a85.06,85.06,0,0,1-85-85V487a84.87,84.87,0,0,1,84.9-84.9H839.1V265.56A49.87,49.87,0,0,0,789.2,215.56Z"/><path class="cls-1" d="M874.2,449.86a50,50,0,0,0-17.5-10.4,51,51,0,0,0-16.2-2.7H542.4a50,50,0,0,0-50,50v111.3a50,50,0,0,0,50,50H840.5a51,51,0,0,0,16.2-2.7A48.49,48.49,0,0,0,874.2,635a49.83,49.83,0,0,0,16.3-36.9V486.76A49.82,49.82,0,0,0,874.2,449.86ZM646.8,552.36a25,25,0,0,1-25,25H605.2a25,25,0,0,1-25-25v-16.6a24.5,24.5,0,0,1,9.6-19.6,25.26,25.26,0,0,1,15.4-5.4h16.6a25,25,0,0,1,25,25v16.6Z"/></svg>