<svg width="126" height="49" viewBox="0 0 126 49" fill="none" xmlns="http://www.w3.org/2000/svg">
<path d="M45.3306 28.1294C44.9526 27.9841 44.5089 28.1598 44.3545 28.4944C42.4107 32.7026 40.2052 34.6242 37.3379 34.5681C35.2397 34.5269 34.1057 33.3837 34.168 31.5264C34.1911 30.842 34.2979 30.2224 34.5361 29.3738C38.4103 28.4685 43.6039 26.3488 43.5776 22.8955C43.5656 21.3316 42.3356 20.4928 40.5874 20.5043C36.4619 20.5316 32.838 27.331 32.6993 31.5035C32.6105 34.1747 34.4115 35.9559 37.3133 35.9366C40.8446 35.9133 43.4957 33.7497 45.7223 29.0392C45.7667 28.9449 45.7909 28.8756 45.7903 28.778C45.7882 28.5175 45.6198 28.2404 45.3306 28.1294V28.1294ZM35.0838 27.8062C36.1833 25.2903 38.1853 21.8886 40.5977 21.8727C41.367 21.8676 42.1026 22.0255 42.1091 22.9051C42.1277 25.3162 37.979 26.9401 35.0838 27.8062V27.8062ZM58.8964 28.0398C58.5041 27.8768 58.0981 28.0405 57.92 28.4046C55.8122 32.7155 54.5746 34.454 52.9314 34.4649C52.1971 34.4698 51.8793 34.0484 51.8721 33.1037C51.8622 31.8004 52.4448 30.2654 53.1303 28.4689L53.6445 27.097C54.5689 24.517 55.2132 22.8158 55.8029 21.2833C55.9673 20.8564 55.6213 20.3723 55.0968 20.3757C54.7821 20.3778 54.5127 20.5457 54.4009 20.8366C53.7586 22.5056 52.9272 24.7233 52.071 27.1074L46.4072 27.1449L48.6005 21.331C48.762 20.9029 48.4189 20.4198 47.8944 20.4233C47.5797 20.4255 47.3105 20.5934 47.1988 20.8842C46.5566 22.5532 45.7248 24.771 44.8339 27.1552L44.3547 28.5269L41.9216 34.9939C41.5926 35.8696 42.9931 36.2975 43.3231 35.4083C44.378 32.5643 45.2079 30.3458 45.8934 28.5491C47.7814 28.5367 49.704 28.4914 51.5572 28.4793C50.9404 30.1122 50.3921 31.6147 50.4036 33.1133C50.4156 34.7097 51.2636 35.8443 52.9417 35.8333C55.3192 35.8176 56.9582 33.8885 59.2879 28.9494C59.4603 28.5838 59.2909 28.2033 58.8964 28.0398V28.0398ZM69.9795 27.9664C69.6013 27.8211 69.1578 27.9968 69.0033 28.3312C67.0594 32.5396 64.8541 34.4612 61.9868 34.4049C59.8886 34.3639 58.7546 33.2205 58.8169 31.3635C58.84 30.6788 58.9467 30.0592 59.185 29.2106C63.0592 28.3053 68.2528 26.1858 68.2265 22.7323C68.2145 21.1686 66.9845 20.3296 65.2363 20.3412C61.1108 20.3686 57.4867 27.168 57.3482 31.3405C57.2594 34.0115 59.0604 35.7929 61.9622 35.7737C65.4935 35.7503 68.1444 33.5865 70.3712 28.876C70.5372 28.524 70.3621 28.1133 69.9795 27.9664V27.9664ZM59.7326 27.6432C60.8321 25.1271 62.8342 21.7256 65.2466 21.7097C66.0159 21.7046 66.7513 21.8625 66.758 22.7421C66.7763 25.153 62.6279 26.7769 59.7326 27.6432ZM88.0898 27.7815C87.8101 27.7832 87.5445 27.9527 87.4287 28.2094C86.3067 30.6978 85.1512 32.1666 83.403 32.1782C83.0185 32.1807 82.6337 32.1507 82.2827 31.9575C83.9065 29.4056 84.9997 26.0426 84.9801 23.4687C84.9622 21.1229 84.1506 20.1509 82.0179 20.165C81.2838 20.1699 80.5865 20.4353 79.8915 20.9937C80.5764 19.0995 81.2522 17.2673 81.8441 15.7027C82.0059 15.2749 81.6622 14.7917 81.1028 14.7954C80.8233 14.7974 80.5381 14.9599 80.4419 15.2231L78.3525 20.9387C77.7899 20.5188 77.0537 20.2041 76.0742 20.2043C71.9834 20.2052 68.229 27.6522 68.2656 32.4413C68.2833 34.787 69.0949 35.759 71.2276 35.7448C71.8569 35.7407 72.4848 35.5411 73.1109 35.1133C72.1853 37.5305 71.2289 40.0792 70.2321 42.7564C70.098 43.1165 70.3026 43.5199 70.6934 43.6329C71.074 43.7431 71.5042 43.4999 71.6338 43.1706C72.4302 41.148 73.5188 38.1732 74.7524 34.8744C75.3505 35.3593 76.1219 35.6993 77.1713 35.7056C78.7097 35.7146 80.2051 34.6428 81.4517 33.0707C82.0842 33.4577 82.7491 33.551 83.5184 33.5459C85.6862 33.5316 87.3944 31.9591 88.7964 28.7542C89.0096 28.2667 88.5442 27.7783 88.0898 27.7815V27.7815ZM71.2171 34.3439C70.1681 34.3508 69.7789 33.7669 69.7684 32.3662C69.7383 28.424 73.1128 21.5924 76.0497 21.573C76.8188 21.5679 77.4157 21.8897 77.8049 22.4736C76.9821 24.6619 76.1043 27.3471 74.8924 30.2797C73.6996 33.166 72.4056 34.3361 71.2171 34.3439V34.3439ZM77.1958 34.3371C76.3577 34.2978 75.6894 33.956 75.3695 33.2741C75.7462 32.2289 76.1017 31.1766 76.5342 30.1059L77.2206 28.4071C79.1647 23.5954 80.4903 21.5761 82.0284 21.5659C83.0774 21.5591 83.226 22.1626 83.4771 23.5438C83.9151 25.9526 80.7824 34.5044 77.1958 34.3371V34.3371ZM102.46 27.7515C102.085 27.5802 101.646 27.7664 101.484 28.1164C99.5381 32.3058 98.1732 34.1657 96.4951 34.1766C95.7609 34.1815 95.4429 33.7603 95.4357 32.8154C95.429 31.9357 96.2078 29.2897 97.5161 25.9271C98.0252 24.6188 98.6798 22.856 99.4362 20.9621C99.6061 20.5369 99.2546 20.0511 98.6951 20.0546C98.4154 20.0566 98.1348 20.2207 98.034 20.4828C96.2492 25.1201 94.9693 28.5764 93.7774 30.8716C92.6264 33.088 91.2156 34.2116 89.782 34.2212C88.5234 34.2294 87.8539 33.5498 87.8438 32.214C87.8339 30.9108 88.21 30.2228 91.8493 21.0123C92.0175 20.5865 91.7375 20.1007 91.1432 20.1046C90.8634 20.1066 90.5875 20.2723 90.4821 20.5326C87.1901 28.6677 86.3629 30.5949 86.3753 32.2237C86.3922 34.4391 87.555 35.6042 89.7576 35.5897C91.4641 35.5785 93.026 34.5114 93.9704 33.2486C94.1912 34.6807 94.967 35.5552 96.5054 35.5452C98.8479 35.5297 100.59 33.5341 102.816 28.6615C102.977 28.3102 102.835 27.9229 102.46 27.7515V27.7515ZM113.508 27.6785C113.13 27.533 112.687 27.7089 112.532 28.0433C110.795 31.7943 108.662 34.0962 105.271 34.1186C103.592 34.1298 102.464 32.8991 102.45 31.0748C102.42 27.1654 106.118 21.4393 108.845 21.4212C109.894 21.4143 110.353 21.9651 110.362 23.1053C110.371 24.4086 109.537 24.9679 109.54 25.4241C109.543 25.8475 109.825 26.0738 110.279 26.0707C111.083 26.0654 111.841 24.5617 111.83 23.0955C111.816 21.3037 110.828 20.0397 108.835 20.0529C105.269 20.0764 100.943 25.9695 100.982 31.0518C101.002 33.7234 102.694 35.5042 105.246 35.4873C109.302 35.4605 111.811 33.037 113.9 28.5881C113.944 28.4938 113.968 28.4248 113.968 28.3271C113.966 28.0664 113.797 27.7895 113.508 27.6785V27.6785Z" fill="#E62D58"/>
<path d="M45.2309 28.3553C45.0168 28.2732 44.7529 28.3516 44.6287 28.5332C44.1156 30.0049 43.517 31.4925 42.966 32.9568C43.8384 31.9605 44.6447 30.6819 45.403 29.1053C45.4891 28.8792 45.5983 28.7421 45.4407 28.5203C45.39 28.4487 45.3186 28.3889 45.2309 28.3553V28.3553ZM44.8678 27.8491C45.3068 27.775 45.6853 27.957 45.9143 28.3047C47.795 28.2926 49.6754 28.2475 51.5562 28.2351C51.7389 28.2345 51.8639 28.4026 51.8043 28.5605C51.2592 30.0067 50.6501 31.5839 50.6659 33.1329C50.6823 34.4881 51.3457 35.5995 52.9407 35.5891C54.0465 35.5819 54.9882 35.1218 55.9323 34.0796C56.336 33.6338 56.7401 33.0831 57.1562 32.4182C57.0464 31.7724 57.0739 31.1238 57.1575 30.477C56.5366 31.6402 55.9873 32.5349 55.4621 33.1927C54.6299 34.2351 53.844 34.703 52.9325 34.7091C51.8713 34.7164 51.6162 33.9509 51.6101 33.1046C51.605 32.4278 51.7519 31.6969 51.9877 30.9061C52.2217 30.1214 52.5395 29.2867 52.8826 28.3875C53.4654 26.8334 54.0212 25.2719 54.6015 23.717C54.944 22.798 55.2557 21.9819 55.5562 21.201C55.7448 20.7095 54.9155 20.3096 54.6398 20.9391C53.8421 23.0131 53.0701 25.096 52.3198 27.1851C52.2819 27.2906 52.1737 27.3561 52.0599 27.3516L46.4082 27.389C46.226 27.3896 46.1012 27.2221 46.1597 27.0644L48.3528 21.2506C48.5395 20.745 47.7085 20.3676 47.4377 20.9868C46.6389 23.0633 45.864 25.1483 45.0835 27.231L44.8678 27.8491V27.8491ZM44.113 28.3977L44.1459 28.3336C44.6933 26.7671 45.2784 25.2278 45.8619 23.6711C46.2502 22.6401 46.6145 21.6797 46.9445 20.8215C47.1119 20.3182 47.7085 20.0599 48.2341 20.2313C48.7479 20.3996 49.0293 20.9335 48.8483 21.4124L46.7783 26.8981L51.8816 26.8644C52.6149 24.8277 53.3688 22.7962 54.1467 20.7738C54.3938 20.0311 55.4624 19.9158 55.9237 20.5283C56.1075 20.7724 56.1575 21.0847 56.0496 21.3657C55.3072 23.2952 54.5897 25.2303 53.8933 27.1747C53.7196 27.6275 53.5386 28.0939 53.378 28.5503C53.0358 29.4471 52.7191 30.2791 52.4932 31.0363C52.2691 31.7879 52.1293 32.4768 52.1342 33.1027C52.1384 33.6573 52.2042 34.2255 52.9304 34.2208C53.6611 34.2161 54.3168 33.8087 55.0408 32.9016C55.7819 31.9734 56.5819 30.5392 57.5812 28.5075C58.0762 26.8216 58.9128 25.051 59.9698 23.5768C61.404 21.5771 63.2547 20.1101 65.2352 20.097C67.0226 20.0852 68.475 20.9466 68.4885 22.7313C68.5178 26.5514 62.6532 28.6326 59.4001 29.4122C59.2227 30.0673 59.1016 30.6941 59.0789 31.3711C59.0299 33.1652 60.0936 34.1123 61.9929 34.1608C63.3547 34.1872 64.5624 33.742 65.6625 32.7883C66.7273 31.8651 67.6957 30.4664 68.6081 28.5616C69.0275 27.1241 69.6463 25.6737 70.4044 24.388C71.7456 22.1127 74.3268 19.0958 77.4612 20.185C77.739 20.2817 77.9905 20.4051 78.2187 20.5459L80.1931 15.1447C80.323 14.7889 80.7003 14.5548 81.0992 14.5512C81.8079 14.5461 82.313 15.1478 82.0918 15.7841C81.5178 17.3028 80.9603 18.8259 80.4021 20.3496C80.9007 20.0778 81.4351 19.9248 82.0168 19.9209C84.5724 19.9044 85.2255 21.3124 85.2421 23.4677C85.2625 26.2084 84.1054 29.4797 82.6546 31.8483C82.8937 31.9236 83.1515 31.9355 83.402 31.934C84.1936 31.9289 84.8574 31.5874 85.4543 30.9608C86.0506 30.335 86.5835 29.426 87.1092 28.2835C87.6525 26.8265 88.4592 24.8345 89.6271 21.9511L90.2364 20.4465C90.433 19.9609 91.0196 19.7444 91.5359 19.9213C92.053 20.0988 92.2808 20.625 92.096 21.0966C91.0918 23.6294 90.0689 26.1603 89.0887 28.7007C89.0662 28.7956 89.025 28.8798 88.9856 28.969C88.2193 30.973 88.1006 31.5037 88.1058 32.2131C88.1136 33.2776 88.5524 33.9848 89.781 33.977C91.5588 33.9654 92.8575 32.0819 93.5411 30.7653C94.5728 28.7782 95.6793 25.8936 97.129 22.1123L97.7863 20.4004C97.978 19.9089 98.568 19.6953 99.0811 19.873C99.5844 20.0474 99.874 20.5673 99.6829 21.0474C99.0233 22.6958 98.4061 24.357 97.7627 26.0105C97.1233 27.6544 96.6104 29.1271 96.2551 30.3036C95.8914 31.5076 95.6946 32.3902 95.6978 32.8144C95.702 33.368 95.7672 33.9372 96.494 33.9325C97.2422 33.9278 97.937 33.491 98.6783 32.5669C99.4048 31.6616 100.162 30.3066 101.038 28.4567C101.468 26.691 102.3 24.9597 103.339 23.5193C104.906 21.3449 106.959 19.821 108.834 19.8087C113.566 19.7785 112.304 26.3025 110.28 26.3149C109.685 26.3188 109.282 25.9903 109.278 25.4251C109.276 25.1889 109.406 24.9795 109.57 24.7172C109.798 24.3511 110.105 23.858 110.1 23.1063C110.093 22.2602 109.865 21.6591 108.846 21.6654C107.594 21.6736 106.084 23.0349 104.871 24.8653C103.754 26.5516 102.704 28.9982 102.712 31.053L102.713 31.0748C102.723 32.5237 103.539 33.873 105.247 33.8744L105.27 33.8734C109.025 33.8507 110.972 30.7939 112.29 27.9466C112.599 27.2808 113.6 27.1788 114.046 27.7864C114.256 28.0584 114.281 28.3873 114.14 28.6858C112.415 32.3602 110.011 35.6886 105.273 35.7313L105.246 35.7325C103.113 35.7444 101.54 34.5669 100.962 32.6947C99.9571 34.2221 98.6038 35.7758 96.5064 35.7894C95.0723 35.7986 94.1853 35.0886 93.8273 33.8266C92.8284 34.9449 91.3595 35.8235 89.7587 35.8339C87.6647 35.8474 86.4018 34.8335 86.1573 32.9069C85.3579 33.491 84.4823 33.7838 83.5194 33.7901C82.8099 33.7946 82.1486 33.7177 81.5191 33.3935C80.493 34.6373 78.962 35.96 77.1703 35.9498C76.3299 35.9447 75.5617 35.7378 74.8785 35.28C73.8882 37.9389 72.9204 40.6138 71.8805 43.255C71.5795 44.0185 70.4238 44.1501 70.0298 43.3952C69.9252 43.1934 69.8976 42.9555 69.9671 42.7272C69.9702 42.7164 69.9782 42.6848 69.9843 42.677C70.8536 40.3418 71.7275 38.0079 72.6157 35.6787C72.18 35.876 71.7148 35.9863 71.2287 35.989C69.062 36.0031 68.1922 35.0145 68.0316 33.0923C66.4627 34.8897 64.527 36.0012 61.9632 36.0178C60.5907 36.0029 59.3252 35.6842 58.3463 34.737C57.8836 34.2894 57.5382 33.7381 57.3265 33.1025C56.3173 34.6107 55.0216 36.0639 52.9428 36.0775C51.0466 36.0894 50.1618 34.7717 50.1418 33.1382L50.1406 33.1135C50.1315 31.6161 50.6613 30.1265 51.1858 28.7262C49.4837 28.7413 47.7818 28.7788 46.0797 28.7919C46.0357 28.9074 46.0218 29.0094 45.9688 29.1243C45.157 31.2426 44.3595 33.3618 43.5709 35.4877C43.3917 35.9712 42.8626 36.2524 42.3276 36.1102C41.7894 35.9753 41.5023 35.4567 41.6562 34.9653C41.6749 34.9027 41.7017 34.8397 41.7246 34.7785C40.3117 35.7854 38.8272 36.1973 37.0614 36.1781C34.2518 36.0967 32.4541 34.3441 32.4343 31.7343C32.4674 29.0649 33.7431 25.9403 35.3212 23.7398C36.7553 21.7401 38.6056 20.2731 40.5864 20.2602C42.3737 20.2484 43.8262 21.1098 43.8396 22.8945C43.8689 26.7144 38.0043 28.7958 34.7512 29.5754C34.5738 30.2303 34.4528 30.8571 34.43 31.5341C34.3806 33.3286 35.4451 34.2749 37.344 34.3239C38.7058 34.3502 39.9135 33.905 41.0136 32.9513C42.1386 31.9759 43.1556 30.4705 44.113 28.3977V28.3977ZM42.9506 31.52C41.6362 33.3908 39.8884 34.8623 37.3329 34.8123C35.137 34.7587 33.8525 33.5881 33.906 31.5207C33.9314 30.7565 34.0754 30.0502 34.2823 29.3124C34.3071 29.2228 34.3825 29.1579 34.4725 29.1367C37.4678 28.4363 43.3423 26.4522 43.3156 22.8964C43.304 21.3896 42.0769 20.7391 40.5885 20.7485C38.8068 20.7601 37.102 22.1359 35.7569 24.0116C34.2353 26.1331 32.9925 29.1583 32.9584 31.7324C32.9761 34.0762 34.5525 35.617 37.0767 35.6897C38.9287 35.7113 40.4365 35.2059 41.8334 34.0617L42.9506 31.52V31.52ZM44.2726 32.1113C43.7184 32.9058 43.1369 33.5789 42.5229 34.1347C42.4017 34.4571 42.2748 34.7809 42.159 35.1047C41.9883 35.664 42.8651 35.8968 43.0754 35.3289L44.2726 32.1113ZM34.8405 27.7142C35.727 25.6851 37.8222 21.6462 40.5967 21.6285C41.5381 21.6224 42.3636 21.8825 42.3712 22.9041C42.392 25.6641 37.4911 27.3427 35.164 28.039C34.9501 28.1029 34.7586 27.9044 34.8405 27.7142ZM37.9767 23.5633C36.9915 24.6237 36.1599 26.0917 35.5493 27.4053C37.5111 26.7842 41.8648 25.2232 41.8471 22.9061C41.8418 22.1935 41.2251 22.1129 40.5988 22.1169C39.6596 22.1229 38.7706 22.7091 37.9767 23.5633ZM58.7895 28.263C58.5249 28.1535 58.2749 28.2681 58.1585 28.5061L58.071 28.6848C57.7832 29.6786 57.6136 30.6309 57.6088 31.6596C58.0644 30.861 58.5388 29.9286 59.0473 28.8507C59.1633 28.6052 59.0473 28.3698 58.7895 28.263ZM58.3728 27.7556C59.0682 27.6038 59.7505 28.19 59.595 28.8578C62.5027 28.1229 67.9903 26.1678 67.9644 22.7333C67.9529 21.2265 66.7258 20.5759 65.2373 20.5853C63.4557 20.5971 61.7506 21.9731 60.4055 23.8486C59.5607 25.0267 58.8613 26.3978 58.3728 27.7556ZM58.5776 30.9661C58.2793 31.5327 57.9901 32.0462 57.706 32.5094C58.1088 34.4153 59.6701 35.4675 61.7256 35.5268C64.5125 35.5593 66.4202 34.333 68.0036 32.3254C68.0065 31.7416 68.0631 31.121 68.168 30.4809C66.8315 32.7004 64.9509 34.7075 61.9817 34.6491C59.7855 34.5961 58.5018 33.4249 58.5548 31.3578C58.5593 31.2244 58.5666 31.0952 58.5776 30.9661ZM69.8797 28.1923C69.6432 28.1019 69.3462 28.2073 69.2447 28.4279L69.0995 28.7368C68.8192 29.7068 68.6331 30.6688 68.5611 31.5651C69.1037 30.7712 69.6206 29.8527 70.1171 28.8056C70.1746 28.623 70.2169 28.5371 70.0896 28.3573C70.0389 28.2857 69.9675 28.2259 69.8797 28.1923V28.1923ZM69.4329 27.7036C69.7838 27.6163 70.1527 27.7048 70.4063 27.9472C70.7273 27.0668 71.1203 26.1942 71.5623 25.3874C72.8097 23.1102 74.4685 21.3392 76.0487 21.3288C76.8939 21.3233 77.5816 21.675 78.028 22.3444C78.0739 22.4134 78.0785 22.4956 78.0482 22.5656C77.7704 23.305 77.4953 24.0751 77.2042 24.8896C76.6088 26.5561 75.9468 28.4081 75.1369 30.3677L75.1314 30.3801C74.5335 31.8247 73.2054 34.5752 71.2181 34.5881C69.7385 34.5979 69.5064 33.4871 69.5064 32.3445C69.5043 31.8747 69.5491 31.3658 69.6343 30.8333C69.2776 31.4394 68.9092 31.9897 68.5281 32.4857C68.5411 33.5763 68.7314 34.3418 69.1559 34.8229C69.5729 35.2953 70.2439 35.5071 71.2265 35.5007C71.8668 35.4967 72.4454 35.2647 72.9558 34.916C73.1646 34.7734 73.4439 34.9709 73.358 35.1955C72.3863 37.7371 71.4301 40.2837 70.4808 42.8327C70.3541 43.2201 70.7284 43.5501 71.1209 43.3573C71.2432 43.2973 71.3429 43.1985 71.3871 43.0863C72.4683 40.34 73.475 37.5588 74.5047 34.794C74.5661 34.6293 74.7865 34.5777 74.9248 34.6901C75.573 35.2143 76.3158 35.4565 77.1724 35.4614C78.8463 35.4711 80.3162 34.0911 81.241 32.9252C81.3263 32.8181 81.4884 32.7946 81.6043 32.872C82.196 33.2311 82.8259 33.3062 83.5173 33.3017C84.4695 33.2957 85.3305 32.964 86.1143 32.3007C86.1068 31.7565 86.1796 31.2642 86.3094 30.7335C85.6086 31.671 84.7027 32.4141 83.4041 32.4223C82.9608 32.4253 82.5384 32.3827 82.149 32.1681C82.0242 32.0995 81.983 31.9493 82.0566 31.833C83.539 29.5032 84.7387 26.195 84.7181 23.4697C84.7096 22.3549 84.52 21.5748 84.0896 21.087C83.6726 20.6146 83.0017 20.4027 82.019 20.4092C81.2657 20.4141 80.6231 20.7285 80.063 21.1784C79.8606 21.3416 79.56 21.1474 79.6429 20.916C80.2821 19.1472 80.931 17.3817 81.5963 15.6213C81.7527 15.2204 81.2158 14.8782 80.843 15.1184C80.774 15.1639 80.718 15.2265 80.6907 15.3016L78.6013 21.0172C78.5398 21.1868 78.3098 21.2378 78.1728 21.1172C77.5174 20.634 76.8624 20.4612 76.0346 20.4488C74.1187 20.4732 72.2572 22.2618 70.865 24.6237C70.299 25.5835 69.813 26.6361 69.4329 27.7036V27.7036ZM70.6118 28.9747L70.6069 28.9851C70.239 30.1846 70.026 31.3568 70.0304 32.3441C70.0706 33.1848 70.0496 34.1072 71.216 34.0998C72.8908 34.089 74.1473 31.4017 74.6432 30.2038L74.6478 30.1916C75.4554 28.2373 76.1141 26.3945 76.7066 24.7363C76.9901 23.943 77.2591 23.19 77.5142 22.5077C77.1619 22.0406 76.6622 21.8133 76.0508 21.8172C74.6945 21.8262 73.1966 23.4811 72.0308 25.6094C71.4989 26.5802 71.0401 27.6465 70.6964 28.7017C70.6848 28.806 70.6534 28.8764 70.6118 28.9747V28.9747ZM59.4893 27.5512C60.3756 25.5221 62.4711 21.4832 65.2455 21.4655C66.187 21.4595 67.0125 21.7195 67.02 22.7411C67.0405 25.5012 62.1402 27.1798 59.8128 27.876C59.599 27.9399 59.4075 27.7415 59.4893 27.5512V27.5512ZM62.6256 23.4005C61.6404 24.4607 60.8088 25.9287 60.1982 27.2423C62.1602 26.6208 66.5132 25.0605 66.496 22.7431C66.4907 22.0304 65.874 21.95 65.2477 21.9539C64.3085 21.96 63.4195 22.5462 62.6256 23.4005V23.4005ZM88.0909 28.0256C87.7838 28.0278 87.6891 28.2651 87.5902 28.4818C86.9888 30.0963 86.7253 31.023 86.6565 31.7759C87.3237 31.0451 87.9343 30.0504 88.4977 28.7872L88.5876 28.502C88.5861 28.2708 88.3453 28.0245 88.0909 28.0256ZM87.9452 27.5485C88.2904 27.4967 88.6236 27.6344 88.8503 27.8768C89.7572 25.5574 90.6845 23.2436 91.6026 20.928C91.8276 20.3523 90.9257 20.1286 90.7277 20.6187C89.7936 22.9251 88.8427 25.2299 87.9452 27.5485ZM87.6565 31.3487C87.3347 31.7961 86.9983 32.1813 86.6462 32.5047C86.7497 34.3377 87.7331 35.3587 89.7566 35.3455C91.3747 35.3349 92.8608 34.3045 93.7547 33.1088C93.8936 32.9222 94.2047 32.9993 94.2316 33.2215C94.4263 34.4718 95.0571 35.3102 96.5043 35.301C98.5526 35.2877 99.8795 33.49 100.798 31.9936C100.7 31.3995 100.703 30.7988 100.752 30.201C100.167 31.3229 99.6265 32.2035 99.0997 32.8599C98.2529 33.9156 97.4249 34.4147 96.4961 34.4208C95.4349 34.4281 95.1798 33.6626 95.1737 32.8163C95.1703 32.3456 95.3734 31.4162 95.7496 30.1714C96.1076 28.9859 96.6245 27.5014 97.2694 25.8438C97.9132 24.1891 98.5316 22.5273 99.1904 20.8772C99.3947 20.3366 98.472 20.0674 98.2809 20.5647L97.6245 22.2771C96.1711 26.0672 95.0624 28.9586 94.0138 30.9779C93.2262 32.4947 91.8091 34.4518 89.7831 34.4653C88.254 34.4751 87.5918 33.5565 87.5817 32.215C87.5796 31.9255 87.5952 31.6667 87.6565 31.3487V31.3487ZM77.1833 34.5812C76.2813 34.5395 75.5021 34.167 75.1289 33.3718C75.1018 33.3135 75.1007 33.2507 75.1211 33.195C75.4989 32.1336 75.866 31.0663 76.2886 30.0198L76.975 28.321C77.9535 25.8989 78.7789 24.1761 79.5558 23.0537C80.375 21.8701 81.1617 21.3275 82.0274 21.3218C82.6605 21.3179 83.0273 21.5059 83.2791 21.9127C83.5011 22.2718 83.6059 22.7882 83.736 23.5036C83.7785 23.7382 83.7901 24.0245 83.7726 24.3489C83.6217 27.1543 81.0468 34.0243 77.7015 34.5522C77.5306 34.5793 77.3574 34.5893 77.1833 34.5812V34.5812ZM76.2038 33.8254C76.5961 34.0537 77.1572 34.1421 77.6152 34.0698C79.0509 33.8432 80.4122 32.1427 81.4393 30.1414C82.4845 28.1047 83.1711 25.77 83.2485 24.3258C83.2641 24.0359 83.2546 23.7847 83.2182 23.5841C83.0972 22.919 83.0019 22.442 82.8249 22.1559C82.6775 21.9178 82.445 21.8076 82.0295 21.8101C81.3576 21.8144 80.7115 22.2869 79.9978 23.3181C79.2416 24.4107 78.4314 26.104 77.4662 28.4932L76.7799 30.192C76.3718 31.2026 76.0177 32.234 75.6517 33.2588C75.7843 33.5028 75.9729 33.6908 76.2038 33.8254V33.8254ZM102.35 27.9735C102.11 27.8715 101.854 27.9725 101.737 28.1876L101.537 28.6122C101.33 29.4805 101.228 30.3348 101.247 31.224C101.673 30.4605 102.111 29.5807 102.57 28.5769C102.61 28.4422 102.646 28.36 102.591 28.2184C102.551 28.1172 102.469 28.029 102.35 27.9735V27.9735ZM102.54 27.5165C102.66 27.57 102.757 27.6263 102.852 27.7142C103.247 26.6318 103.795 25.5596 104.425 24.6088C105.725 22.6464 107.395 21.1866 108.844 21.177C110.172 21.1688 110.615 21.9786 110.624 23.1043C110.63 23.9894 110.282 24.5478 110.024 24.9624C109.9 25.1615 109.801 25.3203 109.802 25.4231C109.804 25.7151 109.977 25.8283 110.278 25.8265C110.57 25.8248 110.878 25.5027 111.124 25.0257C111.427 24.4382 111.574 23.726 111.568 23.0763C111.548 21.4477 110.686 20.2851 108.836 20.297C107.145 20.308 105.251 21.743 103.774 23.7912C102.982 24.8904 102.313 26.1637 101.863 27.4883C102.097 27.4159 102.314 27.4312 102.54 27.5165V27.5165ZM102.207 30.5229C101.915 31.094 101.628 31.6135 101.346 32.084C101.722 33.9795 103.128 35.2622 105.267 35.243C107.215 35.2259 108.794 34.6346 110.136 33.5139C111.5 32.3745 112.629 30.6839 113.659 28.4905C113.735 28.3275 113.718 28.2186 113.611 28.0592C113.397 27.7721 112.917 27.8291 112.773 28.14C111.36 31.1905 109.271 34.3365 105.272 34.3628C103.238 34.3628 102.188 32.8103 102.188 31.053C102.187 30.8794 102.194 30.7025 102.207 30.5229V30.5229Z" fill="#E62D58"/>
<path d="M35.6021 8.2847C35.5965 7.5186 34.6778 7.1958 34.1791 7.7578C32.9699 9.1207 31.6591 9.3867 30.2017 9.3971C27.9004 9.4133 26.0819 7.2015 21.5943 7.2334C13.2715 7.2925 8.942 13.3837 9.0016 21.7834C9.0048 22.2438 9.3909 22.5862 9.8127 22.5832C10.1962 22.5804 10.64 22.3082 10.6509 21.7716C10.8104 13.9069 14.2417 8.8968 21.5675 8.8446C25.7097 8.8152 27.5282 11.027 30.2133 11.008C32.1694 10.9942 33.8665 10.5712 35.4141 8.8229C35.5411 8.6795 35.6035 8.4763 35.6021 8.2847V8.2847ZM19.9115 13.3059C20.3578 12.3971 21.3588 11.3943 22.2364 11.2179C23.1567 11.033 23.0965 9.60139 22.0715 9.60809C20.8441 9.61689 19.2232 11.0371 18.4486 12.549C17.3694 14.6557 16.5322 17.5121 15.6666 20.4703C13.9111 26.4677 11.8506 34.0756 6.4041 34.1142C4.2563 34.1294 2.4449 32.9149 2.4281 30.537C2.4119 28.274 4.2748 25.9212 6.3459 25.9064C6.5758 25.9048 6.7622 25.9198 6.96 25.9787C7.8748 26.2509 8.5033 24.8669 7.4091 24.4028C7.0291 24.2417 6.6793 24.2546 6.2958 24.2574C3.4193 24.2777 0.7941 27.2883 0.8176 30.6252C0.8398 33.7321 3.3087 35.7473 6.4539 35.7249C12.8591 35.6794 15.0545 28.1415 17.2038 20.9196C18.0515 18.0708 18.921 15.3227 19.9115 13.3059V13.3059ZM23.4019 18.6894C21.8293 18.7005 20.4026 19.1583 19.4982 19.9445C19.3348 20.0867 19.2322 20.2916 19.2343 20.5601C19.2394 21.2777 20.0092 21.609 20.5426 21.1643C21.2105 20.6076 22.1856 20.2705 23.413 20.2618C26.9415 20.2368 29.3001 22.8665 29.3285 26.8556C29.3657 32.11 26.1276 35.24 21.525 35.2728C18.3031 35.2957 16.1842 34.0064 16.1701 32.0121C16.1609 30.7078 17.2262 29.473 18.492 29.464C19.7578 29.455 20.413 29.9272 21.1789 30.8831C22.0441 31.9627 23.017 32.3806 22.4022 30.8355C21.6887 29.0424 20.3218 27.8785 18.4424 27.8919C16.4479 27.9059 14.5809 29.6453 14.5978 32.0232C14.6188 34.9766 17.3941 36.9131 21.5363 36.8838C27.1362 36.844 30.9447 33.0195 30.9009 26.8445C30.8658 21.8965 27.851 18.6578 23.4019 18.6894V18.6894Z" fill="#E62D58"/>
<path d="M35.3145 8.2857C35.3113 7.7878 34.7193 7.5816 34.3946 7.9483C33.2207 9.2717 31.9258 9.6729 30.203 9.6847C29.1819 9.6916 28.2796 9.2991 27.2292 8.8425C25.8283 8.2331 24.1491 7.50299 21.5955 7.52099C13.1375 7.58069 9.2335 13.912 9.2891 21.7822C9.2935 22.459 10.3501 22.4657 10.3634 21.766C10.5115 14.4652 13.5298 8.6143 21.5664 8.5571C23.9206 8.5409 25.5311 9.2244 26.9675 9.8341C28.0741 10.3041 29.0743 10.7288 30.2123 10.7205C32.2687 10.7058 33.8043 10.2072 35.1987 8.6322C35.2785 8.5425 35.3154 8.4039 35.3145 8.2857V8.2857ZM35.5266 7.4624C35.9634 7.8503 36.0164 8.5764 35.6295 9.0132C34.1221 10.7155 32.4401 11.2804 30.2146 11.2957C28.9573 11.3042 27.9058 10.858 26.7422 10.3638C25.3568 9.7758 23.8037 9.1163 21.5685 9.1319C13.8616 9.1871 11.0799 14.8033 10.9383 21.7769C10.9192 22.753 9.7436 23.2246 9.0518 22.5657C8.8486 22.372 8.7163 22.0981 8.7142 21.7845C8.6558 13.5887 12.8103 7.0079 21.5932 6.9461C24.2688 6.9272 26.0082 7.6836 27.4591 8.3147C28.4503 8.7457 29.3016 9.1158 30.2005 9.1098C31.7568 9.0987 32.901 8.7646 33.9636 7.5673C34.3769 7.1015 35.071 7.0593 35.5266 7.4624V7.4624ZM19.6534 13.1797C20.1016 12.2674 21.1486 11.1428 22.1803 10.9362C22.7618 10.8137 22.7524 9.8909 22.0726 9.8957C21.5461 9.8992 20.9191 10.2121 20.3267 10.6931C19.6792 11.2186 19.0842 11.9386 18.7047 12.6799C18.1734 13.7165 17.6993 14.9454 17.2505 16.2819C16.7194 17.8622 16.2582 19.4693 15.791 21.0698C14.0392 27.0705 11.9103 34.3627 6.405 34.4017C4.0351 34.4183 2.158 33.0276 2.1405 30.5382C2.132 29.3382 2.6194 28.116 3.3823 27.1948C4.1857 26.2242 5.3975 25.4927 6.6955 25.6334C7.0073 25.6675 7.2794 25.8442 7.5402 25.5732C7.8365 25.2647 7.7085 24.842 7.2976 24.6677C6.9727 24.5304 6.6411 24.5427 6.297 24.5447C4.9425 24.5542 3.6403 25.2778 2.6785 26.3958C1.7134 27.5174 1.094 29.0329 1.1051 30.624C1.1265 33.6555 3.5649 35.4576 6.4527 35.4376C12.5956 35.3937 14.7753 28.0701 16.8799 20.9981C17.3098 19.5606 17.7428 18.126 18.2322 16.7071C18.6828 15.4019 19.1525 14.1996 19.6534 13.1797V13.1797ZM21.1629 12.1489C20.748 12.5208 20.3867 12.9899 20.1697 13.4319C19.6801 14.4288 19.2191 15.6097 18.7757 16.8942C18.2898 18.3029 17.8547 19.7335 17.4322 21.1625C15.2683 28.4347 13.0269 35.9659 6.455 36.0124C3.246 36.0348 0.5537 33.9769 0.5302 30.6263C0.518 28.8915 1.1916 27.2414 2.2413 26.0213C3.3071 24.7825 4.7645 23.9805 6.2947 23.9699C6.7366 23.9666 7.103 23.9602 7.5218 24.138C8.9462 24.7444 8.1372 26.6289 6.8786 26.2549C6.7029 26.2027 6.5295 26.1931 6.3471 26.1938C5.4039 26.2007 4.4977 26.7511 3.8264 27.5624C3.1441 28.3868 2.708 29.474 2.7156 30.5357C2.7311 32.7001 4.3575 33.8409 6.4029 33.8268C11.4781 33.7911 13.5411 26.7241 15.2385 20.9096C15.708 19.3016 16.1713 17.6867 16.7047 16.099C17.1603 14.7415 17.6448 13.488 18.1927 12.4182C18.8529 11.1294 20.513 9.3316 22.0703 9.3208C22.6202 9.3176 23.1227 9.7055 23.1695 10.269C23.2175 10.8485 22.8804 11.3835 22.2928 11.5011C21.9289 11.5728 21.5288 11.82 21.1629 12.1489V12.1489ZM23.4034 18.9769C22.1341 18.9887 20.6666 19.3099 19.6863 20.162C19.3619 20.4447 19.5295 21.0814 20.0101 21.0781C20.1265 21.0775 20.249 21.0348 20.3588 20.9435C21.2041 20.2385 22.3322 19.9819 23.4119 19.9743C25.2615 19.9614 26.8082 20.6474 27.8973 21.8617C28.9776 23.0657 29.6009 24.7869 29.6159 26.8544C29.6348 29.5118 28.8344 31.6481 27.4501 33.1412C25.9104 34.8023 23.734 35.5605 21.5 35.5605C19.8471 35.5683 18.4681 35.2372 17.4947 34.6448C16.4738 34.0231 15.8907 33.118 15.8826 32.0134C15.8729 30.5957 17.0227 29.1865 18.4909 29.1766L19.3868 29.6248C18.3382 29.555 16.5004 29.6534 16.4575 32.0111C16.4637 32.9 16.9475 33.6375 17.7945 34.1531C18.6791 34.6916 19.9534 34.9927 21.4977 34.9854L21.5247 34.9842C23.7841 34.9692 25.6997 34.1822 27.0286 32.7485C28.3151 31.361 29.0586 29.3601 29.041 26.8567C29.0166 23.4134 27.1056 20.5233 23.4142 20.5494C22.4763 20.5563 21.4624 20.7721 20.7263 21.3851C19.9986 21.9915 18.9537 21.5098 18.947 20.5614C18.9447 20.2351 19.0616 19.9429 19.31 19.7271C20.3894 18.7892 21.9725 18.4159 23.3736 18.4023L23.402 18.4007C25.7105 18.3859 27.6498 19.2211 29.0187 20.7043C30.3748 22.1744 31.1642 24.2786 31.1882 26.8145L31.1895 26.8443C31.229 32.7794 27.6752 37.1142 21.5659 37.1707L21.5364 37.1724C19.4041 37.186 17.616 36.6897 16.3546 35.8063C15.0723 34.9081 14.3307 33.6154 14.3108 32.0535L14.309 32.0231C14.3016 30.7545 14.7962 29.6546 15.5593 28.8703C16.3258 28.0828 17.3653 27.6117 18.4411 27.6043C20.2967 27.5912 21.6503 28.648 22.4353 30.2083C22.0811 29.7005 21.5443 29.3518 20.9641 29.1535C20.3108 28.5401 19.47 28.1725 18.4436 28.1794C17.5254 28.1857 16.6337 28.592 15.9723 29.2716C15.2443 30.0199 14.8751 31.005 14.8855 32.0452C14.9021 33.4106 15.5551 34.5438 16.6839 35.3347C17.8503 36.1517 19.5235 36.6106 21.535 36.5963C27.3489 36.5398 30.667 32.4714 30.6133 26.8217C30.5736 22.4428 28.028 18.9437 23.4034 18.9769V18.9769ZM22.8589 31.3576C22.8797 31.4796 22.8873 31.6013 22.8723 31.7115L22.8589 31.3576Z" fill="#E62D58"/>
<path d="M42.0483 8.7858H40.3136V13.1973H39.3491V8.7858H37.6219V7.9633H42.0483V8.7858ZM46.8113 12.3823V13.1973H42.8858V7.9633H46.7065V8.7783H43.8577V10.1392H46.385V10.9391H43.8577V12.3823H46.8113V12.3823ZM51.3648 11.986H48.7478L48.2318 13.1973H47.2299L49.5852 7.9633H50.5422L52.905 13.1973H51.8881L51.3648 11.986ZM51.0431 11.2233L50.0562 8.9353L49.0768 11.2233H51.0431V11.2233ZM57.2418 8.7858H55.5071V13.1973H54.5425V8.7858H52.8153V7.9633H57.2418V8.7858V8.7858ZM60.2325 7.9633C60.6861 7.9633 61.0813 8.038 61.4178 8.1877C61.7542 8.3372 62.0121 8.5516 62.1915 8.8306C62.371 9.1098 62.4607 9.4413 62.4607 9.825C62.4607 10.2039 62.371 10.5342 62.1915 10.8158C62.0121 11.0974 61.7542 11.3131 61.4178 11.4626C61.0813 11.6121 60.6861 11.6869 60.2325 11.6869H59.0511V13.1973H58.0792V7.9633H60.2325V7.9633ZM60.1877 10.8644C60.6114 10.8644 60.9329 10.7746 61.1523 10.5953C61.3717 10.4158 61.4813 10.1591 61.4813 9.825C61.4813 9.4911 61.3717 9.2344 61.1523 9.0549C60.9329 8.8755 60.6114 8.7858 60.1877 8.7858H59.0511V10.8644H60.1877ZM66.5882 11.986H63.9712L63.4553 13.1973H62.4533L64.8086 7.9633H65.7656L68.1284 13.1973H67.1115L66.5882 11.986ZM66.2665 11.2233L65.2796 8.9353L64.3002 11.2233H66.2665V11.2233ZM73.4371 7.9633V13.1973H72.48V8.7858H70.4164L70.3715 10.0943C70.3465 10.827 70.2868 11.4214 70.1921 11.8775C70.0973 12.3337 69.9453 12.68 69.7359 12.9169C69.5266 13.1537 69.2375 13.2721 68.8687 13.2721C68.739 13.2721 68.562 13.247 68.3377 13.1973L68.405 12.3523C68.4698 12.3723 68.5446 12.3823 68.6293 12.3823C68.9334 12.3823 69.149 12.2016 69.2761 11.8402C69.4033 11.4788 69.4818 10.9093 69.5116 10.1317L69.5864 7.9633H73.4371V7.9633ZM77.3251 9.7354C77.9531 9.7354 78.4354 9.8762 78.7719 10.1578C79.1084 10.4394 79.2767 10.8569 79.2767 11.4102C79.2767 11.9884 79.0922 12.4308 78.7234 12.7375C78.3544 13.0439 77.836 13.1973 77.168 13.1973H74.9175V7.9633H75.8746V9.7354H77.3251V9.7354ZM77.1232 12.4495C77.5021 12.4495 77.7937 12.3624 77.9981 12.1878C78.2025 12.0135 78.3046 11.7592 78.3046 11.4252C78.3046 10.7922 77.9108 10.4756 77.1232 10.4756H75.8746V12.4495H77.1232ZM84.9219 7.9633V13.1973H83.9498V10.9541H81.243V13.1973H80.2711V7.9633H81.243V10.1242H83.9498V7.9633H84.9219ZM89.8566 11.986H87.2397L86.7237 13.1973H85.7218L88.0771 7.9633H89.0341L91.3969 13.1973H90.38L89.8566 11.986ZM89.535 11.2233L88.5481 8.9353L87.5687 11.2233H89.535V11.2233ZM95.9355 7.9633V13.1973H94.9784V11.7392H93.685H93.5802L92.6082 13.1973H91.5838L92.7054 11.5822C92.3415 11.4476 92.0612 11.2346 91.8643 10.9429C91.6674 10.6513 91.5688 10.2987 91.5688 9.8849C91.5688 9.4862 91.6587 9.1422 91.8381 8.8531C92.0175 8.564 92.2718 8.3434 92.6008 8.1913C92.9297 8.0393 93.316 7.9633 93.7597 7.9633H95.9355ZM93.7896 8.7858C93.3908 8.7858 93.0854 8.878 92.8737 9.0624C92.6619 9.2469 92.5559 9.516 92.5559 9.87C92.5559 10.2138 92.658 10.4793 92.8624 10.6663C93.0668 10.8533 93.3634 10.9466 93.7522 10.9466H94.9784V8.7858H93.7896Z" fill="black"/>
<path d="M89.5534 41.679V46.9129H82.8316V41.679H83.7887V46.0905H85.7177V41.679H86.6748V46.0905H88.5963V41.679H89.5534V41.679ZM92.9555 44.7072H91.9835V46.9129H91.0264V41.679H91.9835V43.8698H92.9855L94.4883 41.679H95.5201L93.7331 44.2136L95.5874 46.9129H94.4883L92.9555 44.7072ZM98.6605 46.9877C98.1272 46.9877 97.6461 46.8718 97.2174 46.6399C96.7888 46.4083 96.4523 46.0867 96.208 45.6755C95.9638 45.2642 95.8417 44.8044 95.8417 44.296C95.8417 43.7875 95.9638 43.3277 96.208 42.9164C96.4523 42.5051 96.7888 42.1836 97.2174 41.9518C97.6461 41.7202 98.1272 41.6042 98.6605 41.6042C99.194 41.6042 99.675 41.7202 100.104 41.9518C100.532 42.1836 100.869 42.504 101.113 42.9127C101.357 43.3215 101.479 43.7826 101.479 44.296C101.479 44.8094 101.357 45.2704 101.113 45.6792C100.869 46.0879 100.532 46.4083 100.104 46.6399C99.675 46.8718 99.194 46.9877 98.6605 46.9877ZM98.6605 46.1353C99.0096 46.1353 99.3235 46.0568 99.6027 45.8998C99.8818 45.7427 100.101 45.5235 100.261 45.2417C100.42 44.9601 100.5 44.6449 100.5 44.296C100.5 43.947 100.42 43.6318 100.261 43.35C100.101 43.0685 99.8818 42.8491 99.6027 42.6921C99.3235 42.5351 99.0096 42.4566 98.6605 42.4566C98.3116 42.4566 97.9976 42.5351 97.7184 42.6921C97.4394 42.8491 97.22 43.0685 97.0605 43.35C96.9009 43.6318 96.8211 43.947 96.8211 44.296C96.8211 44.6449 96.9009 44.9601 97.0605 45.2417C97.22 45.5235 97.4394 45.7427 97.7184 45.8998C97.9976 46.0568 98.3116 46.1353 98.6605 46.1353ZM106.878 41.679V46.9129H105.921V42.5014H103.857L103.812 43.81C103.787 44.5426 103.728 45.1371 103.633 45.5932C103.538 46.0493 103.386 46.3957 103.177 46.6326C102.967 46.8694 102.678 46.9877 102.309 46.9877C102.18 46.9877 102.003 46.9627 101.778 46.9129L101.846 46.068C101.911 46.0879 101.985 46.098 102.07 46.098C102.374 46.098 102.59 45.9172 102.717 45.5559C102.844 45.1945 102.923 44.6249 102.952 43.8473L103.027 41.679H106.878V41.679ZM111.82 45.7017H109.203L108.687 46.9129H107.685L110.041 41.679H110.998L113.36 46.9129H112.343L111.82 45.7017ZM111.498 44.9389L110.512 42.6509L109.532 44.9389H111.498V44.9389Z" fill="black"/>
<path d="M35.6021 8.2847C35.5965 7.5186 34.6778 7.1958 34.1791 7.7578C32.9699 9.1207 31.6591 9.3867 30.2017 9.3971C27.9004 9.4133 26.0819 7.2015 21.5943 7.2334C13.2715 7.2925 8.942 13.3837 9.0016 21.7834C9.0048 22.2438 9.3909 22.5862 9.8127 22.5832C10.1962 22.5804 10.64 22.3082 10.6509 21.7716C10.8104 13.9069 14.2417 8.8968 21.5675 8.8446C25.7097 8.8152 27.5282 11.027 30.2133 11.008C32.1694 10.9942 33.8665 10.5712 35.4141 8.8229C35.5411 8.6795 35.6035 8.4763 35.6021 8.2847V8.2847ZM19.9115 13.3059C20.3578 12.3971 21.3588 11.3943 22.2364 11.2179C23.1567 11.033 23.0965 9.60139 22.0715 9.60809C20.8441 9.61689 19.2232 11.0371 18.4486 12.549C17.3694 14.6557 16.5322 17.5121 15.6666 20.4703C13.9111 26.4677 11.8506 34.0756 6.4041 34.1142C4.2563 34.1294 2.4449 32.9149 2.4281 30.537C2.4119 28.274 4.2748 25.9212 6.3459 25.9064C6.5758 25.9048 6.7622 25.9198 6.96 25.9787C7.8748 26.2509 8.5033 24.8669 7.4091 24.4028C7.0291 24.2417 6.6793 24.2546 6.2958 24.2574C3.4193 24.2777 0.7941 27.2883 0.8176 30.6252C0.8398 33.7321 3.3087 35.7473 6.4539 35.7249C12.8591 35.6794 15.0545 28.1415 17.2038 20.9196C18.0515 18.0708 18.921 15.3227 19.9115 13.3059V13.3059ZM23.4019 18.6894C21.8293 18.7005 20.4026 19.1583 19.4982 19.9445C19.3348 20.0867 19.2322 20.2916 19.2343 20.5601C19.2394 21.2777 20.0092 21.609 20.5426 21.1643C21.2105 20.6076 22.1856 20.2705 23.413 20.2618C26.9415 20.2368 29.3001 22.8665 29.3285 26.8556C29.3657 32.11 26.1276 35.24 21.525 35.2728C18.3031 35.2957 16.1842 34.0064 16.1701 32.0121C16.1609 30.7078 17.2262 29.473 18.492 29.464C19.7578 29.455 20.413 29.9272 21.1789 30.8831C22.0441 31.9627 23.017 32.3806 22.4022 30.8355C21.6887 29.0424 20.3218 27.8785 18.4424 27.8919C16.4479 27.9059 14.5809 29.6453 14.5978 32.0232C14.6188 34.9766 17.3941 36.9131 21.5363 36.8838C27.1362 36.844 30.9447 33.0195 30.9009 26.8445C30.8658 21.8965 27.851 18.6578 23.4019 18.6894V18.6894Z" fill="#E62D58"/>
<path d="M23.4034 18.9768C22.1341 18.9888 20.6667 19.3101 19.6865 20.1621C19.3618 20.4448 19.5296 21.0815 20.0101 21.0781C20.1267 21.0775 20.2489 21.0348 20.3587 20.9436C21.2041 20.2384 22.3322 19.982 23.4121 19.9743C25.2617 19.9614 26.808 20.6473 27.8971 21.8616C28.9776 23.0656 29.6009 24.7867 29.6159 26.8545C29.6349 29.5119 28.8344 31.6482 27.4503 33.1412C25.9103 34.8024 23.734 35.5606 21.5001 35.5606C19.847 35.5682 18.4681 35.2373 17.4949 34.6449C16.474 34.0229 15.8906 33.1179 15.8826 32.0135C15.873 30.5957 17.0227 29.1866 18.4908 29.1766L19.3868 29.6248C18.3383 29.5548 16.5003 29.6534 16.4573 32.0111C16.4637 32.9002 16.9475 33.6373 17.7945 34.1531C18.6789 34.6915 19.9535 34.9929 21.4978 34.9852L21.5248 34.9842C23.784 34.9692 25.6995 34.1821 27.0287 32.7487C28.315 31.3612 29.0585 29.36 29.0412 26.8568C29.0166 23.4136 27.1057 20.5234 23.414 20.5494C22.4764 20.5564 21.4625 20.7721 20.7263 21.3851C19.9985 21.9915 18.9536 21.51 18.947 20.5614C18.9446 20.2351 19.0615 19.943 19.3099 19.7269C20.3894 18.7893 21.9726 18.4157 23.3738 18.4024L23.4021 18.4007C25.7105 18.3858 27.6497 19.2212 29.0186 20.7042C30.3747 22.1743 31.1642 24.2786 31.1882 26.8145L31.1895 26.8441C31.2288 32.7793 27.6754 37.1142 21.5661 37.1708L21.5364 37.1725C19.4041 37.1861 17.6161 36.6897 16.3548 35.8063C15.0722 34.908 14.3307 33.6154 14.3107 32.0534L14.309 32.0231C14.3017 30.7545 14.7962 29.6547 15.5593 28.8702C16.3258 28.0828 17.3654 27.6116 18.4412 27.6043C20.2968 27.5913 21.6503 28.6482 22.4355 30.2081C22.0812 29.7003 21.5441 29.3517 20.9641 29.1536C20.3108 28.5399 19.47 28.1727 18.4435 28.1793C17.5255 28.1857 16.6335 28.5919 15.9722 29.2715C15.2443 30.02 14.8751 31.0049 14.8854 32.0451C14.9021 33.4106 15.555 34.5437 16.6838 35.3348C17.8502 36.1516 19.5237 36.6108 21.5351 36.5964C27.3491 36.5398 30.6671 32.4713 30.6131 26.8218C30.5735 22.443 28.028 18.9438 23.4034 18.9768V18.9768Z" fill="#E62D58"/>
<path d="M21.1629 12.1489C20.748 12.5209 20.3867 12.99 20.1696 13.4319C19.6801 14.4288 19.219 15.6098 18.7758 16.8941C18.2897 18.3028 17.8548 19.7336 17.4323 21.1627C15.2683 28.4347 13.0268 35.9658 6.455 36.0124C3.2458 36.0347 0.553801 33.977 0.530201 30.6263C0.517801 28.8916 1.1914 27.2414 2.2413 26.0214C3.3071 24.7824 4.7645 23.9806 6.2948 23.97C6.7367 23.9666 7.1029 23.9603 7.5218 24.1381C8.9463 24.7444 8.1371 26.629 6.8785 26.2548C6.7031 26.2028 6.5296 26.1932 6.3471 26.1939C5.4038 26.2005 4.4978 26.7512 3.8265 27.5623C3.144 28.3868 2.7081 29.4739 2.7158 30.5358C2.7311 32.7 4.3576 33.8408 6.403 33.8268C11.4781 33.7912 13.5412 26.7243 15.2387 20.9096C15.7082 19.3017 16.1713 17.6869 16.7047 16.0989C17.1602 14.7414 17.6447 13.4881 18.1928 12.4183C18.8531 11.1294 20.5129 9.3317 22.0702 9.3207C22.6203 9.3177 23.1227 9.7056 23.1696 10.269C23.2176 10.8487 22.8803 11.3834 22.2929 11.501C21.929 11.5729 21.5288 11.82 21.1629 12.1489V12.1489Z" fill="#E62D58"/>
<path d="M19.6535 13.1798C20.1017 12.2675 21.1485 11.1427 22.1804 10.9363C22.7618 10.8137 22.7524 9.8907 22.0725 9.8957C21.5461 9.8991 20.9191 10.2121 20.3268 10.6932C19.6791 11.2186 19.0841 11.9385 18.7045 12.68C18.1735 13.7165 17.6993 14.9452 17.2505 16.2821C16.7194 17.8623 16.2582 19.4692 15.7911 21.0698C14.0393 27.0706 11.9103 34.3629 6.405 34.4018C4.035 34.4182 2.158 33.0277 2.1404 30.5381C2.1321 29.3381 2.6195 28.1161 3.3824 27.1948C4.1858 26.2242 5.3975 25.4926 6.6954 25.6335C7.0074 25.6674 7.2794 25.8442 7.5401 25.5732C7.8365 25.2645 7.7086 24.842 7.2977 24.6675C6.9728 24.5303 6.6411 24.5427 6.2972 24.5447C4.9427 24.5543 3.6404 25.2779 2.6785 26.3956C1.7135 27.5174 1.0939 29.0327 1.1052 30.624C1.1265 33.6553 3.5648 35.4577 6.4527 35.4377C12.5956 35.3938 14.7752 28.0701 16.8799 20.9982C17.3097 19.5605 17.7429 18.126 18.2321 16.7073C18.6829 15.402 19.1524 14.1997 19.6535 13.1798V13.1798Z" fill="#E62D58"/>
<path d="M35.5268 7.4624C35.9633 7.8503 36.0166 8.5765 35.6296 9.013C34.122 10.7155 32.4401 11.2805 30.2146 11.2955C28.9573 11.3042 27.9058 10.858 26.7421 10.3639C25.3569 9.7759 23.8036 9.1163 21.5684 9.1319C13.8615 9.1872 11.0799 14.8033 10.9384 21.7767C10.9191 22.753 9.7437 23.2244 9.0518 22.5658C8.8487 22.372 8.7162 22.098 8.7142 21.7844C8.6559 13.5887 12.8104 7.0079 21.593 6.946C24.2688 6.9273 26.0082 7.6835 27.4593 8.3148C28.4502 8.7457 29.3016 9.1159 30.2006 9.1099C31.7569 9.0986 32.901 8.7646 33.9638 7.5673C34.377 7.1015 35.0709 7.0592 35.5268 7.4624V7.4624Z" fill="#E62D58"/>
<path d="M35.3147 8.2855C35.3113 7.7877 34.7193 7.58161 34.3947 7.94821C33.2206 9.27181 31.9257 9.67301 30.2029 9.68461C29.1821 9.69161 28.2797 9.2991 27.2292 8.8426C25.8284 8.2332 24.1492 7.503 21.5954 7.521C13.1377 7.5806 9.2336 13.912 9.2892 21.782C9.2935 22.4589 10.3501 22.4656 10.3634 21.766C10.5115 14.4654 13.5299 8.6141 21.5664 8.5572C23.9205 8.5409 25.5311 9.22451 26.9675 9.83411C28.0743 10.304 29.0742 10.7288 30.2123 10.7205C32.2687 10.7058 33.8043 10.2074 35.1988 8.63211C35.2784 8.54261 35.3153 8.404 35.3147 8.2855V8.2855Z" fill="#E62D58"/>
<path d="M18.6872 27.9099C22.5827 28.1848 24.8508 32.4952 25.6444 36.9976C25.8428 38.1235 25.9499 39.2641 25.9676 40.3556C26.27 40.2505 26.5658 40.165 26.849 40.1023C31.5548 39.0581 36.894 38.5931 42.1077 38.9479C46.7863 39.2662 51.3756 40.2449 55.3346 42.0566C58.6862 43.5905 63.0649 45.5666 67.4084 46.3838C71.64 47.1801 75.8552 46.8746 79.0395 43.9418L79.9514 44.9329C76.3887 48.2144 71.7689 48.5741 67.1605 47.7069C62.6636 46.8607 58.1949 44.8445 54.7758 43.2798C50.9765 41.5412 46.5479 40.6003 42.0182 40.2921C36.928 39.9457 31.7219 40.3981 27.1391 41.415C26.7601 41.4989 26.3534 41.6319 25.9373 41.8024C25.9112 42.2316 25.87 42.6475 25.8138 43.045C25.5452 44.9408 24.9163 46.4655 23.9378 47.1774C23.0798 47.8016 22.0307 47.8399 20.8104 47.0553L20.7757 47.0328L20.7368 46.9999C20.5029 46.8004 20.3353 46.5741 20.2289 46.3273C19.9387 45.6554 20.111 44.9086 20.5933 44.1656C20.9957 43.5452 21.631 42.9093 22.3789 42.3292C23.0544 41.8053 23.8332 41.3192 24.6218 40.9267C24.6373 39.7466 24.5366 38.4811 24.3159 37.2298C23.617 33.332 21.7338 29.5768 18.5922 29.2542L18.6872 27.9099ZM24.4799 42.8605L24.5253 42.5038C24.0615 42.7741 23.6114 43.076 23.2013 43.3941C22.5672 43.886 22.0397 44.4084 21.7216 44.8985C21.4836 45.2652 21.3763 45.5828 21.4679 45.7947C21.4902 45.846 21.5268 45.8972 21.579 45.9474C22.239 46.3588 22.7595 46.3676 23.1469 46.086C23.8111 45.6028 24.261 44.4057 24.4799 42.8605V42.8605Z" fill="#E62D58"/>
<path d="M18.7074 27.6216C20.591 27.7545 22.1082 28.7787 23.2748 30.3025C24.6171 32.0559 25.4938 34.4757 25.9293 36.9477C26.0278 37.5061 26.1047 38.0765 26.1594 38.6491C26.2019 39.09 26.2308 39.5289 26.2459 39.9615L26.339 39.9342C26.4812 39.8934 26.6314 39.8553 26.787 39.8208C29.2063 39.2839 31.7882 38.8994 34.4298 38.6996C36.9649 38.5079 39.561 38.4849 42.1271 38.6596C44.5518 38.8245 46.9534 39.1659 49.2562 39.7073C51.4268 40.2173 53.5141 40.9069 55.4542 41.7946C57.1194 42.5565 59.0413 43.4295 61.1022 44.2187C63.1466 45.0019 65.3116 45.6956 67.4614 46.1001C69.5451 46.4922 71.6233 46.6134 73.568 46.2765C75.496 45.9423 77.2966 45.1543 78.8441 43.7292L79.0566 43.5338L80.3593 44.9501L80.1468 45.1455C78.3223 46.8256 76.2272 47.7583 73.9989 48.1594C71.7841 48.5578 69.4425 48.4298 67.1075 47.9906C64.8372 47.5633 62.5796 46.8427 60.461 46.033C58.3591 45.2295 56.3756 44.3289 54.6561 43.5419C52.8338 42.7079 50.8608 42.0584 48.7984 41.5757C46.6068 41.0625 44.316 40.7378 41.9989 40.5803C39.5227 40.412 37.0169 40.4335 34.5695 40.6182C32.013 40.8109 29.5241 41.181 27.2013 41.6964C27.0247 41.7355 26.839 41.787 26.6475 41.8486C26.5056 41.8942 26.3602 41.946 26.2134 42.0029L26.1739 42.4641C26.1526 42.6806 26.1274 42.8884 26.0998 43.0846C25.9584 44.0837 25.718 44.9855 25.3812 45.7274C25.0514 46.4543 24.6359 47.0909 24.1171 47.4683C23.6246 47.8267 22.9885 48.1718 22.381 48.1484C20.9484 48.0643 19.6417 46.9827 19.8308 45.2589C19.9004 44.8448 20.0819 44.4242 20.3516 44.0087C20.559 43.6887 20.8238 43.3662 21.1296 43.0516C21.4459 42.7262 21.8092 42.406 22.2025 42.1009C22.5484 41.8327 22.9194 41.5747 23.3029 41.3351C23.6395 41.1245 23.9861 40.9269 24.335 40.7476C24.3364 40.2219 24.3142 39.6735 24.2678 39.1132C24.2177 38.5064 24.1388 37.8908 24.0311 37.2797C23.662 35.2148 22.9556 33.1947 21.9035 31.7286C21.03 30.5113 19.9981 29.7126 18.6439 29.5736L18.2846 29.5128L18.4194 27.6013L18.7074 27.6216V27.6216ZM22.8161 30.6528C21.8077 29.3357 20.5233 28.4267 18.9544 28.2267L18.8996 29.0047C20.3096 29.2389 21.4643 30.1278 22.3715 31.392C23.4768 32.9323 24.2155 35.0368 24.5995 37.179C24.7116 37.8093 24.793 38.4424 24.8443 39.0658C24.8961 39.6936 24.9178 40.3201 24.91 40.9301L24.9078 41.1074L24.7505 41.1856C24.3621 41.3788 23.9774 41.5948 23.6083 41.8256C23.2382 42.0567 22.883 42.3034 22.5552 42.5577C22.1841 42.8454 21.8412 43.1478 21.5434 43.4542C21.262 43.7439 21.0207 44.0365 20.8353 44.3228C20.6083 44.6724 20.4566 45.0202 20.4005 45.3536C20.3504 45.6512 20.3768 45.9406 20.4945 46.2132C20.5395 46.318 20.5976 46.4182 20.6677 46.5112C20.74 46.6058 20.8257 46.6964 20.9244 46.7807L20.9662 46.8127C21.5143 47.1644 22.0183 47.3374 22.4758 47.355C22.9468 47.3733 23.3789 47.2267 23.7683 46.9434C24.2026 46.6275 24.5658 46.1265 24.8545 45.4899C25.1689 44.7977 25.3941 43.9496 25.5278 43.0054C25.5561 42.8051 25.5803 42.6048 25.5998 42.4075C25.6194 42.2093 25.636 42.0015 25.6489 41.7855L25.6599 41.6045L25.8275 41.5356C26.0446 41.4467 26.2606 41.3671 26.4711 41.2994C26.6763 41.2335 26.8796 41.1773 27.0772 41.1336C29.4337 40.6106 31.9502 40.2361 34.5265 40.0417C36.9991 39.8553 39.5322 39.8335 42.0375 40.0038C44.3854 40.1636 46.7075 40.4926 48.9294 41.0129C51.0238 41.5032 53.0327 42.1654 54.8955 43.0176C56.5947 43.7952 58.5559 44.6858 60.6667 45.4926C62.7611 46.2931 64.9872 47.0042 67.2135 47.4234C69.4864 47.8511 71.7594 47.9766 73.8973 47.5922C75.934 47.2255 77.854 46.393 79.541 44.9135L79.0199 44.347C77.4329 45.7327 75.6096 46.509 73.6652 46.8461C71.6487 47.1955 69.5026 47.0714 67.3554 46.6673C65.1618 46.2548 62.9651 45.5515 60.8966 44.7591C58.8447 43.973 56.9005 43.0902 55.2148 42.3188C53.3148 41.4494 51.2639 40.7725 49.1253 40.2701C46.8528 39.7358 44.4821 39.3987 42.0885 39.2361C39.5517 39.0636 36.9829 39.0861 34.4728 39.2761C31.851 39.4742 29.2966 39.8543 26.9111 40.3837C26.7858 40.4115 26.6473 40.4472 26.4973 40.4902C26.3434 40.5344 26.198 40.5805 26.0615 40.6279L25.686 40.7584L25.6794 40.3602C25.6707 39.8182 25.6394 39.2627 25.5854 38.7033C25.5334 38.1605 25.4579 37.6053 25.3597 37.0474C24.9386 34.6576 24.0978 32.327 22.8161 30.6528V30.6528ZM24.8113 42.5399L24.7659 42.9002C24.6506 43.715 24.471 44.4401 24.2299 45.0229C23.9898 45.604 23.6847 46.052 23.3163 46.32C23.0608 46.5056 22.7614 46.5933 22.4184 46.563C22.1189 46.5369 21.7879 46.4179 21.4264 46.1927L21.4022 46.1778L21.379 46.1553C21.3429 46.1204 21.3096 46.0823 21.2806 46.0425C21.2496 46.0014 21.2237 45.9558 21.2034 45.9089C21.1311 45.7413 21.1303 45.5488 21.1892 45.3404C21.241 45.157 21.3419 44.9542 21.4799 44.7415C21.6463 44.485 21.8644 44.2222 22.1209 43.9613C22.3847 43.6931 22.6915 43.4246 23.0249 43.1657C23.2326 43.0047 23.4527 42.8462 23.6801 42.6933C23.9153 42.535 24.1498 42.3877 24.3794 42.2538L24.8853 41.9587L24.8113 42.5399V42.5399ZM24.2026 42.9754C23.9041 43.1867 23.653 43.3464 23.3696 43.5658C22.9348 43.9031 21.8668 44.9071 21.8944 45.4921C21.9201 46.0339 22.2586 46.1617 22.6033 46.0779C23.0806 45.9616 23.5203 45.1863 23.6891 44.7774C23.8867 44.2996 24.0946 43.6415 24.2026 42.9754Z" fill="#E62D58"/>
<path fill-rule="evenodd" clip-rule="evenodd" d="M79.5952 43.37C80.138 43.37 80.5777 43.8097 80.5777 44.3527C80.5777 44.8955 80.138 45.3352 79.5952 45.3352C79.0522 45.3352 78.6125 44.8955 78.6125 44.3527C78.6125 43.8097 79.0522 43.37 79.5952 43.37Z" fill="#E62D58"/>
<path fill-rule="evenodd" clip-rule="evenodd" d="M101.874 2.74309C102.517 2.86679 102.938 3.4787 102.813 4.1103C102.687 4.7419 102.064 5.15359 101.421 5.02999C100.777 4.90649 100.357 4.29439 100.482 3.66289C100.607 3.03139 101.23 2.61969 101.874 2.74309Z" fill="#FCC859"/>
<path d="M101.979 2.2301L101.986 2.23161C102.449 2.32391 102.831 2.58951 103.075 2.94461C103.317 3.2974 103.424 3.741 103.339 4.1931L103.336 4.2102C103.246 4.667 102.974 5.04511 102.609 5.28651C102.244 5.52781 101.784 5.63241 101.319 5.54321L101.307 5.54151C100.845 5.44991 100.463 5.1841 100.219 4.8285C99.9771 4.473 99.8699 4.02681 99.9566 3.57481L99.9581 3.5631C100.048 3.1063 100.32 2.72801 100.685 2.48691C101.05 2.24531 101.509 2.14051 101.975 2.22991L101.979 2.2301V2.2301ZM101.776 3.25751L101.768 3.25611C101.592 3.22311 101.419 3.2624 101.281 3.353C101.143 3.4444 101.04 3.58851 101.005 3.76291L101.004 3.7664C100.971 3.9395 101.012 4.1103 101.104 4.2451C101.199 4.38 101.344 4.4809 101.518 4.5155L101.522 4.5168C101.7 4.5507 101.875 4.51141 102.013 4.42031C102.148 4.33041 102.25 4.1902 102.287 4.0206L102.29 4.00791C102.323 3.83551 102.282 3.66451 102.188 3.52791C102.095 3.39291 101.951 3.29171 101.776 3.25751V3.25751Z" fill="#FCC859"/>
<path fill-rule="evenodd" clip-rule="evenodd" d="M113.884 1.3595C114.527 1.4831 114.948 2.0951 114.823 2.7266C114.697 3.3581 114.074 3.77 113.431 3.6463C112.787 3.5229 112.367 2.9107 112.492 2.2792C112.617 1.6477 113.24 1.236 113.884 1.3595Z" fill="#FCC859"/>
<path d="M113.986 0.846602L113.994 0.847998L113.891 1.361L113.997 0.847998C114.459 0.939598 114.841 1.2054 115.085 1.5611C115.328 1.9172 115.434 2.363 115.348 2.8154L115.346 2.8286C115.255 3.2847 114.984 3.6618 114.619 3.9029C114.254 4.1443 113.795 4.2488 113.329 4.1596L113.318 4.1579C112.855 4.0656 112.473 3.8003 112.229 3.4449C111.987 3.0924 111.88 2.6486 111.966 2.1964L111.968 2.1793C112.059 1.7225 112.33 1.3444 112.695 1.103C113.061 0.861698 113.52 0.757202 113.986 0.846602V0.846602ZM113.786 1.8737L113.78 1.8725C113.603 1.839 113.429 1.8784 113.292 1.9692C113.156 2.0591 113.054 2.1991 113.018 2.3689L113.014 2.3816C112.981 2.554 113.022 2.725 113.116 2.8616C113.209 2.9967 113.354 3.0978 113.527 3.132L113.536 3.1334C113.713 3.1664 113.886 3.1271 114.023 3.0367C114.161 2.9454 114.264 2.8012 114.299 2.6268L114.3 2.6178C114.333 2.4463 114.292 2.278 114.2 2.1444C114.105 2.0095 113.96 1.9087 113.786 1.8737V1.8737Z" fill="#FCC859"/>
<path fill-rule="evenodd" clip-rule="evenodd" d="M124.331 7.0982C124.974 7.2218 125.394 7.8338 125.269 8.4654C125.144 9.0969 124.521 9.50869 123.877 9.38519C123.234 9.26159 122.813 8.6496 122.938 8.0179C123.064 7.3864 123.687 6.9747 124.331 7.0982Z" fill="#FCC859"/>
<path d="M124.44 6.5853L124.447 6.5867C124.908 6.6808 125.289 6.9456 125.532 7.2998C125.774 7.6523 125.881 8.0963 125.796 8.5483L125.793 8.5654C125.703 9.0224 125.431 9.4003 125.066 9.6416C124.7 9.883 124.241 9.98749 123.776 9.89839L123.761 9.8966C123.3 9.8026 122.919 9.538 122.676 9.1836C122.434 8.8311 122.327 8.38699 122.412 7.93509L122.415 7.91799C122.505 7.46119 122.777 7.08309 123.142 6.84179C123.507 6.60039 123.967 6.4959 124.432 6.585L124.44 6.5853ZM124.228 7.61269L124.221 7.6112C124.046 7.5787 123.874 7.61829 123.738 7.70799C123.602 7.79779 123.501 7.93779 123.464 8.10759L123.461 8.1203C123.428 8.2927 123.469 8.4637 123.563 8.6003C123.656 8.7354 123.8 8.8365 123.974 8.8707L123.987 8.87219C124.162 8.90459 124.334 8.8651 124.47 8.7754C124.605 8.6858 124.707 8.5456 124.743 8.3758L124.747 8.36309C124.78 8.19059 124.738 8.01939 124.645 7.88309C124.552 7.74799 124.407 7.64689 124.234 7.61269H124.228Z" fill="#FCC859"/>
<path d="M101.421 6.92629C101.375 6.64099 101.573 6.37249 101.864 6.32709C102.155 6.28159 102.429 6.47629 102.475 6.76159C102.731 8.32689 102.94 9.89219 103.019 11.4546C103.089 12.8216 103.06 14.1924 102.878 15.5684C104.989 15.5347 107.271 15.7741 109.757 16.2517C112.345 16.749 115.155 17.505 118.227 18.4799C118.757 17.1972 119.336 15.9407 119.962 14.7098C120.659 13.337 121.426 11.9771 122.258 10.6312C122.409 10.3847 122.737 10.3056 122.988 10.4546C123.24 10.6036 123.321 10.9245 123.169 11.171C122.365 12.4735 121.613 13.8089 120.917 15.1773C120.228 16.5323 119.603 17.9034 119.045 19.2907C118.953 19.5657 118.652 19.7152 118.371 19.6253C115.153 18.5901 112.228 17.7918 109.554 17.2781C106.899 16.768 104.489 16.5382 102.281 16.6339C102.246 16.6342 102.209 16.6322 102.173 16.6264C101.882 16.5804 101.685 16.3117 101.731 16.0272C101.981 14.5278 102.028 13.0187 101.952 11.504C101.874 9.978 101.67 8.45149 101.421 6.92629V6.92629Z" fill="#FCC859"/>
<path d="M103.518 6.351C103.313 6.1436 103.318 5.8124 103.53 5.6118C103.741 5.4113 104.079 5.4172 104.284 5.6245L107.593 8.96281L111.422 4.6663C111.616 4.4493 111.953 4.42741 112.174 4.61741C112.396 4.80751 112.419 5.1377 112.225 5.3546L107.985 10.1096C107.774 10.3102 107.435 10.3043 107.231 10.0969L103.518 6.351Z" fill="#FCC859"/>
<path d="M113.842 5.6363C113.752 5.361 113.907 5.0661 114.188 4.9787C114.469 4.8912 114.769 5.0434 114.859 5.3187L116.668 10.8471L121.036 8.86361C121.303 8.74291 121.62 8.85701 121.744 9.11861C121.867 9.38021 121.751 9.6907 121.484 9.8114L116.604 12.0272C116.574 12.044 116.541 12.058 116.506 12.0687C116.226 12.1562 115.925 12.004 115.835 11.7287L113.842 5.6363Z" fill="#FCC859"/>
<path d="M104.194 14.8581C103.9 14.8493 103.669 14.6082 103.677 14.3199C103.686 14.0317 103.932 13.8053 104.226 13.8141C106.678 13.8873 109.04 14.1292 111.318 14.5593C113.603 14.9914 115.803 15.6131 117.921 16.4444C118.195 16.5509 118.329 16.8553 118.221 17.1235C118.112 17.3917 117.802 17.5226 117.528 17.4161C115.469 16.608 113.335 16.0044 111.119 15.5858C108.896 15.1656 106.589 14.9296 104.194 14.8581Z" fill="#FCC859"/>
<path fill-rule="evenodd" clip-rule="evenodd" d="M101.874 2.74309C102.517 2.86679 102.938 3.4787 102.813 4.1103C102.687 4.7419 102.064 5.15359 101.421 5.02999C100.777 4.90649 100.357 4.29439 100.482 3.66289C100.607 3.03139 101.23 2.61969 101.874 2.74309Z" fill="#FCC859"/>
<path d="M101.979 2.2301L101.986 2.23161C102.449 2.32391 102.831 2.58951 103.075 2.94461C103.317 3.2974 103.424 3.741 103.339 4.1931L103.336 4.2102C103.246 4.667 102.974 5.04511 102.609 5.28651C102.244 5.52781 101.784 5.63241 101.319 5.54321L101.307 5.54151C100.845 5.44991 100.463 5.1841 100.219 4.8285C99.9771 4.473 99.8699 4.02681 99.9566 3.57481L99.9581 3.5631C100.048 3.1063 100.32 2.72801 100.685 2.48691C101.05 2.24531 101.509 2.14051 101.975 2.22991L101.979 2.2301V2.2301ZM101.776 3.25751L101.768 3.25611C101.592 3.22311 101.419 3.2624 101.281 3.353C101.143 3.4444 101.04 3.58851 101.005 3.76291L101.004 3.7664C100.971 3.9395 101.012 4.1103 101.104 4.2451C101.199 4.38 101.344 4.4809 101.518 4.5155L101.522 4.5168C101.7 4.5507 101.875 4.51141 102.013 4.42031C102.148 4.33041 102.25 4.1902 102.287 4.0206L102.29 4.00791C102.323 3.83551 102.282 3.66451 102.188 3.52791C102.095 3.39291 101.951 3.29171 101.776 3.25751V3.25751Z" fill="#FCC859"/>
<path fill-rule="evenodd" clip-rule="evenodd" d="M113.884 1.3595C114.527 1.4831 114.948 2.0951 114.823 2.7266C114.697 3.3581 114.074 3.77 113.431 3.6463C112.787 3.5229 112.367 2.9107 112.492 2.2792C112.617 1.6477 113.24 1.236 113.884 1.3595Z" fill="#FCC859"/>
<path d="M113.986 0.846602L113.994 0.847998L113.891 1.361L113.997 0.847998C114.459 0.939598 114.841 1.2054 115.085 1.5611C115.328 1.9172 115.434 2.363 115.348 2.8154L115.346 2.8286C115.255 3.2847 114.984 3.6618 114.619 3.9029C114.254 4.1443 113.795 4.2488 113.329 4.1596L113.318 4.1579C112.855 4.0656 112.473 3.8003 112.229 3.4449C111.987 3.0924 111.88 2.6486 111.966 2.1964L111.968 2.1793C112.059 1.7225 112.33 1.3444 112.695 1.103C113.061 0.861698 113.52 0.757202 113.986 0.846602V0.846602ZM113.786 1.8737L113.78 1.8725C113.603 1.839 113.429 1.8784 113.292 1.9692C113.156 2.0591 113.054 2.1991 113.018 2.3689L113.014 2.3816C112.981 2.554 113.022 2.725 113.116 2.8616C113.209 2.9967 113.354 3.0978 113.527 3.132L113.536 3.1334C113.713 3.1664 113.886 3.1271 114.023 3.0367C114.161 2.9454 114.264 2.8012 114.299 2.6268L114.3 2.6178C114.333 2.4463 114.292 2.278 114.2 2.1444C114.105 2.0095 113.96 1.9087 113.786 1.8737V1.8737Z" fill="#FCC859"/>
<path fill-rule="evenodd" clip-rule="evenodd" d="M124.331 7.0982C124.974 7.2218 125.394 7.8338 125.269 8.4654C125.144 9.0969 124.521 9.50869 123.877 9.38519C123.234 9.26159 122.813 8.6496 122.938 8.0179C123.064 7.3864 123.687 6.9747 124.331 7.0982Z" fill="#FCC859"/>
<path d="M124.44 6.5853L124.447 6.5867C124.908 6.6808 125.289 6.9456 125.532 7.2998C125.774 7.6523 125.881 8.0963 125.796 8.5483L125.793 8.5654C125.703 9.0224 125.431 9.4003 125.066 9.6416C124.7 9.883 124.241 9.98749 123.776 9.89839L123.761 9.8966C123.3 9.8026 122.919 9.538 122.676 9.1836C122.434 8.8311 122.327 8.38699 122.412 7.93509L122.415 7.91799C122.505 7.46119 122.777 7.08309 123.142 6.84179C123.507 6.60039 123.967 6.4959 124.432 6.585L124.44 6.5853ZM124.228 7.61269L124.221 7.6112C124.046 7.5787 123.874 7.61829 123.738 7.70799C123.602 7.79779 123.501 7.93779 123.464 8.10759L123.461 8.1203C123.428 8.2927 123.469 8.4637 123.563 8.6003C123.656 8.7354 123.8 8.8365 123.974 8.8707L123.987 8.87219C124.162 8.90459 124.334 8.8651 124.47 8.7754C124.605 8.6858 124.707 8.5456 124.743 8.3758L124.747 8.36309C124.78 8.19059 124.738 8.01939 124.645 7.88309C124.552 7.74799 124.407 7.64689 124.234 7.61269H124.228Z" fill="#FCC859"/>
<path d="M101.421 6.92629C101.375 6.64099 101.573 6.37249 101.864 6.32709C102.155 6.28159 102.429 6.47629 102.475 6.76159C102.731 8.32689 102.94 9.89219 103.019 11.4546C103.089 12.8216 103.06 14.1924 102.878 15.5684C104.989 15.5347 107.271 15.7741 109.757 16.2517C112.345 16.749 115.155 17.505 118.227 18.4799C118.757 17.1972 119.336 15.9407 119.962 14.7098C120.659 13.337 121.426 11.9771 122.258 10.6312C122.409 10.3847 122.737 10.3056 122.988 10.4546C123.24 10.6036 123.321 10.9245 123.169 11.171C122.365 12.4735 121.613 13.8089 120.917 15.1773C120.228 16.5323 119.603 17.9034 119.045 19.2907C118.953 19.5657 118.652 19.7152 118.371 19.6253C115.153 18.5901 112.228 17.7918 109.554 17.2781C106.899 16.768 104.489 16.5382 102.281 16.6339C102.246 16.6342 102.209 16.6322 102.173 16.6264C101.882 16.5804 101.685 16.3117 101.731 16.0272C101.981 14.5278 102.028 13.0187 101.952 11.504C101.874 9.978 101.67 8.45149 101.421 6.92629V6.92629Z" fill="#FCC859"/>
<path d="M103.518 6.351C103.313 6.1436 103.318 5.8124 103.53 5.6118C103.741 5.4113 104.079 5.4172 104.284 5.6245L107.593 8.96281L111.422 4.6663C111.616 4.4493 111.953 4.42741 112.174 4.61741C112.396 4.80751 112.419 5.1377 112.225 5.3546L107.985 10.1096C107.774 10.3102 107.435 10.3043 107.231 10.0969L103.518 6.351Z" fill="#FCC859"/>
<path d="M113.842 5.6363C113.752 5.361 113.907 5.0661 114.188 4.9787C114.469 4.8912 114.769 5.0434 114.859 5.3187L116.668 10.8471L121.036 8.86361C121.303 8.74291 121.62 8.85701 121.744 9.11861C121.867 9.38021 121.751 9.6907 121.484 9.8114L116.604 12.0272C116.574 12.044 116.541 12.058 116.506 12.0687C116.226 12.1562 115.925 12.004 115.835 11.7287L113.842 5.6363Z" fill="#FCC859"/>
<path d="M104.194 14.8581C103.9 14.8493 103.669 14.6082 103.677 14.3199C103.686 14.0317 103.932 13.8053 104.226 13.8141C106.678 13.8873 109.04 14.1292 111.318 14.5593C113.603 14.9914 115.803 15.6131 117.921 16.4444C118.195 16.5509 118.329 16.8553 118.221 17.1235C118.112 17.3917 117.802 17.5226 117.528 17.4161C115.469 16.608 113.335 16.0044 111.119 15.5858C108.896 15.1656 106.589 14.9296 104.194 14.8581Z" fill="#FCC859"/>
<path fill-rule="evenodd" clip-rule="evenodd" d="M124.331 7.0982C124.974 7.2218 125.394 7.8338 125.269 8.4654C125.144 9.0969 124.521 9.50869 123.877 9.38519C123.234 9.26159 122.813 8.6496 122.938 8.0179C123.064 7.3864 123.687 6.9747 124.331 7.0982Z" fill="#FCC859"/>
<path d="M124.44 6.5853L124.447 6.5867C124.908 6.6808 125.289 6.9456 125.532 7.2998C125.774 7.6523 125.881 8.0963 125.796 8.5483L125.793 8.5654C125.703 9.0224 125.431 9.4003 125.066 9.6416C124.7 9.883 124.241 9.98749 123.776 9.89839L123.761 9.8966C123.3 9.8026 122.919 9.538 122.676 9.1836C122.434 8.8311 122.327 8.38699 122.412 7.93509L122.415 7.91799C122.505 7.46119 122.777 7.08309 123.142 6.84179C123.507 6.60039 123.967 6.4959 124.432 6.585L124.44 6.5853ZM124.228 7.61269L124.221 7.6112C124.046 7.5787 123.874 7.61829 123.738 7.70799C123.602 7.79779 123.501 7.93779 123.464 8.10759L123.461 8.1203C123.428 8.2927 123.469 8.4637 123.563 8.6003C123.656 8.7354 123.8 8.8365 123.974 8.8707L123.987 8.87219C124.162 8.90459 124.334 8.8651 124.47 8.7754C124.605 8.6858 124.707 8.5456 124.743 8.3758L124.747 8.36309C124.78 8.19059 124.738 8.01939 124.645 7.88309C124.552 7.74799 124.407 7.64689 124.234 7.61269H124.228Z" fill="#FCC859"/>
<path fill-rule="evenodd" clip-rule="evenodd" d="M124.331 7.0982C124.974 7.2218 125.394 7.8338 125.269 8.4654C125.144 9.0969 124.521 9.50869 123.877 9.38519C123.234 9.26159 122.813 8.6496 122.938 8.0179C123.064 7.3864 123.687 6.9747 124.331 7.0982Z" fill="#FCC859"/>
<path d="M124.44 6.5853L124.447 6.5867C124.908 6.6808 125.289 6.9456 125.532 7.2998C125.774 7.6523 125.881 8.0963 125.796 8.5483L125.793 8.5654C125.703 9.0224 125.431 9.4003 125.066 9.6416C124.7 9.883 124.241 9.98749 123.776 9.89839L123.761 9.8966C123.3 9.8026 122.919 9.538 122.676 9.1836C122.434 8.8311 122.327 8.38699 122.412 7.93509L122.415 7.91799C122.505 7.46119 122.777 7.08309 123.142 6.84179C123.507 6.60039 123.967 6.4959 124.432 6.585L124.44 6.5853ZM124.228 7.61269L124.221 7.6112C124.046 7.5787 123.874 7.61829 123.738 7.70799C123.602 7.79779 123.501 7.93779 123.464 8.10759L123.461 8.1203C123.428 8.2927 123.469 8.4637 123.563 8.6003C123.656 8.7354 123.8 8.8365 123.974 8.8707L123.987 8.87219C124.162 8.90459 124.334 8.8651 124.47 8.7754C124.605 8.6858 124.707 8.5456 124.743 8.3758L124.747 8.36309C124.78 8.19059 124.738 8.01939 124.645 7.88309C124.552 7.74799 124.407 7.64689 124.234 7.61269H124.228Z" fill="#FCC859"/>
<path fill-rule="evenodd" clip-rule="evenodd" d="M101.874 2.74309C102.517 2.86679 102.938 3.4787 102.813 4.1103C102.687 4.7419 102.064 5.15359 101.421 5.02999C100.777 4.90649 100.357 4.29439 100.482 3.66289C100.607 3.03139 101.23 2.61969 101.874 2.74309Z" fill="#FCC859"/>
<path d="M101.979 2.2301L101.986 2.23161C102.449 2.32391 102.831 2.58951 103.075 2.94461C103.317 3.2974 103.424 3.741 103.339 4.1931L103.336 4.2102C103.246 4.667 102.974 5.04511 102.609 5.28651C102.244 5.52781 101.784 5.63241 101.319 5.54321L101.307 5.54151C100.845 5.44991 100.463 5.1841 100.219 4.8285C99.9771 4.473 99.8699 4.02681 99.9566 3.57481L99.9581 3.5631C100.048 3.1063 100.32 2.72801 100.685 2.48691C101.05 2.24531 101.509 2.14051 101.975 2.22991L101.979 2.2301V2.2301ZM101.776 3.25751L101.768 3.25611C101.592 3.22311 101.419 3.2624 101.281 3.353C101.143 3.4444 101.04 3.58851 101.005 3.76291L101.004 3.7664C100.971 3.9395 101.012 4.1103 101.104 4.2451C101.199 4.38 101.344 4.4809 101.518 4.5155L101.522 4.5168C101.7 4.5507 101.875 4.51141 102.013 4.42031C102.148 4.33041 102.25 4.1902 102.287 4.0206L102.29 4.00791C102.323 3.83551 102.282 3.66451 102.188 3.52791C102.095 3.39291 101.951 3.29171 101.776 3.25751V3.25751Z" fill="#FCC859"/>
<path fill-rule="evenodd" clip-rule="evenodd" d="M113.884 1.3595C114.527 1.4831 114.948 2.0951 114.823 2.7266C114.697 3.3581 114.074 3.77 113.431 3.6463C112.787 3.5229 112.367 2.9107 112.492 2.2792C112.617 1.6477 113.24 1.236 113.884 1.3595Z" fill="#FCC859"/>
<path d="M113.986 0.846602L113.994 0.847998L113.891 1.361L113.997 0.847998C114.459 0.939598 114.841 1.2054 115.085 1.5611C115.328 1.9172 115.434 2.363 115.348 2.8154L115.346 2.8286C115.255 3.2847 114.984 3.6618 114.619 3.9029C114.254 4.1443 113.795 4.2488 113.329 4.1596L113.318 4.1579C112.855 4.0656 112.473 3.8003 112.229 3.4449C111.987 3.0924 111.88 2.6486 111.966 2.1964L111.968 2.1793C112.059 1.7225 112.33 1.3444 112.695 1.103C113.061 0.861698 113.52 0.757202 113.986 0.846602V0.846602ZM113.786 1.8737L113.78 1.8725C113.603 1.839 113.429 1.8784 113.292 1.9692C113.156 2.0591 113.054 2.1991 113.018 2.3689L113.014 2.3816C112.981 2.554 113.022 2.725 113.116 2.8616C113.209 2.9967 113.354 3.0978 113.527 3.132L113.536 3.1334C113.713 3.1664 113.886 3.1271 114.023 3.0367C114.161 2.9454 114.264 2.8012 114.299 2.6268L114.3 2.6178C114.333 2.4463 114.292 2.278 114.2 2.1444C114.105 2.0095 113.96 1.9087 113.786 1.8737V1.8737Z" fill="#FCC859"/>
<path fill-rule="evenodd" clip-rule="evenodd" d="M124.331 7.0982C124.974 7.2218 125.394 7.8338 125.269 8.4654C125.144 9.0969 124.521 9.50869 123.877 9.38519C123.234 9.26159 122.813 8.6496 122.938 8.0179C123.064 7.3864 123.687 6.9747 124.331 7.0982Z" fill="#FCC859"/>
<path d="M124.44 6.5853L124.447 6.5867C124.908 6.6808 125.289 6.9456 125.532 7.2998C125.774 7.6523 125.881 8.0963 125.796 8.5483L125.793 8.5654C125.703 9.0224 125.431 9.4003 125.066 9.6416C124.7 9.883 124.241 9.98749 123.776 9.89839L123.761 9.8966C123.3 9.8026 122.919 9.538 122.676 9.1836C122.434 8.8311 122.327 8.38699 122.412 7.93509L122.415 7.91799C122.505 7.46119 122.777 7.08309 123.142 6.84179C123.507 6.60039 123.967 6.4959 124.432 6.585L124.44 6.5853ZM124.228 7.61269L124.221 7.6112C124.046 7.5787 123.874 7.61829 123.738 7.70799C123.602 7.79779 123.501 7.93779 123.464 8.10759L123.461 8.1203C123.428 8.2927 123.469 8.4637 123.563 8.6003C123.656 8.7354 123.8 8.8365 123.974 8.8707L123.987 8.87219C124.162 8.90459 124.334 8.8651 124.47 8.7754C124.605 8.6858 124.707 8.5456 124.743 8.3758L124.747 8.36309C124.78 8.19059 124.738 8.01939 124.645 7.88309C124.552 7.74799 124.407 7.64689 124.234 7.61269H124.228Z" fill="#FCC859"/>
<path d="M101.421 6.92629C101.375 6.64099 101.573 6.37249 101.864 6.32709C102.155 6.28159 102.429 6.47629 102.475 6.76159C102.731 8.32689 102.94 9.89219 103.019 11.4546C103.089 12.8216 103.06 14.1924 102.878 15.5684C104.989 15.5347 107.271 15.7741 109.757 16.2517C112.345 16.749 115.155 17.505 118.227 18.4799C118.757 17.1972 119.336 15.9407 119.962 14.7098C120.659 13.337 121.426 11.9771 122.258 10.6312C122.409 10.3847 122.737 10.3056 122.988 10.4546C123.24 10.6036 123.321 10.9245 123.169 11.171C122.365 12.4735 121.613 13.8089 120.917 15.1773C120.228 16.5323 119.603 17.9034 119.045 19.2907C118.953 19.5657 118.652 19.7152 118.371 19.6253C115.153 18.5901 112.228 17.7918 109.554 17.2781C106.899 16.768 104.489 16.5382 102.281 16.6339C102.246 16.6342 102.209 16.6322 102.173 16.6264C101.882 16.5804 101.685 16.3117 101.731 16.0272C101.981 14.5278 102.028 13.0187 101.952 11.504C101.874 9.978 101.67 8.45149 101.421 6.92629V6.92629Z" fill="#FCC859"/>
<path d="M103.518 6.351C103.313 6.1436 103.318 5.8124 103.53 5.6118C103.741 5.4113 104.079 5.4172 104.284 5.6245L107.593 8.96281L111.422 4.6663C111.616 4.4493 111.953 4.42741 112.174 4.61741C112.396 4.80751 112.419 5.1377 112.225 5.3546L107.985 10.1096C107.774 10.3102 107.435 10.3043 107.231 10.0969L103.518 6.351Z" fill="#FCC859"/>
<path d="M113.842 5.6363C113.752 5.361 113.907 5.0661 114.188 4.9787C114.469 4.8912 114.769 5.0434 114.859 5.3187L116.668 10.8471L121.036 8.86361C121.303 8.74291 121.62 8.85701 121.744 9.11861C121.867 9.38021 121.751 9.6907 121.484 9.8114L116.604 12.0272C116.574 12.044 116.541 12.058 116.506 12.0687C116.226 12.1562 115.925 12.004 115.835 11.7287L113.842 5.6363Z" fill="#FCC859"/>
<path d="M104.194 14.8581C103.9 14.8493 103.669 14.6082 103.677 14.3199C103.686 14.0317 103.932 13.8053 104.226 13.8141C106.678 13.8873 109.04 14.1292 111.318 14.5593C113.603 14.9914 115.803 15.6131 117.921 16.4444C118.195 16.5509 118.329 16.8553 118.221 17.1235C118.112 17.3917 117.802 17.5226 117.528 17.4161C115.469 16.608 113.335 16.0044 111.119 15.5858C108.896 15.1656 106.589 14.9296 104.194 14.8581Z" fill="#FCC859"/>
<path fill-rule="evenodd" clip-rule="evenodd" d="M101.874 2.74309C102.517 2.86679 102.938 3.4787 102.813 4.1103C102.687 4.7419 102.064 5.15359 101.421 5.02999C100.777 4.90649 100.357 4.29439 100.482 3.66289C100.607 3.03139 101.23 2.61969 101.874 2.74309Z" fill="#FCC859"/>
<path d="M101.979 2.2301L101.986 2.23161C102.449 2.32391 102.831 2.58951 103.075 2.94461C103.317 3.2974 103.424 3.741 103.339 4.1931L103.336 4.2102C103.246 4.667 102.974 5.04511 102.609 5.28651C102.244 5.52781 101.784 5.63241 101.319 5.54321L101.307 5.54151C100.845 5.44991 100.463 5.1841 100.219 4.8285C99.9771 4.473 99.8699 4.02681 99.9566 3.57481L99.9581 3.5631C100.048 3.1063 100.32 2.72801 100.685 2.48691C101.05 2.24531 101.509 2.14051 101.975 2.22991L101.979 2.2301V2.2301ZM101.776 3.25751L101.768 3.25611C101.592 3.22311 101.419 3.2624 101.281 3.353C101.143 3.4444 101.04 3.58851 101.005 3.76291L101.004 3.7664C100.971 3.9395 101.012 4.1103 101.104 4.2451C101.199 4.38 101.344 4.4809 101.518 4.5155L101.522 4.5168C101.7 4.5507 101.875 4.51141 102.013 4.42031C102.148 4.33041 102.25 4.1902 102.287 4.0206L102.29 4.00791C102.323 3.83551 102.282 3.66451 102.188 3.52791C102.095 3.39291 101.951 3.29171 101.776 3.25751V3.25751Z" fill="#FCC859"/>
<path fill-rule="evenodd" clip-rule="evenodd" d="M113.884 1.3595C114.527 1.4831 114.948 2.0951 114.823 2.7266C114.697 3.3581 114.074 3.77 113.431 3.6463C112.787 3.5229 112.367 2.9107 112.492 2.2792C112.617 1.6477 113.24 1.236 113.884 1.3595Z" fill="#FCC859"/>
<path d="M113.986 0.846602L113.994 0.847998L113.891 1.361L113.997 0.847998C114.459 0.939598 114.841 1.2054 115.085 1.5611C115.328 1.9172 115.434 2.363 115.348 2.8154L115.346 2.8286C115.255 3.2847 114.984 3.6618 114.619 3.9029C114.254 4.1443 113.795 4.2488 113.329 4.1596L113.318 4.1579C112.855 4.0656 112.473 3.8003 112.229 3.4449C111.987 3.0924 111.88 2.6486 111.966 2.1964L111.968 2.1793C112.059 1.7225 112.33 1.3444 112.695 1.103C113.061 0.861698 113.52 0.757202 113.986 0.846602V0.846602ZM113.786 1.8737L113.78 1.8725C113.603 1.839 113.429 1.8784 113.292 1.9692C113.156 2.0591 113.054 2.1991 113.018 2.3689L113.014 2.3816C112.981 2.554 113.022 2.725 113.116 2.8616C113.209 2.9967 113.354 3.0978 113.527 3.132L113.536 3.1334C113.713 3.1664 113.886 3.1271 114.023 3.0367C114.161 2.9454 114.264 2.8012 114.299 2.6268L114.3 2.6178C114.333 2.4463 114.292 2.278 114.2 2.1444C114.105 2.0095 113.96 1.9087 113.786 1.8737V1.8737Z" fill="#FCC859"/>
<path fill-rule="evenodd" clip-rule="evenodd" d="M124.331 7.0982C124.974 7.2218 125.394 7.8338 125.269 8.4654C125.144 9.0969 124.521 9.50869 123.877 9.38519C123.234 9.26159 122.813 8.6496 122.938 8.0179C123.064 7.3864 123.687 6.9747 124.331 7.0982Z" fill="#FCC859"/>
<path d="M124.44 6.5853L124.447 6.5867C124.908 6.6808 125.289 6.9456 125.532 7.2998C125.774 7.6523 125.881 8.0963 125.796 8.5483L125.793 8.5654C125.703 9.0224 125.431 9.4003 125.066 9.6416C124.7 9.883 124.241 9.98749 123.776 9.89839L123.761 9.8966C123.3 9.8026 122.919 9.538 122.676 9.1836C122.434 8.8311 122.327 8.38699 122.412 7.93509L122.415 7.91799C122.505 7.46119 122.777 7.08309 123.142 6.84179C123.507 6.60039 123.967 6.4959 124.432 6.585L124.44 6.5853ZM124.228 7.61269L124.221 7.6112C124.046 7.5787 123.874 7.61829 123.738 7.70799C123.602 7.79779 123.501 7.93779 123.464 8.10759L123.461 8.1203C123.428 8.2927 123.469 8.4637 123.563 8.6003C123.656 8.7354 123.8 8.8365 123.974 8.8707L123.987 8.87219C124.162 8.90459 124.334 8.8651 124.47 8.7754C124.605 8.6858 124.707 8.5456 124.743 8.3758L124.747 8.36309C124.78 8.19059 124.738 8.01939 124.645 7.88309C124.552 7.74799 124.407 7.64689 124.234 7.61269H124.228Z" fill="#FCC859"/>
<path d="M101.421 6.92629C101.375 6.64099 101.573 6.37249 101.864 6.32709C102.155 6.28159 102.429 6.47629 102.475 6.76159C102.731 8.32689 102.94 9.89219 103.019 11.4546C103.089 12.8216 103.06 14.1924 102.878 15.5684C104.989 15.5347 107.271 15.7741 109.757 16.2517C112.345 16.749 115.155 17.505 118.227 18.4799C118.757 17.1972 119.336 15.9407 119.962 14.7098C120.659 13.337 121.426 11.9771 122.258 10.6312C122.409 10.3847 122.737 10.3056 122.988 10.4546C123.24 10.6036 123.321 10.9245 123.169 11.171C122.365 12.4735 121.613 13.8089 120.917 15.1773C120.228 16.5323 119.603 17.9034 119.045 19.2907C118.953 19.5657 118.652 19.7152 118.371 19.6253C115.153 18.5901 112.228 17.7918 109.554 17.2781C106.899 16.768 104.489 16.5382 102.281 16.6339C102.246 16.6342 102.209 16.6322 102.173 16.6264C101.882 16.5804 101.685 16.3117 101.731 16.0272C101.981 14.5278 102.028 13.0187 101.952 11.504C101.874 9.978 101.67 8.45149 101.421 6.92629V6.92629Z" fill="#FCC859"/>
<path d="M103.518 6.351C103.313 6.1436 103.318 5.8124 103.53 5.6118C103.741 5.4113 104.079 5.4172 104.284 5.6245L107.593 8.96281L111.422 4.6663C111.616 4.4493 111.953 4.42741 112.174 4.61741C112.396 4.80751 112.419 5.1377 112.225 5.3546L107.985 10.1096C107.774 10.3102 107.435 10.3043 107.231 10.0969L103.518 6.351Z" fill="#FCC859"/>
<path d="M113.842 5.6363C113.752 5.361 113.907 5.0661 114.188 4.9787C114.469 4.8912 114.769 5.0434 114.859 5.3187L116.668 10.8471L121.036 8.86361C121.303 8.74291 121.62 8.85701 121.744 9.11861C121.867 9.38021 121.751 9.6907 121.484 9.8114L116.604 12.0272C116.574 12.044 116.541 12.058 116.506 12.0687C116.226 12.1562 115.925 12.004 115.835 11.7287L113.842 5.6363Z" fill="#FCC859"/>
<path d="M104.194 14.8581C103.9 14.8493 103.669 14.6082 103.677 14.3199C103.686 14.0317 103.932 13.8053 104.226 13.8141C106.678 13.8873 109.04 14.1292 111.318 14.5593C113.603 14.9914 115.803 15.6131 117.921 16.4444C118.195 16.5509 118.329 16.8553 118.221 17.1235C118.112 17.3917 117.802 17.5226 117.528 17.4161C115.469 16.608 113.335 16.0044 111.119 15.5858C108.896 15.1656 106.589 14.9296 104.194 14.8581Z" fill="#FCC859"/>
<path fill-rule="evenodd" clip-rule="evenodd" d="M124.331 7.0982C124.974 7.2218 125.394 7.8338 125.269 8.4654C125.144 9.0969 124.521 9.50869 123.877 9.38519C123.234 9.26159 122.813 8.6496 122.938 8.0179C123.064 7.3864 123.687 6.9747 124.331 7.0982Z" fill="#FCC859"/>
<path d="M124.44 6.5853L124.447 6.5867C124.908 6.6808 125.289 6.9456 125.532 7.2998C125.774 7.6523 125.881 8.0963 125.796 8.5483L125.793 8.5654C125.703 9.0224 125.431 9.4003 125.066 9.6416C124.7 9.883 124.241 9.98749 123.776 9.89839L123.761 9.8966C123.3 9.8026 122.919 9.538 122.676 9.1836C122.434 8.8311 122.327 8.38699 122.412 7.93509L122.415 7.91799C122.505 7.46119 122.777 7.08309 123.142 6.84179C123.507 6.60039 123.967 6.4959 124.432 6.585L124.44 6.5853ZM124.228 7.61269L124.221 7.6112C124.046 7.5787 123.874 7.61829 123.738 7.70799C123.602 7.79779 123.501 7.93779 123.464 8.10759L123.461 8.1203C123.428 8.2927 123.469 8.4637 123.563 8.6003C123.656 8.7354 123.8 8.8365 123.974 8.8707L123.987 8.87219C124.162 8.90459 124.334 8.8651 124.47 8.7754C124.605 8.6858 124.707 8.5456 124.743 8.3758L124.747 8.36309C124.78 8.19059 124.738 8.01939 124.645 7.88309C124.552 7.74799 124.407 7.64689 124.234 7.61269H124.228Z" fill="#FCC859"/>
<path fill-rule="evenodd" clip-rule="evenodd" d="M124.331 7.0982C124.974 7.2218 125.394 7.8338 125.269 8.4654C125.144 9.0969 124.521 9.50869 123.877 9.38519C123.234 9.26159 122.813 8.6496 122.938 8.0179C123.064 7.3864 123.687 6.9747 124.331 7.0982Z" fill="#FCC859"/>
<path d="M124.44 6.5853L124.447 6.5867C124.908 6.6808 125.289 6.9456 125.532 7.2998C125.774 7.6523 125.881 8.0963 125.796 8.5483L125.793 8.5654C125.703 9.0224 125.431 9.4003 125.066 9.6416C124.7 9.883 124.241 9.98749 123.776 9.89839L123.761 9.8966C123.3 9.8026 122.919 9.538 122.676 9.1836C122.434 8.8311 122.327 8.38699 122.412 7.93509L122.415 7.91799C122.505 7.46119 122.777 7.08309 123.142 6.84179C123.507 6.60039 123.967 6.4959 124.432 6.585L124.44 6.5853ZM124.228 7.61269L124.221 7.6112C124.046 7.5787 123.874 7.61829 123.738 7.70799C123.602 7.79779 123.501 7.93779 123.464 8.10759L123.461 8.1203C123.428 8.2927 123.469 8.4637 123.563 8.6003C123.656 8.7354 123.8 8.8365 123.974 8.8707L123.987 8.87219C124.162 8.90459 124.334 8.8651 124.47 8.7754C124.605 8.6858 124.707 8.5456 124.743 8.3758L124.747 8.36309C124.78 8.19059 124.738 8.01939 124.645 7.88309C124.552 7.74799 124.407 7.64689 124.234 7.61269H124.228Z" fill="#FCC859"/>
</svg>
